<?xml version="1.0" encoding="UTF-8" ?>
<!DOCTYPE svg PUBLIC "-//W3C//DTD SVG 1.1//EN" "http://www.w3.org/Graphics/SVG/1.1/DTD/svg11.dtd">
<svg width="1206pt" height="757pt" viewBox="0 0 1206 757" version="1.1" xmlns="http://www.w3.org/2000/svg">
<path fill="#fdfdfd" stroke="#fdfdfd" stroke-width="0.09375" opacity="1.00" d=" M 757.9 78.9 C 761.7 77.3 762.1 72.0 766.3 71.0 C 765.9 72.6 765.2 74.1 764.3 75.4 C 762.8 78.1 761.0 80.6 759.4 83.3 C 761.8 82.2 764.1 81.0 766.6 80.0 C 766.6 80.8 766.6 82.4 766.5 83.2 C 767.4 83.5 769.1 84.0 769.9 84.3 C 767.7 85.7 765.1 86.3 762.6 87.1 C 762.8 87.4 763.2 88.1 763.4 88.4 C 761.7 90.8 763.4 93.4 763.9 95.9 C 762.9 96.3 761.8 96.6 760.8 96.9 C 759.5 95.6 758.2 94.3 756.9 93.1 C 756.1 95.3 756.0 98.0 753.6 99.2 C 753.4 96.4 753.3 93.6 753.3 90.8 C 749.4 92.8 748.7 98.5 743.9 99.1 C 745.1 95.9 747.7 93.5 749.4 90.6 C 747.7 90.8 745.9 90.9 744.2 91.0 C 745.2 89.5 746.1 87.9 747.3 86.5 C 748.8 86.1 750.4 86.1 751.9 85.9 C 752.7 84.5 753.3 83.1 754.0 81.6 C 754.0 81.0 754.0 79.7 754.0 79.0 C 753.3 78.3 752.7 77.6 752.0 76.9 C 753.3 74.4 756.1 73.6 758.6 72.9 C 758.9 74.9 758.6 76.9 757.9 78.9 Z" />
<path fill="#fdfdfd" stroke="#fdfdfd" stroke-width="0.09375" opacity="1.00" d=" M 569.0 144.2 C 569.5 144.0 570.6 143.4 571.2 143.1 C 570.8 143.9 570.4 144.7 570.0 145.4 C 571.0 146.5 570.8 147.5 569.6 148.2 C 569.4 146.9 569.1 145.6 569.0 144.2 Z" />
<path fill="#fdfdfd" stroke="#fdfdfd" stroke-width="0.09375" opacity="1.00" d=" M 714.0 469.9 C 714.6 470.0 715.8 470.3 716.4 470.4 C 717.6 475.7 719.8 480.7 720.7 486.0 C 721.1 490.8 722.3 495.4 723.9 499.9 C 724.2 503.8 723.9 507.7 724.0 511.6 C 725.2 513.6 726.1 515.7 727.1 517.7 C 728.6 518.6 730.1 519.6 731.6 520.5 C 733.1 518.8 733.4 515.4 735.9 514.9 C 738.0 518.0 740.5 521.0 744.1 522.4 C 744.4 520.5 744.5 518.6 745.1 516.9 C 746.7 516.7 747.5 518.2 748.6 519.0 C 749.8 518.1 750.7 517.0 751.6 515.8 C 752.5 516.1 753.5 516.4 754.5 516.7 C 756.9 517.2 759.8 517.6 761.0 520.0 C 760.6 517.8 762.0 516.3 764.1 517.4 C 764.3 514.5 763.6 511.8 762.9 509.1 C 763.7 509.1 765.2 509.2 766.0 509.2 C 766.3 504.1 766.0 499.0 764.1 494.1 C 764.6 489.1 762.6 484.2 763.3 479.1 C 764.0 478.7 764.8 478.4 765.6 478.0 C 766.1 481.3 765.5 484.8 766.9 487.9 C 769.0 492.9 769.9 498.2 770.2 503.5 C 771.0 507.3 771.8 511.0 773.3 514.6 C 773.9 516.1 774.0 517.8 774.9 519.2 C 777.0 520.3 779.6 521.1 781.9 520.1 C 787.8 519.9 793.7 520.1 799.5 520.0 C 799.3 518.4 799.0 516.7 798.9 515.1 C 800.2 515.0 801.5 515.0 802.8 514.9 C 805.2 516.8 803.2 518.4 801.7 519.8 C 803.0 521.0 804.7 521.2 806.5 521.0 C 808.6 519.6 811.2 520.0 813.6 520.0 C 814.6 519.3 815.5 518.7 816.5 518.1 C 817.0 518.0 818.1 518.0 818.7 518.0 C 822.3 515.7 825.7 513.0 828.8 509.9 C 829.6 510.0 831.3 510.1 832.2 510.1 C 831.9 512.3 831.2 514.4 830.3 516.4 C 829.7 518.4 828.9 520.2 828.2 522.1 C 829.9 520.9 831.6 519.5 833.1 518.0 C 834.8 519.4 836.4 521.7 838.9 521.2 C 844.0 520.7 849.3 521.2 854.2 522.8 C 852.5 524.9 850.6 527.1 849.0 529.4 C 850.4 529.9 851.9 530.0 853.5 530.0 C 855.2 528.7 857.2 527.6 858.2 525.5 C 858.7 526.3 859.0 527.0 859.4 527.8 C 860.7 526.8 862.4 527.1 864.0 527.0 C 866.7 527.1 869.4 526.2 872.1 526.9 C 880.1 525.2 888.4 526.4 896.6 525.9 C 898.6 525.1 900.9 525.0 903.1 524.9 C 910.8 524.1 918.3 522.4 926.1 521.9 C 933.5 520.6 941.0 519.5 948.6 518.7 C 953.0 517.8 957.5 516.9 962.1 517.0 C 979.5 514.3 997.0 513.0 1014.5 511.7 C 1020.2 510.3 1026.2 511.7 1031.9 510.4 C 1038.5 509.2 1045.3 511.0 1051.8 509.1 C 1056.5 509.1 1061.1 507.7 1065.8 508.0 C 1065.5 508.4 1065.0 509.4 1064.8 509.9 C 1068.6 512.0 1074.8 510.0 1077.2 514.3 C 1076.2 515.8 1075.0 517.3 1073.4 518.3 C 1069.4 521.4 1064.3 521.8 1059.8 523.9 C 1063.6 524.0 1067.4 524.4 1071.1 523.5 C 1075.5 522.3 1080.2 523.7 1084.6 522.4 C 1087.8 521.6 1091.3 522.4 1094.5 521.6 C 1098.5 520.6 1102.6 521.1 1106.6 521.0 C 1106.3 521.8 1105.8 523.4 1105.5 524.2 C 1109.6 523.2 1113.8 522.8 1118.0 523.0 C 1122.8 523.2 1128.0 522.1 1132.4 524.7 C 1135.8 526.0 1139.0 528.0 1141.2 530.8 C 1143.4 533.1 1140.2 536.3 1137.7 536.2 C 1138.5 535.3 1139.3 534.4 1140.2 533.5 C 1137.0 527.8 1130.2 525.5 1124.1 525.0 C 1113.3 524.9 1102.7 526.2 1092.1 527.8 C 1087.4 528.4 1082.3 527.2 1078.1 529.9 C 1082.2 530.2 1086.4 529.4 1090.2 531.1 C 1089.2 532.1 1088.2 533.1 1087.2 534.0 C 1088.9 534.0 1090.6 534.0 1092.3 534.0 C 1092.0 537.7 1087.8 536.7 1085.3 537.5 C 1081.6 537.8 1077.9 537.7 1074.2 538.3 C 1061.6 544.1 1047.3 541.3 1033.9 542.1 C 1035.7 543.5 1038.0 542.9 1040.0 543.0 C 1044.7 542.9 1049.3 543.2 1053.9 544.0 C 1064.0 544.1 1074.1 544.0 1084.2 544.0 C 1084.4 544.4 1084.8 545.3 1084.9 545.8 C 1078.3 546.8 1071.6 547.1 1065.0 546.0 C 1054.6 546.0 1044.1 545.9 1033.7 546.1 C 1037.6 548.3 1042.4 545.8 1046.4 547.9 C 1058.0 548.2 1069.5 547.7 1081.0 548.3 C 1097.0 548.6 1113.0 547.7 1129.0 548.1 C 1134.1 549.0 1139.5 549.6 1144.7 548.5 C 1149.5 548.8 1154.3 548.0 1159.1 548.0 C 1160.1 548.0 1160.9 548.5 1161.3 549.6 C 1156.6 550.9 1151.8 550.5 1147.0 550.9 C 1141.9 550.8 1137.1 553.2 1131.9 552.6 C 1124.3 551.9 1116.7 551.7 1109.2 552.2 C 1104.1 553.3 1099.0 552.9 1093.9 553.1 C 1088.4 554.2 1082.6 554.4 1077.1 553.1 C 1073.4 552.8 1069.6 553.2 1065.9 552.7 C 1060.7 551.4 1055.3 552.2 1050.0 552.0 C 1037.6 551.7 1025.3 552.5 1013.0 551.6 C 1007.2 550.2 1001.1 551.9 995.5 550.1 C 992.8 550.0 990.1 550.0 987.4 550.0 L 987.5 551.0 C 988.2 551.0 989.6 551.0 990.3 551.1 C 990.0 553.7 986.9 553.0 985.1 552.6 C 982.0 551.6 978.7 552.0 975.6 552.1 C 973.7 553.7 971.1 552.8 968.9 553.0 C 962.8 553.2 956.6 553.0 950.5 552.0 C 950.6 552.4 950.6 553.4 950.7 553.8 C 964.1 555.7 977.3 558.7 990.5 561.8 C 991.8 562.0 993.3 562.1 994.5 562.8 C 999.2 563.3 1003.9 564.5 1008.5 565.8 C 1014.5 566.8 1020.5 568.4 1026.5 569.7 C 1027.8 570.0 1029.2 570.2 1030.5 570.7 C 1039.7 573.1 1049.1 575.3 1058.3 577.8 C 1060.8 578.1 1063.2 578.9 1065.5 579.8 C 1066.8 580.0 1068.2 580.2 1069.5 580.7 C 1073.2 581.6 1076.8 582.5 1080.4 583.7 C 1082.5 584.1 1084.4 584.8 1086.4 585.3 C 1089.4 586.4 1092.5 586.7 1095.5 587.7 C 1097.8 588.2 1100.1 588.9 1102.4 589.7 C 1104.8 590.2 1107.1 590.9 1109.4 591.7 C 1115.8 593.2 1122.1 595.1 1128.4 596.7 C 1138.1 599.3 1147.7 601.8 1157.4 603.8 C 1163.1 604.7 1168.8 605.4 1174.4 606.7 C 1170.8 606.7 1166.8 607.8 1163.5 606.1 C 1161.2 606.0 1158.8 606.2 1156.6 605.2 C 1153.5 604.8 1150.5 604.2 1147.5 603.2 C 1145.9 603.0 1144.2 602.7 1142.6 602.3 C 1128.9 598.7 1115.0 595.5 1101.5 591.3 C 1097.7 590.8 1094.2 589.4 1090.6 588.2 C 1083.4 586.8 1076.6 584.4 1069.5 582.7 C 1068.3 582.0 1066.9 582.0 1065.6 581.8 C 1058.7 579.5 1051.5 578.3 1044.5 576.3 C 1043.1 576.0 1041.8 575.8 1040.5 575.3 C 1035.2 574.1 1029.8 572.8 1024.5 571.2 C 1000.0 566.1 975.7 560.1 951.0 555.7 C 950.6 555.6 949.9 555.3 949.5 555.2 C 945.8 554.8 942.1 554.2 938.5 553.2 C 934.5 552.8 930.4 552.1 926.5 551.2 C 916.1 549.4 905.6 547.8 895.1 546.5 C 892.0 545.6 888.6 546.5 885.6 545.1 C 883.2 545.0 880.8 545.1 878.5 544.4 C 875.5 543.6 872.3 544.5 869.5 543.1 C 866.5 543.0 863.4 543.2 860.6 542.1 C 856.4 542.1 852.2 541.9 848.1 541.0 C 841.3 541.3 834.7 539.6 827.9 539.9 C 821.3 538.5 814.6 539.2 807.9 538.9 C 803.0 537.1 797.6 538.8 792.6 537.3 C 785.7 537.5 778.9 537.4 772.1 536.6 C 768.8 535.0 765.5 537.1 762.6 538.7 C 761.3 539.3 760.0 540.0 758.6 540.2 C 760.4 538.8 762.3 537.5 764.1 536.1 C 758.9 535.7 753.4 536.6 748.5 535.1 C 740.8 535.0 733.1 535.2 725.4 534.1 C 717.8 533.7 710.1 534.6 702.6 533.2 C 696.0 532.7 689.4 533.3 682.9 532.5 C 675.6 531.3 668.0 532.9 660.8 531.2 C 658.8 530.7 656.7 531.1 654.8 531.7 C 649.9 530.3 644.6 531.3 639.5 530.8 L 638.4 530.0 C 636.1 530.0 633.8 530.0 631.5 530.2 C 624.5 529.8 617.5 529.5 610.5 530.1 C 608.5 531.6 605.8 530.7 603.4 531.4 C 598.9 532.5 594.3 531.7 589.7 532.2 C 584.9 532.3 580.1 532.0 575.5 530.5 C 576.4 529.3 577.9 528.8 579.2 528.0 C 573.3 527.9 567.4 528.1 561.4 528.0 C 561.5 528.4 561.7 529.3 561.8 529.7 C 556.5 532.1 550.6 530.6 545.0 531.0 C 535.7 531.4 526.4 530.5 517.1 529.4 C 513.3 528.6 509.2 529.5 505.6 528.1 C 500.6 527.4 495.9 529.1 491.0 529.0 C 483.5 529.0 476.0 529.0 468.5 529.0 C 467.4 530.2 466.1 531.1 464.5 531.3 C 461.5 532.6 458.1 531.8 455.0 531.9 C 449.8 531.5 444.7 532.1 439.6 532.0 C 440.5 529.5 443.1 530.1 445.2 529.8 C 440.4 528.0 435.0 529.4 430.0 529.0 C 421.0 530.1 412.0 530.1 403.0 529.9 C 394.0 530.2 385.0 529.9 375.9 530.0 C 368.6 532.1 360.8 530.3 353.2 531.2 C 343.5 532.8 333.6 531.0 324.0 533.0 C 317.4 533.2 310.7 532.5 304.1 533.6 C 297.5 534.7 290.7 533.2 284.1 534.7 C 278.5 535.6 272.7 534.2 267.1 535.7 C 262.9 536.4 258.6 535.8 254.4 536.1 C 250.4 537.6 246.0 536.5 241.9 537.5 C 237.1 538.4 232.2 537.6 227.5 538.4 C 223.8 539.5 219.9 538.5 216.2 539.6 C 213.3 540.4 210.3 539.7 207.4 540.3 C 203.2 541.5 198.8 540.8 194.4 541.1 C 190.7 542.5 186.7 541.6 182.9 542.4 C 177.8 543.2 172.6 542.9 167.4 543.3 C 162.7 544.4 157.8 543.8 153.0 544.0 C 142.0 545.1 131.0 544.8 120.0 545.0 C 115.3 545.1 110.6 544.4 105.9 545.3 C 99.7 544.1 93.3 544.8 86.9 544.5 C 82.2 543.7 77.3 544.2 72.6 543.2 C 68.0 542.3 63.6 543.9 59.1 543.1 C 58.7 543.2 57.8 543.3 57.4 543.4 C 55.5 543.0 53.8 542.0 52.0 541.6 C 47.8 541.5 43.5 541.1 39.6 539.4 C 38.2 539.1 36.7 538.8 35.3 538.6 C 35.3 538.1 35.2 537.0 35.2 536.4 C 42.9 535.9 50.6 536.1 58.4 536.5 C 60.4 537.2 62.5 537.0 64.6 536.8 C 72.7 537.2 80.9 537.3 89.0 537.3 C 94.6 537.1 100.2 535.6 105.8 537.0 C 113.5 537.6 121.4 538.0 129.0 536.4 C 133.9 535.4 138.8 535.6 143.7 534.8 C 147.2 533.7 150.9 533.5 154.5 533.1 C 155.1 532.7 156.2 532.0 156.7 531.7 C 157.2 528.9 160.5 528.7 162.6 527.8 C 165.7 525.6 169.4 524.4 172.6 522.4 C 176.3 522.7 179.9 521.2 183.6 520.8 C 188.8 519.2 194.3 518.9 199.6 517.8 C 201.6 516.8 203.6 515.7 205.6 514.7 C 207.7 513.8 209.7 512.7 211.8 511.8 C 213.1 510.0 214.2 508.0 216.5 507.5 C 228.8 504.9 241.3 502.7 254.0 503.0 C 259.8 502.3 265.6 501.9 271.5 501.9 C 274.1 500.7 277.1 501.0 279.9 501.0 C 284.8 501.0 289.6 501.1 294.5 500.9 C 298.8 499.1 303.7 500.4 308.3 500.0 C 308.0 500.6 307.4 501.7 307.1 502.3 C 314.4 502.1 321.6 502.6 328.9 502.4 C 330.4 502.2 330.7 503.8 331.3 504.8 C 332.3 505.4 333.3 506.1 334.3 506.7 C 335.4 507.4 336.5 508.1 337.5 508.9 C 342.2 510.9 347.3 507.6 352.0 509.9 C 361.5 508.0 371.2 506.0 380.2 502.3 C 381.3 502.1 382.4 501.9 383.5 501.8 C 384.8 500.9 386.4 501.0 388.0 501.0 C 393.0 501.1 398.2 500.5 403.1 502.1 C 405.8 503.2 408.8 502.7 411.4 503.8 C 414.8 504.2 418.1 505.0 421.4 505.7 C 423.2 506.1 425.0 506.6 426.4 507.9 C 428.8 509.2 431.4 508.6 433.9 508.6 C 436.5 508.8 434.3 511.0 433.5 511.7 C 435.4 512.7 437.5 513.7 438.3 515.9 C 451.6 521.2 466.2 517.5 479.9 520.0 C 483.7 520.0 487.4 520.1 491.1 520.3 C 490.4 521.0 488.9 522.3 488.2 523.0 C 490.2 523.1 492.1 522.7 493.9 522.1 C 496.3 522.0 498.7 522.0 501.1 521.5 C 504.8 522.6 508.9 521.2 512.5 522.9 C 513.1 522.9 514.4 523.0 515.0 523.1 C 515.2 522.3 515.7 520.9 516.0 520.1 C 517.1 521.3 518.5 522.4 520.4 522.0 C 519.2 521.3 517.9 520.7 516.7 520.0 C 517.9 520.0 520.4 520.0 521.6 520.0 C 523.1 518.3 524.6 516.7 526.3 515.2 C 528.5 513.1 531.8 514.5 534.5 513.8 C 539.8 514.2 545.1 513.7 550.4 514.6 C 551.4 514.8 552.4 514.9 553.4 515.1 C 554.4 514.1 555.4 513.2 556.6 512.6 C 556.7 513.4 556.8 515.1 556.9 515.9 C 559.5 515.9 562.2 516.8 564.8 516.1 C 568.2 514.2 572.2 515.5 575.8 514.3 C 578.1 515.0 580.4 516.0 582.8 516.2 C 583.8 514.3 583.7 511.5 586.0 510.5 C 586.0 509.3 586.0 508.1 586.0 506.9 C 585.5 506.8 584.4 506.7 583.9 506.7 C 584.5 505.4 585.0 504.1 585.6 502.9 C 585.2 502.4 584.5 501.4 584.1 501.0 C 585.4 499.5 586.2 497.8 586.7 496.0 C 585.9 495.9 584.4 495.7 583.6 495.6 C 584.3 493.4 586.9 492.6 588.9 491.7 C 590.8 490.0 589.5 487.2 590.4 485.0 C 591.5 481.5 590.8 477.7 591.0 474.1 C 591.5 474.0 592.6 474.0 593.1 474.0 C 593.1 477.1 591.3 482.0 595.2 483.5 C 594.7 485.2 593.6 486.8 594.4 488.5 C 595.3 491.8 594.9 495.3 595.0 498.7 C 595.5 498.9 596.4 499.3 596.8 499.6 C 597.4 502.4 597.0 505.2 595.8 507.8 C 594.6 510.1 595.1 512.8 595.0 515.3 C 596.4 514.2 597.8 513.1 599.5 512.7 C 599.9 513.3 600.7 514.4 601.2 515.0 C 601.8 515.0 603.1 515.0 603.7 515.0 C 604.3 516.9 604.9 518.9 604.9 521.0 C 607.7 521.0 610.6 520.8 613.2 521.8 C 614.4 522.3 615.4 521.3 616.5 521.0 C 618.2 523.6 620.0 520.3 621.3 519.2 C 623.1 518.4 625.5 517.1 627.4 518.7 C 630.0 520.0 631.6 522.7 634.3 524.0 C 637.3 522.9 641.1 523.9 643.4 521.6 C 641.2 521.9 639.0 522.0 636.9 522.0 C 641.9 518.8 648.0 520.4 653.6 520.1 L 654.7 521.1 C 657.7 520.4 660.4 518.6 663.0 517.0 C 664.3 517.4 665.6 517.9 666.9 518.2 C 667.0 516.5 667.3 514.7 667.4 513.0 C 668.0 513.0 669.2 513.1 669.8 513.1 C 670.0 515.1 669.6 517.4 671.7 518.5 C 672.2 515.6 672.4 511.3 675.9 510.7 L 676.0 512.1 C 677.4 511.8 678.6 512.0 679.5 513.0 C 680.1 513.0 681.1 513.0 681.6 513.0 C 682.2 514.7 682.9 516.3 683.6 517.9 C 683.7 515.4 684.8 513.4 686.5 511.7 C 688.8 512.4 689.3 515.1 690.3 517.0 L 690.9 517.0 C 691.2 515.0 691.7 513.0 692.2 511.0 C 692.7 511.0 693.6 511.0 694.0 511.0 C 694.0 511.8 694.0 513.3 694.0 514.0 C 694.5 514.0 695.5 514.0 696.0 514.0 C 696.0 513.5 696.0 512.5 696.0 512.0 C 696.5 512.0 697.5 512.0 698.0 512.0 C 698.0 514.8 698.0 517.6 698.0 520.4 C 699.6 518.2 700.2 515.7 700.2 513.0 C 700.8 511.1 702.9 512.2 704.0 513.1 C 704.2 511.8 704.0 509.6 706.1 509.9 C 706.7 510.9 707.0 512.0 706.9 513.3 C 707.7 512.8 708.6 512.3 709.5 511.8 C 710.0 509.2 709.7 506.7 709.0 504.1 C 708.9 494.1 709.0 484.0 709.0 474.0 C 709.5 474.0 710.5 474.0 711.0 474.0 C 711.4 476.7 710.0 480.0 712.2 482.2 C 712.2 480.5 712.1 478.8 712.1 477.1 C 712.8 477.1 714.3 477.2 715.0 477.2 C 715.1 474.7 715.0 472.2 714.0 469.9 M 592.1 496.0 C 593.4 495.7 593.7 494.9 593.2 493.6 C 591.9 493.8 591.5 494.6 592.1 496.0 M 588.1 503.7 C 589.3 504.1 590.1 501.9 589.6 501.0 C 588.1 500.3 587.4 502.7 588.1 503.7 M 278.5 503.0 L 278.5 504.1 C 282.4 504.3 286.4 504.2 290.4 505.0 C 291.8 504.1 293.5 503.8 295.1 503.2 C 289.6 502.7 284.0 503.1 278.5 503.0 M 595.2 503.3 L 595.1 504.0 L 595.8 504.0 L 595.8 503.3 L 595.2 503.3 M 407.7 504.7 C 407.9 506.0 408.2 507.2 409.2 508.0 C 411.6 507.4 414.0 506.9 416.4 506.6 C 413.6 505.5 410.7 504.9 407.7 504.7 M 329.0 507.7 C 329.4 507.5 330.3 507.1 330.8 506.9 C 330.5 506.5 330.0 505.7 329.7 505.3 C 328.5 505.8 328.3 506.6 329.0 507.7 M 396.5 506.2 C 393.3 507.5 389.7 507.5 386.7 509.0 C 390.5 508.9 394.3 509.2 398.1 508.9 C 400.8 508.0 403.6 508.0 406.4 507.9 C 405.9 506.9 405.4 505.9 404.8 504.9 C 402.0 504.9 399.3 506.0 396.5 506.2 M 588.2 506.3 C 587.1 507.2 587.8 510.3 589.2 508.4 C 590.6 507.5 589.7 504.7 588.2 506.3 M 316.4 507.4 C 312.8 507.9 309.0 507.3 305.7 508.9 C 312.6 509.1 319.7 509.2 326.2 507.1 C 322.9 506.9 319.6 506.8 316.4 507.4 M 421.9 508.1 L 421.9 508.9 C 422.4 508.9 423.2 508.9 423.6 508.9 L 423.6 508.1 C 423.2 508.1 422.4 508.1 421.9 508.1 M 335.4 509.3 C 334.2 510.1 334.2 510.7 335.5 511.3 C 336.8 510.5 336.8 509.9 335.4 509.3 M 359.9 510.3 C 360.4 511.5 364.4 511.6 365.0 510.3 C 363.4 509.7 361.4 509.7 359.9 510.3 M 396.8 511.7 C 398.1 512.3 399.5 512.3 400.9 511.8 C 400.8 510.4 397.1 510.5 396.8 511.7 M 406.5 511.0 C 405.2 511.6 404.0 512.2 402.7 512.8 C 405.2 513.1 407.7 513.2 410.1 512.4 C 412.7 511.4 415.8 512.8 418.2 511.1 C 414.3 510.8 410.4 511.0 406.5 511.0 M 301.1 512.8 C 299.0 513.0 296.7 512.6 294.9 513.9 C 301.0 514.1 307.2 514.5 313.0 512.5 C 309.1 511.1 305.0 512.8 301.1 512.8 M 371.5 512.1 C 370.5 512.7 369.3 513.0 368.1 513.0 C 364.2 512.9 360.4 514.1 356.5 514.2 C 355.0 515.0 353.3 515.0 351.6 515.4 C 354.0 516.3 356.6 516.1 359.1 515.9 C 363.3 514.9 367.7 515.0 371.9 514.1 C 373.7 513.6 375.2 515.1 377.0 515.0 C 378.8 515.5 378.9 513.1 379.3 512.0 C 376.7 512.0 374.1 512.0 371.5 512.1 M 423.0 513.0 C 423.8 513.7 424.6 514.3 425.4 515.0 C 427.8 515.0 430.2 514.8 432.4 515.9 C 433.8 516.0 435.1 516.0 436.5 516.0 C 434.8 514.1 432.7 512.5 430.2 512.0 C 427.9 513.0 425.5 513.1 423.0 513.0 M 828.6 512.0 C 828.7 515.2 831.7 510.5 828.6 512.0 M 1043.5 512.0 C 1041.2 514.5 1037.6 514.6 1034.4 515.2 C 1031.8 516.0 1029.1 516.7 1026.4 517.2 C 1020.7 518.7 1014.5 518.6 1009.2 521.2 C 1017.7 521.3 1026.0 523.8 1034.6 522.9 C 1036.2 522.3 1037.9 522.0 1039.6 521.8 C 1046.4 518.9 1053.8 516.8 1059.5 512.0 C 1054.2 512.0 1048.9 512.0 1043.5 512.0 M 1063.5 512.0 C 1061.0 514.5 1057.7 516.1 1054.6 517.7 C 1051.1 520.3 1046.7 521.0 1042.9 522.9 C 1048.2 523.6 1053.4 522.4 1058.6 521.9 C 1062.7 520.6 1066.8 519.6 1070.7 517.8 C 1072.0 516.7 1073.3 515.6 1074.4 514.2 C 1071.5 513.2 1068.4 513.1 1065.5 512.1 C 1065.0 512.1 1064.0 512.0 1063.5 512.0 M 317.5 514.0 L 317.5 515.0 C 322.0 515.0 326.6 515.1 331.1 515.0 C 333.9 514.9 337.2 512.8 339.6 515.0 C 342.5 515.1 345.2 513.7 348.1 513.9 L 348.1 513.0 C 340.7 513.1 333.4 512.8 326.0 513.1 C 323.3 514.2 320.3 514.1 317.5 514.0 M 588.2 513.2 C 587.0 514.6 589.1 517.0 590.5 515.5 C 591.9 514.3 589.5 512.1 588.2 513.2 M 205.8 517.8 C 206.5 517.9 207.9 518.0 208.5 518.0 C 209.9 517.2 211.3 516.4 211.7 514.7 C 209.5 515.4 207.6 516.5 205.8 517.8 M 584.2 516.9 C 585.5 517.1 586.1 516.5 585.9 515.1 C 584.6 514.9 584.0 515.5 584.2 516.9 M 982.5 516.1 C 975.5 518.5 968.1 517.3 961.1 518.9 C 954.8 519.4 948.6 520.8 942.3 521.0 C 942.2 521.2 942.1 521.7 942.0 521.9 C 949.1 522.2 956.4 522.4 963.4 520.8 C 966.0 521.0 968.5 520.1 971.2 520.2 C 980.4 520.3 989.2 516.4 998.3 515.9 L 998.3 515.0 C 992.9 514.4 987.8 516.3 982.5 516.1 M 528.3 516.0 C 527.9 516.5 527.0 517.6 526.6 518.1 C 529.2 518.9 531.8 519.2 534.5 518.9 C 535.7 518.7 536.9 518.5 538.1 518.1 C 536.6 515.4 533.4 518.0 531.5 516.1 C 530.4 516.0 529.4 516.0 528.3 516.0 M 539.8 516.3 C 540.3 517.7 543.2 517.2 544.4 516.7 C 543.8 515.3 541.0 515.7 539.8 516.3 M 573.4 516.2 C 572.9 517.9 577.8 517.9 576.9 516.1 C 575.7 515.5 574.6 515.6 573.4 516.2 M 708.1 515.1 C 708.0 517.8 708.0 520.5 708.0 523.2 C 708.6 523.1 709.7 522.9 710.2 522.8 C 709.6 520.2 711.4 516.0 708.1 515.1 M 366.7 518.7 C 370.5 517.9 374.4 518.0 378.3 517.9 C 377.8 517.7 376.7 517.2 376.2 517.0 C 373.1 517.5 368.8 515.6 366.7 518.7 M 672.3 521.7 C 673.5 522.0 674.8 522.0 676.0 522.0 C 677.8 520.8 676.7 518.3 677.0 516.6 C 675.3 518.2 673.5 519.7 672.3 521.7 M 714.4 521.1 C 714.7 519.7 714.5 517.9 713.8 516.7 C 712.1 517.0 713.0 520.9 714.4 521.1 M 596.1 518.4 C 598.8 519.2 602.0 522.2 604.6 519.7 C 602.6 517.3 598.9 517.2 596.1 518.4 M 995.6 519.1 C 995.6 519.6 995.6 520.6 995.6 521.1 C 999.2 520.4 1002.8 519.8 1006.5 519.9 C 1007.3 519.6 1008.7 519.0 1009.5 518.6 L 1009.5 517.8 C 1004.9 518.7 1000.3 519.3 995.6 519.1 M 523.9 521.9 C 524.6 521.9 525.9 521.9 526.6 521.9 C 526.6 521.5 526.7 520.7 526.7 520.3 C 526.2 517.9 523.7 520.8 523.9 521.9 M 585.2 519.0 C 585.6 519.5 586.5 520.5 586.9 521.0 C 589.0 521.0 591.0 521.1 593.1 521.1 C 592.5 520.6 591.4 519.5 590.8 519.0 C 588.9 519.0 587.1 519.0 585.2 519.0 M 685.4 522.8 C 686.8 522.6 686.6 520.0 685.9 519.1 C 684.6 519.4 684.8 521.8 685.4 522.8 M 701.7 522.5 C 703.2 522.0 703.6 519.2 701.8 518.9 C 700.4 519.2 700.3 522.1 701.7 522.5 M 724.9 524.9 C 726.8 525.1 728.6 525.0 730.5 525.0 C 729.9 521.7 727.3 519.8 724.7 518.1 C 723.9 520.1 723.2 523.2 724.9 524.9 M 765.6 523.5 C 766.1 524.2 767.0 525.7 767.5 526.4 C 767.4 523.6 767.0 520.9 766.8 518.1 C 765.1 519.4 764.3 521.6 765.6 523.5 M 580.3 520.1 C 580.4 523.4 583.5 518.7 580.3 520.1 M 621.7 521.3 C 622.0 521.7 622.7 522.6 623.0 523.0 C 625.1 523.0 627.3 523.0 629.5 523.0 C 628.1 521.9 626.7 521.0 625.4 519.9 C 624.0 520.0 622.8 520.5 621.7 521.3 M 305.6 521.1 C 306.0 524.3 308.7 519.6 305.6 521.1 M 479.8 521.0 C 479.8 521.5 479.8 522.5 479.8 523.0 C 482.4 522.4 487.0 524.6 487.7 521.0 C 485.0 521.0 482.4 521.0 479.8 521.0 M 531.7 521.0 L 531.7 522.0 C 540.2 522.5 548.8 523.8 557.4 522.9 L 557.5 522.0 C 554.8 521.6 551.5 523.0 549.4 521.0 C 543.5 521.0 537.6 521.0 531.7 521.0 M 733.1 522.6 C 734.3 523.5 736.3 522.9 737.2 521.7 C 736.6 520.3 732.2 520.3 733.1 522.6 M 749.2 521.0 L 749.2 521.6 L 749.8 521.7 L 749.8 521.0 L 749.2 521.0 M 197.4 522.2 L 197.4 522.8 L 198.0 522.8 L 198.0 522.2 L 197.4 522.2 M 651.4 522.3 C 651.6 523.6 652.3 523.8 653.5 522.9 C 653.2 521.6 652.5 521.4 651.4 522.3 M 935.7 522.3 C 936.4 523.6 939.5 523.2 940.9 522.7 C 940.4 520.9 937.1 522.2 935.7 522.3 M 457.0 523.5 C 457.0 523.9 457.0 524.6 457.0 524.9 C 459.6 524.9 462.3 526.1 464.8 524.5 C 464.1 524.4 462.6 524.1 461.9 523.9 C 460.3 523.8 458.6 523.7 457.0 523.5 M 659.4 523.0 C 662.0 525.5 665.9 524.0 669.0 523.6 C 667.6 522.9 666.0 523.0 664.4 523.2 C 662.7 523.0 661.1 523.0 659.4 523.0 M 753.3 523.1 C 753.6 524.4 754.3 524.6 755.7 523.7 C 755.4 522.4 754.6 522.2 753.3 523.1 M 835.1 526.0 C 839.4 526.6 843.5 525.1 847.4 523.3 C 843.9 522.9 840.4 522.9 836.9 523.1 C 836.2 524.0 835.7 525.0 835.1 526.0 M 1089.0 524.0 C 1087.2 524.1 1085.2 523.6 1083.8 525.1 C 1089.8 525.0 1095.7 525.3 1101.5 523.8 L 1101.4 523.0 C 1097.2 522.6 1093.2 524.3 1089.0 524.0 M 325.5 525.9 C 329.4 526.0 333.3 526.1 337.1 526.0 C 336.0 525.4 334.8 524.7 333.6 524.0 C 330.9 524.5 326.9 522.6 325.5 525.9 M 480.0 525.0 C 476.7 525.0 472.8 523.7 470.0 526.2 C 475.6 525.9 481.2 526.5 486.8 526.6 C 492.0 525.8 497.3 526.0 502.6 526.0 C 503.2 525.6 504.2 524.8 504.7 524.4 C 505.8 524.6 507.9 524.9 508.9 525.1 C 506.2 522.9 502.2 524.4 498.9 524.0 C 492.7 525.6 486.3 524.9 480.0 525.0 M 737.2 524.2 L 737.2 524.8 L 737.9 524.8 L 737.9 524.2 L 737.2 524.2 M 772.6 523.7 C 773.2 525.0 774.2 526.0 775.2 527.0 C 777.1 527.0 779.1 527.0 781.0 527.0 L 781.0 526.2 C 779.5 525.7 778.0 524.4 776.4 525.5 C 775.1 524.9 773.9 524.2 772.6 523.7 M 797.9 524.9 C 799.2 525.3 800.5 525.3 801.8 524.7 C 801.8 523.4 798.0 523.5 797.9 524.9 M 954.3 524.2 C 949.2 525.6 943.9 525.7 938.8 526.9 C 948.3 527.4 957.9 526.3 967.3 524.8 L 967.3 524.0 C 963.0 524.1 958.6 523.7 954.3 524.2 M 248.2 525.2 L 248.2 525.9 L 248.9 525.8 L 248.8 525.2 L 248.2 525.2 M 252.6 525.9 C 256.6 526.2 260.5 525.8 264.5 526.0 L 264.5 525.0 C 260.6 525.6 256.2 524.0 252.6 525.9 M 403.0 526.7 C 407.5 527.6 412.2 527.1 416.4 525.2 C 411.8 524.1 407.4 525.8 403.0 526.7 M 599.8 525.1 C 600.5 525.5 601.8 526.4 602.4 526.9 C 607.1 527.2 611.8 526.9 616.5 527.0 L 616.5 526.1 C 614.3 526.1 612.2 525.9 610.1 525.1 C 606.7 524.8 603.2 525.0 599.8 525.1 M 643.3 525.7 C 645.0 525.9 648.2 526.8 649.3 525.3 C 647.6 524.8 644.5 524.2 643.3 525.7 M 760.1 525.2 C 758.7 527.4 764.1 527.4 762.8 525.2 C 762.1 525.2 760.8 525.2 760.1 525.2 M 783.6 524.8 L 784.9 525.8 C 789.0 525.7 793.6 527.0 797.3 525.0 C 794.7 524.9 792.1 524.9 789.5 525.3 C 787.5 525.0 785.5 524.9 783.6 524.8 M 820.9 527.7 C 822.2 528.2 824.7 526.8 823.8 525.3 C 822.5 524.3 820.4 526.4 820.9 527.7 M 906.9 526.4 C 909.9 527.7 913.0 525.4 916.1 525.6 C 913.1 524.0 910.1 526.5 906.9 526.4 M 340.9 526.1 C 342.4 527.3 344.3 526.9 346.1 527.0 C 349.2 527.1 352.4 527.5 355.5 527.0 L 355.4 526.0 C 350.6 526.0 345.8 525.9 340.9 526.1 M 358.0 527.9 C 363.3 526.4 369.2 528.7 374.1 526.1 C 369.7 525.9 365.2 526.0 360.7 526.0 C 360.0 526.5 358.7 527.4 358.0 527.9 M 834.5 528.0 L 834.5 529.0 C 838.8 529.0 843.2 529.0 847.5 529.0 C 847.1 527.9 846.6 526.9 846.2 525.9 C 842.5 527.3 838.5 528.3 834.5 528.0 M 986.8 527.2 L 985.8 528.5 C 991.1 528.4 996.5 527.8 1001.9 528.0 C 1005.3 528.3 1008.6 526.8 1012.0 527.0 C 1013.7 526.8 1016.0 527.6 1017.2 525.8 C 1007.0 524.8 996.9 526.4 986.8 527.2 M 1028.1 526.2 C 1028.6 527.3 1029.6 527.5 1031.0 526.8 L 1031.0 526.2 C 1030.3 526.2 1028.8 526.2 1028.1 526.2 M 219.5 528.0 L 219.5 529.0 C 225.4 528.6 231.7 529.9 237.5 528.1 C 236.9 527.8 235.7 527.3 235.1 527.0 C 229.9 527.3 224.8 528.5 219.5 528.0 M 981.7 528.8 C 982.8 529.4 986.0 529.4 985.7 527.6 C 984.6 527.5 981.8 527.4 981.7 528.8 M 526.5 528.0 L 526.5 529.0 C 532.6 529.3 538.7 529.2 544.7 529.7 C 548.9 530.0 553.3 530.0 557.1 528.1 C 546.9 527.8 536.7 528.1 526.5 528.0 M 664.6 528.9 L 664.5 530.0 C 669.2 530.0 673.9 529.9 678.5 530.1 L 678.5 529.0 C 673.8 529.0 669.2 528.9 664.6 528.9 M 291.8 529.4 C 278.1 529.8 264.3 529.8 250.6 530.3 C 251.6 530.7 252.6 530.9 253.7 530.9 C 264.4 531.2 275.2 530.6 286.0 531.4 C 295.0 531.4 304.0 530.8 313.1 530.9 C 309.3 528.5 304.2 531.5 300.5 529.1 C 297.6 528.9 294.6 528.9 291.8 529.4 M 447.6 529.7 L 448.8 530.8 C 453.4 531.6 458.2 530.7 462.9 531.0 C 463.3 530.5 464.2 529.4 464.6 528.9 C 458.9 529.5 453.3 530.4 447.6 529.7 M 680.8 529.1 C 685.7 532.6 692.0 530.3 697.5 531.0 L 697.4 530.2 C 695.9 530.3 694.6 529.9 693.4 529.1 C 689.2 529.0 685.0 528.9 680.8 529.1 M 764.6 531.3 C 765.7 531.3 768.6 531.8 768.7 530.2 C 767.5 529.7 763.2 528.9 764.6 531.3 M 857.7 528.6 C 857.7 529.2 857.6 530.4 857.6 531.0 C 863.7 531.2 869.9 530.4 875.9 531.8 C 881.0 532.2 886.1 532.6 891.0 533.9 C 898.3 534.5 905.5 533.1 912.7 534.1 C 913.8 533.4 914.8 532.7 915.9 532.0 C 911.9 532.0 907.9 532.3 904.0 531.1 C 902.6 531.5 901.2 531.9 899.7 532.1 C 895.1 529.2 889.2 530.6 884.1 529.1 C 875.9 528.8 867.7 528.9 859.4 529.1 C 859.0 529.0 858.1 528.7 857.7 528.6 M 911.6 530.8 C 915.8 531.4 920.2 530.4 924.3 531.8 C 929.7 532.7 935.1 530.7 940.5 530.9 L 940.5 530.0 C 932.5 529.8 924.4 530.6 916.5 529.2 C 914.8 529.7 913.2 530.1 911.6 530.8 M 958.5 529.8 C 959.7 530.6 960.5 530.4 960.9 529.2 C 959.6 528.4 958.8 528.6 958.5 529.8 M 588.1 530.2 L 588.1 530.8 L 588.7 530.8 L 588.7 530.2 L 588.1 530.2 M 165.8 531.1 C 166.0 534.2 169.0 529.6 165.8 531.1 M 705.7 531.1 C 709.8 532.9 714.6 531.7 719.0 531.9 C 714.9 530.0 710.1 531.4 705.7 531.1 M 754.9 531.8 C 755.4 531.9 756.3 532.1 756.7 532.2 C 759.4 531.3 754.5 529.7 754.9 531.8 M 1068.6 531.0 L 1068.6 532.0 C 1071.9 532.0 1075.1 532.0 1078.4 532.0 L 1078.3 531.0 C 1075.0 531.0 1071.8 531.0 1068.6 531.0 M 772.8 533.7 C 776.7 534.0 780.5 535.4 784.5 535.0 L 784.6 534.4 C 783.8 534.1 782.3 533.5 781.5 533.2 C 778.6 532.3 775.5 532.4 772.8 533.7 M 798.6 533.0 C 797.4 534.2 795.6 533.9 794.1 534.2 C 794.8 534.8 795.5 535.4 796.2 536.0 C 800.7 536.2 805.4 535.5 809.9 536.5 C 815.0 537.8 820.4 536.2 825.5 537.5 C 829.2 538.6 833.1 537.5 836.9 538.5 C 841.6 539.7 846.7 538.3 851.4 539.6 C 854.5 540.4 857.8 539.5 860.9 540.4 C 864.3 541.4 867.9 540.8 871.4 541.6 C 874.4 542.3 877.6 541.6 880.5 542.9 C 882.8 543.0 885.3 542.8 887.6 543.5 C 890.5 544.4 893.7 543.5 896.5 544.9 C 905.1 545.2 913.5 547.6 922.1 548.2 C 924.1 548.8 926.1 549.3 928.2 548.7 C 922.7 547.5 917.0 546.6 911.5 545.2 C 906.5 544.4 901.5 543.4 896.5 542.2 C 888.9 541.4 881.7 538.6 874.0 538.0 C 862.5 535.8 850.6 537.7 839.0 536.0 C 834.5 536.0 829.9 536.3 825.5 535.2 C 824.8 535.2 824.1 535.2 823.5 535.3 C 819.7 534.9 815.8 535.2 812.1 534.1 C 807.6 534.1 803.1 533.7 798.6 533.0 M 1023.0 534.0 C 1021.2 534.2 1019.0 533.4 1017.7 535.1 C 1022.2 535.7 1026.7 534.8 1031.1 535.5 C 1035.2 536.2 1039.3 536.1 1043.5 535.8 C 1058.3 536.1 1073.1 536.2 1087.9 535.9 C 1084.8 534.0 1080.8 535.7 1077.6 534.1 C 1072.2 533.6 1066.6 534.8 1061.5 533.1 C 1055.3 532.9 1049.1 533.0 1043.0 533.0 C 1036.4 534.1 1029.6 534.0 1023.0 534.0 M 177.9 536.1 C 178.6 536.0 180.1 535.9 180.8 535.8 L 180.6 535.2 C 179.0 534.7 178.1 534.9 177.9 536.1 M 941.6 535.0 L 941.6 536.2 C 948.7 537.5 955.9 536.9 963.0 536.9 C 962.5 536.7 961.5 536.2 961.0 536.0 C 954.6 535.3 948.1 534.8 941.6 535.0 M 189.2 537.1 C 189.5 540.3 192.4 535.6 189.2 537.1 M 205.9 538.1 C 207.4 538.7 208.3 538.5 208.6 537.2 C 207.2 536.6 206.3 536.9 205.9 538.1 M 1004.6 537.7 L 1005.3 538.5 C 1009.6 537.8 1014.0 537.8 1018.3 537.9 L 1018.8 537.0 C 1014.1 537.1 1009.3 536.7 1004.6 537.7 M 181.2 538.1 C 181.5 541.3 184.4 536.6 181.2 538.1 M 1036.1 538.9 C 1030.2 539.1 1024.3 539.0 1018.3 539.0 L 1018.5 540.1 C 1033.2 540.1 1047.9 540.6 1062.6 539.9 C 1063.9 539.3 1065.1 538.7 1066.4 538.1 C 1056.3 538.3 1046.1 537.2 1036.1 538.9 M 165.5 539.5 C 166.8 540.7 171.5 540.8 172.4 539.2 C 170.2 538.3 167.8 539.6 165.5 539.5 M 945.0 542.9 C 947.7 543.0 950.4 543.0 953.1 543.2 C 956.1 543.8 958.6 541.2 961.7 542.0 C 961.0 541.3 960.4 540.7 959.9 540.0 C 958.6 539.8 957.4 540.1 956.4 540.8 C 955.3 540.5 954.2 539.7 953.0 540.1 C 950.3 541.0 947.3 541.0 945.0 542.9 M 962.0 540.3 C 962.4 540.8 962.4 540.8 962.0 540.3 M 130.8 541.9 C 135.0 542.3 139.1 542.0 143.2 541.8 C 139.5 540.3 134.5 540.0 130.8 541.9 M 961.4 543.1 C 962.5 544.0 963.7 544.4 965.1 544.4 C 977.5 545.4 990.1 545.1 1002.6 544.7 C 1004.7 544.2 1006.9 545.2 1009.1 544.4 C 1011.4 543.7 1014.1 544.7 1016.1 543.2 C 1010.4 542.7 1004.6 543.6 999.0 542.1 C 989.4 541.9 979.7 541.9 970.0 542.1 C 967.2 543.1 964.3 543.0 961.4 543.1 M 910.6 543.3 C 916.2 544.7 922.0 545.3 927.5 546.8 C 930.2 546.8 932.7 548.4 935.5 547.8 C 938.6 548.2 941.8 548.8 944.9 549.5 C 948.3 550.7 951.7 548.7 955.0 548.0 C 953.6 546.6 951.6 547.2 949.9 546.8 C 946.4 546.2 943.0 544.7 939.3 545.0 C 939.3 547.5 936.9 547.2 935.1 547.1 C 928.9 545.5 922.5 544.5 916.2 543.3 C 914.3 542.8 912.4 542.9 910.6 543.3 M 930.3 550.2 C 930.8 550.1 931.7 549.9 932.2 549.8 C 932.6 547.7 927.6 549.2 930.3 550.2 M 933.5 550.3 C 937.7 551.3 942.0 552.1 946.3 552.3 C 942.4 550.6 937.8 549.5 933.5 550.3 Z" />
<path fill="#fdfdfd" stroke="#fdfdfd" stroke-width="0.09375" opacity="1.00" d=" M 854.7 524.9 C 858.0 523.0 860.4 520.0 863.7 518.2 C 864.1 518.5 864.7 519.2 865.0 519.6 C 864.1 521.8 862.6 523.8 861.0 525.7 C 860.0 526.3 859.0 524.9 858.2 524.7 C 856.6 525.9 855.0 527.0 853.3 527.9 C 852.9 526.6 853.5 525.5 854.7 524.9 Z" />
<path fill="#fdfdfd" stroke="#fdfdfd" stroke-width="0.09375" opacity="1.00" d=" M 352.5 551.9 C 355.2 550.8 358.1 550.8 360.9 550.2 C 363.3 549.9 366.9 549.4 368.0 552.3 C 369.0 551.6 369.8 550.2 371.3 551.1 C 370.4 551.8 369.5 552.7 368.4 552.9 C 366.4 551.9 364.3 550.4 362.0 551.1 C 356.4 552.3 350.8 553.2 345.2 553.6 C 343.5 553.4 342.0 552.4 340.7 551.2 C 344.6 552.0 348.6 552.2 352.5 551.9 Z" />
<path fill="#fdfdfd" stroke="#fdfdfd" stroke-width="0.09375" opacity="1.00" d=" M 372.0 552.4 C 375.3 552.2 370.8 555.4 372.0 552.4 Z" />
<path fill="#fdfdfd" stroke="#fdfdfd" stroke-width="0.09375" opacity="1.00" d=" M 506.4 560.0 C 506.1 558.6 506.6 558.1 508.0 558.4 C 508.3 559.7 507.7 560.3 506.4 560.0 Z" />
<path fill="#fdfdfd" stroke="#fdfdfd" stroke-width="0.09375" opacity="1.00" d=" M 217.6 563.1 C 219.1 561.2 220.9 563.4 222.4 564.0 C 227.7 564.6 232.8 561.6 238.0 562.8 C 244.5 561.1 251.4 561.8 257.3 564.9 C 260.0 566.5 261.9 569.4 265.2 570.1 C 267.6 571.2 270.0 569.6 272.3 569.0 C 270.0 573.1 264.5 572.3 261.3 569.9 C 259.6 568.6 258.1 567.3 256.7 565.9 C 254.9 565.5 253.2 564.9 251.6 564.1 C 246.0 563.1 240.5 564.1 235.0 564.0 C 231.5 564.2 228.3 566.2 224.9 565.8 C 222.2 565.8 219.9 564.2 217.6 563.1 Z" />
<path fill="#fdfdfd" stroke="#fdfdfd" stroke-width="0.09375" opacity="1.00" d=" M 1076.5 564.9 C 1078.7 563.8 1080.9 562.7 1083.3 561.9 C 1080.5 565.2 1075.8 566.2 1071.6 565.7 C 1073.2 565.3 1074.9 565.1 1076.5 564.9 Z" />
<path fill="#fdfdfd" stroke="#fdfdfd" stroke-width="0.09375" opacity="1.00" d=" M 549.8 597.6 C 553.6 596.7 557.5 597.4 561.4 597.6 C 573.7 599.3 586.1 600.7 598.1 604.0 C 607.1 606.7 616.5 607.9 625.4 610.8 C 627.4 611.0 629.4 611.2 631.4 611.8 C 636.3 612.0 641.0 613.5 645.9 614.0 C 656.9 614.1 668.0 614.5 678.8 612.3 C 682.7 611.8 686.6 610.8 690.5 610.9 C 697.1 609.3 704.0 609.1 710.6 607.7 C 718.4 605.5 726.2 609.9 734.0 609.1 C 731.3 610.7 728.0 609.6 725.1 609.4 C 719.3 608.3 713.3 608.8 707.5 609.1 C 696.6 611.6 685.5 612.7 674.5 614.5 C 670.8 615.4 666.8 614.6 663.1 615.6 C 650.9 616.4 638.5 615.1 626.6 612.2 C 606.6 608.6 587.2 601.7 566.9 599.6 C 561.2 598.5 555.6 597.5 549.8 597.6 Z" />
<path fill="#fdfdfd" stroke="#fdfdfd" stroke-width="0.09375" opacity="1.00" d=" M 480.6 610.5 C 490.1 609.9 499.5 608.8 509.0 609.0 C 516.1 608.0 523.3 608.8 530.4 609.6 C 537.5 611.7 544.8 613.3 551.4 616.8 C 557.6 619.3 562.9 623.3 568.5 626.9 C 570.9 628.2 573.2 629.7 575.5 631.4 C 573.0 632.8 571.4 630.3 569.6 629.1 C 561.2 624.6 553.5 618.8 544.7 615.2 C 541.0 615.3 538.0 612.8 534.5 612.3 C 524.6 609.4 514.2 609.7 503.9 610.0 C 496.7 611.0 489.3 610.4 482.1 611.7 C 468.6 612.2 455.5 616.1 442.0 616.6 C 438.0 617.0 434.1 615.6 430.0 615.6 C 427.2 615.6 424.4 615.1 421.6 614.3 C 429.4 614.0 437.1 616.1 444.9 615.3 C 451.9 615.6 458.6 613.2 465.6 612.8 C 470.5 611.5 475.7 611.7 480.6 610.5 Z" />
<path fill="#fdfdfd" stroke="#fdfdfd" stroke-width="0.09375" opacity="1.00" d=" M 732.9 610.8 C 735.6 609.3 738.6 610.8 741.4 611.2 C 738.7 612.9 735.8 610.3 732.9 610.8 Z" />
<path fill="#fdfdfd" stroke="#fdfdfd" stroke-width="0.09375" opacity="1.00" d=" M 740.3 612.9 C 740.8 612.4 741.4 611.9 741.9 611.4 C 743.3 613.5 745.5 614.6 747.8 615.2 C 748.6 616.2 749.4 617.2 750.2 618.2 C 746.3 618.0 744.1 613.8 740.3 612.9 Z" />
<path fill="#fdfdfd" stroke="#fdfdfd" stroke-width="0.09375" opacity="1.00" d=" M 415.2 613.1 C 416.4 612.5 419.3 612.0 419.8 613.5 C 418.6 613.9 415.8 614.5 415.2 613.1 Z" />
<path fill="#fdfdfd" stroke="#fdfdfd" stroke-width="0.09375" opacity="1.00" d=" M 313.5 618.8 C 321.8 616.8 330.8 616.4 339.1 618.8 C 348.4 620.5 357.3 624.1 365.6 628.6 C 368.6 629.9 371.4 631.4 374.4 632.8 C 380.9 636.4 388.2 638.6 394.2 643.0 C 399.9 644.8 405.3 647.2 411.0 649.0 C 416.8 649.6 422.6 651.1 428.6 650.7 C 432.9 650.4 437.3 650.4 441.6 649.9 C 446.6 649.1 451.6 648.5 456.5 647.8 C 463.7 646.0 471.3 645.0 478.6 646.5 C 479.4 647.3 480.2 648.2 481.0 649.1 C 477.9 647.5 474.5 646.6 471.0 647.0 C 455.6 648.4 440.4 652.4 424.9 651.6 C 417.2 652.0 410.0 649.1 402.6 647.5 C 399.8 645.8 396.3 645.8 393.6 644.0 C 385.0 639.5 375.9 636.2 367.6 631.2 C 363.4 629.8 359.7 627.2 355.5 625.8 C 348.6 622.1 340.6 621.2 333.2 618.8 C 326.6 618.2 320.0 618.9 313.5 618.8 Z" />
<path fill="#fdfdfd" stroke="#fdfdfd" stroke-width="0.09375" opacity="1.00" d=" M 137.9 620.4 C 138.5 619.5 139.2 618.6 139.9 617.8 C 139.9 618.5 140.0 620.0 140.0 620.7 C 139.4 620.9 138.1 621.3 137.5 621.6 C 134.6 621.6 131.8 622.1 129.0 622.7 C 123.7 622.8 118.4 621.7 113.1 621.7 C 121.2 620.1 129.8 622.9 137.9 620.4 Z" />
<path fill="#fdfdfd" stroke="#fdfdfd" stroke-width="0.09375" opacity="1.00" d=" M 310.4 619.1 C 311.7 618.3 312.4 618.6 312.6 619.9 C 311.3 620.7 310.6 620.4 310.4 619.1 Z" />
<path fill="#fdfdfd" stroke="#fdfdfd" stroke-width="0.09375" opacity="1.00" d=" M 945.9 676.5 C 949.7 676.2 953.5 675.1 957.4 675.5 C 958.4 676.0 959.5 676.4 960.6 676.7 C 964.2 678.8 967.1 682.0 969.9 685.0 C 973.3 688.0 975.8 691.6 978.0 695.6 C 981.2 699.2 983.8 703.4 987.2 706.9 C 989.1 709.5 992.4 710.3 995.1 711.9 C 993.2 713.0 991.3 712.1 989.5 711.4 C 985.9 709.1 983.8 705.1 981.2 701.7 C 977.4 696.9 974.9 691.0 970.0 687.0 C 968.7 685.3 967.5 683.5 965.7 682.2 C 964.1 679.6 961.4 678.2 958.5 677.3 C 957.6 676.9 956.6 676.5 955.7 676.1 C 943.9 677.3 932.3 680.1 920.5 681.3 C 914.3 681.9 908.1 682.0 902.0 681.0 C 878.4 680.7 855.1 676.8 831.6 676.6 C 849.4 675.1 867.2 678.0 884.9 679.1 C 898.3 679.1 911.7 681.4 925.0 679.4 C 931.9 678.1 939.0 677.9 945.9 676.5 Z" />
<path fill="#fdfdfd" stroke="#fdfdfd" stroke-width="0.09375" opacity="1.00" d=" M 1060.1 695.1 C 1060.1 693.3 1060.5 691.5 1062.1 690.5 C 1063.8 690.6 1064.4 691.5 1064.0 693.2 C 1062.8 693.9 1061.4 694.5 1060.1 695.1 Z" />
<path fill="#fdfdfd" stroke="#fdfdfd" stroke-width="0.09375" opacity="1.00" d=" M 290.5 707.6 C 294.8 706.4 299.3 706.4 303.8 706.4 L 303.6 707.5 C 304.3 707.4 305.6 707.2 306.2 707.1 C 305.2 707.7 304.1 708.3 303.1 708.9 L 303.5 707.5 C 300.5 707.7 297.3 707.2 294.4 708.3 C 287.4 709.6 281.3 713.6 275.3 717.2 C 271.5 719.3 268.2 722.2 264.4 724.3 C 263.1 725.1 261.8 725.8 260.4 726.3 C 255.7 729.0 250.3 729.9 245.1 730.6 C 239.4 730.9 233.7 732.1 228.0 731.0 C 227.5 731.2 226.6 731.4 226.2 731.5 C 219.4 730.5 212.5 730.1 205.6 729.4 C 202.6 728.3 199.3 728.5 196.2 728.5 L 196.6 727.7 C 194.5 727.6 192.4 727.6 190.2 727.6 L 190.7 726.6 C 186.7 727.1 183.0 725.7 179.0 725.3 C 179.2 725.1 179.4 724.6 179.5 724.3 C 181.4 725.0 183.4 725.4 185.4 725.8 C 185.6 725.2 185.9 724.0 186.0 723.4 C 186.1 723.9 186.4 725.0 186.5 725.5 C 191.5 724.9 196.3 726.8 201.4 726.6 C 206.4 728.0 211.8 728.4 217.1 728.4 C 226.2 729.6 235.5 729.5 244.6 728.6 C 252.4 727.8 260.5 725.8 266.6 720.6 C 269.9 718.7 273.2 716.7 276.6 714.7 C 280.6 711.3 285.6 709.6 290.5 707.6 Z" />
<path fill="#fdfdfd" stroke="#fdfdfd" stroke-width="0.09375" opacity="1.00" d=" M 655.3 710.1 C 657.2 710.4 660.9 710.9 662.8 711.1 C 665.7 712.1 668.8 712.7 671.5 714.3 C 672.0 714.3 672.9 714.5 673.4 714.6 C 675.7 715.5 678.1 716.1 680.5 716.9 C 682.9 717.7 685.2 718.5 687.6 719.5 C 694.4 721.9 701.3 723.9 708.2 726.0 C 716.3 728.2 724.8 728.3 733.1 729.9 C 733.7 729.9 734.9 729.9 735.5 729.8 C 752.7 730.9 770.1 729.6 787.4 730.7 C 790.4 731.6 793.6 731.3 796.8 731.3 L 796.5 732.5 C 797.1 732.4 798.3 732.4 798.9 732.3 C 798.9 732.7 798.8 733.3 798.7 733.6 C 791.9 733.1 785.1 732.3 778.2 732.3 C 770.8 733.2 763.4 731.8 756.1 732.5 C 749.7 732.9 743.3 732.0 737.0 732.4 C 731.5 731.8 726.1 730.9 720.6 730.5 C 712.5 729.1 704.2 727.7 696.6 724.5 C 689.0 722.3 681.8 719.1 674.4 716.4 C 673.1 715.9 671.8 715.4 670.5 714.8 C 669.1 714.6 667.7 714.4 666.4 713.8 C 665.1 713.2 663.9 712.7 662.6 712.3 C 660.1 711.6 657.7 710.8 655.3 710.1 Z" />
<path fill="#fdfdfd" stroke="#fdfdfd" stroke-width="0.09375" opacity="1.00" d=" M 317.3 714.8 C 317.4 714.0 317.5 712.5 317.6 711.7 C 318.3 712.4 319.6 713.7 320.2 714.4 C 320.6 714.3 321.4 714.2 321.8 714.1 L 321.2 715.3 C 323.6 715.3 325.6 716.8 327.8 717.6 L 327.8 718.3 C 328.4 718.4 329.7 718.5 330.3 718.5 C 337.9 721.3 346.2 720.8 354.0 722.2 C 359.8 722.2 364.9 726.2 370.8 724.8 C 370.5 725.3 370.0 726.2 369.8 726.7 C 368.9 727.0 367.9 727.3 367.0 727.6 C 361.0 724.8 354.4 724.5 347.9 723.6 C 344.3 723.4 340.8 722.3 337.2 722.6 L 337.6 721.5 C 336.8 721.6 335.1 721.7 334.3 721.7 L 334.4 720.7 C 331.9 720.6 329.5 720.0 327.1 719.6 L 327.5 718.7 C 325.8 718.7 323.8 718.8 322.9 716.9 C 321.7 716.4 320.5 715.9 319.3 715.4 L 319.5 714.3 C 319.0 714.4 317.8 714.7 317.3 714.8 Z" />
</svg>
