<?xml version="1.0" encoding="UTF-8" ?>
<!DOCTYPE svg PUBLIC "-//W3C//DTD SVG 1.1//EN" "http://www.w3.org/Graphics/SVG/1.1/DTD/svg11.dtd">
<svg width="389pt" height="229pt" viewBox="0 0 389 229" version="1.1" xmlns="http://www.w3.org/2000/svg">
<path fill="#ffffff" stroke="#ffffff" stroke-width="0.09375" opacity="1.00" d=" M 228.0 92.9 C 228.9 91.9 230.9 91.7 231.4 93.3 C 231.8 97.7 232.4 102.4 230.6 106.5 C 229.6 108.8 230.0 111.4 229.8 113.8 C 235.7 113.3 240.1 109.1 245.6 107.5 C 249.4 107.6 252.7 105.3 256.5 105.1 C 257.0 106.5 257.5 107.9 258.1 109.3 C 259.9 109.4 261.7 109.4 263.5 109.4 C 264.8 110.0 266.1 110.8 267.2 111.8 C 265.7 115.2 262.8 117.9 258.9 118.0 C 257.6 119.3 255.8 120.9 256.8 123.0 C 258.1 126.3 257.1 130.1 258.9 133.3 C 258.2 133.6 257.0 134.4 256.3 134.8 C 255.8 134.8 254.8 134.8 254.3 134.8 C 254.3 134.2 254.4 133.1 254.4 132.5 L 252.4 132.4 C 252.8 136.7 253.6 142.0 249.7 145.1 C 251.6 145.1 253.7 145.5 255.5 144.4 C 258.6 142.6 261.3 140.2 264.6 138.7 C 265.5 137.9 266.5 137.2 267.6 136.7 C 269.6 135.0 272.4 134.8 274.6 133.3 C 276.0 132.4 277.7 132.0 279.4 132.1 C 277.7 135.6 273.9 137.0 271.0 139.2 C 268.0 141.2 264.9 143.1 262.4 145.7 C 264.3 144.8 266.5 144.8 268.0 146.4 C 270.1 146.1 272.2 145.4 274.3 145.3 C 274.7 146.1 275.1 146.9 275.5 147.7 C 273.3 152.5 268.1 153.9 263.6 155.7 C 261.8 156.6 260.1 157.5 258.2 158.2 C 256.0 160.7 254.0 163.7 250.5 164.4 C 246.0 164.6 242.6 167.9 238.4 169.3 C 232.1 172.3 224.9 169.4 218.6 172.6 C 219.1 171.9 220.0 170.6 220.5 169.9 C 216.3 169.8 212.1 169.9 208.0 170.1 C 203.1 170.9 199.2 174.7 194.1 174.9 C 190.6 174.9 186.3 175.7 184.1 172.3 C 185.4 171.6 186.7 170.9 188.0 170.3 C 190.0 171.5 192.2 170.8 194.2 169.9 C 192.9 169.0 191.5 168.5 190.0 168.4 C 190.1 167.9 190.3 167.0 190.4 166.5 C 191.2 166.1 192.7 165.2 193.4 164.7 C 191.4 164.1 189.4 164.3 187.3 164.6 C 186.6 163.7 185.8 162.9 184.9 162.0 C 183.3 161.7 181.8 161.1 180.5 160.1 C 181.6 159.1 182.6 158.1 183.8 157.2 C 188.4 158.5 192.8 160.8 197.8 161.0 C 200.5 157.0 205.3 156.1 209.6 154.8 C 211.6 153.6 214.7 153.2 215.4 150.6 C 215.6 149.8 216.0 148.3 216.2 147.5 C 215.4 147.7 213.9 147.9 213.2 148.1 C 212.5 146.6 212.1 145.1 211.6 143.5 C 208.6 145.4 205.3 146.3 201.7 145.9 C 199.4 142.7 201.5 139.1 201.7 135.6 C 202.6 133.3 201.4 131.0 201.3 128.7 C 199.0 127.5 196.5 129.1 194.2 127.8 C 194.3 127.2 194.4 126.0 194.5 125.4 C 196.1 123.5 197.3 121.3 199.5 120.1 C 200.7 120.0 201.8 119.8 202.9 119.6 C 204.6 120.0 206.3 120.1 208.0 119.5 C 208.2 120.0 208.7 121.0 209.0 121.5 C 212.0 121.4 214.7 120.1 217.7 119.9 C 221.3 117.6 220.5 113.2 219.5 109.7 C 219.4 105.3 219.2 100.8 219.3 96.3 C 220.3 95.5 221.3 94.6 222.3 93.8 C 222.6 94.5 223.3 95.8 223.6 96.5 C 223.7 98.0 223.8 99.5 223.9 101.0 C 226.1 98.7 225.2 94.8 228.0 92.9 M 237.4 130.6 C 238.2 133.1 238.2 135.7 239.7 138.0 C 239.1 139.7 238.5 141.4 237.6 143.0 C 235.1 140.4 234.2 136.8 233.3 133.5 L 232.2 133.7 L 232.2 131.4 C 231.9 132.0 231.3 133.2 231.0 133.8 C 230.7 139.1 233.2 144.4 230.9 149.5 C 234.6 148.8 237.8 146.6 241.4 145.3 C 243.5 144.4 245.5 143.4 247.7 142.8 C 246.6 141.6 245.5 140.5 245.1 139.0 C 243.9 138.2 242.6 137.5 241.4 136.7 C 241.5 134.6 241.6 132.5 241.6 130.4 C 240.2 130.5 238.8 130.5 237.4 130.6 M 245.0 130.3 C 245.0 130.8 245.0 131.8 245.0 132.3 C 246.6 133.4 246.7 130.0 245.0 130.3 M 214.8 132.7 C 216.3 133.1 217.1 132.4 217.1 130.8 C 215.5 130.4 214.7 131.0 214.8 132.7 M 217.4 137.4 C 217.5 140.6 217.6 143.9 218.0 147.2 C 220.3 144.4 219.2 140.6 219.5 137.4 L 217.4 137.4 M 215.2 143.3 C 215.9 143.7 215.9 143.7 215.2 143.3 M 243.3 146.1 C 242.7 146.8 241.6 148.2 241.0 148.9 C 243.5 148.1 246.8 147.7 247.9 144.8 C 246.3 145.2 244.8 145.7 243.3 146.1 M 217.8 155.1 C 219.3 155.8 220.6 154.2 221.9 153.8 C 222.0 153.3 222.3 152.4 222.4 152.0 C 221.9 152.0 220.8 152.0 220.3 152.0 C 219.4 153.0 218.3 153.9 217.8 155.1 Z" />
</svg>
