<?xml version="1.0" encoding="UTF-8" ?>
<!DOCTYPE svg PUBLIC "-//W3C//DTD SVG 1.1//EN" "http://www.w3.org/Graphics/SVG/1.1/DTD/svg11.dtd">
<svg width="549pt" height="738pt" viewBox="0 0 549 738" version="1.1" xmlns="http://www.w3.org/2000/svg">
<path fill="#fdfdfd" stroke="#fdfdfd" stroke-width="0.09375" opacity="1.00" d=" M 320.3 55.0 C 321.3 54.1 323.1 55.6 322.6 56.7 C 321.6 57.4 319.7 56.2 320.3 55.0 Z" />
<path fill="#fdfdfd" stroke="#fdfdfd" stroke-width="0.09375" opacity="1.00" d=" M 315.2 57.5 C 315.7 57.2 316.5 56.5 316.9 56.1 C 317.1 56.7 317.5 57.8 317.7 58.3 C 321.0 59.6 324.5 61.2 328.1 61.2 C 331.5 60.5 335.6 59.1 338.6 61.5 C 341.6 65.1 344.6 68.9 348.4 71.6 C 348.1 69.3 347.5 66.9 347.3 64.6 C 349.7 66.1 351.5 68.6 353.6 70.5 C 353.6 71.6 353.6 72.6 353.7 73.7 C 356.2 75.9 358.0 78.8 359.8 81.6 C 357.9 82.0 356.1 82.4 354.2 82.7 C 356.2 89.5 357.3 96.5 358.9 103.5 C 358.0 101.9 357.3 100.2 356.8 98.4 C 356.2 97.1 355.7 95.8 355.1 94.5 L 353.5 94.5 C 353.8 96.3 354.0 98.2 354.5 100.1 L 353.8 99.7 C 354.1 107.5 352.5 115.2 352.6 123.0 C 352.8 131.0 352.1 139.0 353.0 147.0 C 354.1 151.8 353.3 156.8 354.2 161.7 C 357.0 169.5 355.2 178.3 358.0 186.2 C 362.2 188.0 366.7 187.3 371.0 187.6 C 378.6 188.6 386.2 188.1 393.8 188.6 C 400.1 189.5 406.5 189.3 412.9 189.5 C 413.5 189.8 414.8 190.3 415.4 190.5 C 415.5 190.0 415.8 189.0 415.9 188.5 C 416.1 189.0 416.5 189.8 416.7 190.3 C 429.1 190.4 441.5 192.4 453.8 193.6 C 466.0 195.7 477.8 199.3 490.1 200.8 C 495.1 201.6 499.4 204.8 504.5 205.7 L 503.9 204.3 C 506.2 205.9 509.4 205.9 511.8 204.5 C 514.8 204.4 517.8 204.5 520.8 204.5 C 521.7 205.7 522.7 206.9 522.9 208.4 C 526.5 208.3 530.1 208.3 533.7 208.2 C 533.7 208.8 533.7 209.9 533.8 210.4 C 532.1 210.3 530.5 210.5 529.2 211.5 C 526.9 211.3 523.7 212.5 522.9 209.5 L 520.9 209.6 C 521.2 210.0 521.9 210.7 522.2 211.1 C 523.6 217.4 523.1 223.9 524.9 230.1 C 525.8 230.4 526.8 230.8 527.7 231.3 C 527.7 233.6 526.3 235.6 526.7 238.0 C 526.6 240.2 528.0 242.1 528.6 244.1 C 528.8 246.3 528.7 248.5 528.8 250.6 C 528.0 250.6 526.5 250.4 525.7 250.3 C 527.1 261.4 526.9 272.7 529.3 283.6 C 531.1 291.9 531.4 300.3 533.3 308.6 C 534.2 314.0 535.0 319.5 535.6 325.0 C 533.9 324.8 532.3 324.3 530.8 323.4 C 531.0 324.5 531.5 326.8 531.7 328.0 C 530.0 327.8 528.5 327.0 527.5 325.5 C 525.1 325.5 522.7 325.6 520.3 325.7 L 520.9 326.5 C 519.7 326.5 518.5 326.5 517.4 326.5 C 517.1 327.0 516.5 327.9 516.2 328.4 L 516.6 326.5 L 514.2 326.6 L 514.7 328.0 C 514.3 327.9 513.5 327.6 513.1 327.4 C 511.6 329.5 509.3 330.6 507.1 332.0 C 506.1 333.0 504.8 333.7 503.3 333.8 L 503.8 334.7 C 502.8 334.6 500.9 334.4 500.0 334.3 L 500.8 335.4 C 496.9 336.3 493.2 337.8 489.1 337.6 L 489.9 338.7 C 488.4 338.6 486.9 338.6 485.3 338.5 L 485.8 339.6 C 481.8 339.5 477.7 339.6 473.7 339.4 C 471.1 338.5 468.4 338.6 465.7 338.4 C 462.6 337.1 459.2 337.9 456.1 336.9 C 452.6 336.5 449.4 335.1 446.2 333.9 C 441.4 332.9 436.8 331.1 432.2 329.5 L 432.4 328.8 C 430.6 328.6 428.9 328.0 427.1 327.6 C 424.4 328.1 421.9 329.3 419.2 329.8 L 419.9 330.5 C 417.7 330.5 415.5 330.5 413.4 330.6 L 413.9 331.5 C 411.4 331.5 408.9 331.6 406.4 331.6 L 406.9 332.5 C 404.3 332.5 401.7 332.4 399.3 333.4 C 391.1 333.6 382.8 334.1 374.6 333.3 C 369.3 331.9 362.7 331.0 359.5 326.0 C 359.9 324.5 360.2 322.9 360.5 321.4 C 359.9 321.5 358.8 321.7 358.3 321.8 L 358.7 320.7 C 356.1 320.7 353.4 320.6 350.7 320.6 C 350.7 325.1 349.5 329.5 349.0 334.0 C 348.4 348.0 349.5 362.1 347.9 376.0 C 347.6 383.0 347.9 390.0 346.8 397.0 C 346.9 400.6 345.6 404.1 346.2 407.7 C 348.6 427.8 351.6 447.8 351.8 468.1 C 351.6 470.9 351.9 473.7 352.2 476.5 C 353.1 482.6 352.3 488.9 353.4 495.0 C 352.9 497.3 352.8 499.6 352.9 502.0 C 353.0 508.5 352.5 515.0 353.2 521.4 C 352.7 531.7 352.8 542.1 352.9 552.4 C 353.6 552.4 355.0 552.5 355.7 552.5 C 356.3 553.1 356.9 553.7 357.5 554.3 C 356.9 555.7 356.5 557.1 355.9 558.5 C 355.3 559.5 354.8 560.5 354.2 561.5 C 353.5 563.3 352.5 565.1 352.6 567.1 C 353.3 568.5 354.0 569.8 354.9 571.0 C 351.6 576.5 352.9 583.0 352.5 589.0 C 352.1 592.0 353.9 594.5 355.6 596.7 C 355.6 597.2 355.6 598.1 355.7 598.6 C 355.3 599.0 354.6 599.8 354.2 600.2 L 354.7 598.5 L 352.7 598.6 C 352.6 600.6 352.4 602.6 352.3 604.5 C 352.7 607.9 351.7 611.2 352.7 614.6 C 353.2 613.5 354.2 611.5 354.7 610.4 C 359.4 603.8 360.7 595.5 365.0 588.7 C 366.7 584.9 369.4 581.8 371.7 578.5 C 372.5 576.8 373.3 575.1 373.8 573.3 L 374.0 573.3 C 374.5 572.1 375.1 571.0 375.9 569.9 C 377.3 569.0 378.6 566.0 380.4 568.1 C 381.5 567.8 382.6 567.5 383.7 567.2 L 383.1 566.8 C 384.9 565.9 386.6 564.9 388.5 564.0 L 388.3 563.2 C 388.6 563.2 389.3 563.3 389.6 563.3 C 391.7 561.3 394.3 560.2 396.9 559.0 C 398.2 557.4 400.3 557.3 402.2 557.3 C 402.5 558.6 402.6 559.8 402.7 561.1 C 401.4 563.5 400.1 565.8 399.3 568.4 C 399.0 569.2 398.5 570.7 398.2 571.5 L 400.7 571.5 L 400.2 570.2 C 400.7 570.3 401.8 570.4 402.3 570.4 C 402.3 569.9 402.3 568.9 402.3 568.4 C 402.8 568.4 403.9 568.3 404.4 568.3 C 404.4 567.8 404.3 566.9 404.3 566.4 C 404.9 566.4 405.9 566.3 406.5 566.3 C 406.4 565.7 406.4 564.7 406.4 564.1 C 406.9 564.3 408.0 564.6 408.5 564.8 L 408.2 563.8 C 410.9 562.4 413.6 561.0 416.4 559.6 C 417.3 560.0 418.3 560.4 419.3 560.8 C 419.7 563.1 420.2 566.0 417.6 567.3 C 417.7 567.6 417.8 568.3 417.8 568.6 L 416.4 568.5 C 416.5 569.1 416.8 570.2 416.9 570.7 L 416.0 570.4 C 415.5 571.6 414.7 572.5 413.4 573.0 C 413.5 573.4 413.7 574.2 413.8 574.6 C 413.4 574.6 412.7 574.6 412.4 574.6 C 410.0 577.4 406.9 579.5 403.6 581.0 L 403.7 581.8 C 403.1 581.7 402.1 581.5 401.6 581.4 L 401.6 582.8 C 401.1 582.7 400.1 582.5 399.6 582.4 L 399.8 583.2 C 397.9 583.7 396.3 584.6 394.6 585.6 C 393.6 587.8 392.8 590.1 392.3 592.4 C 390.8 595.0 390.9 598.0 389.8 600.7 C 388.4 604.2 387.0 607.7 386.3 611.4 C 385.3 613.6 384.6 615.9 384.4 618.3 L 386.7 618.6 L 386.5 618.0 C 391.0 613.5 392.6 606.7 397.4 602.4 C 398.3 602.4 399.2 602.4 400.1 602.4 C 401.5 603.7 403.5 603.6 404.9 602.4 C 405.0 605.7 403.8 608.7 403.2 611.9 L 402.8 611.4 C 402.5 613.6 401.9 615.7 401.4 617.9 L 400.8 617.5 C 400.1 620.6 398.8 623.6 398.3 626.7 C 397.8 627.3 397.3 627.9 396.8 628.5 C 395.3 632.7 394.0 637.1 390.9 640.5 C 390.2 642.2 390.5 644.2 389.9 646.1 C 390.3 647.6 390.6 649.1 390.9 650.6 C 393.8 650.6 395.6 648.2 397.9 646.9 C 399.0 645.0 400.5 643.4 402.0 641.7 C 402.7 640.6 403.6 639.7 404.7 638.8 C 405.7 637.4 406.8 636.1 407.9 634.8 C 408.6 633.7 409.4 632.6 410.2 631.6 C 410.3 631.4 410.4 631.1 410.4 630.9 C 412.4 629.0 414.1 626.9 416.0 624.9 C 416.7 623.7 417.4 622.6 418.3 621.5 C 418.3 621.2 418.3 620.6 418.3 620.4 L 419.0 620.4 C 420.6 618.2 422.5 616.2 424.9 614.9 C 427.3 612.8 430.1 610.6 429.6 607.1 L 430.2 607.7 C 430.6 605.9 431.2 604.1 431.6 602.3 C 432.4 601.6 433.1 600.8 433.9 600.1 C 434.4 600.4 435.4 601.1 435.9 601.5 C 435.9 604.9 435.7 608.3 434.4 611.4 C 433.4 614.0 432.5 616.6 432.3 619.4 C 432.0 624.4 429.4 629.8 431.9 634.7 C 432.8 635.8 433.6 637.1 434.4 638.4 C 437.0 644.6 438.4 651.2 440.4 657.7 C 440.5 659.3 440.6 661.0 440.6 662.6 L 441.6 662.1 C 441.6 665.9 441.2 669.9 442.3 673.6 C 442.6 675.4 443.2 677.1 443.9 678.7 C 445.0 679.8 445.7 681.1 445.8 682.7 L 447.1 682.2 C 446.9 682.6 446.6 683.4 446.4 683.8 C 447.5 684.5 448.4 685.4 449.1 686.5 C 449.5 686.4 450.3 686.2 450.6 686.1 L 450.4 687.8 C 451.0 687.6 452.1 687.3 452.7 687.1 L 452.2 688.4 C 452.9 688.5 454.4 688.5 455.2 688.5 C 455.5 684.3 457.7 680.3 457.3 676.0 C 457.1 673.0 458.1 670.1 458.7 667.1 L 459.1 667.5 C 459.5 664.9 461.8 663.3 463.4 661.5 C 465.3 661.5 467.2 661.4 469.2 661.4 C 470.9 662.4 472.8 663.4 474.9 663.8 L 474.1 664.3 C 475.8 664.3 477.3 664.8 478.3 666.3 C 478.9 666.4 480.2 666.5 480.8 666.5 L 480.3 667.9 C 480.9 667.7 482.1 667.3 482.7 667.1 L 482.3 668.6 C 483.1 668.5 484.9 668.4 485.7 668.3 L 485.4 669.8 C 486.0 669.6 487.1 669.3 487.7 669.1 L 487.3 670.6 C 488.2 670.5 490.0 670.4 490.9 670.4 L 490.3 671.9 C 490.9 671.7 492.1 671.3 492.6 671.1 L 492.5 672.6 C 493.0 672.5 494.1 672.2 494.7 672.1 L 494.5 673.7 C 495.0 673.6 496.0 673.3 496.5 673.1 L 496.7 673.9 C 498.0 674.6 499.3 675.4 500.6 676.3 C 502.0 678.2 502.9 680.4 504.0 682.6 L 502.7 682.4 C 502.6 683.2 502.3 684.9 502.2 685.7 C 501.8 684.6 501.4 683.5 501.1 682.4 L 500.1 682.8 C 500.2 682.4 500.3 681.7 500.3 681.3 C 499.5 680.4 498.6 679.5 497.8 678.6 C 497.4 678.6 496.7 678.7 496.3 678.8 L 496.5 677.3 C 496.0 677.5 495.0 677.8 494.4 677.9 L 494.5 676.3 C 493.9 676.4 492.9 676.7 492.3 676.8 L 492.5 675.2 C 492.0 675.4 490.8 675.8 490.3 676.0 L 490.7 674.6 C 490.0 674.6 488.4 674.5 487.7 674.5 C 485.5 673.0 482.9 672.4 480.3 672.3 C 479.9 671.9 479.3 670.9 478.9 670.4 C 478.5 670.6 477.7 670.8 477.3 671.0 L 477.7 669.9 C 473.8 668.7 471.0 665.3 466.9 664.4 C 465.0 666.0 462.1 667.0 462.2 670.0 L 461.8 669.4 C 461.4 672.2 460.4 675.0 460.3 677.9 L 459.6 677.3 L 459.6 679.8 L 460.6 679.1 C 460.6 683.3 459.7 687.4 457.3 690.8 C 456.8 690.7 455.9 690.5 455.5 690.4 L 455.8 691.8 C 454.2 691.6 452.7 691.4 451.3 691.1 C 450.1 690.1 449.0 689.1 447.8 688.1 C 445.6 686.8 444.4 684.3 442.6 682.5 C 442.1 687.0 443.7 691.3 443.6 695.8 L 442.7 695.4 C 443.0 698.7 441.9 701.7 441.3 704.8 C 441.0 705.1 440.3 705.7 440.0 706.0 C 439.6 705.6 438.9 705.0 438.5 704.7 C 438.1 699.4 439.4 694.1 438.4 688.9 C 437.5 688.2 436.5 687.5 435.6 686.7 C 433.4 686.6 431.2 686.6 429.0 686.6 C 428.3 685.0 427.6 683.4 427.1 681.8 L 426.5 681.7 C 426.4 679.6 426.6 677.3 425.5 675.2 C 425.0 664.5 425.6 653.8 425.5 643.1 C 424.9 643.3 423.8 643.6 423.2 643.8 C 422.3 644.6 421.3 645.4 420.3 646.1 C 419.0 647.1 417.6 648.1 416.2 649.0 C 413.0 651.5 410.1 654.4 406.6 656.5 C 406.6 656.8 406.6 657.4 406.6 657.7 C 406.3 657.7 405.7 657.7 405.4 657.7 C 404.4 658.5 403.4 659.3 402.4 660.0 L 402.7 660.9 C 402.2 660.7 401.1 660.5 400.5 660.3 L 400.6 662.0 C 400.1 661.8 398.9 661.4 398.4 661.2 L 398.9 662.5 C 398.2 662.5 396.8 662.5 396.1 662.6 L 396.7 661.6 C 395.9 661.6 394.4 661.6 393.6 661.6 C 391.9 659.8 389.8 658.4 387.6 657.2 L 387.7 659.1 C 387.4 658.7 386.9 657.9 386.6 657.5 C 386.4 657.7 386.0 658.2 385.8 658.4 C 384.3 657.9 382.7 657.6 381.2 657.3 L 381.4 656.4 C 381.0 656.5 380.2 656.7 379.7 656.8 C 379.5 656.2 378.9 655.1 378.7 654.6 C 378.3 654.0 377.7 652.9 377.4 652.3 C 377.4 651.5 377.4 650.6 377.5 649.7 C 378.1 648.1 378.4 646.3 378.7 644.6 C 379.6 642.2 380.4 639.8 381.0 637.3 C 379.4 637.5 377.9 637.7 376.3 637.8 C 376.3 635.8 376.3 633.8 376.5 631.8 C 377.6 629.9 377.4 627.6 377.6 625.4 C 374.5 622.9 371.6 620.0 369.6 616.5 C 369.0 613.0 368.3 609.5 368.3 605.9 C 365.5 608.9 361.9 611.3 359.9 614.8 C 357.6 622.3 356.5 630.0 354.3 637.4 C 351.5 646.1 349.2 655.0 347.6 664.0 C 348.3 665.4 349.1 666.8 349.8 668.2 C 351.1 668.6 352.4 669.1 353.8 669.6 C 353.7 671.2 353.6 672.8 353.3 674.4 C 352.6 674.4 351.0 674.5 350.2 674.6 L 350.6 673.4 C 350.0 673.5 348.9 673.7 348.4 673.8 C 348.4 673.3 348.4 672.2 348.4 671.7 C 347.9 671.7 346.8 671.7 346.3 671.7 C 346.4 671.1 346.5 670.1 346.5 669.5 L 344.9 669.6 C 344.0 671.1 342.9 672.6 342.1 674.1 C 336.8 670.1 335.5 663.3 333.6 657.3 C 333.4 653.4 333.3 649.4 333.3 645.4 L 332.5 645.9 C 332.7 642.6 332.4 639.3 331.4 636.1 C 331.0 636.4 330.1 637.1 329.7 637.4 C 329.6 639.7 329.6 642.0 329.4 644.3 C 328.1 648.0 328.9 652.1 327.4 655.8 C 326.6 655.7 325.7 655.7 324.9 655.7 C 323.6 653.8 322.1 652.1 320.5 650.5 C 320.5 650.0 320.5 649.1 320.5 648.6 C 321.2 647.3 322.0 646.0 322.7 644.7 C 321.4 643.6 320.4 642.2 319.5 640.7 C 318.8 637.3 318.0 633.9 318.2 630.3 C 317.7 630.4 316.7 630.5 316.2 630.5 C 315.6 632.0 314.8 633.5 314.0 634.9 C 311.4 638.8 310.6 643.5 307.9 647.3 C 307.0 649.4 306.3 651.5 305.0 653.4 C 304.7 655.2 304.4 657.1 302.8 658.4 C 301.6 661.9 299.8 665.3 299.3 669.0 L 298.9 668.4 C 297.2 672.3 296.6 676.4 295.3 680.4 C 294.8 681.8 294.6 683.3 294.4 684.8 L 293.7 684.6 C 293.6 686.0 293.6 687.4 293.6 688.9 L 292.5 688.3 C 292.6 689.8 292.6 691.3 292.6 692.8 L 291.6 692.3 C 291.6 693.8 291.5 695.3 291.5 696.8 L 290.6 696.4 C 290.6 697.2 290.5 698.8 290.5 699.6 C 289.6 700.5 288.7 701.4 287.8 702.3 C 287.2 701.2 286.1 700.3 286.4 699.0 C 286.4 695.4 286.5 691.7 286.5 688.1 L 287.5 688.7 C 287.5 687.2 287.5 685.7 287.4 684.3 C 285.5 682.7 283.4 681.4 281.3 680.4 C 280.8 680.9 280.0 682.1 279.6 682.6 C 279.7 686.1 278.6 689.4 278.3 692.8 L 277.7 692.5 C 277.7 695.6 277.9 698.7 277.2 701.8 C 276.1 701.2 274.9 700.7 273.9 699.9 C 271.5 696.2 271.2 691.6 269.7 687.4 C 269.1 680.9 266.7 674.6 266.3 668.0 C 264.8 657.6 263.8 647.1 263.2 636.5 C 263.0 636.2 262.6 635.6 262.3 635.3 C 263.3 633.7 263.3 632.0 262.6 630.3 C 262.2 627.4 262.2 624.4 261.9 621.5 C 261.5 621.5 260.6 621.4 260.2 621.4 C 259.9 624.7 259.7 628.0 259.4 631.3 C 257.7 636.4 258.0 641.8 257.0 646.9 C 256.1 656.8 253.3 666.6 253.6 676.6 L 254.8 675.8 C 252.9 678.2 253.6 681.4 253.4 684.3 C 252.4 686.9 252.7 689.8 252.2 692.6 C 250.6 692.6 249.0 692.5 247.4 692.4 C 246.9 694.4 246.5 696.5 246.4 698.6 C 245.8 700.3 244.8 701.7 242.8 701.9 C 242.5 701.4 241.9 700.3 241.6 699.7 C 243.9 694.8 243.5 689.4 243.5 684.2 L 244.4 684.5 C 244.5 680.9 244.5 677.3 244.5 673.8 C 245.8 670.9 245.3 667.7 245.6 664.7 C 246.0 663.4 246.4 662.0 246.7 660.6 C 247.1 659.0 247.4 657.3 247.7 655.6 C 248.5 653.2 248.5 650.7 248.5 648.2 L 249.2 648.4 C 249.6 644.1 250.2 639.8 250.9 635.5 C 252.6 631.4 251.9 626.7 253.7 622.6 C 255.0 618.2 255.1 613.5 256.1 609.1 L 254.6 608.5 C 255.0 608.5 255.9 608.5 256.3 608.5 C 256.5 607.3 256.9 606.1 257.2 605.0 C 256.8 603.8 256.4 602.5 256.0 601.3 L 257.2 601.7 C 257.4 600.5 257.7 599.3 258.1 598.1 C 258.6 593.9 260.6 589.5 258.8 585.4 C 261.0 580.3 259.3 574.1 262.9 569.6 C 263.7 567.9 263.3 565.9 263.5 564.1 L 264.2 564.6 C 264.7 562.6 265.3 560.6 265.7 558.6 C 266.8 553.1 269.5 548.1 270.7 542.6 C 271.6 539.7 272.4 536.7 272.7 533.7 L 270.3 532.9 C 271.1 532.8 272.7 532.4 273.5 532.2 C 273.5 531.5 273.5 530.0 273.5 529.2 L 272.3 529.9 C 272.4 527.3 272.5 524.8 272.4 522.2 C 273.1 522.3 274.5 522.5 275.2 522.6 C 275.4 521.4 275.7 520.3 276.2 519.2 C 277.0 519.4 277.9 519.6 278.7 519.8 C 278.0 523.6 277.4 527.4 277.4 531.3 C 277.0 532.6 276.6 534.0 276.3 535.4 C 275.6 539.8 274.7 544.0 274.3 548.4 C 273.5 557.3 272.4 566.2 270.8 575.0 C 270.1 580.7 269.9 586.4 268.9 592.0 C 268.3 598.6 269.2 605.4 267.9 611.9 C 267.4 622.9 267.6 634.0 267.9 645.0 C 268.5 651.7 269.5 658.3 269.8 665.0 C 271.3 670.8 272.3 676.6 272.9 682.5 C 273.6 682.6 275.0 682.6 275.7 682.7 C 275.6 681.8 275.3 680.1 275.2 679.2 L 277.0 679.6 C 276.6 678.8 275.9 677.2 275.5 676.4 C 275.4 675.9 275.2 674.8 275.1 674.2 C 275.9 674.3 277.5 674.5 278.4 674.6 C 280.1 669.1 282.1 663.7 284.6 658.5 C 287.3 654.6 289.6 650.5 292.2 646.5 C 293.4 643.2 295.3 640.1 295.7 636.5 C 296.6 632.2 298.0 628.0 298.7 623.6 C 300.4 614.8 302.7 606.0 304.1 597.1 C 304.4 592.9 305.2 588.7 305.7 584.5 C 308.5 586.1 307.6 589.4 307.5 592.1 C 307.5 597.5 305.2 602.7 305.4 608.2 C 303.6 615.3 302.3 622.7 301.3 630.0 C 303.2 628.6 304.5 626.6 305.9 624.7 C 306.6 623.6 307.5 622.5 308.4 621.6 C 308.3 621.2 308.2 620.5 308.1 620.2 L 309.1 620.7 C 309.7 617.9 312.0 615.9 313.3 613.4 C 313.1 611.0 313.8 609.1 316.4 608.6 C 316.4 607.1 316.4 605.6 316.5 604.1 L 317.2 604.7 C 317.4 603.1 317.6 601.5 318.3 600.1 C 318.5 591.3 320.7 582.8 320.5 574.0 C 321.4 569.6 321.3 565.1 321.7 560.6 C 324.4 551.6 323.4 542.0 320.8 533.2 C 320.0 531.9 321.2 530.8 321.8 529.7 C 322.9 530.8 324.0 532.0 325.1 533.1 C 327.3 514.4 329.1 495.6 331.8 477.0 C 331.8 463.4 335.4 450.2 335.6 436.7 C 336.8 432.8 335.9 428.6 336.6 424.6 C 338.6 406.3 339.7 387.8 337.1 369.6 C 338.1 369.2 339.2 368.7 340.2 368.3 C 340.1 359.5 340.9 350.8 340.8 342.1 C 339.6 335.3 341.0 328.2 340.0 321.4 C 339.4 321.1 338.3 320.4 337.7 320.1 C 337.6 320.6 337.3 321.8 337.2 322.4 C 336.4 321.5 335.5 320.5 334.7 319.6 C 336.5 318.9 338.4 318.3 340.3 318.1 C 340.4 314.2 340.1 310.3 340.1 306.3 C 340.7 306.3 341.8 306.2 342.3 306.2 C 343.4 308.1 344.6 310.0 345.8 311.8 C 347.2 310.6 348.5 309.3 349.9 308.1 C 351.5 308.9 353.1 309.8 354.8 310.5 C 354.3 307.5 352.0 304.4 353.5 301.3 C 356.1 298.8 359.8 299.7 363.0 299.5 C 370.8 298.9 377.9 302.7 385.0 305.2 C 397.3 308.5 409.9 309.4 422.4 310.8 C 425.3 310.2 428.2 310.9 431.1 311.2 C 438.4 311.8 445.8 310.8 453.1 312.3 C 455.8 312.5 458.5 312.4 461.2 312.6 C 463.3 313.5 465.7 313.3 468.0 313.4 C 473.9 313.5 479.9 313.6 485.9 313.5 L 485.2 314.4 C 491.5 314.1 497.7 314.7 503.9 314.5 L 503.1 315.5 C 504.2 315.5 506.5 315.5 507.6 315.6 L 507.2 313.6 C 507.5 314.1 508.0 315.0 508.3 315.4 C 509.9 315.5 511.6 315.5 513.2 315.6 C 514.8 316.4 516.6 316.5 518.3 316.6 C 519.9 317.4 521.4 318.1 523.0 318.7 C 524.3 320.3 525.3 322.1 526.4 323.9 C 526.7 317.9 525.0 312.0 525.1 306.0 C 523.8 300.4 524.6 294.5 523.6 288.9 C 523.0 285.3 523.3 281.6 523.0 278.0 C 521.8 270.7 522.5 263.3 522.0 255.9 C 520.8 246.0 519.7 236.0 520.2 226.0 C 520.4 222.4 519.1 219.0 518.1 215.6 C 517.7 216.1 516.9 217.2 516.5 217.7 C 514.8 217.2 513.1 216.7 511.4 216.3 L 511.8 217.6 C 510.0 217.6 508.1 217.6 506.3 217.5 L 506.9 218.6 C 503.4 218.5 499.8 218.6 496.3 218.6 L 496.7 219.9 C 496.1 219.7 495.0 219.4 494.4 219.2 L 494.6 221.0 C 494.1 220.8 493.0 220.4 492.4 220.2 L 492.8 221.8 L 491.1 221.2 L 491.8 222.9 C 491.3 222.8 490.1 222.4 489.5 222.2 L 489.6 223.9 C 489.0 223.8 487.9 223.5 487.3 223.3 L 487.9 224.8 C 486.9 224.7 484.9 224.4 483.9 224.3 C 485.7 223.5 487.6 222.7 489.5 222.1 L 489.8 220.1 L 488.2 220.9 L 488.6 219.4 C 487.7 219.5 486.0 219.6 485.1 219.7 L 485.8 218.6 C 481.6 218.6 477.4 218.5 473.2 218.5 L 473.5 217.7 C 468.9 217.6 464.3 217.4 459.7 217.4 C 456.4 215.9 452.6 217.0 449.2 216.4 C 444.6 215.4 439.8 215.1 435.3 216.3 C 432.1 217.3 428.7 217.7 425.3 217.7 L 425.8 218.6 C 424.0 218.5 422.1 218.6 420.2 218.6 L 421.0 219.5 C 416.3 219.6 411.6 219.5 406.9 219.8 C 396.8 222.0 385.9 218.4 376.2 222.8 C 375.5 223.5 374.2 224.7 373.6 225.3 C 373.5 224.6 373.4 223.0 373.3 222.2 C 373.8 222.3 375.0 222.5 375.5 222.6 L 375.3 221.6 C 384.6 218.5 394.4 219.9 404.0 219.2 C 408.7 217.8 413.7 218.3 418.5 218.4 C 418.5 217.7 418.6 216.2 418.6 215.5 C 417.1 215.5 415.7 215.6 414.2 215.6 L 414.7 214.7 C 413.8 214.7 412.0 214.6 411.1 214.6 L 411.9 215.5 C 410.6 215.5 409.4 215.5 408.1 215.5 L 408.8 214.6 C 403.6 214.5 398.4 214.4 393.2 214.6 L 393.6 213.7 L 391.3 213.5 L 391.9 214.6 C 388.6 214.5 385.3 214.4 382.1 214.5 L 382.8 213.5 C 378.2 213.6 373.3 214.2 369.2 211.8 C 370.3 211.9 372.7 212.0 373.9 212.1 C 376.2 212.2 378.5 212.3 380.8 212.5 L 380.5 210.6 C 379.1 210.6 377.6 210.6 376.2 210.6 L 376.8 209.5 C 375.2 209.5 373.7 209.6 372.1 209.7 L 372.7 208.8 C 369.7 208.0 366.5 207.9 363.5 206.8 C 361.8 206.7 360.1 206.6 358.4 206.5 C 360.0 209.6 363.8 210.0 366.9 210.6 C 367.4 211.2 368.4 212.4 368.9 213.0 C 367.1 212.4 365.3 211.8 363.5 211.3 C 361.4 210.7 359.2 210.5 357.1 210.1 C 355.2 208.4 353.6 206.6 351.7 205.0 C 346.8 203.3 341.3 203.6 336.5 201.9 C 336.4 201.3 336.2 200.0 336.0 199.3 C 339.9 199.6 343.7 200.3 347.5 200.5 C 347.0 198.3 346.3 196.2 345.8 194.0 C 345.2 193.3 344.7 192.5 344.1 191.7 C 342.4 191.7 340.6 191.5 339.0 191.1 C 339.1 190.4 339.2 189.1 339.3 188.4 C 341.0 188.3 342.6 188.1 344.2 188.0 C 344.5 187.0 344.8 186.1 345.1 185.1 C 344.2 182.5 343.3 179.8 343.1 177.0 C 340.8 167.5 338.0 157.9 338.1 148.0 C 336.5 138.1 336.1 128.1 336.1 118.0 C 334.6 107.6 335.7 97.0 335.4 86.5 C 334.6 85.7 333.8 84.9 333.0 84.1 C 330.0 84.9 326.8 84.6 323.7 84.9 C 322.1 85.6 320.3 85.7 318.6 85.9 L 318.8 86.5 C 313.4 86.1 308.2 87.7 302.9 87.9 C 299.5 89.1 295.9 88.5 292.4 88.7 L 292.9 89.5 C 281.6 90.0 270.3 89.2 259.0 89.6 C 257.3 89.8 255.9 88.7 254.4 88.4 C 255.4 97.6 254.3 106.8 254.6 116.0 C 253.2 127.6 253.9 139.4 253.4 151.0 C 252.5 159.3 252.7 167.7 252.6 176.0 C 252.5 178.4 253.7 180.6 253.6 183.0 C 253.7 186.4 252.7 190.1 254.9 193.1 C 254.4 194.2 253.9 195.4 253.3 196.5 L 254.9 196.4 L 254.4 198.0 C 256.1 197.4 257.8 196.8 259.4 196.2 C 257.3 195.8 256.0 194.3 256.0 192.2 C 258.8 192.7 261.5 193.6 263.1 196.0 C 261.8 196.3 260.4 196.6 259.0 196.8 L 260.0 197.4 C 255.6 196.3 252.8 202.8 248.6 199.6 C 248.0 202.1 248.9 204.5 248.9 207.0 C 247.5 206.3 246.0 205.6 244.6 205.0 C 244.6 208.4 244.6 211.8 244.6 215.3 C 243.0 215.4 241.4 215.5 239.8 215.5 C 239.4 217.3 238.4 218.9 237.4 220.4 L 237.6 218.5 C 233.6 218.5 229.5 218.9 225.6 218.2 C 222.5 218.0 219.5 218.7 216.4 218.3 C 215.1 218.4 213.8 218.6 212.4 218.7 C 212.6 219.6 213.0 221.5 213.2 222.4 C 211.0 224.4 207.9 224.4 205.3 225.5 C 195.0 225.7 184.8 226.3 174.6 225.1 C 169.7 224.7 164.8 223.9 160.0 222.8 C 150.0 222.7 139.9 222.1 129.9 223.4 C 128.7 223.5 127.6 223.4 126.4 223.3 C 113.7 223.7 100.9 223.7 88.1 223.5 C 87.5 229.7 86.5 235.8 86.4 242.0 C 85.3 248.3 85.9 254.7 85.1 261.0 C 84.8 263.2 84.9 265.6 85.2 267.9 C 86.0 274.3 85.1 280.8 86.4 287.2 C 86.9 293.4 88.5 299.5 88.8 305.7 C 87.9 305.7 86.0 305.7 85.1 305.7 C 85.7 307.1 86.6 308.6 88.3 308.7 C 94.2 310.1 100.2 310.1 106.1 311.2 C 103.6 309.6 101.1 307.9 100.2 304.9 C 103.2 303.9 106.8 303.9 109.1 301.4 C 114.3 301.3 119.5 301.6 124.7 300.6 C 125.8 300.5 127.0 300.5 128.2 300.5 C 131.3 301.6 134.6 301.3 137.8 300.5 C 144.7 302.2 151.7 303.8 158.9 304.1 C 160.8 304.1 162.8 304.1 164.6 304.9 C 168.4 305.2 172.2 305.6 176.0 305.9 C 181.2 305.3 186.5 304.9 191.7 306.4 C 192.6 307.8 192.5 309.1 191.3 310.3 C 199.7 312.8 208.5 313.4 217.1 314.2 C 219.5 314.6 221.6 315.7 223.7 316.7 C 223.6 316.2 223.4 315.0 223.3 314.4 C 224.1 314.3 225.7 314.0 226.5 313.9 C 227.9 316.4 230.9 321.3 226.1 322.0 C 226.5 322.6 227.2 323.8 227.6 324.4 C 229.5 328.0 228.3 332.1 229.0 335.8 C 229.5 336.1 230.6 336.5 231.1 336.8 C 231.1 336.1 231.2 334.7 231.2 334.0 C 231.9 334.1 233.1 334.2 233.7 334.2 C 233.5 335.6 233.4 337.1 233.2 338.5 C 234.3 344.6 232.8 350.7 232.4 356.8 C 231.6 364.6 230.5 372.3 229.6 380.1 C 229.6 384.6 228.1 389.2 229.6 393.7 L 230.3 393.4 C 230.6 393.2 231.1 392.7 231.4 392.5 C 231.8 388.0 230.6 383.4 232.5 379.1 C 233.1 379.1 234.5 379.2 235.2 379.3 C 236.4 383.7 235.5 388.4 235.8 393.0 C 236.3 402.1 234.8 411.4 237.2 420.3 C 235.9 427.9 237.2 435.6 236.5 443.3 C 235.8 445.9 235.6 448.7 235.3 451.4 C 234.1 459.0 232.1 466.5 230.8 474.1 C 230.2 478.2 228.6 482.2 228.5 486.4 C 226.7 493.1 224.1 500.0 225.4 507.0 C 223.4 522.0 222.6 537.1 220.0 552.0 C 220.5 554.2 220.8 556.5 221.4 558.6 C 221.9 567.1 221.9 575.6 220.7 584.0 C 221.1 590.8 219.4 597.4 219.7 604.1 C 219.2 610.0 217.2 616.3 219.6 622.1 C 220.8 624.8 220.6 627.8 220.6 630.7 C 219.3 630.7 218.0 630.7 216.7 630.8 C 216.6 636.5 215.0 642.2 215.3 648.0 C 215.3 649.0 215.3 650.1 215.3 651.1 C 214.3 656.2 214.2 661.5 212.4 666.4 C 211.1 669.0 210.9 672.0 209.7 674.6 C 205.7 676.1 205.8 670.4 204.3 668.0 C 205.8 665.1 204.3 662.2 204.2 659.2 C 204.0 659.2 203.7 659.2 203.5 659.2 C 203.5 661.4 203.5 663.6 203.5 665.9 L 202.6 665.3 C 202.9 669.6 202.6 673.9 200.8 677.9 C 201.4 679.2 201.6 680.6 201.4 682.1 C 200.2 682.9 198.8 682.7 197.5 682.9 C 197.5 676.7 196.7 670.6 195.8 664.5 C 196.8 661.4 196.4 658.1 196.5 654.9 C 198.1 649.2 197.1 643.0 197.5 637.2 L 198.3 637.5 C 197.9 626.5 201.7 615.7 201.4 604.6 C 200.7 604.5 199.4 604.4 198.7 604.3 C 198.4 605.3 198.1 606.4 197.7 607.4 C 197.4 599.7 192.9 592.8 188.5 586.7 C 187.3 582.3 184.4 578.6 182.7 574.4 C 179.4 568.6 177.1 562.0 172.3 557.1 C 175.4 564.7 175.2 572.9 177.4 580.7 C 178.1 588.7 180.0 596.6 181.4 604.6 C 182.9 613.1 184.2 621.8 183.6 630.5 C 182.9 631.5 182.3 632.6 181.6 633.5 C 179.7 633.9 178.0 633.2 176.7 632.0 C 177.9 631.3 179.1 630.6 180.4 630.0 C 181.1 620.4 178.4 611.1 176.6 601.8 C 176.0 595.5 174.0 589.4 173.5 583.0 C 172.5 573.8 171.1 564.6 168.6 555.6 C 167.1 552.2 165.3 548.6 161.8 546.9 C 161.8 549.8 162.6 552.7 162.2 555.7 C 163.2 560.3 162.8 565.0 162.6 569.7 C 161.6 570.6 160.6 571.4 159.6 572.3 C 159.5 571.6 159.2 570.1 159.1 569.3 L 160.6 569.5 C 160.5 568.9 160.3 567.9 160.2 567.4 L 161.6 567.5 C 161.6 564.1 160.4 561.0 159.4 557.8 C 158.8 553.6 160.5 548.9 158.4 545.0 C 156.9 544.5 155.6 543.6 154.4 542.7 C 156.5 542.5 158.6 542.4 160.6 542.4 L 160.2 541.4 C 161.3 541.2 162.5 541.1 163.7 541.0 C 165.5 544.1 168.1 546.7 170.1 549.7 C 173.1 553.3 177.0 556.2 179.3 560.4 C 182.7 565.6 186.2 570.9 188.2 576.8 C 189.3 578.7 190.2 580.6 191.3 582.4 C 193.1 586.7 196.5 589.8 198.9 593.7 C 200.0 593.4 201.1 592.9 202.1 592.2 C 202.6 592.6 203.5 593.3 204.0 593.7 C 205.4 589.2 205.0 584.5 205.4 580.0 C 206.7 573.8 206.1 567.4 206.6 561.1 C 207.5 555.9 208.0 550.7 207.7 545.4 C 206.6 542.9 207.4 540.4 208.3 538.0 C 208.8 529.0 208.2 520.0 209.1 511.0 C 209.1 509.8 209.0 508.7 208.8 507.6 C 209.9 500.7 208.8 493.7 210.4 486.9 C 211.2 466.2 213.9 445.7 214.3 425.0 C 214.0 408.7 214.9 392.3 213.5 376.0 C 213.1 368.8 213.9 361.6 212.7 354.4 C 212.2 345.4 212.7 336.3 212.0 327.3 C 210.5 325.9 209.2 323.8 207.0 323.6 C 205.7 323.9 204.4 324.5 203.0 324.7 C 192.7 324.2 182.3 324.8 171.9 324.7 C 153.9 324.5 135.7 325.9 117.9 322.7 C 112.0 321.9 106.0 321.0 100.9 317.8 C 101.4 317.4 102.5 316.6 103.0 316.2 C 110.3 318.1 117.6 319.5 125.0 320.3 C 133.9 321.9 142.9 320.9 151.9 321.6 C 156.7 322.7 161.6 320.9 166.5 321.8 C 172.0 320.8 177.5 321.9 182.9 320.5 C 183.8 320.8 185.6 321.3 186.5 321.6 L 186.3 320.3 C 188.5 321.1 190.8 321.6 192.5 319.8 C 185.1 319.1 177.5 320.5 170.1 318.8 C 169.7 319.0 168.8 319.3 168.4 319.4 C 168.1 319.2 167.6 318.9 167.4 318.7 C 155.9 318.9 144.4 317.8 132.9 317.7 C 119.8 316.6 106.8 314.6 93.7 313.2 C 86.7 312.1 79.8 310.1 72.7 309.4 C 73.3 312.1 73.8 314.8 74.3 317.6 C 74.0 318.8 73.7 320.1 73.4 321.3 C 71.3 321.2 70.2 319.4 69.4 317.6 C 68.9 314.1 71.1 308.9 66.7 307.4 C 63.3 306.2 59.8 305.7 56.4 304.6 C 56.5 305.2 56.6 306.5 56.7 307.2 C 53.7 305.7 49.8 304.3 50.0 300.3 C 56.4 299.6 62.5 302.5 68.5 304.3 C 66.6 296.9 66.6 289.2 64.5 281.9 C 63.3 276.1 62.1 270.2 60.6 264.4 C 60.3 261.4 59.3 258.5 59.2 255.5 L 58.7 256.0 C 58.6 254.1 58.2 252.2 57.4 250.5 L 55.7 250.4 C 55.1 252.5 54.4 254.5 53.6 256.5 C 52.5 257.8 51.6 259.3 50.7 260.7 C 51.5 256.2 53.1 251.8 54.4 247.4 C 54.8 246.8 55.5 245.4 55.8 244.7 C 57.9 245.0 58.9 246.7 59.4 248.5 C 59.9 250.2 60.8 251.6 61.5 253.1 C 61.5 255.0 60.1 256.8 61.5 258.5 C 64.3 264.3 64.2 271.1 67.1 277.0 C 67.6 274.7 67.9 272.5 68.1 270.2 C 68.2 268.8 68.4 267.5 68.6 266.1 C 69.9 260.5 68.8 254.5 71.1 249.1 C 71.3 247.6 71.5 246.1 71.6 244.6 C 72.6 241.3 73.3 238.0 73.7 234.6 C 74.6 232.0 75.3 229.3 75.7 226.6 C 76.9 222.3 77.4 217.8 79.3 213.7 C 78.9 213.2 78.3 212.2 77.9 211.7 C 78.3 210.6 78.7 209.6 79.1 208.5 C 79.1 208.0 79.2 207.1 79.3 206.7 C 78.4 205.6 77.4 204.5 77.0 203.1 C 77.7 201.8 79.0 201.2 80.2 200.5 C 80.3 198.7 80.4 196.8 80.4 195.0 C 81.4 195.0 82.3 195.1 83.3 195.1 C 83.8 196.2 84.3 197.2 84.8 198.2 C 86.4 199.2 87.9 200.4 89.7 201.0 C 94.7 201.2 99.7 201.5 104.6 200.9 C 105.2 200.4 106.5 199.6 107.1 199.1 C 102.1 197.1 96.5 197.5 91.2 197.3 C 89.5 195.8 87.6 194.4 85.5 193.4 C 85.0 192.5 84.5 191.6 83.9 190.8 C 87.9 185.9 95.2 186.7 100.6 187.9 C 105.5 187.6 110.3 189.6 115.1 188.6 C 116.8 189.0 118.6 189.0 120.4 189.0 C 123.1 187.7 125.9 186.7 128.8 185.7 C 128.8 186.7 128.9 188.5 128.9 189.4 C 130.5 190.0 132.1 190.3 133.8 190.5 C 133.3 189.3 132.8 188.1 132.3 186.9 C 132.5 186.5 133.0 185.8 133.3 185.4 C 144.6 183.9 155.7 187.9 167.0 188.1 C 177.7 189.0 188.4 188.2 199.0 187.1 C 210.9 187.1 222.5 184.3 234.3 183.0 C 234.6 180.2 235.2 177.5 234.5 174.8 C 235.9 167.0 234.9 159.0 235.6 151.2 C 236.5 146.7 236.0 142.2 236.7 137.7 C 240.2 120.0 239.2 102.0 239.1 84.1 C 238.3 80.5 239.1 76.7 240.3 73.3 C 240.9 73.3 242.0 73.4 242.6 73.4 C 242.6 73.9 242.5 74.9 242.5 75.4 C 243.1 75.2 244.5 74.6 245.1 74.4 C 245.5 72.3 246.1 70.2 246.5 68.2 L 247.4 68.5 C 247.4 67.8 247.5 66.5 247.5 65.8 C 249.5 66.3 251.2 67.5 251.9 69.6 C 250.5 69.7 249.0 69.5 247.5 69.5 C 247.0 72.3 248.4 74.1 251.2 74.5 C 251.2 73.7 251.2 72.1 251.3 71.3 C 252.6 71.3 253.6 72.7 254.8 73.3 C 255.7 72.1 256.7 71.0 257.7 69.8 C 256.3 68.5 254.9 67.2 253.6 65.9 C 255.6 64.9 257.7 64.0 260.0 63.8 C 260.3 60.4 263.2 63.0 265.0 63.4 C 267.7 63.7 270.7 63.2 271.9 60.4 C 273.0 59.9 274.3 59.4 275.5 58.9 C 276.3 60.0 277.2 61.1 278.0 62.3 C 286.6 61.7 295.3 60.5 303.8 58.8 C 306.3 58.2 308.9 58.3 311.5 58.2 L 311.2 57.4 C 312.6 57.4 313.9 57.5 315.2 57.5 M 313.8 59.0 C 314.4 60.3 317.9 59.3 316.5 57.9 C 315.2 57.6 314.3 57.9 313.8 59.0 M 293.5 62.7 C 293.2 62.9 292.6 63.5 292.3 63.7 L 291.8 62.8 C 290.3 63.4 288.7 63.9 287.3 64.6 C 286.5 64.6 285.0 64.6 284.2 64.6 L 285.0 66.0 C 284.4 65.6 283.2 64.8 282.6 64.4 C 282.5 65.1 282.4 66.5 282.4 67.2 C 285.2 68.6 288.3 69.6 291.4 68.8 C 294.1 69.0 296.8 69.4 299.4 68.5 C 304.3 67.1 309.4 66.6 314.5 66.2 L 314.2 65.4 C 315.7 65.3 317.4 65.6 318.8 64.9 C 319.9 62.5 315.6 62.5 314.1 62.4 L 314.8 61.5 C 312.7 61.7 310.7 61.8 308.7 62.1 C 303.6 62.3 298.6 62.6 293.5 62.7 M 331.1 62.7 C 331.5 64.2 332.3 65.7 333.1 67.0 C 334.8 66.8 336.4 66.3 338.0 66.1 C 336.9 64.9 335.8 63.7 334.8 62.5 C 333.9 62.5 332.0 62.6 331.1 62.7 M 319.7 65.7 L 319.9 66.4 C 320.8 67.2 323.3 67.8 323.7 66.3 C 323.0 65.5 322.0 65.1 320.8 65.1 C 320.5 65.2 320.0 65.5 319.7 65.7 M 271.1 67.5 C 270.1 69.0 268.8 70.2 267.4 71.4 C 267.6 72.3 267.8 74.1 267.9 75.0 C 269.0 73.9 269.9 72.7 270.7 71.3 C 271.6 70.9 272.6 70.6 273.5 70.2 C 273.4 69.6 273.2 68.4 273.1 67.8 C 272.6 67.8 271.6 67.6 271.1 67.5 M 277.2 71.2 L 277.2 71.8 C 277.8 72.8 280.2 72.4 280.0 71.2 C 279.1 70.3 278.1 70.3 277.2 71.2 M 329.1 72.6 C 329.3 73.0 329.7 73.7 329.9 74.1 C 329.1 74.5 327.7 75.3 327.0 75.7 C 326.6 75.5 325.8 75.2 325.4 75.0 L 325.5 77.4 C 330.0 76.5 334.6 76.0 338.9 74.6 C 337.9 73.4 336.6 72.4 335.3 71.5 C 333.4 72.7 331.2 72.5 329.1 72.6 M 324.1 74.1 L 324.2 74.7 L 324.8 74.7 L 324.8 74.0 L 324.1 74.1 M 341.3 77.6 L 341.9 78.7 C 340.9 78.6 339.0 78.5 338.0 78.5 C 338.2 79.1 338.7 80.4 338.9 81.0 C 340.8 80.8 342.7 80.4 344.5 80.7 C 346.3 80.5 348.1 80.2 350.0 80.0 C 349.3 79.1 348.6 78.1 347.9 77.1 C 345.7 77.6 343.5 77.6 341.3 77.6 M 253.6 82.8 C 256.0 85.0 259.4 85.0 262.5 85.1 L 262.5 83.6 C 261.7 83.6 259.9 83.6 259.1 83.6 L 259.7 82.4 C 257.6 82.5 255.6 82.6 253.6 82.8 M 343.2 83.4 C 342.0 83.5 340.9 83.5 339.7 83.6 C 339.7 84.4 339.6 86.0 339.6 86.9 L 340.5 86.0 C 340.4 88.3 340.4 90.7 341.6 92.8 C 341.3 100.0 344.4 106.8 344.7 113.9 C 345.1 121.9 346.0 129.8 347.6 137.6 L 349.4 137.6 C 349.3 126.0 349.6 114.5 349.5 102.9 C 349.5 101.6 349.7 100.3 349.9 99.0 C 349.2 95.1 349.8 91.2 349.9 87.2 C 349.5 85.6 348.9 84.0 348.2 82.4 C 346.5 82.6 344.8 82.8 343.2 83.4 M 244.4 97.3 C 243.1 102.8 244.0 108.5 243.4 114.1 C 242.2 124.9 242.9 135.8 243.4 146.6 L 245.3 146.4 C 245.4 144.8 245.4 143.3 245.5 141.8 C 246.5 139.6 246.3 137.2 246.4 135.0 C 246.3 130.7 247.5 126.6 246.7 122.4 C 246.5 119.6 246.6 116.9 246.3 114.1 C 246.2 111.3 244.9 108.5 246.0 105.8 C 246.9 106.7 247.8 107.6 248.6 108.5 C 249.0 108.6 249.9 108.7 250.4 108.7 C 250.4 105.6 250.4 102.4 250.5 99.3 L 249.3 99.9 C 249.4 97.0 249.5 94.2 249.8 91.4 C 249.5 90.1 249.3 88.8 249.1 87.5 C 247.8 86.1 246.5 84.5 245.3 83.0 C 244.4 87.7 245.1 92.6 244.4 97.3 M 337.6 88.8 C 337.8 92.9 337.8 97.0 337.0 100.9 C 338.5 111.2 337.0 121.6 338.5 131.9 C 338.5 141.0 340.1 149.8 341.2 158.8 C 342.6 165.9 344.6 172.8 345.8 179.9 C 346.2 182.0 346.5 184.8 349.2 185.0 C 349.1 180.6 349.8 176.2 348.6 171.9 C 349.6 165.9 348.2 159.8 347.6 153.8 C 347.4 145.5 344.8 137.4 343.5 129.2 C 343.6 125.5 343.1 121.7 342.6 118.0 C 342.6 112.4 341.8 106.9 340.7 101.4 C 340.2 97.1 340.2 92.4 337.6 88.8 M 246.5 148.3 C 246.5 149.1 246.4 150.5 246.4 151.3 C 245.7 153.4 245.5 155.6 244.8 157.8 C 243.7 163.5 242.7 169.6 244.8 175.2 L 246.4 175.7 C 246.4 173.7 246.5 171.7 246.6 169.8 C 247.9 167.2 247.2 164.3 247.7 161.6 C 248.4 157.2 248.2 152.8 248.4 148.4 L 246.5 148.3 M 351.7 179.5 C 351.1 181.1 350.8 185.0 353.3 184.6 C 353.6 183.1 352.6 180.3 351.7 179.5 M 246.7 179.4 C 246.6 183.1 246.4 186.8 246.4 190.5 C 247.5 191.5 248.8 192.1 250.2 192.5 C 249.4 188.2 248.9 183.8 249.3 179.4 C 248.6 179.4 247.4 179.4 246.7 179.4 M 88.1 189.9 C 87.9 190.5 87.4 191.6 87.2 192.1 C 95.2 194.0 103.4 194.4 111.6 194.1 L 111.5 192.9 C 107.7 193.2 104.4 191.6 101.2 190.0 C 96.8 189.6 92.4 189.5 88.1 189.9 M 247.4 193.6 C 246.7 195.2 248.8 197.3 250.3 196.1 C 251.1 194.7 248.6 192.8 247.4 193.6 M 352.2 193.0 C 352.7 194.6 353.2 196.1 353.8 197.6 C 354.5 197.5 356.0 197.2 356.7 197.1 C 355.6 195.3 354.5 193.5 352.2 193.0 M 180.2 197.9 C 187.8 198.4 195.4 198.0 203.0 198.1 C 206.4 197.9 210.1 198.7 213.2 196.9 L 210.2 196.6 L 210.9 195.6 C 210.0 195.6 208.3 195.4 207.5 195.4 C 207.4 195.9 207.4 196.9 207.4 197.5 L 206.8 195.7 C 203.9 195.6 201.1 195.6 198.2 195.6 L 198.8 196.9 C 194.7 196.2 190.5 195.0 186.4 196.3 C 184.1 197.6 180.3 193.8 180.2 197.9 M 351.4 198.8 C 352.1 199.9 352.7 201.1 353.3 202.2 C 355.1 202.4 356.8 202.3 358.6 202.1 C 357.7 200.6 356.8 199.1 355.8 197.7 C 354.3 198.1 352.9 198.5 351.4 198.8 M 424.8 197.9 C 427.6 199.2 431.1 200.0 433.9 198.5 C 436.0 199.5 438.4 199.5 440.7 199.7 L 440.6 197.6 C 435.3 198.0 430.0 197.1 424.8 197.9 M 444.3 199.0 C 443.7 200.5 447.2 200.6 446.7 199.0 C 446.1 199.0 444.9 199.0 444.3 199.0 M 112.5 200.6 C 113.0 201.9 113.7 202.1 114.7 201.0 C 114.1 199.6 113.4 199.5 112.5 200.6 M 132.9 202.7 C 135.5 203.2 138.0 203.3 140.6 203.2 C 143.5 203.6 146.2 205.6 149.2 204.8 C 152.0 204.2 155.0 204.1 157.8 204.7 C 162.7 205.7 167.5 204.4 172.3 204.1 C 169.4 203.8 166.4 203.7 163.5 203.7 C 153.4 201.8 143.1 203.3 132.9 202.7 M 229.1 203.5 C 230.2 203.9 232.3 204.7 233.4 205.1 C 233.1 205.8 232.6 206.4 232.0 206.8 C 223.3 205.8 214.5 206.8 205.9 208.4 C 200.2 208.5 194.5 208.9 188.8 208.8 C 187.9 209.2 186.0 209.9 185.1 210.3 C 187.6 210.9 190.1 211.2 192.5 211.9 C 199.4 211.8 206.3 214.9 213.1 212.4 C 217.2 210.3 222.2 212.4 225.9 209.4 C 227.2 209.6 228.5 209.6 229.7 209.9 C 227.9 210.2 226.0 210.4 224.4 211.2 C 221.9 212.2 219.4 213.3 217.0 214.3 C 221.1 216.6 225.8 216.1 230.3 216.6 C 232.4 217.1 234.5 217.2 236.6 217.3 C 237.0 215.2 237.2 213.1 237.4 210.9 C 235.9 210.5 233.4 209.9 233.5 208.0 C 233.6 206.6 233.7 205.3 233.9 204.0 C 232.5 202.7 230.8 202.1 229.1 203.5 M 92.4 204.0 C 92.7 205.8 97.2 206.0 97.6 204.7 C 95.9 204.6 94.0 203.0 92.4 204.0 M 107.2 205.0 L 107.2 205.7 L 107.8 205.7 L 107.8 205.0 L 107.2 205.0 M 89.5 207.8 C 90.6 208.8 91.9 209.4 93.4 209.7 C 96.8 210.0 100.1 210.4 103.4 211.2 C 103.5 210.6 103.6 209.3 103.6 208.6 C 98.8 209.4 94.2 207.5 89.5 207.8 M 475.2 209.0 L 475.2 209.7 L 475.9 209.7 L 475.9 209.0 L 475.2 209.0 M 478.3 208.9 C 477.7 210.5 481.2 210.5 480.7 209.0 C 480.1 208.9 478.9 208.9 478.3 208.9 M 128.5 210.9 C 131.2 213.1 134.8 213.0 138.0 213.2 C 144.0 213.4 150.2 212.6 156.1 214.2 C 160.1 214.2 164.1 214.2 168.1 214.6 L 167.2 213.6 C 175.4 214.6 167.1 210.5 165.3 212.4 C 165.0 212.2 164.6 211.8 164.4 211.7 C 159.9 211.8 155.5 210.3 151.0 210.6 C 146.6 210.8 142.3 209.4 137.9 210.1 C 134.8 210.6 131.7 210.6 128.5 210.9 M 514.2 210.6 L 514.8 212.0 L 513.4 211.2 C 513.4 211.9 513.5 213.4 513.5 214.1 C 515.1 214.3 516.8 214.4 518.4 214.6 C 517.9 213.3 517.5 211.9 517.2 210.5 C 516.4 210.5 515.0 210.6 514.2 210.6 M 87.9 214.4 C 87.8 216.3 87.7 218.1 87.7 219.9 C 88.7 220.5 89.7 221.2 90.9 221.1 C 98.9 221.8 107.0 220.9 115.0 221.0 C 122.5 221.4 129.8 219.8 137.3 220.8 C 131.5 217.2 124.3 218.4 117.8 217.1 C 114.5 216.4 111.1 216.7 107.7 216.5 C 101.2 215.5 94.5 213.8 87.9 214.4 M 145.8 215.9 C 149.9 218.1 154.6 218.2 159.1 218.2 C 165.2 219.4 171.7 220.1 177.6 218.2 C 176.1 217.7 174.5 217.2 173.0 216.7 C 167.7 216.7 162.3 216.3 156.9 216.5 C 153.4 215.2 149.5 215.4 145.8 215.9 M 419.9 216.2 L 419.9 216.9 C 420.5 216.9 421.6 216.9 422.2 216.9 C 421.9 215.5 421.1 215.3 419.9 216.2 M 206.5 218.6 C 207.4 220.2 207.6 221.9 207.7 223.7 C 209.7 223.8 211.4 223.1 212.6 221.5 C 212.7 219.4 210.8 218.6 209.2 217.7 C 208.5 218.0 207.2 218.4 206.5 218.6 M 196.2 219.1 L 196.2 219.8 L 196.9 219.8 L 196.9 219.1 L 196.2 219.1 M 74.6 243.5 C 72.7 249.6 72.8 255.8 71.7 262.0 C 71.5 269.4 69.3 276.6 69.8 284.0 C 69.8 290.0 71.1 295.8 71.2 301.7 C 71.5 302.7 71.7 303.8 72.0 304.9 C 73.4 305.3 74.7 305.9 76.0 306.2 C 76.6 301.8 76.0 297.4 76.2 293.0 C 74.8 287.7 75.7 282.3 75.2 277.0 C 75.3 270.1 75.3 263.1 75.6 256.2 C 76.6 252.0 76.1 247.7 76.3 243.5 L 74.6 243.5 M 81.0 296.6 C 83.1 296.3 82.1 293.3 80.8 292.5 C 79.3 293.0 79.5 296.2 81.0 296.6 M 80.6 299.5 C 80.8 302.7 80.0 306.6 83.5 308.4 C 83.4 305.4 83.2 302.4 82.5 299.4 L 80.6 299.5 M 359.2 301.5 L 359.9 302.4 C 358.4 302.5 356.9 302.7 355.4 302.8 C 355.9 306.5 359.6 307.5 362.4 308.9 C 370.9 311.2 379.7 311.1 388.4 311.7 C 382.3 307.6 374.7 306.4 367.5 305.5 C 365.7 303.7 363.7 302.0 361.1 302.3 L 361.7 301.6 L 359.2 301.5 M 120.3 303.3 C 115.6 303.7 111.3 305.8 106.7 305.9 C 110.3 307.9 114.5 308.7 118.4 309.9 C 130.2 311.2 141.9 309.5 153.5 308.1 L 153.5 306.7 C 149.6 306.6 145.6 307.1 141.8 305.9 C 141.5 306.0 140.9 306.2 140.6 306.3 C 136.9 305.5 133.1 305.8 129.4 305.5 C 128.1 304.8 127.3 303.5 126.4 302.5 C 124.3 302.6 122.2 302.4 120.3 303.3 M 143.5 311.7 L 143.4 313.3 C 151.0 314.8 158.9 314.0 166.4 312.0 C 165.2 309.4 162.4 309.8 160.0 309.7 C 154.7 311.2 149.0 311.5 143.5 311.7 M 351.4 313.8 C 351.6 314.4 351.8 315.6 352.0 316.2 C 356.6 317.0 361.2 318.0 365.8 316.9 C 366.4 317.0 367.5 317.1 368.0 317.2 C 370.8 317.2 373.6 317.2 376.4 317.4 L 376.7 315.7 C 375.3 315.2 374.0 314.7 372.6 314.2 C 369.2 313.3 365.6 313.5 362.1 313.6 L 362.6 312.6 C 358.9 312.6 355.0 312.5 351.4 313.8 M 171.6 314.0 C 171.6 314.5 171.6 315.4 171.6 315.9 C 176.4 317.0 181.3 317.1 186.1 317.2 C 190.2 317.6 194.1 320.1 198.3 319.1 C 194.7 316.8 190.7 315.3 186.6 314.3 C 184.4 313.7 182.1 314.9 179.9 314.1 C 177.2 313.3 174.3 313.7 171.6 314.0 M 431.3 314.8 C 430.1 315.7 428.9 316.7 427.7 317.5 C 431.2 318.4 434.7 319.4 438.4 319.6 C 440.6 320.9 442.7 319.8 444.6 318.6 C 445.6 318.1 446.7 317.6 447.7 317.2 L 447.5 315.8 C 442.3 313.7 436.7 314.9 431.3 314.8 M 454.2 314.6 C 452.6 316.3 451.1 318.9 448.3 318.7 C 448.4 319.4 448.5 320.8 448.5 321.5 C 455.9 323.9 463.9 321.4 471.4 323.2 C 474.6 323.7 477.7 322.4 480.9 322.5 C 487.4 322.5 493.9 322.3 500.4 322.4 C 500.4 322.1 500.4 321.4 500.4 321.1 C 502.4 322.2 504.5 322.5 506.7 322.7 L 505.9 320.8 C 506.6 321.5 507.8 322.9 508.5 323.6 L 508.3 321.3 C 509.2 321.5 511.0 321.7 511.9 321.8 L 511.1 320.2 L 512.6 320.8 L 512.4 318.3 C 511.9 318.5 510.8 318.8 510.3 319.0 L 510.6 317.5 C 509.7 317.5 507.9 317.6 507.0 317.6 L 507.8 316.5 C 500.6 316.7 493.3 316.3 486.1 316.5 L 486.8 315.6 C 480.5 315.8 474.2 315.5 467.9 315.4 C 463.4 314.3 458.8 314.7 454.2 314.6 M 204.1 316.3 C 207.9 319.9 212.1 322.7 216.3 325.6 C 216.4 323.5 216.5 321.4 216.5 319.3 C 215.8 318.9 214.3 318.2 213.6 317.8 C 210.4 317.8 207.2 317.1 204.1 316.3 M 222.9 316.4 L 222.6 318.5 C 221.9 318.6 220.4 318.7 219.7 318.8 C 219.9 326.7 220.8 334.6 221.8 342.5 L 223.1 342.4 C 223.2 339.4 224.7 336.8 226.3 334.3 C 225.9 330.5 225.1 326.8 225.3 322.9 C 225.6 320.5 223.9 318.5 222.9 316.4 M 382.3 318.6 L 382.8 319.6 C 381.4 319.5 379.9 319.5 378.4 319.5 L 378.4 321.4 C 385.4 322.8 392.6 322.1 399.7 323.2 C 404.7 323.3 409.7 323.7 414.6 324.6 L 414.6 322.8 C 411.1 320.7 407.1 320.3 403.2 320.5 L 403.6 319.8 C 401.0 319.7 398.5 319.4 396.1 318.8 C 391.5 318.4 386.9 318.7 382.3 318.6 M 342.6 319.1 C 342.7 325.5 342.2 331.9 343.4 338.2 C 343.1 340.9 342.6 343.6 342.7 346.4 L 344.4 346.8 C 345.0 344.2 345.3 341.6 345.2 339.0 C 345.1 334.1 346.0 329.2 344.7 324.4 C 344.6 322.4 344.2 320.5 342.6 319.1 M 360.8 321.5 C 360.7 322.2 360.6 323.6 360.6 324.3 C 361.0 324.2 361.9 324.0 362.4 324.0 C 363.1 325.1 363.5 326.8 364.9 327.3 C 376.4 332.2 389.0 330.5 401.0 330.3 C 403.5 329.6 405.9 329.2 408.5 329.2 C 408.5 328.5 408.6 327.1 408.6 326.4 L 407.2 326.8 L 407.7 325.5 C 403.8 325.5 399.9 325.9 396.1 325.1 L 395.5 326.3 C 395.5 325.9 395.4 325.0 395.4 324.6 C 391.0 324.9 386.6 324.4 382.2 324.5 L 382.5 323.7 C 377.8 324.0 373.3 323.0 368.7 322.4 C 366.2 321.4 363.4 321.6 360.8 321.5 M 438.3 325.5 L 438.9 327.0 L 437.3 326.3 L 437.6 328.1 C 442.5 329.8 447.3 332.0 452.4 332.7 C 458.9 333.9 465.2 336.1 471.9 335.5 L 471.4 336.5 C 472.9 336.4 474.5 336.3 476.0 336.2 C 476.8 334.6 477.4 334.7 477.7 336.5 C 485.0 335.9 492.3 337.5 499.3 335.3 C 499.5 333.8 499.8 332.3 500.2 330.8 C 499.9 330.3 499.3 329.2 499.0 328.7 C 489.4 328.6 479.8 328.5 470.2 328.5 L 470.5 327.3 C 468.9 327.7 467.3 328.1 465.8 328.6 L 466.7 327.6 C 459.4 327.7 452.1 326.2 444.8 326.4 C 442.7 325.5 440.4 325.7 438.3 325.5 M 214.5 331.0 C 214.7 332.5 214.8 334.0 215.2 335.5 C 215.7 345.3 215.5 355.2 215.9 365.0 C 216.1 367.8 215.3 370.9 217.3 373.3 C 217.7 370.7 217.3 368.2 217.7 365.6 C 218.9 361.2 218.2 356.5 218.4 351.9 C 219.2 346.3 218.0 340.6 218.2 334.9 C 218.7 332.6 216.2 331.7 214.5 331.0 M 223.9 348.3 C 222.3 351.4 227.3 348.5 223.9 348.3 M 223.7 349.9 C 223.4 352.7 223.4 355.6 224.2 358.4 C 223.6 362.7 223.4 367.0 223.6 371.4 C 224.0 370.5 224.7 368.9 225.1 368.0 C 225.2 363.0 225.3 357.9 225.3 352.9 C 224.9 352.1 224.1 350.6 223.7 349.9 M 230.2 398.1 C 231.4 397.5 231.1 395.3 230.6 394.2 C 228.6 394.3 229.0 397.2 230.2 398.1 M 229.2 426.7 C 229.7 426.5 230.7 426.1 231.2 425.9 L 229.1 427.7 L 232.5 427.5 C 231.9 424.7 233.9 420.9 231.0 419.0 C 231.6 419.2 232.9 419.6 233.5 419.8 L 233.2 417.0 C 232.7 417.2 231.5 417.7 230.9 417.9 C 230.5 420.9 230.1 423.8 229.2 426.7 M 227.9 432.9 C 227.4 437.8 226.5 442.6 226.5 447.6 L 228.3 447.5 C 229.9 441.1 231.0 434.5 230.4 427.9 C 229.3 429.4 228.2 431.0 227.9 432.9 M 344.0 428.4 C 342.3 443.3 341.5 458.2 339.7 473.1 C 338.7 481.0 338.8 489.1 337.9 497.0 C 337.2 514.0 335.5 530.9 334.4 547.9 C 334.0 555.1 332.5 562.2 333.0 569.4 C 334.4 572.5 335.7 575.8 337.5 578.7 C 340.2 575.6 343.5 572.9 344.9 568.8 C 345.8 565.8 347.7 563.2 348.3 560.1 C 348.6 547.9 348.2 535.6 348.7 523.4 C 348.4 519.0 348.1 514.4 348.9 510.0 C 347.7 506.0 349.4 502.0 349.1 498.0 C 349.0 492.6 349.4 487.2 348.6 481.8 C 347.9 476.7 348.8 471.5 347.7 466.4 C 346.8 460.2 347.9 453.8 346.8 447.6 C 346.1 441.2 346.4 434.5 344.0 428.4 M 225.8 449.4 C 224.4 454.2 225.0 459.2 223.9 464.0 C 222.3 472.4 222.2 481.0 220.8 489.3 L 222.2 489.8 C 222.2 487.5 222.1 485.2 223.2 483.1 C 223.2 481.8 223.4 480.5 223.5 479.2 C 226.1 469.5 227.0 459.4 228.3 449.5 C 227.7 449.5 226.4 449.4 225.8 449.4 M 273.2 525.6 C 272.7 527.3 273.2 527.9 274.8 527.4 C 275.4 525.7 274.8 525.2 273.2 525.6 M 325.2 572.5 C 324.4 576.1 324.5 579.7 324.6 583.3 L 325.2 583.4 C 325.4 583.2 325.9 582.9 326.1 582.8 C 326.1 576.5 326.9 570.0 325.7 563.8 C 325.6 566.7 325.4 569.6 325.2 572.5 M 213.1 570.5 C 213.8 569.1 214.5 567.3 214.1 565.7 C 212.2 565.1 212.1 569.5 213.1 570.5 M 389.0 569.0 C 388.1 569.8 387.3 570.7 386.4 571.6 C 385.7 571.6 384.3 571.6 383.5 571.5 C 383.6 572.1 383.7 573.1 383.7 573.7 C 383.3 573.6 382.4 573.5 382.0 573.5 C 380.2 575.7 378.6 578.1 376.9 580.4 C 376.7 581.3 376.4 582.2 376.1 583.1 C 375.1 584.9 374.1 586.8 373.3 588.7 C 373.0 588.7 372.4 588.6 372.1 588.5 C 371.6 589.9 371.0 591.4 370.4 592.8 C 370.0 593.2 369.1 594.0 368.7 594.3 C 368.6 596.2 368.4 598.0 368.3 599.8 C 369.5 598.5 370.7 597.3 372.0 596.0 C 374.0 594.4 376.0 592.7 377.8 590.8 C 380.5 588.6 382.8 585.8 385.8 584.0 C 387.9 582.3 390.1 580.8 392.1 579.0 C 393.0 576.8 394.1 574.6 394.8 572.2 L 395.4 572.6 C 395.4 570.0 395.4 567.5 395.5 564.9 C 393.5 566.6 391.4 568.0 389.0 569.0 M 412.3 565.6 L 412.6 566.9 C 412.3 566.8 411.7 566.7 411.4 566.6 C 410.4 567.5 409.4 568.3 408.3 569.0 L 408.8 569.8 C 408.4 569.7 407.7 569.6 407.3 569.6 C 405.2 571.9 402.6 574.0 403.1 577.6 C 404.3 576.6 405.5 575.7 406.8 574.8 C 408.4 573.7 410.2 572.8 411.9 572.0 C 412.6 570.8 413.4 569.7 414.3 568.8 C 414.4 567.9 414.7 566.3 414.8 565.4 L 412.3 565.6 M 213.1 574.2 C 213.1 573.6 213.1 572.3 213.1 571.7 C 211.5 571.0 211.7 574.4 213.1 574.2 M 333.1 583.5 C 334.6 583.2 334.4 580.6 333.1 580.2 C 331.5 580.4 331.9 583.0 333.1 583.5 M 215.2 587.4 C 215.1 589.5 214.8 591.5 214.8 593.7 C 217.6 589.2 217.5 583.6 217.2 578.5 C 215.5 581.1 215.7 584.4 215.2 587.4 M 265.2 585.2 C 265.2 585.8 265.0 589.8 266.1 587.6 C 266.1 585.9 266.8 583.9 265.9 582.3 C 264.9 582.9 264.7 583.8 265.2 585.2 M 325.1 585.1 C 322.8 586.5 323.9 589.0 324.6 591.1 C 325.4 589.1 326.2 587.1 326.3 585.0 C 326.0 585.0 325.4 585.1 325.1 585.1 M 265.0 589.1 C 264.3 590.2 264.2 591.4 264.9 592.6 C 266.1 592.5 266.7 588.9 265.0 589.1 M 384.1 592.0 C 379.5 597.0 371.9 601.2 372.4 608.9 L 371.4 608.5 C 371.9 610.9 372.4 613.3 373.2 615.6 C 374.0 618.3 376.2 620.2 378.2 622.0 C 381.6 615.5 382.8 608.2 384.7 601.2 L 385.2 601.3 C 386.3 597.2 388.1 593.4 388.6 589.2 C 387.1 590.1 385.6 591.1 384.1 592.0 M 340.7 599.8 C 340.6 600.9 340.4 603.2 340.3 604.3 C 338.4 610.7 336.9 617.3 336.6 624.0 C 337.3 627.2 337.5 630.5 338.4 633.7 C 338.3 637.5 339.8 641.0 340.0 644.8 C 340.5 644.6 341.5 644.3 342.0 644.1 C 342.6 639.7 345.0 635.5 344.4 631.0 C 343.0 630.4 341.7 629.7 340.4 629.0 C 340.5 626.8 339.6 623.4 342.8 623.0 C 342.2 620.9 341.3 618.8 341.3 616.6 C 340.8 616.4 339.9 616.1 339.4 616.0 C 339.9 615.8 341.0 615.6 341.5 615.4 C 341.5 614.8 341.5 613.4 341.5 612.7 C 343.0 608.5 343.7 603.6 340.7 599.8 M 326.0 611.8 C 325.3 613.0 325.4 614.1 326.0 615.2 C 327.7 615.4 327.2 611.9 326.0 611.8 M 394.4 619.5 C 394.5 620.1 394.8 621.1 394.9 621.6 L 393.7 621.3 C 393.2 622.8 392.7 624.3 392.3 625.8 L 391.3 625.5 C 391.4 625.9 391.6 626.7 391.7 627.2 C 390.3 628.0 389.9 629.5 389.2 630.8 L 388.6 630.5 C 388.6 631.7 388.5 632.9 388.5 634.2 C 386.4 634.4 386.6 636.4 386.5 637.9 L 386.0 637.9 C 385.7 638.4 385.4 638.9 385.2 639.5 C 386.2 638.5 387.3 637.6 388.4 636.7 C 388.4 636.4 388.3 635.8 388.3 635.6 C 389.2 634.0 390.3 632.6 391.4 631.4 C 391.4 630.7 391.3 629.4 391.3 628.8 C 391.7 628.3 392.5 627.4 392.9 627.0 C 395.2 625.0 395.8 622.1 396.9 619.4 C 396.3 619.4 395.0 619.5 394.4 619.5 M 426.0 619.7 C 425.4 620.5 424.7 621.3 424.0 622.0 C 423.0 623.0 422.0 624.0 421.0 625.0 C 419.3 627.9 417.2 630.6 415.1 633.1 C 413.9 635.0 412.5 636.6 411.0 638.2 C 410.4 639.1 409.7 640.1 409.1 641.0 C 407.7 642.3 406.4 643.7 405.0 645.1 C 404.4 646.1 403.7 647.1 403.1 648.0 C 400.2 650.7 397.7 653.9 394.4 656.1 C 394.5 656.7 394.6 657.9 394.6 658.5 L 395.7 658.3 L 396.4 656.7 C 396.4 657.3 396.6 658.5 396.6 659.0 C 398.0 657.9 399.3 656.8 400.8 655.9 C 401.7 655.3 402.7 654.7 403.8 654.1 L 403.2 653.1 C 403.6 653.2 404.4 653.4 404.7 653.5 C 406.1 651.7 407.9 650.1 409.9 649.0 C 411.4 647.6 413.0 646.2 414.7 645.0 C 416.2 643.7 417.6 642.4 419.1 641.1 C 421.7 639.5 423.5 637.0 425.4 634.7 C 425.3 634.3 425.2 633.7 425.1 633.4 L 426.4 633.6 C 426.5 631.1 426.5 628.7 426.5 626.2 L 427.3 626.5 C 427.4 624.1 427.5 621.7 427.5 619.2 L 426.0 619.7 M 330.9 633.6 C 330.9 634.1 330.7 635.0 330.6 635.5 C 332.2 637.1 333.0 632.5 330.9 633.6 M 299.9 639.9 C 299.8 640.5 299.6 641.7 299.5 642.3 C 296.9 645.1 296.5 649.0 295.2 652.4 C 294.5 654.2 294.2 656.1 294.4 658.1 C 297.5 653.9 299.9 649.1 302.2 644.4 C 302.7 643.4 303.2 642.3 303.7 641.3 L 304.5 641.6 C 304.5 640.8 304.5 639.3 304.5 638.5 C 303.0 639.0 301.5 639.4 299.9 639.9 M 345.2 648.3 C 347.3 646.4 347.6 643.6 348.7 641.2 L 347.1 641.8 C 347.2 641.3 347.3 640.3 347.4 639.8 C 346.4 642.6 345.2 645.3 345.2 648.3 M 384.1 646.6 C 383.2 647.7 382.2 648.7 381.5 649.9 C 381.8 651.1 382.2 652.3 382.6 653.5 C 384.2 653.5 385.7 653.4 387.2 653.4 C 387.3 651.0 387.3 648.7 387.4 646.3 C 386.5 646.4 384.9 646.6 384.1 646.6 M 429.8 647.4 C 429.8 649.1 429.8 650.7 429.7 652.4 C 430.2 652.5 431.1 652.8 431.5 653.0 C 431.0 653.1 430.1 653.5 429.6 653.7 C 430.0 660.3 428.6 667.2 430.4 673.7 C 430.5 676.0 430.6 678.3 430.7 680.6 C 431.2 680.5 432.2 680.3 432.7 680.2 C 432.6 680.8 432.4 681.9 432.3 682.4 L 434.4 682.6 L 434.3 680.7 C 434.5 681.2 435.1 682.0 435.3 682.5 C 436.1 682.5 437.7 682.5 438.5 682.4 C 438.9 677.4 437.4 672.5 437.3 667.5 L 436.4 668.0 C 436.7 663.0 436.4 658.0 434.7 653.3 C 434.5 652.3 434.4 651.3 434.3 650.3 C 433.5 649.3 432.8 648.4 432.1 647.5 C 431.5 647.5 430.3 647.4 429.8 647.4 M 291.0 678.8 C 290.3 679.9 290.5 680.8 291.5 681.4 C 291.7 680.9 292.2 679.9 292.5 679.4 C 292.1 679.2 291.4 678.9 291.0 678.8 M 248.3 684.2 L 248.3 684.8 L 249.0 684.8 L 249.0 684.2 L 248.3 684.2 Z" />
<path fill="#fdfdfd" stroke="#fdfdfd" stroke-width="0.09375" opacity="1.00" d=" M 534.1 219.9 C 534.8 220.1 536.0 220.4 536.7 220.6 C 537.3 221.3 538.0 221.9 538.7 222.6 C 538.5 223.9 538.4 225.3 538.2 226.6 C 536.9 224.3 535.7 222.0 534.1 219.9 Z" />
<path fill="#fdfdfd" stroke="#fdfdfd" stroke-width="0.09375" opacity="1.00" d=" M 533.4 226.3 C 534.0 226.3 535.1 226.4 535.7 226.4 C 535.7 227.0 535.7 228.1 535.7 228.6 C 535.1 228.6 534.0 228.7 533.4 228.7 C 533.4 228.1 533.4 226.9 533.4 226.3 Z" />
<path fill="#fdfdfd" stroke="#fdfdfd" stroke-width="0.09375" opacity="1.00" d=" M 37.9 498.2 C 38.5 498.2 39.7 498.2 40.3 498.2 C 40.6 498.8 41.3 500.0 41.6 500.6 C 41.1 507.6 42.6 515.2 48.0 520.1 C 50.1 523.8 51.8 527.8 53.6 531.6 C 53.6 532.2 53.7 533.2 53.7 533.7 C 53.1 533.7 51.9 533.7 51.3 533.7 C 50.0 531.7 48.7 529.8 47.6 527.7 C 47.3 526.1 46.6 524.7 45.6 523.5 C 43.6 520.0 42.2 516.2 39.7 513.0 C 39.5 516.5 39.4 520.0 39.5 523.5 C 38.7 525.0 38.7 527.2 36.9 527.9 C 35.1 527.9 34.1 526.1 33.0 525.0 C 32.8 526.6 32.1 528.0 31.1 529.3 C 28.6 527.4 27.0 524.8 25.6 522.1 C 25.4 525.2 25.6 528.3 26.5 531.3 C 26.3 531.6 25.9 532.3 25.7 532.7 C 25.8 534.4 25.8 536.0 25.8 537.7 C 25.2 537.8 23.9 537.8 23.3 537.9 C 23.9 532.7 22.4 527.6 22.7 522.5 C 22.0 519.4 22.7 516.2 21.6 513.3 C 21.4 510.7 21.2 508.1 21.4 505.6 C 24.4 507.3 24.4 511.1 25.9 513.8 C 26.9 516.1 27.9 518.5 29.2 520.8 C 29.8 517.1 28.6 513.5 29.2 509.9 C 32.8 512.7 32.9 517.6 34.8 521.5 L 36.6 521.7 C 36.7 518.7 36.2 515.8 35.2 512.9 C 36.3 511.6 38.2 510.1 36.6 508.3 C 36.7 508.1 37.0 507.6 37.2 507.3 C 37.4 506.2 37.7 505.2 38.1 504.1 C 37.3 502.2 37.0 500.1 37.9 498.2 Z" />
<path fill="#fdfdfd" stroke="#fdfdfd" stroke-width="0.09375" opacity="1.00" d=" M 122.9 567.4 C 123.6 567.4 124.9 567.3 125.6 567.3 C 127.7 568.5 129.6 570.1 130.4 572.4 C 133.1 577.5 136.6 582.3 141.6 585.3 C 145.7 588.8 151.3 589.8 155.6 593.1 C 157.9 593.8 160.3 594.5 162.5 595.5 C 164.1 597.2 166.2 598.5 168.3 599.6 C 169.0 600.6 169.8 601.6 170.6 602.6 C 170.2 603.0 169.8 603.4 169.3 603.8 C 168.0 603.3 166.7 602.8 165.4 602.4 C 164.3 601.7 163.2 600.9 162.1 600.1 C 158.8 595.9 152.7 596.1 148.4 593.5 C 144.9 591.8 141.9 589.4 138.4 587.9 C 138.7 588.9 139.3 590.8 139.6 591.8 C 139.6 593.1 139.6 594.4 139.6 595.6 L 140.6 595.2 C 140.6 609.4 141.0 623.6 140.4 637.8 C 139.5 641.0 139.3 644.3 139.5 647.6 L 140.2 647.4 C 142.4 651.7 147.0 654.0 148.9 658.6 L 150.0 658.4 C 149.9 658.7 149.6 659.4 149.5 659.7 C 151.7 660.7 151.8 662.9 151.7 664.9 L 152.1 664.2 C 153.4 666.4 155.2 668.3 156.2 670.7 C 156.8 671.9 157.5 673.1 158.0 674.4 L 158.8 674.2 C 158.7 674.8 158.5 675.9 158.3 676.4 L 159.6 676.3 C 159.6 676.9 159.6 678.0 159.6 678.6 C 160.8 679.7 161.7 680.9 162.0 682.5 L 162.8 682.2 C 162.7 682.7 162.6 683.5 162.5 684.0 L 163.8 684.2 L 163.1 685.1 C 164.2 685.7 165.4 686.4 166.5 687.1 C 166.6 687.8 166.7 689.0 166.8 689.7 C 166.2 689.7 165.2 689.6 164.7 689.6 C 164.3 689.1 163.7 687.9 163.3 687.4 L 163.8 686.2 L 162.1 686.7 C 162.3 686.2 162.7 685.0 162.9 684.4 L 161.2 684.8 C 161.3 684.2 161.5 683.1 161.6 682.6 L 160.0 682.5 C 160.2 681.9 160.7 680.8 160.9 680.2 L 159.7 680.8 C 159.1 679.4 158.5 678.0 158.0 676.6 L 157.0 676.8 C 157.2 676.2 157.6 675.1 157.8 674.5 L 156.0 674.6 C 156.2 674.0 156.6 672.8 156.8 672.3 L 155.9 672.7 C 154.5 670.6 152.2 669.0 152.1 666.4 C 151.3 665.3 150.6 664.3 149.9 663.2 C 148.6 661.6 147.4 659.9 146.2 658.2 C 146.3 657.7 146.5 656.9 146.6 656.4 C 146.1 656.5 145.1 656.7 144.5 656.8 C 144.5 656.4 144.4 655.7 144.3 655.3 C 142.9 654.0 141.3 652.7 141.1 650.7 C 140.4 650.6 138.8 650.6 138.1 650.5 C 137.4 652.8 136.3 654.9 134.7 656.6 C 133.9 656.6 132.2 656.6 131.4 656.6 C 131.5 658.0 131.5 659.5 131.6 661.0 C 133.8 661.9 134.2 664.3 134.9 666.3 L 135.4 666.2 C 135.7 666.8 136.1 668.0 136.3 668.6 C 136.9 670.3 137.6 672.0 138.4 673.6 C 139.8 678.1 139.9 682.9 139.5 687.6 C 138.4 688.4 137.6 690.0 136.0 689.8 C 131.1 690.0 127.2 686.2 125.0 682.1 C 123.7 680.7 122.0 679.3 122.2 677.1 L 121.0 677.7 C 121.2 677.1 121.7 675.9 121.9 675.3 L 120.8 675.9 C 119.6 673.4 118.1 671.0 117.3 668.3 C 118.6 670.0 119.8 671.9 120.9 673.8 C 122.1 675.0 123.3 676.4 124.1 677.9 C 125.4 679.3 126.7 680.7 128.0 682.1 C 129.5 683.5 130.9 684.9 132.3 686.4 C 133.7 686.4 135.0 686.5 136.3 686.6 C 136.6 685.1 137.7 683.5 137.1 682.0 C 136.3 679.4 136.8 676.6 135.5 674.2 C 135.4 673.0 135.3 671.7 135.3 670.5 L 134.7 670.8 C 134.2 669.0 133.5 667.2 133.1 665.4 L 132.0 665.8 C 132.1 665.4 132.3 664.6 132.4 664.2 C 130.4 663.3 130.2 661.3 130.3 659.4 L 129.6 659.8 C 128.7 657.7 127.8 655.6 127.1 653.4 L 126.3 653.7 L 126.2 651.4 C 124.6 653.3 123.0 656.0 124.8 658.3 L 123.4 657.3 C 123.8 661.1 124.3 664.9 125.3 668.7 C 125.1 669.2 124.6 670.3 124.4 670.8 C 122.1 669.8 121.1 667.7 120.4 665.4 C 120.3 661.3 119.6 657.0 121.2 653.1 C 121.4 651.6 121.5 650.1 121.7 648.6 C 122.0 647.2 122.2 645.7 122.4 644.3 C 121.2 643.3 120.0 642.2 119.1 640.9 C 117.8 638.1 116.2 635.4 116.2 632.3 C 118.7 632.3 121.4 632.0 123.6 633.6 C 127.4 636.7 131.8 639.2 135.2 643.0 C 136.4 639.4 136.6 635.7 136.6 631.9 C 137.7 625.3 137.1 618.6 137.2 611.9 C 137.3 609.6 135.8 607.2 137.2 605.1 C 137.5 600.0 136.6 595.0 136.1 590.0 C 135.4 587.6 134.2 585.5 132.7 583.6 C 132.1 582.5 131.5 581.4 130.9 580.4 C 126.8 577.2 124.1 572.5 122.9 567.4 M 119.0 635.0 C 119.6 636.6 120.3 638.2 120.9 639.8 C 121.7 640.8 122.4 641.9 123.1 643.0 C 126.9 646.1 128.0 651.2 130.0 655.4 C 130.8 655.1 132.4 654.3 133.1 653.9 C 134.4 651.5 134.5 648.8 135.0 646.1 C 130.6 641.3 125.1 637.3 119.0 635.0 Z" />
<path fill="#fdfdfd" stroke="#fdfdfd" stroke-width="0.09375" opacity="1.00" d=" M 97.9 633.4 C 98.3 634.4 98.6 635.5 98.9 636.6 L 99.8 635.9 C 99.7 636.8 99.6 638.7 99.5 639.6 L 100.6 639.2 C 100.6 640.1 100.5 641.8 100.5 642.7 L 101.6 642.1 C 101.5 644.3 101.5 646.5 101.5 648.7 L 102.6 648.1 C 102.6 650.0 102.6 651.9 102.6 653.8 L 103.6 653.2 C 103.6 655.0 103.6 656.9 103.5 658.8 L 104.3 658.0 C 105.1 662.9 107.2 667.6 108.0 672.5 C 108.2 673.3 108.6 674.8 108.8 675.6 L 109.5 675.1 C 109.6 677.3 109.7 679.5 109.7 681.6 C 109.0 681.6 107.8 681.6 107.1 681.5 C 105.9 679.5 104.7 677.4 103.5 675.4 C 103.4 674.0 103.4 672.6 103.4 671.2 L 102.0 671.7 C 102.3 671.1 102.8 669.9 103.0 669.3 L 101.3 669.9 C 101.4 669.0 101.6 667.1 101.7 666.2 L 99.8 666.5 C 100.2 666.0 100.6 665.5 100.9 665.0 C 101.6 665.7 103.1 667.1 103.8 667.9 C 103.6 664.3 102.2 660.8 102.3 657.2 L 101.5 657.8 C 101.5 655.7 101.4 653.5 101.4 651.4 L 100.3 651.8 C 100.3 650.2 100.4 648.7 100.4 647.1 L 99.4 648.0 C 99.5 645.4 99.4 642.9 99.5 640.3 L 98.3 640.9 C 98.4 640.0 98.5 638.1 98.6 637.2 L 97.2 637.8 C 97.4 636.3 97.6 634.8 97.9 633.4 Z" />
<path fill="#fdfdfd" stroke="#fdfdfd" stroke-width="0.09375" opacity="1.00" d=" M 70.6 644.5 C 71.1 645.3 71.6 646.1 72.0 646.9 C 77.7 652.6 81.5 659.7 85.4 666.6 C 85.9 667.7 86.9 669.8 87.4 670.8 C 87.5 669.7 87.6 667.6 87.6 666.5 C 87.4 666.6 87.0 666.8 86.7 666.9 C 84.4 660.5 80.9 654.3 81.4 647.3 C 82.0 646.8 82.7 646.3 83.3 645.8 C 83.6 648.7 84.4 651.6 84.8 654.5 L 85.3 654.2 C 87.3 661.4 91.4 667.7 94.3 674.5 C 95.2 676.2 96.2 677.9 97.3 679.5 C 97.7 683.1 99.8 686.3 99.7 689.9 C 99.7 692.1 99.5 694.2 99.4 696.4 C 99.0 697.3 98.7 698.3 98.3 699.3 C 97.7 701.0 97.2 702.8 95.9 704.2 C 94.0 706.4 94.2 710.7 90.6 710.8 C 90.6 711.6 90.7 713.1 90.7 713.8 L 89.2 713.0 L 90.0 714.3 L 88.7 714.6 L 88.3 715.9 L 88.0 715.4 C 87.6 717.2 86.0 717.6 84.5 718.0 C 84.5 717.5 84.4 716.4 84.4 715.9 C 85.5 714.2 86.5 712.4 88.0 711.0 C 88.6 709.8 89.2 708.7 89.9 707.6 C 90.5 706.3 91.1 705.0 91.8 703.8 C 92.5 702.7 93.2 701.6 93.9 700.5 C 93.3 700.5 92.2 700.4 91.6 700.4 C 92.3 700.1 93.7 699.6 94.4 699.3 C 95.0 697.8 95.4 696.3 95.8 694.7 C 96.4 692.8 96.4 690.7 96.5 688.7 C 96.3 688.7 95.8 688.7 95.6 688.7 C 96.7 687.1 95.7 685.5 95.2 684.0 C 94.0 680.9 92.4 677.9 90.7 675.0 C 88.7 673.8 85.9 673.8 84.7 671.5 C 81.3 666.2 78.2 660.8 75.1 655.4 C 73.0 653.0 71.5 650.2 70.4 647.3 C 70.5 646.6 70.6 645.2 70.6 644.5 Z" />
</svg>
