<?xml version="1.0" encoding="UTF-8" ?>
<!DOCTYPE svg PUBLIC "-//W3C//DTD SVG 1.1//EN" "http://www.w3.org/Graphics/SVG/1.1/DTD/svg11.dtd">
<svg width="532pt" height="883pt" viewBox="0 0 532 883" version="1.1" xmlns="http://www.w3.org/2000/svg">
<path fill="#ffffff" stroke="#ffffff" stroke-width="0.09375" opacity="0.59" d=" M 331.1 65.6 C 332.5 64.1 334.2 63.1 336.0 62.2 C 336.9 62.7 337.7 63.1 338.5 63.6 C 339.5 64.5 340.6 65.2 341.8 65.9 C 341.6 66.2 341.3 66.9 341.2 67.3 C 345.3 67.3 343.3 72.3 342.8 74.7 C 343.1 71.4 341.5 68.6 340.0 65.8 C 338.7 65.3 337.3 64.8 335.9 64.3 C 334.9 67.4 334.3 70.9 336.5 73.7 C 336.6 74.1 336.6 75.0 336.6 75.5 C 337.2 76.5 337.8 77.6 338.5 78.6 C 338.5 79.0 338.7 79.9 338.7 80.3 C 339.4 81.6 339.7 83.1 340.0 84.5 C 342.6 91.8 343.1 99.4 344.5 106.9 C 344.7 108.5 344.8 110.2 344.7 111.8 L 345.5 111.1 C 345.4 117.6 347.3 124.0 348.0 130.5 C 348.4 132.7 349.2 134.7 350.4 136.5 C 350.9 137.7 351.5 138.9 351.6 140.2 C 351.9 145.2 353.6 150.0 353.7 154.9 C 353.8 160.4 353.3 165.9 354.3 171.3 C 353.9 174.3 353.6 177.3 354.4 180.3 C 353.4 190.1 353.8 200.0 353.3 209.8 C 352.5 214.1 353.1 218.5 352.4 222.8 C 351.6 227.0 351.7 231.2 351.4 235.4 C 350.1 238.6 351.1 242.1 350.3 245.4 C 348.1 256.1 347.6 267.2 344.5 277.8 C 340.8 297.3 335.1 316.4 329.3 335.4 C 325.4 347.4 322.1 359.6 317.6 371.5 C 313.0 383.8 309.3 396.4 304.0 408.5 C 297.4 426.6 289.9 444.3 282.5 462.0 C 283.0 461.8 284.0 461.4 284.6 461.1 C 291.5 450.1 298.3 438.9 304.6 427.5 C 307.4 423.0 309.8 418.3 311.9 413.5 C 313.3 409.1 314.5 404.5 317.0 400.6 C 317.1 400.1 317.3 399.1 317.4 398.6 C 318.7 394.3 320.0 389.8 323.2 386.5 C 324.3 388.4 323.2 390.0 321.9 391.4 C 320.7 395.5 319.2 399.5 317.6 403.5 C 316.5 405.8 315.6 408.2 315.4 410.7 L 314.8 410.7 C 313.7 413.7 312.8 416.8 311.1 419.5 C 305.9 431.0 299.1 441.8 292.5 452.5 C 290.0 457.0 287.4 461.4 284.1 465.3 C 282.1 470.3 278.0 474.1 275.9 479.0 C 269.8 495.9 262.5 512.4 256.1 529.2 C 254.3 532.9 252.9 536.8 251.0 540.5 C 248.1 548.8 243.9 556.6 240.8 564.8 C 239.2 569.4 237.1 573.9 235.3 578.4 C 229.2 592.1 223.0 606.4 211.5 616.6 C 208.7 621.0 207.1 626.1 204.1 630.4 C 202.9 633.9 200.3 636.9 199.3 640.5 C 196.6 643.9 195.7 648.2 193.8 651.9 C 189.0 661.0 185.0 670.4 180.3 679.5 C 174.5 692.1 170.1 705.2 163.8 717.6 C 162.9 720.6 161.0 723.4 160.4 726.5 L 159.8 726.6 C 159.0 730.1 156.9 733.1 155.8 736.5 C 150.9 746.2 148.0 756.9 142.9 766.4 C 142.7 767.4 142.5 768.5 142.3 769.5 C 140.0 772.1 139.5 775.6 137.8 778.5 C 134.7 784.3 133.4 790.9 130.0 796.5 C 127.7 802.6 123.4 807.9 120.7 813.8 C 120.4 817.8 122.3 821.7 121.7 825.7 L 122.5 825.1 C 122.3 834.2 126.1 842.9 127.8 851.7 L 128.5 851.4 C 128.8 854.2 130.3 856.7 130.8 859.5 L 131.8 859.5 C 131.7 860.0 131.5 861.1 131.4 861.6 L 132.9 861.5 C 132.7 862.0 132.3 863.0 132.1 863.5 L 133.5 863.3 C 133.6 864.3 133.7 866.2 133.8 867.2 C 132.6 865.7 131.6 864.2 130.6 862.5 C 128.9 858.6 126.2 854.8 126.3 850.4 L 125.5 850.7 C 125.2 848.9 124.6 847.2 124.2 845.5 L 123.5 845.8 C 123.4 844.3 123.4 842.8 123.4 841.2 L 122.6 842.0 C 122.2 838.7 121.1 835.5 121.4 832.1 L 120.3 833.0 C 120.4 831.4 120.5 829.7 120.6 828.1 L 119.4 829.0 C 119.8 825.2 119.2 821.5 118.2 817.9 C 115.1 820.1 117.1 824.3 116.8 827.4 C 116.2 826.0 115.7 824.5 115.3 823.0 C 112.4 825.3 110.7 828.8 108.7 831.9 C 104.8 840.0 97.9 847.6 98.5 857.2 C 99.2 859.2 99.9 861.2 99.7 863.4 C 99.3 862.7 98.5 861.2 98.1 860.5 C 95.1 857.7 96.6 853.2 96.4 849.7 C 96.6 849.4 97.1 848.8 97.3 848.5 C 98.1 846.2 99.0 844.0 99.6 841.8 C 100.9 839.3 102.5 836.9 103.6 834.4 C 105.0 832.1 106.4 829.7 107.8 827.4 C 109.5 824.4 111.9 821.7 112.7 818.3 C 113.1 818.0 113.9 817.2 114.2 816.8 C 114.3 814.3 114.4 811.7 114.5 809.2 L 113.5 809.9 C 113.8 801.6 112.8 793.2 114.3 784.9 C 114.6 782.3 114.3 779.6 114.8 777.0 C 115.9 771.4 115.1 765.7 116.1 760.1 C 116.6 753.4 117.8 746.9 118.6 740.2 C 120.3 732.5 122.8 725.1 124.5 717.4 L 125.2 717.4 C 125.6 714.3 126.7 711.3 128.0 708.5 C 129.5 702.0 132.9 696.1 134.8 689.7 C 136.6 685.1 139.2 681.0 140.6 676.3 L 141.6 676.4 C 141.5 675.9 141.3 674.9 141.2 674.5 L 142.2 674.6 C 143.7 670.4 146.3 666.8 147.7 662.5 C 151.6 656.1 154.6 649.2 158.1 642.5 C 160.1 639.5 162.3 636.7 163.6 633.4 C 163.9 632.9 164.6 632.0 165.0 631.6 C 167.3 626.2 170.5 621.3 173.9 616.6 C 175.7 613.2 177.9 610.1 180.1 607.0 C 182.8 602.5 185.3 597.8 188.7 593.7 C 184.5 596.0 181.4 599.7 178.2 603.2 C 176.1 605.0 174.0 607.0 172.3 609.3 C 166.8 613.4 162.8 619.2 157.3 623.3 C 153.0 627.6 148.4 631.7 143.9 635.9 C 139.5 639.2 136.0 643.4 131.9 646.9 C 129.9 649.6 126.8 651.1 124.6 653.5 C 120.1 658.2 115.4 662.7 110.7 667.2 C 116.9 658.7 124.4 651.2 132.1 644.1 C 132.7 643.4 133.4 642.7 134.0 642.1 C 135.1 641.1 136.0 640.1 137.0 639.0 L 138.8 639.7 C 138.6 639.3 138.2 638.3 138.0 637.8 C 141.4 636.2 143.6 632.8 146.6 630.6 C 155.4 623.4 162.5 614.4 171.4 607.4 C 173.7 605.0 175.5 602.2 178.0 600.0 C 178.7 599.4 179.4 598.7 180.1 598.1 C 184.9 592.9 190.1 588.1 194.7 582.7 C 206.3 571.0 213.7 556.2 223.4 543.0 C 234.5 525.7 246.0 508.5 255.9 490.4 L 254.0 490.5 L 254.0 489.5 C 254.3 489.6 254.9 489.7 255.2 489.8 C 256.5 486.5 259.5 484.3 260.8 481.0 C 261.5 481.0 262.2 481.1 262.9 481.2 C 262.4 481.8 261.4 482.9 260.9 483.5 C 260.4 485.8 259.2 487.8 258.3 489.9 L 257.4 489.2 C 257.4 490.1 257.5 492.0 257.5 492.9 L 255.8 492.3 C 256.1 492.9 256.8 494.1 257.1 494.6 L 255.9 494.4 C 255.5 496.8 253.7 498.5 252.5 500.5 C 251.3 502.3 250.6 504.5 249.0 506.0 C 248.7 507.2 248.0 508.3 247.0 509.0 C 246.4 510.3 245.8 511.5 245.4 512.9 L 244.8 512.1 C 245.0 514.6 242.8 516.0 241.8 517.9 C 239.3 522.2 236.7 526.4 234.0 530.5 C 232.2 533.5 229.9 536.3 228.4 539.5 C 226.0 542.6 223.0 545.6 222.9 549.8 C 225.4 545.1 229.6 541.7 232.3 537.1 C 238.9 528.8 245.0 520.0 251.7 511.8 C 259.7 500.1 267.6 488.4 273.8 475.6 C 276.2 467.5 280.0 459.7 282.4 451.5 L 283.0 450.6 C 284.8 444.4 287.3 438.4 289.2 432.3 C 289.9 427.7 291.8 423.5 293.3 419.2 C 296.1 409.7 298.7 400.2 301.4 390.7 C 308.7 365.5 314.6 339.9 319.0 314.1 C 321.3 299.1 324.0 284.2 325.9 269.2 C 327.6 257.7 328.3 246.0 329.7 234.5 C 331.4 222.0 331.7 209.4 333.2 196.9 C 333.9 186.0 334.7 175.0 334.5 164.0 C 335.5 156.9 335.6 149.6 334.8 142.5 C 335.9 137.0 334.3 131.5 334.5 126.0 C 334.3 120.6 334.3 115.1 333.9 109.8 C 333.0 105.0 333.8 100.1 332.7 95.3 C 331.9 91.3 332.9 87.1 331.4 83.2 C 331.5 82.7 331.9 81.8 332.1 81.4 C 332.2 78.4 332.3 75.4 332.3 72.4 C 332.0 72.4 331.2 72.5 330.8 72.5 C 331.1 72.1 331.8 71.2 332.1 70.7 C 331.3 69.3 331.3 67.7 331.2 66.2 C 330.2 65.7 329.3 65.1 328.6 64.2 C 329.2 64.6 330.5 65.3 331.1 65.6 M 334.6 76.3 C 334.8 81.9 334.1 87.5 335.2 93.0 C 335.9 96.3 335.2 99.7 336.1 102.9 C 337.1 109.9 336.1 117.1 337.5 124.0 C 337.7 135.0 337.8 146.0 337.7 157.0 C 337.9 176.8 336.0 196.6 334.4 216.3 C 333.2 223.1 333.9 230.3 332.0 237.1 C 330.9 260.2 326.3 282.9 323.4 305.8 C 321.3 315.3 320.7 325.2 317.9 334.7 C 317.8 336.3 317.7 337.9 317.5 339.5 L 316.9 340.3 C 316.7 343.9 315.3 347.2 315.5 350.8 L 314.8 350.6 C 309.5 375.7 301.4 400.2 295.1 425.1 C 294.9 418.7 300.1 414.7 301.2 409.0 C 302.0 405.4 303.9 402.3 305.1 398.8 C 308.6 389.8 311.3 380.5 314.9 371.5 C 323.1 347.8 330.0 323.7 336.9 299.5 C 340.3 287.6 342.3 275.4 344.9 263.3 C 346.2 251.2 348.6 239.2 349.4 227.0 C 350.7 220.8 349.9 214.5 350.9 208.3 C 351.6 201.5 351.0 194.7 351.6 188.0 C 352.3 183.0 352.2 178.0 352.1 173.0 C 351.2 165.3 351.7 157.6 351.1 149.9 C 350.6 147.1 350.3 144.3 350.3 141.5 L 348.3 141.2 C 348.8 147.5 348.5 153.8 348.7 160.0 C 348.5 172.6 349.0 185.2 348.3 197.8 C 346.8 203.7 348.3 209.8 347.0 215.7 C 346.3 218.5 346.9 221.5 346.3 224.3 C 345.3 228.1 345.9 232.1 344.7 235.8 C 343.5 254.3 339.6 272.5 336.5 290.7 L 335.7 290.5 C 335.8 295.1 333.5 299.3 333.4 303.8 L 332.6 303.2 C 332.5 305.7 331.7 308.1 330.9 310.5 C 329.7 315.4 327.9 320.0 326.4 324.7 L 325.1 324.6 C 330.1 312.4 332.1 299.3 335.6 286.6 C 338.9 267.6 342.1 248.5 343.6 229.2 C 344.5 226.0 343.6 222.5 345.1 219.4 C 345.2 215.3 345.2 211.1 345.5 207.0 C 346.8 200.4 346.2 193.6 346.5 187.0 C 347.9 178.1 347.5 169.0 346.3 160.1 L 347.6 160.7 C 346.9 156.4 345.0 151.2 347.9 147.3 L 346.5 147.8 C 346.4 140.9 346.6 134.0 345.1 127.2 C 343.0 125.1 342.2 121.5 338.4 122.0 C 340.9 120.6 342.8 122.3 344.5 123.9 C 344.6 120.0 344.3 116.1 344.4 112.2 L 343.4 113.0 C 343.4 111.1 343.4 109.2 343.4 107.3 L 342.5 107.9 C 342.5 105.6 342.4 103.4 342.4 101.1 L 341.4 101.8 C 341.8 96.7 339.6 91.8 339.2 86.7 C 338.6 85.4 338.3 84.0 338.0 82.6 C 337.6 80.5 337.1 78.4 336.4 76.4 L 334.6 76.3 M 261.4 501.5 C 255.9 509.9 250.2 518.2 243.9 525.9 C 242.9 527.1 242.0 528.3 241.0 529.5 C 235.4 537.0 229.9 544.7 223.7 551.9 C 217.2 560.7 209.6 568.7 203.0 577.5 C 197.7 584.3 192.7 591.4 187.8 598.5 C 187.0 600.0 186.6 602.1 184.8 602.8 C 183.2 607.0 180.0 610.5 177.8 614.5 C 176.4 616.9 174.7 619.1 173.4 621.5 C 171.6 624.6 169.4 627.4 168.3 630.8 L 167.8 630.4 C 167.0 632.1 166.1 633.8 165.4 635.6 L 164.8 635.6 C 164.7 637.0 164.1 638.2 162.9 639.0 C 162.0 642.5 159.0 645.1 158.4 648.7 L 157.6 648.3 C 157.7 649.8 157.2 651.1 156.0 652.0 C 155.2 653.9 154.3 655.8 152.9 657.5 C 152.3 659.7 151.2 661.6 150.4 663.7 L 149.4 663.4 C 149.5 664.0 149.7 665.1 149.8 665.6 L 148.8 665.5 C 148.1 668.4 146.4 671.0 144.9 673.5 C 144.4 674.9 143.9 676.2 143.4 677.5 C 142.7 678.8 142.0 680.1 141.4 681.5 C 140.2 684.2 138.7 686.8 137.3 689.5 C 135.9 692.1 136.3 696.4 133.0 697.2 L 136.0 697.7 C 140.4 688.4 145.5 679.5 150.8 670.7 C 155.6 662.1 160.9 653.8 166.1 645.5 C 173.3 634.6 180.3 623.5 186.9 612.2 C 189.9 607.7 192.9 603.2 195.5 598.4 C 198.3 593.3 201.6 588.4 204.7 583.5 C 206.8 579.7 208.7 575.7 211.4 572.4 C 212.1 572.4 213.5 572.6 214.2 572.7 L 211.6 573.7 C 210.1 576.7 207.8 579.4 206.4 582.5 C 204.4 586.2 202.5 590.0 200.1 593.4 C 195.9 600.7 192.0 608.3 187.1 615.1 C 184.9 618.3 183.5 622.0 181.0 625.0 C 179.5 627.7 177.9 630.4 176.1 633.0 C 166.4 648.5 156.4 663.8 148.0 680.0 C 147.6 680.2 146.9 680.7 146.5 681.0 C 146.6 681.3 146.7 682.1 146.8 682.4 L 145.9 682.6 C 145.0 686.2 142.5 689.1 140.9 692.5 C 138.2 697.8 135.5 703.2 132.7 708.6 C 132.1 709.9 131.5 711.2 131.5 712.6 L 130.8 712.5 C 130.4 714.2 129.8 715.9 129.5 717.7 L 128.8 717.4 C 128.4 719.1 127.8 720.8 127.4 722.5 L 126.8 722.6 C 123.7 730.7 121.4 739.1 120.4 747.8 C 117.6 761.9 117.6 776.4 117.6 790.8 L 118.5 790.1 C 118.2 795.7 118.8 801.2 118.7 806.8 C 119.3 806.7 120.3 806.4 120.9 806.3 C 123.6 802.0 125.7 797.3 127.6 792.6 C 131.7 785.1 134.1 776.9 138.1 769.4 C 145.0 752.9 151.8 736.3 159.2 720.0 C 162.9 711.2 167.4 702.7 170.5 693.6 C 173.9 687.6 175.5 680.8 179.0 674.9 C 182.3 668.9 184.4 662.4 187.7 656.5 C 190.4 651.7 192.3 646.6 194.9 641.8 C 198.1 635.0 202.0 628.5 204.7 621.5 L 205.2 621.3 C 211.3 608.8 217.7 596.3 224.2 584.1 C 229.1 574.6 233.3 564.7 238.9 555.6 C 241.4 549.7 244.3 544.0 247.2 538.3 C 249.0 532.9 252.7 528.4 254.4 523.0 C 257.3 516.6 259.6 509.9 262.5 503.5 C 263.8 500.9 265.4 498.0 264.2 494.9 C 264.7 497.7 262.7 499.5 261.4 501.5 M 235.0 570.0 C 229.9 578.6 226.3 588.0 221.1 596.5 C 218.8 600.5 217.7 605.3 214.6 608.8 C 215.0 609.4 215.4 610.1 215.9 610.7 C 219.9 604.2 224.5 598.1 227.5 591.1 C 231.7 582.6 235.1 573.8 238.8 565.1 C 236.1 565.3 236.3 568.4 235.0 570.0 M 134.3 699.4 C 134.6 699.6 134.6 699.6 134.3 699.4 M 116.0 807.5 C 115.6 809.3 115.5 811.4 116.0 813.2 C 117.3 812.3 117.2 808.4 116.0 807.5 Z" />
<path fill="#ffffff" stroke="#ffffff" stroke-width="0.09375" opacity="0.59" d=" M 340.5 73.6 L 341.3 73.6 C 341.2 74.0 341.1 74.8 341.1 75.2 L 340.3 75.2 C 340.4 74.8 340.5 74.0 340.5 73.6 Z" />
<path fill="#ffffff" stroke="#ffffff" stroke-width="0.09375" opacity="0.59" d=" M 322.7 385.6 C 323.9 384.0 325.1 382.4 326.3 380.7 C 327.1 382.2 326.6 383.9 326.2 385.4 C 325.0 385.1 323.8 385.2 322.7 385.6 Z" />
</svg>
