<?xml version="1.0" encoding="UTF-8" ?>
<!DOCTYPE svg PUBLIC "-//W3C//DTD SVG 1.1//EN" "http://www.w3.org/Graphics/SVG/1.1/DTD/svg11.dtd">
<svg width="567pt" height="574pt" viewBox="0 0 567 574" version="1.1" xmlns="http://www.w3.org/2000/svg">
<path fill="#fefefe" stroke="#fefefe" stroke-width="0.09375" opacity="1.00" d=" M 225.1 39.4 C 225.4 34.1 231.4 31.6 236.0 32.2 C 246.1 33.5 255.5 37.7 264.9 41.4 C 269.8 42.8 274.1 45.7 279.0 47.0 C 288.0 49.7 296.6 54.1 306.0 54.5 C 312.8 54.0 319.7 54.0 326.5 53.9 C 332.8 52.5 339.4 53.4 345.8 53.6 C 354.3 54.9 363.1 52.8 371.5 54.9 C 381.7 55.1 391.9 55.0 402.1 55.1 C 406.2 56.3 410.4 55.8 414.5 56.8 C 420.0 57.1 425.1 59.6 429.6 62.6 C 430.8 63.4 431.5 64.7 432.1 65.9 C 432.8 66.8 433.6 67.7 434.3 68.6 L 432.7 68.3 C 432.7 70.4 432.1 72.2 429.6 71.9 C 432.2 74.0 435.9 75.4 436.8 79.0 C 433.1 76.2 428.9 75.1 424.3 75.5 L 424.9 77.0 L 423.4 76.2 C 423.3 77.4 423.3 78.6 423.3 79.7 C 422.5 81.1 421.0 82.3 420.7 83.9 C 422.4 85.3 424.3 86.5 426.0 87.9 C 428.9 91.3 433.1 93.8 434.9 98.0 C 435.3 98.2 436.0 98.7 436.4 98.9 L 433.7 98.6 C 435.1 100.1 436.6 101.5 438.1 103.0 C 439.3 103.9 439.8 105.3 439.6 106.9 L 440.2 106.3 C 440.9 107.7 441.8 108.8 443.0 109.8 C 442.3 109.7 440.8 109.5 440.1 109.4 C 440.3 109.0 440.7 108.2 440.9 107.8 C 438.6 108.0 437.2 106.3 435.9 104.9 C 433.4 104.6 430.9 103.9 428.4 103.5 C 427.5 103.0 426.5 102.4 425.5 101.9 C 418.8 100.4 411.6 98.2 404.8 100.6 C 402.0 101.3 399.4 99.8 396.9 99.0 C 392.4 98.5 388.4 101.0 384.1 101.9 C 378.6 103.6 372.8 104.0 367.1 104.7 C 357.4 106.2 347.4 106.1 337.6 105.5 C 335.9 105.0 334.2 104.7 332.5 104.2 C 342.8 104.2 353.7 105.5 363.5 101.9 C 361.0 101.6 358.5 101.5 356.0 101.5 L 356.8 100.7 C 352.6 101.1 348.7 99.8 344.6 99.3 C 338.4 98.1 332.2 99.2 326.0 100.0 C 323.0 100.6 320.1 101.9 317.5 103.4 C 316.9 103.6 315.7 103.8 315.2 103.9 C 312.5 105.9 309.7 107.7 306.6 109.0 L 306.7 109.8 C 306.4 109.8 305.7 109.8 305.4 109.8 C 303.7 111.4 301.5 112.3 299.5 113.4 C 298.6 113.9 297.6 114.3 296.6 114.8 C 295.6 115.4 294.6 115.9 293.6 116.5 C 291.9 117.2 290.2 118.1 288.5 118.8 C 287.1 119.6 285.6 120.3 284.2 121.0 C 282.1 122.8 279.6 124.3 276.7 123.8 C 275.0 124.7 273.2 125.6 271.5 126.4 C 266.1 127.4 261.0 129.6 255.8 131.4 C 250.8 132.7 245.9 134.4 240.8 135.5 C 237.0 136.2 232.9 136.5 229.5 138.4 C 228.3 139.0 227.1 139.5 225.9 140.0 C 225.4 141.9 223.9 143.3 222.2 144.1 C 220.7 146.5 218.7 148.6 216.3 150.1 C 216.5 150.4 216.7 151.0 216.9 151.2 C 215.7 151.8 214.6 152.3 213.5 152.9 C 213.6 153.4 213.9 154.3 214.0 154.7 L 212.8 154.4 C 212.8 156.6 211.3 158.0 209.7 159.2 C 209.7 159.6 209.7 160.3 209.7 160.6 C 209.3 160.6 208.5 160.6 208.2 160.6 C 206.4 164.7 202.4 167.4 200.1 171.2 C 198.8 173.8 196.5 175.5 194.4 177.3 C 191.5 180.8 188.2 183.9 185.0 187.0 C 183.1 189.1 181.0 191.1 179.0 193.1 C 177.6 196.5 173.5 197.7 172.0 201.2 C 171.4 202.4 170.8 203.5 169.6 204.3 C 169.7 204.6 169.9 205.3 170.0 205.7 L 168.6 205.3 C 168.6 206.2 168.6 208.0 168.6 208.9 L 167.5 208.3 C 167.5 209.8 167.6 211.3 167.6 212.9 L 166.6 212.2 C 166.6 214.1 166.5 216.0 166.5 217.9 L 165.6 217.2 C 165.6 219.1 165.6 221.0 165.6 222.9 L 164.6 222.2 C 164.6 224.8 164.6 227.4 164.5 230.0 L 163.5 229.1 C 163.6 231.7 163.6 234.3 163.6 236.8 L 162.6 236.4 C 162.6 237.2 162.5 238.9 162.4 239.7 L 163.8 238.8 C 163.5 239.3 162.9 240.4 162.6 241.0 C 162.5 245.0 162.5 249.0 162.5 253.0 L 161.6 252.2 C 161.6 254.9 161.7 257.6 161.8 260.3 C 164.1 265.3 162.5 271.3 165.6 275.8 C 165.6 276.5 165.6 278.0 165.5 278.8 L 166.3 278.2 C 166.8 280.4 167.5 282.5 168.3 284.6 C 168.8 286.2 169.4 287.8 169.9 289.4 L 170.4 289.2 C 170.8 291.3 171.3 293.4 171.8 295.5 L 172.8 295.2 C 172.7 296.0 172.6 297.7 172.5 298.5 L 173.3 298.2 C 174.1 300.1 175.1 301.9 176.3 303.6 C 178.1 308.6 179.9 313.8 183.1 318.1 C 183.8 318.3 185.2 318.9 185.9 319.2 L 185.1 317.3 L 186.6 317.5 C 186.4 315.7 186.1 313.8 185.6 312.0 C 186.8 309.1 186.3 306.0 186.4 303.0 C 186.2 297.7 186.5 292.4 186.4 287.2 L 185.5 287.9 C 185.6 284.9 185.5 281.8 185.4 278.8 C 185.2 278.4 184.8 277.7 184.6 277.4 C 184.6 273.8 184.7 266.5 184.8 262.9 C 185.0 266.4 185.4 273.4 185.7 276.9 L 186.9 275.9 C 186.8 276.9 186.5 278.9 186.4 279.9 L 187.5 279.1 C 187.5 282.4 187.5 285.8 187.7 289.2 C 188.0 290.1 188.7 291.9 189.0 292.9 L 187.6 292.1 C 187.6 293.3 187.6 295.5 187.6 296.7 L 188.6 296.1 C 188.5 301.7 188.5 307.3 188.5 312.9 L 187.5 312.2 C 187.6 313.3 187.6 315.7 187.7 316.9 L 188.5 316.0 C 188.5 318.0 188.5 319.9 188.5 321.9 L 187.4 321.2 C 187.5 322.0 187.6 323.7 187.7 324.5 L 188.3 324.3 C 188.9 327.3 190.1 330.4 192.5 332.5 C 193.0 333.8 193.5 335.1 193.9 336.4 L 194.3 336.1 C 194.3 338.7 196.5 340.2 198.0 342.0 C 202.4 348.5 207.2 354.7 211.6 361.1 C 214.7 367.3 217.7 374.5 224.1 378.0 C 224.5 376.1 226.0 374.8 227.6 373.9 C 227.5 372.0 227.3 370.1 227.2 368.2 L 228.6 368.5 C 228.6 367.9 228.5 366.7 228.5 366.2 C 228.7 366.1 229.1 366.0 229.3 366.0 C 229.7 367.8 230.4 369.5 230.9 371.3 C 231.3 371.4 231.9 371.5 232.3 371.6 C 231.6 371.9 230.3 372.6 229.6 372.9 C 229.5 374.6 229.4 376.3 227.7 377.2 C 227.7 377.8 227.6 378.9 227.5 379.5 C 226.8 380.3 226.0 381.1 225.2 381.9 C 221.7 381.7 218.7 379.2 216.6 376.6 C 214.3 372.9 211.7 369.4 209.7 365.6 C 208.9 362.9 207.0 360.3 204.2 359.7 C 203.7 358.9 203.3 358.2 202.8 357.4 L 205.1 357.7 C 199.7 351.1 194.8 343.9 189.5 337.2 C 189.5 338.4 189.6 340.7 189.6 341.9 L 190.5 341.0 C 190.5 343.5 190.7 346.1 190.6 348.6 L 192.3 348.2 C 191.9 348.4 191.1 349.0 190.6 349.3 C 192.1 352.8 193.8 356.3 194.8 360.0 C 195.6 360.7 196.3 361.5 197.0 362.2 C 198.2 362.6 199.4 363.1 200.6 363.8 C 199.8 363.7 198.2 363.5 197.4 363.3 C 196.9 367.6 200.6 370.0 201.9 373.6 C 204.1 377.7 207.2 381.3 210.0 385.0 C 212.7 389.4 218.1 390.6 222.4 392.8 C 227.7 394.8 233.1 396.7 238.5 398.6 C 244.9 401.7 252.1 402.5 258.6 405.4 C 265.0 408.0 272.1 409.0 278.5 411.9 C 292.4 416.4 306.6 420.1 320.9 423.5 C 329.1 425.2 337.0 428.1 345.4 428.7 C 348.8 429.9 352.3 430.5 355.8 430.6 C 361.9 432.0 368.2 432.7 374.4 433.6 C 377.9 435.2 381.8 433.9 385.4 434.9 C 389.2 435.9 393.2 435.1 396.9 436.2 C 402.3 436.7 407.6 436.3 413.0 436.5 L 412.0 435.5 C 413.7 435.5 415.3 435.5 417.0 435.4 L 416.3 436.3 C 417.4 436.4 419.6 436.6 420.7 436.6 L 420.0 434.6 C 420.3 435.0 420.9 435.9 421.2 436.4 C 423.3 437.1 425.5 437.4 427.7 437.5 L 427.1 436.5 C 428.7 436.5 430.3 436.5 431.9 436.5 L 431.3 437.4 C 432.2 437.4 433.9 437.4 434.8 437.3 L 434.0 436.4 C 437.2 436.5 440.3 436.4 443.5 436.4 C 443.5 435.9 443.6 435.0 443.6 434.6 L 444.1 436.3 C 448.1 434.7 452.6 435.9 456.8 435.4 L 456.1 434.5 C 458.7 434.5 461.3 434.4 463.9 434.4 L 463.1 433.5 C 464.6 433.5 466.2 433.5 467.8 433.5 L 467.0 432.5 C 471.7 432.6 476.2 431.1 480.7 430.2 L 480.2 429.4 C 481.0 429.4 482.8 429.4 483.7 429.4 L 483.1 428.5 C 484.0 428.5 485.8 428.4 486.7 428.4 L 486.4 426.9 C 486.8 427.1 487.6 427.6 488.1 427.8 C 488.2 425.7 490.0 425.4 491.7 425.2 L 491.4 424.0 C 491.8 424.2 492.7 424.6 493.2 424.8 C 493.6 423.3 493.5 421.4 495.4 421.1 L 495.5 419.1 L 494.0 419.7 C 494.0 419.4 494.1 418.7 494.1 418.4 L 495.4 418.9 C 495.4 416.9 495.1 414.6 497.5 413.8 C 497.5 411.9 497.5 409.9 497.5 408.0 L 498.6 409.1 C 498.1 406.4 499.7 402.7 496.9 400.8 C 498.0 401.4 499.6 401.3 500.4 402.3 C 500.6 406.3 500.4 410.3 500.6 414.2 C 501.4 414.3 503.0 414.4 503.8 414.4 L 503.5 415.4 C 504.3 415.4 505.9 415.5 506.7 415.6 C 506.5 415.0 506.3 413.9 506.1 413.3 L 507.8 413.6 C 507.6 413.0 507.3 411.9 507.2 411.3 L 508.9 411.6 C 508.7 411.1 508.2 409.9 508.0 409.3 L 509.5 409.9 C 509.5 407.9 509.4 405.9 509.4 403.9 C 510.3 403.7 511.1 403.5 512.0 403.3 C 512.5 401.7 514.1 401.4 515.5 401.0 L 515.3 399.9 C 515.8 400.1 516.7 400.4 517.1 400.6 C 517.4 399.0 517.6 397.1 519.7 397.1 L 519.1 396.2 C 520.5 396.5 522.3 397.0 523.5 395.7 C 524.1 393.8 524.3 391.8 524.5 389.9 L 525.4 390.8 C 525.5 385.2 525.6 379.6 525.3 374.0 L 526.4 374.9 C 526.3 372.0 526.4 369.1 526.4 366.2 C 527.0 366.2 528.3 366.4 529.0 366.5 C 528.8 367.0 528.3 368.1 528.1 368.7 L 529.5 368.1 C 529.4 371.0 529.5 374.0 529.6 376.9 L 528.6 376.2 C 528.6 377.9 528.5 379.7 528.5 381.4 C 529.0 381.6 530.0 381.8 530.6 382.0 C 530.0 382.1 528.9 382.5 528.3 382.7 C 528.9 383.8 529.5 384.8 530.2 385.9 C 531.0 386.8 531.5 387.8 531.8 388.9 L 532.6 388.0 C 532.5 389.7 532.5 391.3 532.4 393.0 L 533.5 392.0 C 533.5 393.4 533.5 394.8 533.6 396.2 C 532.4 396.3 531.3 396.5 530.2 396.6 L 531.0 398.0 L 529.6 397.2 C 529.8 399.0 529.1 400.4 527.4 401.0 C 527.5 401.4 527.9 402.2 528.1 402.6 L 526.6 402.2 C 526.6 404.4 526.5 406.6 526.4 408.7 L 529.0 408.5 L 528.0 406.9 L 530.0 407.9 C 529.8 407.3 529.3 406.1 529.1 405.5 C 530.6 405.1 532.1 404.7 533.6 404.3 C 534.1 407.6 530.6 409.4 528.2 410.8 L 528.7 412.1 C 528.3 411.9 527.4 411.5 527.0 411.3 C 526.3 413.4 524.5 414.8 522.3 414.9 C 522.5 415.3 522.8 416.3 522.9 416.7 L 521.5 416.2 C 521.5 420.4 521.6 424.6 521.6 428.8 L 520.0 428.4 C 520.3 428.9 520.8 430.1 521.0 430.6 L 519.3 430.1 L 519.6 431.9 C 519.2 431.7 518.2 431.4 517.8 431.3 C 518.0 433.2 516.9 434.6 515.1 435.0 C 514.4 435.7 513.7 436.4 513.0 437.1 C 512.2 437.8 511.4 438.5 510.5 439.2 C 510.6 439.5 510.8 440.2 510.9 440.6 L 509.3 440.5 C 509.5 441.1 509.7 442.2 509.9 442.8 L 508.9 442.3 C 508.4 443.3 507.7 444.2 507.1 445.1 C 506.4 446.1 505.8 447.2 505.1 448.2 C 504.5 449.2 503.8 450.2 503.0 451.0 C 502.4 452.1 501.8 453.1 501.1 454.1 C 500.2 454.9 499.1 455.5 497.9 455.8 C 497.5 456.0 496.8 456.5 496.4 456.7 C 496.5 457.4 496.6 458.7 496.7 459.4 C 499.4 460.6 502.2 459.3 505.0 459.5 C 508.9 460.1 512.7 459.3 516.6 459.5 L 516.4 457.0 L 515.3 457.9 C 515.4 457.2 515.6 455.6 515.7 454.8 C 517.0 455.9 518.2 457.1 519.5 458.3 C 519.5 459.8 519.5 461.3 519.6 462.7 L 520.6 462.2 C 520.6 462.8 520.6 464.2 520.6 464.8 C 510.6 462.6 500.4 463.8 490.2 463.8 C 489.5 464.5 488.6 465.2 487.7 465.8 C 487.5 466.1 487.1 466.7 486.9 466.9 C 486.3 467.6 485.6 468.4 485.0 469.1 C 484.1 469.7 483.2 470.3 482.3 470.9 L 482.8 471.9 L 481.1 471.2 L 481.7 473.0 C 481.3 472.8 480.5 472.6 480.1 472.5 C 479.2 473.8 478.1 474.9 477.0 476.0 C 476.3 476.7 475.6 477.3 475.0 478.0 C 474.0 479.0 473.0 480.0 472.0 481.1 C 471.2 481.7 470.3 482.3 469.5 482.9 C 469.5 485.6 469.5 488.3 469.6 491.0 C 470.0 491.2 471.0 491.6 471.4 491.8 L 469.3 491.6 C 469.4 492.1 469.6 493.2 469.8 493.7 C 469.3 493.6 468.4 493.5 468.0 493.5 C 467.8 495.7 466.1 497.4 464.0 497.9 C 462.7 499.4 461.4 501.0 459.2 500.7 L 460.0 501.5 C 458.5 502.0 457.0 502.5 455.4 502.9 L 455.7 503.9 C 455.1 503.8 454.0 503.5 453.5 503.3 L 453.6 504.9 C 453.1 504.8 452.0 504.5 451.5 504.3 L 451.8 505.7 C 450.9 505.7 449.1 505.6 448.2 505.5 L 449.0 506.4 C 447.4 506.6 445.8 506.8 444.4 507.4 C 442.6 507.7 440.8 508.2 439.1 508.8 C 438.1 509.9 437.1 511.0 436.0 512.0 C 435.3 512.6 434.6 513.3 433.9 513.9 C 433.3 514.6 432.7 515.3 432.0 516.0 C 431.3 516.7 430.7 517.3 430.0 518.0 C 429.2 518.7 428.4 519.4 427.5 520.0 C 427.6 520.4 427.7 521.2 427.7 521.6 C 427.3 521.6 426.5 521.6 426.1 521.6 C 425.4 522.4 424.7 523.2 424.0 524.0 C 422.9 525.0 421.9 526.0 421.0 527.0 C 420.1 527.9 419.1 528.5 417.9 529.0 C 417.6 530.5 416.7 531.6 415.2 532.0 C 414.3 532.7 413.3 533.4 412.3 533.9 L 412.9 534.9 L 411.4 534.2 L 411.8 535.8 L 410.8 535.5 C 410.6 537.0 409.3 537.4 408.1 537.9 C 407.2 539.2 405.9 539.8 404.4 539.9 L 404.7 541.0 C 404.2 540.8 403.1 540.5 402.5 540.3 L 402.7 541.9 C 402.1 541.8 401.0 541.5 400.5 541.4 L 400.6 542.9 C 400.3 542.8 399.6 542.7 399.2 542.6 C 398.3 544.7 396.1 544.6 394.2 544.8 L 394.9 546.0 L 392.9 545.1 L 393.9 546.6 C 392.0 546.6 390.0 546.6 388.1 546.5 L 389.0 547.4 C 383.5 548.4 377.9 548.8 372.3 548.7 L 372.9 549.5 C 364.1 549.3 355.6 551.1 346.8 550.8 C 343.8 552.2 340.4 551.6 337.2 551.6 L 337.9 552.5 C 335.8 552.5 333.8 552.6 331.7 552.6 L 331.8 554.4 C 331.6 554.0 331.3 553.1 331.1 552.6 C 319.6 552.7 308.1 552.5 296.7 552.4 C 290.1 550.4 283.0 552.5 276.3 551.0 C 273.3 550.3 270.2 550.9 267.3 550.0 C 262.2 549.7 257.2 548.0 252.0 548.6 L 252.9 547.7 C 245.0 547.1 236.9 546.8 229.2 544.7 C 227.5 544.7 225.8 544.6 224.1 544.6 L 224.6 543.8 C 215.4 543.4 207.3 538.9 198.6 536.4 C 190.5 532.5 182.2 529.3 174.4 524.7 C 168.0 520.5 161.9 515.8 156.0 510.9 C 149.4 506.6 144.6 500.2 138.4 495.4 C 131.6 491.1 126.8 484.5 120.9 479.1 C 118.1 476.8 116.6 473.5 113.9 471.2 C 103.4 461.6 97.0 448.7 90.8 436.2 C 88.6 430.9 82.9 428.9 78.3 426.4 C 74.4 421.3 72.3 415.2 69.6 409.5 C 68.3 405.3 66.2 401.4 64.4 397.5 C 63.4 396.8 62.4 396.3 61.5 395.8 C 57.3 386.9 58.6 376.6 55.6 367.4 C 54.7 360.3 54.8 352.9 51.5 346.4 C 51.7 346.2 51.9 345.7 52.0 345.5 C 49.7 342.7 49.7 338.8 48.2 335.6 C 47.4 333.6 47.3 331.4 46.6 329.3 C 46.6 321.4 43.8 313.8 42.5 306.0 C 41.9 299.3 43.4 292.6 44.3 286.0 C 44.3 281.6 44.6 277.1 43.6 272.8 C 43.1 268.3 44.0 263.5 42.5 259.1 C 42.8 259.2 43.3 259.3 43.5 259.4 C 42.5 258.1 42.6 256.8 43.6 255.5 L 42.5 255.8 C 42.5 252.8 42.5 249.7 42.5 246.7 C 43.9 245.4 43.3 243.7 42.5 242.3 C 42.8 237.5 43.6 232.8 44.4 228.1 C 44.2 222.3 46.2 216.8 46.5 211.0 C 46.7 209.0 47.4 207.2 47.6 205.2 L 48.1 205.3 C 48.6 203.7 49.3 202.1 50.0 200.5 C 52.7 196.7 54.6 192.3 57.4 188.5 C 61.7 183.6 65.8 178.6 69.7 173.4 C 70.4 172.5 71.1 171.6 71.8 170.7 C 73.5 168.7 75.2 166.7 77.1 164.9 C 78.4 162.2 79.8 159.5 81.1 156.8 C 81.6 155.7 82.1 154.6 82.6 153.5 C 84.5 150.1 85.5 146.3 87.5 143.0 C 85.7 142.5 83.9 141.9 82.2 141.4 C 82.2 140.5 82.2 139.5 82.3 138.5 C 84.8 138.0 87.3 137.2 89.8 136.9 C 94.4 133.5 96.4 128.0 99.6 123.6 C 107.3 114.1 115.7 104.9 126.1 98.3 C 128.7 96.9 131.0 95.1 133.4 93.4 C 135.1 92.6 136.9 91.8 138.5 90.8 C 143.2 87.8 148.6 86.3 153.6 83.9 C 160.5 80.6 168.4 80.0 175.0 76.1 C 177.1 74.8 179.2 73.5 181.6 72.8 C 184.7 71.3 186.9 68.6 189.7 66.8 C 191.6 64.7 195.4 64.1 196.0 67.6 C 201.1 66.8 206.3 66.4 210.9 63.9 C 216.0 62.0 221.2 60.4 226.0 58.0 C 226.9 54.5 231.0 54.0 233.8 52.8 C 233.1 54.1 232.5 55.4 232.0 56.7 C 240.1 54.5 248.6 54.2 257.0 54.4 C 263.2 54.1 269.5 54.7 275.3 56.8 C 278.5 57.5 281.8 57.0 284.9 56.5 C 288.1 55.9 291.5 56.6 294.5 55.1 C 287.0 53.1 279.9 50.1 272.6 47.5 C 270.9 46.0 268.9 45.1 266.8 44.5 C 264.1 43.2 261.2 42.2 258.3 41.3 L 258.4 40.9 C 252.4 38.6 246.2 36.7 240.1 34.7 C 236.7 34.4 233.2 34.6 229.7 34.8 C 228.8 35.2 227.9 35.6 226.9 36.0 C 226.5 37.2 225.9 38.3 225.1 39.4 M 236.1 59.0 C 232.2 59.9 228.5 61.7 224.5 61.9 L 224.5 63.1 C 230.9 63.4 237.2 62.2 243.5 61.9 C 251.4 60.1 259.5 60.3 267.4 59.1 L 267.6 57.8 C 257.1 57.8 246.4 56.7 236.1 59.0 M 324.8 58.1 C 326.8 59.1 328.9 60.0 331.1 60.1 C 336.8 60.5 342.4 62.2 348.0 61.1 C 352.0 60.2 356.0 60.2 359.9 59.0 C 355.4 57.7 350.7 57.9 346.0 57.8 C 338.9 58.0 331.8 57.7 324.8 58.1 M 381.0 59.0 C 385.0 62.7 391.4 62.0 395.4 66.0 C 400.7 67.2 406.4 65.2 411.4 67.7 C 413.2 67.8 416.0 70.3 417.0 67.8 C 415.3 66.8 413.4 66.0 411.5 65.4 C 407.4 63.4 402.8 62.7 398.6 61.1 C 395.3 60.6 392.0 59.7 388.7 59.5 C 386.2 58.6 383.5 59.0 381.0 59.0 M 405.4 58.8 C 408.5 61.8 413.2 61.8 416.7 64.3 C 420.0 66.6 423.8 68.0 427.7 68.7 L 427.2 67.2 L 428.6 67.7 C 428.6 67.1 428.4 65.8 428.3 65.2 C 426.3 64.2 424.4 62.9 422.3 62.2 L 422.5 61.8 C 416.9 60.2 411.2 59.1 405.4 58.8 M 300.8 61.2 C 305.9 63.6 311.6 62.8 317.0 63.4 C 321.7 63.6 326.6 65.0 331.1 63.0 C 328.9 62.4 326.8 61.9 324.5 61.5 C 316.8 59.1 308.7 59.6 300.8 61.2 M 355.4 63.0 L 355.5 63.9 C 361.3 63.7 366.9 65.8 372.5 66.9 C 377.9 67.2 383.4 67.0 388.8 67.4 C 383.3 64.1 377.0 62.8 370.9 61.0 C 365.6 59.8 360.6 62.6 355.4 63.0 M 250.8 69.9 C 247.8 71.0 244.5 70.7 241.5 71.4 C 237.0 72.3 232.0 71.7 228.0 74.3 C 231.4 74.8 234.6 73.2 237.9 73.2 C 244.7 73.3 251.3 72.2 258.0 71.3 C 262.9 71.1 267.9 71.3 272.9 70.4 C 279.0 70.2 285.2 69.7 291.3 69.0 C 290.1 68.2 288.9 67.6 287.6 67.1 C 275.3 66.1 262.7 66.5 250.8 69.9 M 316.9 71.5 C 310.3 72.1 303.7 73.5 297.0 73.7 C 292.6 73.6 288.4 75.1 284.0 74.9 C 278.9 74.7 274.0 76.0 269.1 77.1 C 273.1 77.5 277.2 77.3 281.2 76.9 C 288.1 75.4 295.2 76.5 302.1 76.0 C 311.7 74.8 321.4 75.7 330.9 74.5 C 338.4 73.7 346.6 75.2 353.3 71.1 C 346.8 71.5 340.4 69.6 333.9 70.1 C 328.3 71.1 322.6 70.7 316.9 71.5 M 354.5 72.0 C 357.0 74.2 360.4 73.1 363.4 73.7 C 367.4 74.2 371.9 74.7 375.4 72.1 C 368.4 71.6 361.4 71.5 354.5 72.0 M 400.8 72.9 C 403.7 76.4 408.7 77.6 413.0 76.4 C 412.8 75.8 412.3 74.5 412.1 73.9 C 408.4 72.8 404.6 72.7 400.8 72.9 M 381.3 73.8 C 381.4 74.3 381.7 75.3 381.9 75.8 C 387.1 77.0 392.3 78.7 397.7 78.2 C 397.6 77.7 397.4 76.6 397.4 76.1 C 392.3 74.0 386.8 73.0 381.3 73.8 M 412.6 73.7 C 413.5 75.4 413.5 77.5 413.6 79.4 C 415.9 80.3 418.3 80.5 420.8 80.5 L 420.3 79.0 C 420.9 79.2 422.1 79.7 422.7 79.9 C 422.6 78.1 422.5 76.3 422.4 74.5 C 419.2 73.6 415.9 73.6 412.6 73.7 M 350.7 76.9 C 348.9 77.6 346.2 77.5 346.1 80.1 C 351.7 80.0 357.4 79.0 362.6 76.9 C 358.6 76.3 354.6 75.7 350.7 76.9 M 227.0 77.7 C 219.5 77.9 211.9 77.0 204.5 78.2 C 200.1 80.3 195.1 79.2 190.4 80.0 C 184.9 82.8 179.9 86.3 175.0 90.1 C 174.0 91.1 173.0 92.2 172.0 93.2 L 170.9 94.9 L 165.1 99.0 C 174.8 94.6 183.4 88.0 193.6 84.8 C 198.1 83.3 202.3 81.1 207.1 80.5 C 208.0 81.8 208.6 83.2 208.8 84.8 C 216.4 83.0 223.8 80.2 231.5 78.6 C 233.3 78.2 235.1 77.9 236.8 76.9 C 233.5 76.2 230.3 77.3 227.0 77.7 M 319.4 78.7 L 319.8 79.4 C 315.3 80.6 311.0 82.4 306.7 84.1 C 308.1 85.1 309.8 85.5 311.4 85.9 C 321.5 83.1 332.0 82.2 341.7 78.2 L 341.4 76.8 C 334.0 76.7 326.7 77.4 319.4 78.7 M 276.1 79.6 C 271.0 79.7 265.9 80.1 260.9 80.9 C 260.6 83.0 258.8 84.1 257.2 85.2 C 255.5 86.5 253.6 87.4 251.6 88.0 C 254.2 89.9 257.4 91.0 259.7 93.4 C 263.2 96.3 267.7 93.8 271.7 93.9 C 273.9 92.4 275.9 90.5 278.6 90.2 C 278.5 89.8 278.2 89.1 278.1 88.7 C 284.5 86.0 290.9 83.0 297.9 82.3 C 301.1 81.9 304.5 83.3 307.6 81.8 C 310.1 80.6 312.8 79.8 315.4 78.9 C 313.0 77.2 310.1 77.9 307.5 78.2 C 297.0 79.0 286.5 78.1 276.1 79.6 M 398.3 76.6 L 398.6 79.5 L 400.6 79.4 C 399.6 79.8 397.6 80.7 396.6 81.1 C 400.6 84.2 405.8 83.4 410.4 82.0 C 407.1 78.8 402.6 77.8 398.3 76.6 M 380.6 80.9 C 382.5 82.0 384.4 82.9 386.4 83.6 C 387.2 84.2 388.0 84.8 388.9 85.4 C 387.6 85.9 386.3 86.4 385.1 86.9 C 383.6 88.6 382.0 90.2 380.2 91.4 C 382.2 92.4 385.5 93.6 384.6 96.5 L 387.0 96.4 L 386.1 95.2 C 389.1 95.9 392.4 96.9 395.4 95.6 C 398.7 93.9 402.2 92.7 405.5 91.0 C 405.1 90.4 404.4 89.2 404.0 88.6 C 403.5 88.6 402.7 88.7 402.3 88.8 C 402.3 88.3 402.4 87.4 402.4 87.0 C 399.7 86.1 397.4 84.4 395.0 83.0 C 390.9 79.7 385.4 81.1 380.6 80.9 M 212.4 88.9 L 211.6 89.4 C 210.2 89.7 208.8 90.0 207.4 90.4 C 205.7 91.0 204.0 91.6 202.3 92.0 C 201.5 92.7 200.7 93.3 199.9 93.9 C 199.3 94.6 198.6 95.4 198.0 96.1 C 197.1 96.7 196.2 97.3 195.2 97.9 C 193.3 100.0 190.9 101.7 188.6 103.4 C 184.6 105.1 181.5 108.6 177.4 109.9 L 177.8 110.9 C 177.3 110.8 176.3 110.6 175.7 110.5 L 175.2 112.3 C 177.5 112.9 179.7 113.5 182.1 113.5 C 186.3 114.0 190.0 111.4 193.7 109.8 C 199.2 106.1 205.5 104.1 211.5 101.6 C 214.3 99.9 217.4 98.8 220.5 97.9 C 223.4 96.6 226.5 95.6 229.5 94.8 C 231.9 94.2 234.3 93.6 236.6 92.9 C 240.5 90.7 244.8 89.2 248.0 86.1 C 250.2 84.6 252.7 83.5 254.6 81.7 C 252.4 81.6 250.3 81.5 248.1 81.6 C 236.0 83.2 224.1 85.7 212.4 88.9 M 357.8 84.0 C 361.3 86.3 365.3 87.3 368.9 89.3 C 370.2 90.0 371.7 90.1 373.1 90.2 C 375.2 89.2 377.5 88.9 379.7 88.4 C 379.6 87.5 379.4 85.8 379.4 84.9 C 377.7 84.7 375.9 84.8 374.4 83.9 C 369.0 82.3 363.3 82.7 357.8 84.0 M 411.3 82.6 L 411.6 84.0 C 411.1 83.8 410.0 83.3 409.5 83.1 L 409.7 84.8 L 406.8 84.0 L 409.2 85.7 C 408.3 85.6 406.4 85.6 405.4 85.5 C 405.4 86.2 405.5 87.6 405.5 88.3 C 407.0 88.4 408.6 88.5 410.1 88.6 C 411.7 87.1 413.5 86.0 415.4 85.0 C 415.4 84.5 415.4 83.4 415.5 82.9 C 414.4 82.8 412.4 82.6 411.3 82.6 M 287.4 86.9 L 287.8 88.0 C 287.2 87.8 286.1 87.5 285.6 87.3 L 285.6 88.9 C 285.0 88.7 284.0 88.4 283.4 88.3 L 283.6 89.9 C 283.0 89.7 281.9 89.3 281.3 89.1 L 281.9 90.4 C 279.9 90.2 278.5 90.9 277.8 92.6 C 283.9 92.7 288.6 88.2 294.3 87.0 L 294.9 85.1 C 292.3 85.5 289.9 86.2 287.4 86.9 M 300.7 85.8 C 300.1 86.1 298.8 86.7 298.2 87.0 C 297.2 87.8 296.2 88.5 295.0 89.0 L 295.9 90.2 C 298.7 89.6 301.4 88.6 304.1 87.7 C 304.3 87.1 304.7 86.0 304.9 85.5 C 304.1 85.8 302.6 86.4 301.8 86.8 C 301.5 86.5 301.0 86.0 300.7 85.8 M 190.6 88.8 C 189.6 89.3 188.6 89.9 187.6 90.4 C 185.1 91.0 183.1 92.6 180.9 93.7 C 186.8 93.4 192.1 90.7 197.6 88.9 C 199.1 88.4 200.5 87.7 201.8 86.7 C 197.9 86.2 194.1 87.2 190.6 88.8 M 328.7 90.9 C 333.3 92.1 338.8 92.7 342.6 89.6 C 343.1 89.5 343.9 89.3 344.3 89.2 C 344.9 88.8 346.0 88.0 346.5 87.6 L 350.6 86.4 C 343.1 86.7 335.7 88.3 328.7 90.9 M 345.5 90.0 C 345.6 90.5 345.7 91.5 345.7 92.1 C 352.0 92.1 358.3 92.0 364.7 92.1 C 364.5 91.6 364.1 90.7 364.0 90.3 C 360.6 89.1 357.3 87.7 353.8 86.9 C 350.8 87.0 348.1 88.6 345.5 90.0 M 416.1 86.7 C 414.8 88.5 412.8 89.6 411.0 90.9 C 410.1 91.7 409.2 92.5 408.2 93.2 C 406.3 94.8 404.1 95.8 401.5 95.6 L 401.4 97.5 C 403.7 97.4 406.1 97.3 408.5 97.3 C 408.5 96.9 408.6 96.2 408.6 95.8 C 409.1 96.2 410.1 97.0 410.6 97.4 C 415.3 97.6 420.0 97.9 424.5 98.8 C 425.5 99.1 426.5 99.5 427.5 99.9 C 430.0 100.5 432.5 101.3 435.1 101.6 C 434.1 98.9 432.0 96.9 430.0 95.0 C 427.9 92.0 424.9 89.9 422.1 87.7 C 420.4 86.3 418.2 86.5 416.1 86.7 M 148.4 90.3 C 147.5 90.7 146.5 91.0 145.5 91.4 C 142.8 92.7 140.2 94.0 137.5 95.3 C 135.8 96.1 134.1 97.1 132.5 98.2 C 129.4 99.9 126.5 102.1 123.5 103.9 L 123.6 104.7 C 123.2 104.7 122.4 104.6 122.0 104.6 C 121.7 106.3 120.8 107.6 119.1 108.1 C 118.1 108.8 117.1 109.4 116.1 110.1 C 115.1 112.2 112.6 113.0 111.9 115.3 C 117.0 116.3 119.0 110.9 123.0 108.9 C 130.7 103.3 139.3 99.0 147.3 93.8 C 151.4 92.0 155.6 90.3 159.0 87.3 C 155.2 87.1 151.7 88.6 148.4 90.3 M 163.2 90.1 C 162.9 90.9 163.1 91.7 163.8 92.4 C 165.2 92.2 165.6 90.3 166.4 89.3 C 166.0 87.9 163.9 89.6 163.2 90.1 M 247.4 91.8 C 246.8 92.1 245.7 92.6 245.2 92.9 C 243.1 94.9 241.2 97.0 239.0 98.7 C 240.4 98.9 241.9 99.0 243.3 99.0 C 245.2 97.8 247.4 98.1 249.5 97.9 C 251.7 97.3 253.9 97.1 256.1 96.9 C 257.1 95.9 258.1 94.9 259.1 93.9 C 256.1 92.7 253.1 91.5 249.9 90.8 C 249.1 91.2 248.2 91.5 247.4 91.8 M 310.6 97.2 C 312.9 97.5 315.2 98.4 317.5 97.7 C 321.4 96.9 325.4 97.2 329.2 96.1 C 329.3 95.8 329.5 95.2 329.6 94.9 C 328.2 94.7 326.8 94.4 325.4 94.1 C 320.1 92.8 315.7 96.6 310.6 97.2 M 342.6 93.6 L 342.6 94.8 C 342.1 94.6 340.9 94.4 340.3 94.2 L 340.5 96.1 C 348.7 96.9 356.8 98.4 365.1 98.5 L 364.1 99.3 C 368.2 98.9 372.4 101.2 376.3 99.2 C 375.0 98.6 373.7 98.0 372.4 97.3 L 374.7 97.8 L 374.3 95.5 C 368.8 93.6 362.8 94.9 357.1 94.6 C 352.3 94.3 347.1 95.5 342.6 93.6 M 147.5 98.8 C 144.2 100.7 140.9 102.7 137.6 104.4 C 135.4 105.7 133.4 107.0 131.2 108.1 C 127.1 110.5 123.8 113.8 119.8 116.3 C 119.7 116.5 119.7 116.9 119.7 117.1 C 117.6 118.5 115.8 120.2 114.0 122.0 C 113.5 122.9 112.7 124.6 112.3 125.5 C 121.0 121.6 128.0 114.8 136.5 110.5 C 140.4 108.4 143.7 105.3 147.6 103.1 C 150.9 100.7 156.4 100.1 157.1 95.3 C 153.5 95.3 150.6 97.4 147.5 98.8 M 168.5 104.1 C 168.6 104.4 168.7 105.0 168.7 105.3 C 168.0 105.7 166.5 106.5 165.8 106.8 C 167.1 107.4 168.3 108.2 169.2 109.3 C 172.8 110.2 175.5 107.7 178.4 106.1 C 183.7 103.4 188.0 99.2 193.2 96.3 C 184.3 96.3 176.9 102.2 168.5 104.1 M 220.7 99.9 C 216.9 101.3 213.3 103.3 209.5 104.8 C 208.5 105.3 207.5 105.8 206.6 106.4 C 204.2 107.4 201.8 108.3 199.3 108.9 C 198.9 109.3 198.1 110.2 197.6 110.6 C 196.3 111.1 194.9 111.5 193.6 111.9 L 193.7 112.9 L 192.6 112.3 C 192.6 113.0 192.5 114.3 192.5 115.0 C 194.9 115.6 197.2 115.9 199.6 115.3 L 199.2 114.8 C 201.9 114.3 203.9 112.0 206.7 112.2 L 206.2 111.1 C 206.6 111.1 207.3 111.2 207.7 111.3 C 211.9 106.6 217.6 103.0 224.0 102.2 C 227.9 102.2 230.8 99.1 234.1 97.4 C 229.4 97.0 225.0 97.9 220.7 99.9 M 233.2 105.0 C 231.0 106.5 228.8 108.0 227.0 110.0 C 226.0 111.0 224.9 111.7 223.5 112.1 C 223.5 112.9 223.5 114.5 223.4 115.3 C 234.6 112.1 245.7 108.1 256.1 102.8 C 248.4 101.6 240.8 103.9 233.2 105.0 M 297.3 104.5 C 295.9 104.6 294.6 104.6 293.2 104.6 L 293.7 106.0 C 293.2 105.9 292.1 105.5 291.5 105.3 L 291.8 106.5 C 290.7 106.6 289.6 106.7 288.5 106.7 C 286.2 108.0 283.9 109.4 281.3 109.8 L 281.9 110.3 C 280.0 110.7 278.2 111.3 276.4 111.8 L 277.0 112.5 C 275.4 112.6 273.8 112.7 272.2 112.9 C 272.0 115.5 274.8 115.2 276.5 115.9 C 279.3 115.4 282.0 114.6 284.6 113.4 C 289.4 112.3 293.8 109.9 298.7 109.3 L 298.2 108.6 C 302.6 107.2 307.3 106.1 310.5 102.6 C 306.0 102.2 301.5 102.8 297.3 104.5 M 161.3 107.6 L 161.9 108.3 C 158.2 108.4 155.6 111.5 152.1 112.1 C 151.7 112.4 151.0 113.0 150.6 113.3 C 148.5 114.4 146.1 115.3 145.2 117.7 L 144.6 117.5 L 144.4 119.8 C 149.8 119.0 154.6 116.1 159.9 114.8 C 160.3 114.5 161.0 113.9 161.4 113.6 C 162.9 113.0 164.4 112.3 165.9 111.5 L 166.6 111.6 C 166.6 110.7 166.5 109.0 166.5 108.1 L 165.0 109.0 L 165.8 107.5 C 164.7 107.6 162.4 107.6 161.3 107.6 M 273.7 109.7 C 272.9 109.7 271.2 109.6 270.3 109.6 L 270.9 110.5 C 268.2 110.5 265.6 111.2 263.1 112.2 C 266.7 114.4 270.1 111.5 273.6 110.5 C 275.5 109.8 277.5 109.1 279.4 108.3 C 277.4 108.5 275.4 108.7 273.4 108.8 L 273.7 109.7 M 166.5 114.6 L 166.8 115.4 C 165.1 115.8 163.5 116.4 161.9 116.9 C 161.7 117.2 161.2 118.0 160.9 118.3 C 156.6 118.5 152.8 120.7 148.7 122.0 C 147.2 122.5 145.8 123.2 144.6 124.2 C 147.3 124.3 150.1 123.8 152.6 122.6 C 159.4 121.0 165.6 117.6 172.4 116.1 L 172.6 114.6 C 170.5 114.6 168.5 114.6 166.5 114.6 M 235.4 118.0 C 236.6 119.3 240.0 117.8 240.8 116.5 C 238.9 116.3 236.8 116.7 235.4 118.0 M 257.6 119.0 C 257.5 119.5 257.5 120.4 257.5 120.9 C 257.0 120.8 256.1 120.4 255.6 120.2 L 255.3 122.6 C 258.6 121.5 261.9 120.8 265.2 119.9 C 267.5 119.3 269.5 117.8 272.0 118.3 C 267.3 115.5 262.3 118.1 257.6 119.0 M 283.0 118.0 C 284.3 118.6 285.2 118.4 285.6 117.1 C 284.3 116.4 283.4 116.7 283.0 118.0 M 184.4 119.8 C 181.7 121.3 178.9 122.6 176.1 124.0 C 175.2 124.7 174.2 125.4 173.3 126.0 C 172.5 126.6 171.8 127.3 171.0 127.9 C 169.5 129.7 167.8 131.4 166.0 133.0 C 165.3 133.7 164.6 134.4 164.0 135.2 C 163.4 136.1 162.8 137.1 162.2 138.0 C 161.1 139.0 160.1 140.0 159.1 141.0 C 157.6 143.9 154.8 145.9 153.2 148.7 L 152.7 148.5 C 152.6 149.3 152.4 151.0 152.3 151.8 C 153.1 151.7 154.5 151.5 155.2 151.4 C 160.2 148.0 164.6 143.9 169.8 140.9 C 174.5 138.2 178.6 134.6 183.5 132.3 C 190.2 128.3 197.4 125.1 203.3 119.8 C 199.3 119.3 195.2 119.9 191.3 119.1 C 189.0 118.6 186.6 118.9 184.4 119.8 M 272.1 119.4 L 273.0 120.6 C 272.1 120.6 270.2 120.5 269.3 120.4 L 269.9 121.4 C 264.6 121.4 260.0 124.6 254.8 125.1 C 249.5 125.8 244.4 127.3 239.4 129.0 C 238.3 129.8 237.1 130.5 235.9 131.2 C 238.3 133.5 241.5 132.1 244.2 131.5 C 250.2 130.6 255.5 127.5 261.6 126.8 C 267.4 124.7 273.4 123.1 278.9 120.2 C 276.6 119.8 274.3 119.6 272.1 119.4 M 234.5 125.1 C 235.7 125.3 238.1 125.5 239.3 125.7 C 240.7 124.3 242.2 122.9 243.6 121.4 C 240.4 122.3 237.4 123.6 234.5 125.1 M 138.4 129.0 C 135.9 130.4 133.5 131.9 131.0 133.3 C 133.8 136.1 138.0 133.1 141.1 132.4 C 145.4 131.6 147.6 127.3 152.0 126.9 C 147.4 127.4 143.0 128.7 138.4 129.0 M 160.4 129.9 C 159.4 130.3 158.4 130.7 157.3 131.1 C 156.9 131.4 156.1 132.0 155.7 132.3 C 152.5 132.9 150.1 135.1 147.5 136.9 C 145.4 137.9 143.6 139.3 141.9 140.9 C 141.3 141.6 140.7 142.4 140.1 143.1 C 139.1 143.8 138.0 144.4 137.0 145.0 C 135.0 147.0 133.0 149.0 131.0 151.0 C 130.1 151.8 129.1 152.4 128.1 153.1 C 127.4 154.1 126.8 155.1 126.1 156.1 C 124.9 157.1 123.6 158.1 122.2 159.0 C 120.4 160.6 118.7 162.3 117.0 164.0 C 114.7 166.4 112.4 168.8 109.9 171.0 C 109.2 171.8 108.6 172.6 107.9 173.4 C 107.3 174.2 106.7 175.1 106.1 176.0 C 105.4 176.7 104.7 177.4 104.0 178.1 C 103.3 179.2 102.6 180.3 101.8 181.4 C 101.8 181.7 101.8 182.3 101.8 182.6 L 100.4 182.6 C 100.5 183.1 100.7 184.1 100.9 184.6 L 99.9 184.5 C 98.9 187.5 97.3 190.4 97.5 193.7 L 99.2 193.2 C 98.8 193.5 98.0 194.2 97.7 194.6 C 95.7 194.8 93.8 195.2 91.9 195.5 L 93.1 196.7 L 91.9 196.5 C 91.6 198.0 90.8 199.3 89.9 200.5 C 89.7 201.0 89.5 201.9 89.3 202.4 C 88.8 203.8 88.6 205.4 88.4 206.9 L 87.8 206.3 C 87.7 207.8 87.4 209.3 86.8 210.6 C 86.6 212.1 86.5 213.5 86.4 214.9 L 85.5 214.3 C 85.5 215.0 85.4 216.6 85.4 217.4 C 83.5 219.1 83.4 221.6 83.4 223.9 L 82.7 223.2 C 82.6 224.5 82.2 225.7 81.7 226.8 C 81.6 228.2 81.5 229.5 81.5 230.9 L 80.7 230.4 C 80.6 231.7 80.5 233.0 80.4 234.3 C 79.6 236.3 79.0 238.3 78.4 240.3 C 77.5 242.1 77.6 244.0 77.5 245.9 L 76.6 245.2 C 76.5 247.8 76.4 250.4 76.5 253.0 L 75.6 252.1 C 75.6 254.0 75.5 256.0 75.5 257.9 L 74.6 257.3 C 74.3 263.4 73.5 269.5 72.3 275.5 C 71.4 278.2 71.7 281.1 70.9 283.9 C 69.7 288.7 71.7 294.0 69.5 298.5 L 70.7 298.2 C 70.6 298.8 70.4 299.8 70.3 300.4 C 69.3 302.3 69.3 304.6 71.0 306.2 L 69.6 305.3 C 69.6 308.5 69.4 311.8 69.6 315.0 C 71.5 320.7 74.3 326.0 76.3 331.6 C 77.4 335.0 79.6 338.1 80.1 341.7 C 82.0 344.2 83.1 347.7 86.3 348.7 C 89.4 349.6 89.5 353.3 89.9 355.9 C 90.3 356.3 90.9 356.9 91.3 357.3 C 93.0 360.8 93.7 364.4 94.0 368.3 C 96.9 375.9 100.0 383.6 104.4 390.5 C 104.5 391.0 104.8 392.0 105.0 392.5 C 108.6 398.1 111.3 404.4 115.0 410.0 C 120.0 417.0 124.0 424.8 129.9 431.0 C 133.1 435.4 136.8 439.5 140.3 443.7 C 146.4 447.9 149.4 455.2 155.2 459.8 C 158.4 462.2 161.0 465.4 164.4 467.7 C 172.6 470.9 181.2 473.0 189.5 475.7 C 193.2 476.9 196.8 478.5 200.7 478.8 C 192.3 472.9 183.8 467.2 175.7 461.0 C 182.4 462.2 187.5 466.8 193.3 469.8 C 198.7 473.1 203.9 476.6 209.5 479.3 C 213.8 482.4 219.2 482.7 224.0 484.2 C 231.2 484.3 238.4 484.8 245.5 485.8 C 258.7 486.7 271.9 488.3 285.1 489.4 C 289.7 489.5 294.4 489.3 299.0 490.3 C 309.0 490.5 319.0 490.5 329.0 490.5 C 330.6 490.4 332.1 490.8 333.4 491.4 C 333.5 491.1 333.6 490.3 333.6 490.0 C 334.3 490.5 335.7 491.5 336.4 492.0 L 336.3 490.3 C 340.5 491.0 344.8 491.5 349.2 491.3 C 350.7 490.3 352.4 490.4 354.0 491.2 C 355.3 490.7 356.6 490.5 357.9 490.5 C 365.0 490.5 372.1 490.4 379.2 490.2 C 385.1 488.7 391.3 489.7 397.3 489.2 C 399.5 487.9 402.2 488.5 404.6 488.4 L 404.1 487.4 C 405.9 487.4 407.8 487.3 409.6 487.3 L 409.1 486.5 C 412.1 486.6 415.1 486.4 417.9 485.2 C 419.6 482.7 423.1 483.2 425.7 482.2 L 425.4 481.0 C 425.9 481.2 427.1 481.7 427.6 481.9 L 427.1 480.5 C 428.6 480.5 430.2 480.4 431.7 480.4 L 431.3 479.0 C 431.8 479.2 432.9 479.5 433.4 479.7 L 433.4 478.1 C 433.9 478.3 434.9 478.6 435.4 478.8 L 435.8 476.5 C 433.0 476.4 430.3 476.7 427.6 476.3 C 421.9 474.9 415.8 476.3 410.1 474.9 C 393.8 474.0 377.8 471.1 362.1 467.0 C 351.3 466.4 340.6 465.0 330.0 463.7 C 324.8 463.9 319.9 462.0 314.9 461.6 C 305.9 460.5 297.5 456.9 288.6 455.5 C 284.1 454.0 279.3 453.4 274.8 452.0 C 271.8 450.3 268.4 450.4 265.1 450.5 C 265.2 450.1 265.5 449.3 265.6 448.9 C 264.5 448.8 262.2 448.5 261.0 448.3 L 262.0 449.7 C 260.7 449.6 259.4 449.6 258.2 449.5 L 258.7 448.1 C 258.1 448.4 256.9 448.8 256.3 449.1 L 256.9 447.6 C 254.4 447.9 252.0 447.3 249.6 446.6 C 246.3 445.0 243.0 443.5 239.5 442.4 C 234.9 439.9 229.8 438.2 225.6 435.0 C 225.1 434.9 224.1 434.6 223.6 434.5 C 221.6 432.6 219.3 431.3 217.1 429.8 C 210.2 425.4 203.7 420.3 196.6 416.3 C 187.0 409.5 177.7 401.7 171.6 391.5 C 170.4 387.2 168.3 383.2 167.6 378.8 C 167.4 375.8 164.6 374.1 163.3 371.7 C 160.7 367.1 156.0 364.2 153.3 359.6 C 151.5 357.2 150.4 354.1 147.8 352.2 C 144.9 351.4 143.5 348.9 142.1 346.5 C 141.3 344.9 140.4 343.2 140.1 341.4 L 139.7 341.8 C 138.8 338.6 138.0 335.5 136.6 332.5 C 135.7 329.2 134.2 326.2 133.1 322.9 C 130.4 313.8 128.9 304.4 126.5 295.2 C 126.3 289.5 124.6 284.0 123.6 278.4 C 123.2 274.7 124.1 270.8 122.6 267.3 C 122.5 263.6 122.6 259.9 122.5 256.2 L 123.3 256.6 C 122.9 247.1 127.8 238.5 128.9 229.3 C 129.7 225.4 130.6 221.6 130.7 217.6 C 132.5 213.3 132.4 208.8 132.6 204.3 C 133.7 200.7 133.4 196.9 133.4 193.2 L 134.4 193.5 C 134.5 190.9 134.1 188.2 134.7 185.6 C 136.2 182.1 137.8 178.7 139.2 175.2 L 136.4 177.3 L 134.7 177.7 C 133.6 179.2 132.4 180.7 131.3 182.2 C 131.3 181.5 131.3 179.9 131.3 179.2 L 132.8 179.7 C 132.6 179.1 132.2 177.9 131.9 177.3 L 133.2 177.8 C 133.3 176.3 133.9 175.0 134.9 173.9 C 138.2 168.3 142.7 163.4 145.5 157.5 C 146.3 155.9 147.0 154.3 147.9 152.8 C 149.7 149.0 152.5 145.8 154.8 142.3 C 155.0 142.3 155.4 142.3 155.7 142.2 C 156.6 140.1 158.4 138.6 160.0 137.0 C 161.1 133.9 164.1 132.1 166.4 129.9 L 166.8 128.2 C 164.6 128.5 162.4 128.9 160.4 129.9 M 109.1 131.6 L 109.9 133.1 C 109.4 132.9 108.3 132.5 107.8 132.3 L 107.7 133.6 L 106.4 133.6 C 106.5 134.1 106.8 135.2 107.0 135.7 L 105.4 135.1 C 105.5 136.0 105.6 137.7 105.7 138.5 C 108.7 137.6 111.2 134.8 111.9 131.7 L 109.1 131.6 M 213.5 131.7 L 213.6 133.0 C 213.0 132.8 211.9 132.3 211.3 132.1 L 211.9 133.4 C 210.3 133.7 208.8 134.2 207.2 134.6 L 207.8 135.4 C 206.0 135.9 204.2 136.4 202.4 136.9 C 202.4 137.2 202.5 137.9 202.6 138.3 C 203.4 138.2 204.9 137.9 205.7 137.8 C 210.0 136.5 214.4 134.7 217.8 131.6 C 216.7 131.6 214.6 131.7 213.5 131.7 M 123.0 144.9 C 122.5 146.1 121.9 147.2 121.1 148.2 C 120.4 149.3 119.6 150.4 118.7 151.3 C 118.7 151.6 118.8 152.3 118.8 152.7 L 117.8 152.3 C 117.9 154.8 116.0 156.2 114.2 157.6 L 117.3 157.4 L 113.9 161.5 C 120.8 157.1 125.7 150.5 132.0 145.3 C 134.9 143.2 137.1 140.4 140.2 138.5 C 134.1 139.0 127.8 140.9 123.0 144.9 M 208.3 142.1 C 207.2 142.7 206.2 143.4 205.1 144.1 C 204.1 145.0 202.9 145.7 201.7 146.2 C 201.7 146.6 201.7 147.3 201.8 147.7 C 199.5 147.9 197.3 148.0 195.2 148.9 C 194.2 149.8 193.0 150.5 191.6 151.0 L 191.7 151.4 C 189.8 151.8 188.2 152.8 186.7 153.9 C 186.7 154.5 186.7 155.7 186.7 156.4 C 192.6 157.4 197.6 153.4 202.4 150.6 C 204.5 149.5 206.9 148.5 207.9 146.3 C 208.2 146.3 208.9 146.4 209.2 146.4 C 209.2 145.9 209.3 144.7 209.3 144.2 C 210.0 144.2 211.4 144.2 212.1 144.2 C 212.7 143.1 213.3 142.0 213.9 140.8 C 212.0 141.3 210.2 141.7 208.3 142.1 M 112.6 142.9 C 113.1 143.1 114.1 143.4 114.6 143.6 C 115.9 143.5 116.6 143.0 116.8 142.0 C 115.4 141.7 113.6 141.9 112.6 142.9 M 178.0 143.5 L 179.0 144.8 C 178.3 144.7 177.0 144.4 176.3 144.3 C 176.4 144.8 176.7 145.9 176.8 146.5 C 176.0 146.5 174.3 146.6 173.5 146.7 C 173.5 147.2 173.7 148.3 173.7 148.8 L 171.3 148.2 C 171.8 148.8 172.9 150.0 173.4 150.6 L 171.1 150.2 L 172.0 151.4 C 170.2 151.3 168.9 152.0 167.9 153.3 L 170.6 153.5 C 169.3 154.0 168.0 154.4 166.8 154.8 C 166.5 156.4 166.8 158.6 164.5 158.8 C 164.5 159.7 164.5 161.5 164.6 162.4 C 168.1 159.0 171.6 155.5 174.6 151.6 C 177.4 149.2 179.6 146.2 181.9 143.4 L 178.0 143.5 M 167.3 146.8 L 167.8 148.0 C 167.3 147.8 166.2 147.4 165.6 147.2 L 165.8 148.2 C 162.2 149.9 159.1 152.5 155.6 154.4 C 155.6 154.7 155.6 155.3 155.6 155.7 C 155.3 155.6 154.7 155.6 154.4 155.5 C 152.4 157.5 150.0 159.0 148.0 161.0 C 147.2 162.7 146.0 164.1 144.6 165.3 C 144.7 165.6 144.9 166.3 145.0 166.7 L 143.5 166.4 C 143.5 167.3 143.5 169.0 143.5 169.9 L 142.1 169.5 C 142.3 170.0 142.8 171.1 143.0 171.6 L 141.7 171.4 C 141.6 172.3 141.4 173.9 141.3 174.8 L 142.7 174.3 C 142.7 175.0 142.5 176.5 142.5 177.3 C 148.8 173.5 154.4 169.0 159.4 163.7 C 159.3 163.3 159.2 162.6 159.2 162.2 L 160.2 162.7 C 160.3 160.8 161.2 159.2 162.0 157.5 C 163.4 155.4 165.2 153.7 167.0 151.9 C 167.9 149.7 169.7 148.2 171.6 147.0 L 172.4 147.9 C 172.4 146.9 172.6 144.9 172.6 144.0 C 170.9 145.1 169.5 147.0 167.3 146.8 M 189.3 146.9 C 189.2 150.3 192.5 145.4 189.3 146.9 M 108.9 150.8 C 108.3 151.6 107.7 152.4 107.0 153.1 C 106.0 155.3 104.6 157.4 104.3 159.8 L 103.8 159.3 C 103.4 161.2 102.8 163.0 102.4 164.8 L 101.9 164.4 C 101.8 166.1 100.9 167.5 99.4 168.3 C 100.0 170.2 100.8 172.0 101.0 174.0 C 103.6 171.3 105.1 167.7 107.2 164.6 C 107.7 163.6 108.3 162.7 108.9 161.8 C 109.5 160.8 110.2 159.8 110.9 158.9 C 112.8 154.9 115.0 151.0 117.9 147.5 C 116.9 147.6 114.8 147.7 113.7 147.7 C 112.1 148.7 110.4 149.6 108.9 150.8 M 97.6 157.0 C 97.5 159.4 97.4 161.9 97.6 164.4 C 99.9 161.8 100.0 157.9 102.3 155.3 C 101.1 155.7 98.8 156.5 97.6 157.0 M 182.5 156.8 C 180.4 157.4 178.5 158.4 177.0 159.9 C 176.5 161.2 176.0 162.5 174.7 163.1 C 174.6 163.8 174.5 165.3 174.4 166.0 C 179.0 164.7 182.5 161.3 186.6 158.9 C 186.1 158.4 185.3 157.3 184.9 156.7 C 184.3 156.8 183.1 156.8 182.5 156.8 M 200.2 158.0 L 200.2 158.6 L 200.9 158.6 L 200.9 157.9 L 200.2 158.0 M 198.3 163.6 L 200.3 164.9 C 199.3 164.7 197.1 164.5 196.1 164.3 L 197.0 165.2 C 192.9 166.7 189.7 169.7 186.2 172.1 C 185.2 172.7 184.1 173.4 183.1 174.0 C 183.3 174.3 183.8 175.0 184.1 175.4 C 183.3 175.4 181.8 175.5 181.1 175.6 C 180.5 176.7 179.6 177.5 178.4 177.9 L 178.7 181.6 C 179.5 180.6 180.4 179.7 181.3 178.8 C 181.4 179.7 181.4 180.6 181.5 181.5 C 181.2 182.0 180.5 183.1 180.1 183.6 C 180.8 183.5 182.1 183.3 182.7 183.3 L 182.3 186.9 C 182.9 186.1 184.0 184.5 184.6 183.7 C 186.1 182.3 187.6 181.0 189.1 179.6 C 189.7 178.7 190.3 177.9 190.9 177.0 C 195.7 172.9 199.2 167.6 203.8 163.3 C 202.4 163.4 199.7 163.5 198.3 163.6 M 185.5 168.5 C 186.6 169.0 188.4 167.6 187.5 166.5 C 186.4 166.0 184.5 167.4 185.5 168.5 M 99.4 172.4 C 99.7 172.7 99.7 172.7 99.4 172.4 M 88.0 176.7 C 86.8 179.4 85.0 181.8 84.3 184.8 L 83.7 184.4 C 83.7 186.2 83.5 188.0 81.9 189.2 C 80.4 193.8 79.0 198.4 76.4 202.5 C 75.5 203.8 75.6 205.5 75.4 207.0 L 74.6 206.2 L 74.7 208.8 C 75.4 208.6 76.9 208.3 77.6 208.1 C 80.6 204.4 83.6 200.7 85.6 196.4 C 87.1 194.3 88.7 192.3 90.4 190.3 C 90.5 185.7 91.8 181.1 91.2 176.4 C 90.4 176.4 88.8 176.6 88.0 176.7 M 79.1 177.7 C 78.3 178.6 77.5 179.5 76.7 180.3 C 76.6 181.0 76.6 182.3 76.6 183.0 L 75.4 182.3 C 75.3 184.0 75.4 185.6 75.6 187.2 C 76.3 188.7 76.9 186.8 76.9 186.2 C 78.0 184.3 79.2 182.4 80.4 180.5 C 80.8 179.7 81.6 178.1 82.0 177.2 C 81.3 177.4 79.8 177.6 79.1 177.7 M 145.3 178.5 L 145.7 179.8 C 145.3 179.8 144.6 179.7 144.3 179.6 C 142.9 181.3 141.3 182.8 139.7 184.2 C 139.6 184.9 139.5 186.2 139.5 186.8 L 137.5 186.5 C 138.8 187.3 139.8 189.7 141.7 189.0 C 144.5 187.1 146.5 184.4 147.8 181.3 L 148.3 181.4 C 148.4 180.7 148.7 179.2 148.8 178.5 C 147.9 178.5 146.2 178.5 145.3 178.5 M 174.8 182.2 C 176.1 182.4 177.8 180.5 177.1 179.3 C 175.7 178.9 174.1 180.9 174.8 182.2 M 153.6 181.6 C 152.7 181.8 150.5 183.9 152.5 183.9 C 153.6 184.1 155.6 181.4 153.6 181.6 M 66.1 182.5 C 66.3 183.1 66.7 184.2 66.9 184.7 C 66.5 184.7 65.7 184.6 65.3 184.6 C 64.5 185.4 63.8 186.3 63.1 187.1 C 62.4 188.7 61.2 189.9 60.0 191.1 C 59.4 192.1 58.7 193.1 58.1 194.2 C 57.4 195.2 56.7 196.2 56.0 197.2 C 55.4 198.4 54.9 199.6 54.4 200.8 L 53.3 200.5 C 53.5 201.0 53.7 202.0 53.9 202.6 L 52.7 202.6 C 52.1 205.0 51.5 207.4 51.4 209.9 L 50.6 209.2 C 50.6 211.1 50.5 213.0 50.5 214.9 L 49.6 214.2 C 49.7 216.6 49.6 218.9 49.5 221.3 C 47.6 224.5 48.8 228.5 48.6 232.0 L 47.6 231.2 C 47.4 236.9 47.5 242.7 47.6 248.4 C 48.1 248.6 49.1 248.9 49.6 249.0 C 49.1 249.1 48.1 249.4 47.6 249.6 C 47.7 252.0 47.7 254.4 47.7 256.8 L 49.1 256.3 C 48.8 256.8 48.3 257.9 48.0 258.4 L 50.5 258.6 C 52.3 251.7 50.3 244.3 52.6 237.5 C 53.0 236.4 53.4 235.4 53.6 234.3 L 54.2 234.3 C 54.7 228.7 56.0 223.2 56.5 217.6 C 57.7 216.3 58.8 214.8 59.1 213.0 C 60.1 207.3 61.4 201.5 64.2 196.4 C 65.2 191.3 67.6 186.7 70.3 182.4 C 69.3 182.4 67.2 182.5 66.1 182.5 M 74.1 189.2 L 73.5 189.8 C 73.7 192.6 76.6 188.9 74.1 189.2 M 147.3 191.6 L 147.7 192.9 L 146.2 192.3 C 146.4 192.9 146.8 194.1 147.0 194.7 L 145.7 194.1 C 145.7 195.8 145.4 197.7 143.3 197.8 C 143.4 198.6 143.6 200.2 143.7 201.0 L 142.3 200.1 C 142.4 201.1 142.6 203.0 142.7 203.9 L 141.4 203.0 L 141.4 205.9 C 143.5 206.0 144.6 205.1 144.7 203.2 L 145.1 203.4 C 145.7 201.2 146.6 199.0 148.4 197.5 C 148.1 197.3 147.6 196.9 147.3 196.7 C 147.7 196.1 148.4 194.8 148.7 194.2 L 149.3 194.6 C 149.4 193.7 149.5 192.0 149.6 191.2 L 147.3 191.6 M 136.6 192.3 C 136.7 194.5 136.7 198.9 136.7 201.1 C 137.1 199.5 137.9 196.2 138.3 194.5 C 138.4 195.6 138.7 197.8 138.8 198.9 C 140.0 197.0 140.5 194.9 141.4 192.9 C 139.8 192.7 138.2 192.5 136.6 192.3 M 148.8 212.6 C 148.2 213.5 147.6 214.4 147.0 215.3 C 146.3 217.8 145.6 220.3 144.7 222.8 C 144.4 225.8 144.4 228.8 144.5 231.9 L 145.9 231.1 L 145.6 233.6 C 147.0 232.3 147.7 230.4 148.6 228.6 C 149.4 227.3 150.2 225.9 151.3 224.8 C 151.3 220.6 151.2 216.4 151.7 212.3 C 150.9 212.4 149.5 212.5 148.8 212.6 M 81.0 213.5 L 81.9 215.1 C 81.4 214.9 80.4 214.5 79.9 214.3 C 79.3 215.2 78.7 216.1 78.1 217.0 C 77.4 217.7 76.7 218.3 76.0 219.0 C 74.8 221.6 73.5 224.2 72.3 226.8 C 72.0 227.1 71.4 227.7 71.1 228.1 C 70.5 229.2 69.8 230.2 69.1 231.2 C 67.8 233.3 66.5 235.3 64.9 237.1 C 64.4 239.0 63.9 240.9 63.4 242.8 L 62.8 242.6 C 62.4 244.0 62.0 245.4 61.5 246.8 L 60.8 246.4 C 60.6 247.9 60.2 249.3 59.8 250.7 C 59.2 258.1 60.1 265.5 59.5 273.0 C 59.5 278.7 59.1 284.6 60.4 290.2 C 60.8 295.8 61.2 303.1 66.5 306.4 C 66.6 298.9 65.6 291.3 68.3 284.2 C 68.3 282.2 68.3 280.2 68.4 278.2 L 69.2 278.6 C 69.5 275.1 70.4 271.6 69.3 268.1 L 70.4 268.8 C 69.8 263.7 72.8 259.2 72.6 254.2 C 73.9 250.3 74.8 246.3 74.5 242.2 L 75.3 242.6 C 75.3 237.6 78.0 233.3 78.7 228.4 C 78.9 227.9 79.5 226.9 79.7 226.4 C 80.4 221.9 81.9 217.6 83.9 213.4 L 81.0 213.5 M 137.9 227.6 C 137.4 229.5 136.6 231.4 136.2 233.4 C 135.5 235.0 135.8 236.7 136.6 238.2 C 136.3 238.7 135.7 239.6 135.4 240.1 C 135.7 240.4 136.2 241.0 136.4 241.3 C 135.4 242.7 135.8 244.5 136.5 246.0 C 135.4 248.1 136.4 250.4 136.7 252.7 L 137.7 252.2 L 137.4 253.6 L 139.4 253.5 C 139.6 251.8 139.8 250.2 139.9 248.5 C 140.5 241.5 141.7 234.5 141.4 227.4 C 140.6 227.4 138.8 227.5 137.9 227.6 M 150.1 237.4 C 150.3 238.0 150.6 239.1 150.8 239.7 C 150.3 239.6 149.3 239.4 148.8 239.3 C 147.9 241.1 147.5 242.9 147.4 244.9 L 146.6 244.2 C 145.7 249.2 144.2 254.2 144.8 259.2 C 145.8 261.9 146.5 264.7 146.8 267.5 C 147.4 268.6 147.9 269.6 148.5 270.6 C 148.6 272.4 148.6 274.1 148.6 275.8 C 149.2 275.6 150.3 275.3 150.9 275.1 L 150.0 276.5 L 152.5 276.6 C 152.1 268.4 152.7 260.2 152.5 252.0 C 152.7 249.4 151.9 246.6 153.3 244.2 C 153.3 241.9 153.4 239.7 153.6 237.5 C 152.7 237.5 151.0 237.4 150.1 237.4 M 127.7 256.5 C 126.7 260.2 125.9 264.2 127.4 267.8 C 127.7 271.4 127.3 275.1 128.5 278.6 C 128.5 279.3 128.7 280.7 128.8 281.4 C 129.4 281.5 130.8 281.7 131.4 281.8 C 131.5 280.2 131.6 278.6 131.9 277.1 L 131.3 276.6 C 131.6 276.3 132.3 275.6 132.6 275.3 C 132.7 271.8 131.5 268.5 131.4 265.0 C 131.3 262.0 129.6 259.3 129.5 256.3 L 127.7 256.5 M 156.2 265.6 L 157.1 267.1 L 155.6 266.3 C 155.6 273.6 155.5 281.0 155.7 288.4 C 156.1 288.5 157.0 288.8 157.5 289.0 C 157.0 289.2 156.0 289.6 155.5 289.8 C 155.9 292.0 156.5 294.1 156.9 296.3 C 157.4 298.1 157.8 299.9 158.4 301.7 C 158.5 302.1 158.7 303.0 158.8 303.4 C 159.4 305.1 159.8 306.9 160.3 308.6 C 161.0 312.0 162.2 315.3 164.1 318.2 C 164.8 318.4 166.1 318.7 166.7 318.9 C 167.0 315.0 163.2 311.1 165.5 307.6 L 164.5 307.8 C 163.5 304.9 163.4 301.8 163.3 298.8 C 162.4 295.5 161.3 292.1 160.4 288.8 C 160.7 288.4 161.3 287.6 161.6 287.2 C 160.7 285.9 160.3 284.5 160.5 283.1 C 160.6 277.1 159.7 271.1 158.6 265.3 L 156.2 265.6 M 140.7 270.9 C 140.4 272.7 140.3 274.9 141.1 276.7 C 141.5 275.8 141.6 274.8 141.6 273.7 L 142.1 272.7 C 142.1 272.2 142.1 271.4 142.2 270.9 C 141.8 270.9 141.0 270.9 140.7 270.9 M 143.9 286.9 C 143.6 288.3 144.3 291.2 146.1 290.6 C 146.8 289.3 145.3 286.9 143.9 286.9 M 164.4 289.9 C 164.5 293.1 164.6 296.4 164.5 299.7 L 165.4 299.1 C 165.5 300.6 165.5 302.3 166.5 303.7 C 165.8 308.3 168.6 312.3 168.8 316.8 L 169.6 316.1 C 169.6 318.0 169.6 319.8 169.6 321.7 L 170.3 321.1 C 170.7 324.7 172.7 327.9 173.3 331.6 C 173.8 334.9 175.4 337.9 177.4 340.4 C 178.3 347.2 182.0 353.2 185.9 358.7 C 187.5 360.4 189.2 362.0 190.9 363.6 C 191.4 363.2 192.4 362.5 192.9 362.2 C 192.6 361.8 191.9 361.0 191.6 360.6 C 191.2 359.0 190.6 357.3 190.1 355.7 L 189.4 355.7 C 189.4 354.9 189.4 353.5 189.4 352.8 C 187.7 350.3 188.7 347.1 188.4 344.4 L 187.6 344.9 C 187.7 340.8 186.5 336.8 185.7 332.8 C 185.0 323.6 176.2 317.6 175.0 308.5 C 172.0 304.6 170.8 299.8 168.6 295.5 C 167.7 293.2 167.4 290.1 164.4 289.9 M 144.2 291.5 C 145.4 298.3 147.8 304.8 149.4 311.5 C 151.8 319.6 153.2 328.0 156.2 335.9 C 157.0 338.1 159.1 339.4 160.7 340.9 C 160.5 339.1 160.2 337.3 159.7 335.5 C 158.9 332.4 158.4 329.3 157.6 326.3 C 157.5 324.9 157.4 323.5 157.4 322.1 L 156.5 322.9 C 157.2 314.7 154.1 306.8 150.5 299.6 C 149.6 297.6 148.5 295.6 148.1 293.4 L 147.1 293.7 C 147.3 293.1 147.6 292.0 147.7 291.5 C 146.8 291.5 145.1 291.5 144.2 291.5 M 140.2 310.1 C 141.5 314.0 141.5 320.4 146.7 320.9 C 144.2 317.4 146.0 310.6 140.2 310.1 M 139.2 323.9 C 140.4 327.3 142.0 330.5 143.9 333.5 C 146.5 337.4 147.3 343.7 152.5 344.8 C 151.6 342.0 150.8 339.2 149.9 336.3 C 147.9 334.2 146.3 331.7 144.8 329.3 C 143.3 327.1 142.1 324.4 139.2 323.9 M 162.1 325.4 C 163.8 329.2 164.2 333.4 164.9 337.5 C 166.3 341.0 166.1 345.3 168.7 348.2 C 173.1 351.3 176.8 355.5 181.9 357.4 C 180.4 356.0 179.4 354.4 179.1 352.4 L 178.8 352.8 C 177.7 349.9 176.0 347.3 174.6 344.5 C 174.3 343.5 174.0 342.4 173.7 341.4 C 171.6 335.7 169.0 330.2 165.1 325.5 C 164.4 325.5 162.9 325.5 162.1 325.4 M 68.8 329.1 C 68.8 330.0 68.7 331.7 68.6 332.6 C 69.0 332.6 69.7 332.6 70.1 332.6 C 69.8 333.0 69.0 334.0 68.6 334.5 C 68.6 337.3 68.7 340.1 68.0 342.8 C 67.1 345.9 68.9 348.9 69.8 351.8 C 71.0 351.3 72.1 350.8 73.3 350.2 C 75.6 351.5 76.0 353.9 75.7 356.3 C 76.5 358.1 77.4 359.9 78.5 361.6 C 79.5 364.2 79.6 367.2 81.1 369.7 C 84.5 375.5 88.6 381.0 90.7 387.4 C 91.0 381.3 87.4 375.9 87.0 369.9 C 86.1 363.8 83.3 358.3 81.5 352.5 C 79.1 348.7 76.9 344.7 75.1 340.5 C 74.3 337.2 72.7 334.2 72.0 330.9 C 71.0 330.3 69.9 329.6 68.8 329.1 M 153.1 349.3 C 154.5 352.8 155.8 356.9 159.7 358.3 C 159.1 355.7 157.9 353.4 156.9 350.9 C 155.6 350.4 154.4 349.9 153.1 349.3 M 190.0 364.2 C 191.1 366.8 193.4 368.7 196.2 368.9 C 194.8 366.6 192.4 365.3 190.0 364.2 M 176.0 364.6 C 177.2 369.6 181.7 372.5 183.8 377.0 C 187.2 382.0 190.9 387.2 196.4 389.9 C 197.8 390.4 199.2 391.1 200.5 391.8 C 200.4 390.9 200.2 389.3 200.1 388.5 C 199.5 388.6 198.4 388.7 197.8 388.8 C 198.2 388.5 198.9 388.0 199.3 387.7 C 197.9 385.8 196.6 383.8 195.1 381.9 C 193.9 380.7 192.7 379.3 191.3 378.2 C 191.3 378.0 191.3 377.5 191.3 377.3 C 185.5 374.0 181.7 368.0 176.0 364.6 M 72.0 370.3 C 74.1 375.2 76.4 380.3 75.7 385.7 C 75.1 385.7 73.9 385.6 73.3 385.6 C 75.8 391.2 78.0 397.4 82.7 401.6 C 82.1 398.8 81.5 396.0 80.6 393.3 C 80.4 391.4 80.3 389.5 80.3 387.5 L 79.5 387.8 C 80.0 381.7 77.3 376.1 74.9 370.7 C 74.2 370.6 72.8 370.4 72.0 370.3 M 191.7 373.2 C 193.6 377.0 197.4 379.5 199.8 383.0 C 201.0 385.1 203.3 386.4 205.7 386.7 C 202.7 382.9 199.9 378.9 196.4 375.6 C 195.2 374.1 193.4 373.6 191.7 373.2 M 176.0 376.5 C 176.7 377.5 177.3 378.5 177.9 379.5 C 179.0 380.7 180.0 381.8 181.0 383.0 C 181.8 383.1 183.5 383.4 184.4 383.5 C 183.7 382.8 182.3 381.4 181.7 380.7 C 181.3 379.2 180.8 377.8 180.4 376.5 C 179.3 376.5 177.1 376.5 176.0 376.5 M 183.4 384.8 C 185.3 386.2 187.1 388.0 189.4 388.8 C 188.0 387.0 186.3 385.5 184.9 383.8 C 184.4 384.1 183.9 384.5 183.4 384.8 M 84.2 387.0 C 84.7 391.7 86.1 396.1 87.3 400.6 C 87.7 402.8 87.5 405.1 88.7 407.2 L 87.5 406.4 C 88.4 408.6 88.8 411.0 89.8 413.2 C 91.8 417.5 96.0 420.2 98.7 424.0 C 102.5 428.4 105.6 433.7 110.9 436.5 C 108.0 431.0 104.6 425.9 102.0 420.4 C 99.7 415.4 95.4 411.5 94.1 406.1 C 90.7 399.8 89.2 392.4 84.2 387.0 M 203.3 388.1 C 203.4 388.8 203.7 390.1 203.9 390.8 L 202.7 390.3 C 202.7 392.3 202.8 394.9 200.1 395.0 C 201.7 399.1 206.1 400.3 209.4 402.8 C 211.1 403.7 212.7 404.5 214.5 405.3 C 224.0 410.3 234.6 412.4 244.4 416.8 C 256.6 420.0 268.6 423.7 280.4 427.9 C 284.2 428.4 287.9 429.3 291.4 430.8 C 300.1 433.0 308.9 435.0 317.4 437.8 C 323.5 439.0 329.6 440.3 335.9 440.6 C 341.5 442.1 347.3 441.3 353.1 441.4 C 357.8 443.1 362.9 442.2 367.8 442.4 L 367.1 441.4 C 367.8 441.4 369.3 441.4 370.0 441.4 L 369.1 442.4 C 371.4 442.4 376.1 442.5 378.4 442.5 C 373.8 443.2 369.1 443.8 364.5 443.3 C 359.0 443.0 353.5 443.6 348.0 443.6 L 348.9 442.5 C 347.1 442.6 343.6 442.6 341.8 442.7 C 344.0 443.2 346.4 443.4 348.2 444.9 C 363.5 447.5 378.5 451.4 394.0 452.5 C 401.9 454.4 410.0 453.1 417.9 452.3 L 417.1 451.4 C 419.0 451.5 420.8 451.4 422.7 451.4 L 422.1 450.5 C 424.3 450.4 426.5 450.4 428.7 450.4 L 428.1 449.5 C 431.0 449.7 433.8 449.1 436.6 448.1 L 436.1 447.4 C 438.0 447.4 439.9 447.4 441.9 447.5 L 441.1 446.4 C 442.7 446.5 444.3 446.5 445.9 446.5 L 445.1 445.4 C 446.7 445.4 448.2 445.5 449.8 445.5 L 449.1 444.7 C 451.7 443.9 454.2 443.2 456.9 443.3 L 456.1 442.4 C 457.0 442.4 458.9 442.5 459.8 442.5 L 459.1 441.4 C 460.0 441.4 461.9 441.5 462.8 441.5 L 462.1 440.4 C 462.9 440.4 464.6 440.5 465.5 440.5 L 465.5 436.8 L 463.7 438.4 C 458.4 438.8 453.0 438.2 447.8 439.4 C 444.6 439.9 441.3 439.2 438.3 440.4 C 430.9 440.6 423.4 440.6 416.0 440.5 C 411.8 440.6 407.7 439.2 403.6 440.2 C 398.4 440.1 393.1 440.6 387.9 440.6 L 389.0 439.7 C 384.9 439.2 380.9 438.5 377.1 437.3 C 373.8 436.2 370.3 436.9 366.9 436.2 C 360.2 434.7 353.3 433.9 346.5 432.4 C 330.8 428.8 315.0 425.6 299.5 421.1 C 289.7 418.6 280.1 415.3 270.6 412.1 C 265.4 411.0 260.5 408.9 255.6 407.2 C 242.9 403.6 230.5 399.0 218.4 393.9 C 219.5 395.8 220.7 397.6 221.9 399.4 C 220.9 400.1 219.9 401.2 218.6 400.5 C 214.0 395.9 210.0 389.5 203.3 388.1 M 97.5 391.0 C 98.6 394.5 99.4 398.1 100.5 401.6 C 104.6 412.3 110.8 422.1 116.6 432.0 C 117.8 436.2 121.3 438.9 124.0 442.0 C 126.2 444.5 129.7 445.4 131.4 448.4 C 134.6 453.7 140.6 456.2 145.4 459.9 C 147.2 460.7 149.1 461.3 151.0 462.0 C 145.1 456.2 140.6 449.1 134.4 443.6 C 130.6 438.9 126.6 434.2 122.7 429.6 C 118.7 422.6 113.6 416.5 109.5 409.6 C 108.0 406.0 106.0 402.6 103.5 399.5 C 103.4 399.0 103.1 397.9 102.9 397.4 C 100.7 395.4 100.9 391.2 97.5 391.0 M 175.8 391.3 C 177.6 395.3 181.0 398.1 184.3 400.8 C 185.8 401.5 187.3 402.5 188.7 403.5 C 186.2 400.9 183.9 398.1 181.7 395.3 C 179.8 393.8 178.0 392.2 175.8 391.3 M 186.5 397.1 C 189.9 400.4 192.7 404.3 195.5 408.1 C 199.0 410.4 201.6 413.7 205.0 416.0 C 214.6 421.3 224.3 426.6 234.4 430.8 C 243.2 433.3 251.9 436.2 260.9 438.4 C 264.8 439.5 268.7 441.0 272.8 441.3 C 269.4 438.0 264.5 437.7 260.6 435.2 C 258.5 434.5 256.6 433.3 254.7 432.2 C 244.5 428.3 235.1 422.6 225.6 417.3 C 223.5 416.6 221.4 415.6 219.6 414.3 C 216.2 412.4 212.9 410.3 209.6 408.2 C 206.0 406.3 202.3 404.4 198.5 402.7 C 196.3 401.4 193.8 400.7 191.6 399.2 C 190.0 398.4 188.3 397.6 186.5 397.1 M 78.7 417.0 C 78.5 418.5 79.0 419.2 80.3 418.9 C 80.6 417.4 80.0 416.8 78.7 417.0 M 244.1 421.1 C 248.3 423.0 252.4 426.1 257.4 425.4 C 253.4 422.8 248.7 421.7 244.1 421.1 M 96.0 428.6 C 95.0 429.7 96.7 431.7 98.0 431.3 C 99.0 430.1 97.3 428.2 96.0 428.6 M 259.5 429.1 C 262.2 430.5 264.8 432.1 267.5 433.3 C 276.9 437.8 286.8 440.8 296.4 444.8 C 306.9 448.9 318.2 450.9 329.3 452.5 C 333.0 453.5 336.8 453.3 340.5 453.8 C 352.6 454.8 364.6 456.4 376.7 456.5 L 376.5 454.9 C 371.9 454.2 367.5 452.7 363.0 451.8 C 347.3 449.8 332.2 444.7 316.6 442.3 C 312.0 440.9 307.3 439.5 302.6 438.4 C 297.5 437.1 292.3 436.8 287.2 435.5 L 287.4 434.8 C 286.7 434.7 285.1 434.5 284.3 434.3 C 285.9 437.7 282.5 433.6 281.0 434.3 L 281.8 433.5 C 279.9 433.5 278.0 433.5 276.0 433.6 L 276.8 432.5 C 276.1 432.5 274.5 432.6 273.8 432.6 C 272.4 431.5 270.6 431.6 269.0 431.5 L 269.8 430.6 C 268.2 430.6 266.5 430.6 264.9 430.6 C 263.5 430.2 260.9 429.5 259.5 429.1 M 99.3 438.0 C 101.3 441.3 103.1 444.6 105.3 447.7 C 106.2 450.0 107.2 452.3 108.6 454.4 C 111.4 458.8 113.2 464.2 117.9 466.9 C 123.4 470.3 128.4 474.6 134.5 476.8 C 134.5 475.7 134.6 473.6 134.6 472.5 C 135.0 473.7 135.4 474.9 135.8 476.1 C 138.1 477.1 140.1 478.7 142.5 479.6 C 147.5 481.2 152.9 481.3 158.0 482.5 C 156.5 480.8 154.9 479.1 153.1 477.8 C 145.4 472.3 140.0 464.2 132.7 458.3 C 129.4 456.8 126.7 454.3 123.7 452.2 C 121.6 450.9 119.6 449.6 117.6 448.2 C 115.2 447.0 112.8 445.9 110.6 444.3 C 107.0 441.9 103.6 439.0 99.3 438.0 M 466.1 442.7 C 465.0 445.6 461.5 444.2 459.2 444.6 L 459.9 445.7 C 458.9 445.6 457.0 445.5 456.1 445.4 L 457.0 446.7 C 456.0 446.6 454.2 446.5 453.2 446.4 L 453.8 447.6 C 452.3 447.6 450.7 447.6 449.2 447.5 L 450.0 448.7 C 448.2 448.6 446.5 448.6 444.7 448.5 L 444.0 451.9 C 443.7 450.7 443.1 448.2 442.8 446.9 L 442.6 450.7 C 441.2 450.6 439.8 450.6 438.4 450.6 L 438.8 451.6 C 437.0 451.5 435.1 451.6 433.3 451.6 L 434.0 452.6 C 431.7 452.6 429.5 452.6 427.2 452.6 L 428.0 453.7 C 426.2 453.7 424.3 453.7 422.5 453.6 C 422.6 454.1 422.7 455.1 422.8 455.7 C 423.2 455.5 424.0 455.2 424.4 455.0 C 424.5 455.5 424.9 456.6 425.1 457.1 C 425.2 456.7 425.3 455.9 425.3 455.5 C 427.4 455.5 429.5 455.5 431.6 455.5 L 431.0 454.4 C 432.9 454.4 434.8 454.4 436.7 454.5 L 436.1 453.5 C 438.6 453.4 441.0 453.3 443.5 453.3 C 443.5 453.1 443.3 452.8 443.2 452.7 C 444.5 452.3 445.7 452.0 447.0 451.6 C 448.6 451.4 450.2 450.8 451.8 450.4 L 451.1 449.4 C 453.5 449.4 456.0 449.3 458.5 449.3 L 458.1 448.7 C 459.3 448.4 460.5 447.9 461.7 447.5 C 463.3 447.1 464.9 446.5 466.6 446.1 L 466.2 445.1 L 467.9 445.6 C 467.7 445.1 467.3 444.0 467.1 443.4 C 469.5 443.5 472.0 443.6 474.3 442.8 C 471.6 442.5 468.9 442.6 466.1 442.7 M 495.9 445.6 C 495.3 446.4 494.7 447.2 494.0 448.0 C 493.4 448.7 492.7 449.3 492.0 450.0 C 490.9 451.1 489.7 452.2 488.5 453.1 C 488.6 453.5 488.8 454.3 488.9 454.7 L 487.2 454.3 L 487.7 456.0 C 487.2 455.8 486.2 455.4 485.7 455.2 C 485.6 456.4 485.5 457.5 485.3 458.7 C 486.7 458.6 488.1 458.5 489.5 458.4 C 489.5 457.0 489.5 455.6 489.5 454.2 C 490.0 454.3 491.1 454.6 491.6 454.8 L 491.4 453.0 C 491.8 453.2 492.6 453.5 492.9 453.6 C 494.6 451.0 496.9 448.9 499.3 446.9 L 499.8 445.3 C 498.9 445.4 496.9 445.5 495.9 445.6 M 292.4 450.9 C 293.1 452.3 296.4 453.4 297.7 452.3 C 296.7 450.8 294.1 450.2 292.4 450.9 M 461.3 453.6 L 462.0 454.5 C 458.1 454.3 452.9 454.4 450.9 458.3 C 455.2 458.5 459.5 458.5 463.8 458.5 L 463.3 457.0 C 463.7 457.2 464.4 457.4 464.8 457.5 C 465.2 457.0 465.9 456.0 466.3 455.6 L 470.4 454.8 L 464.8 454.4 L 465.9 453.6 C 464.8 453.6 462.4 453.6 461.3 453.6 M 358.3 461.0 C 361.0 461.6 363.7 462.1 366.5 462.4 L 366.5 460.5 C 363.8 460.4 361.0 460.4 358.3 461.0 M 430.3 462.5 C 429.0 462.5 427.6 462.6 426.3 462.7 L 427.0 463.5 C 425.1 463.6 423.1 463.5 421.4 464.4 C 417.1 464.4 413.0 465.4 408.8 465.7 C 402.5 467.4 395.9 466.3 389.4 466.7 L 389.4 468.2 C 393.4 468.4 398.5 471.1 401.9 468.0 C 401.8 468.3 401.5 469.0 401.4 469.3 C 405.0 470.6 409.0 470.0 412.5 471.4 C 412.4 471.1 412.2 470.5 412.1 470.2 C 413.4 471.8 414.6 471.7 415.8 470.1 C 415.7 470.4 415.5 471.0 415.5 471.4 C 420.6 471.8 425.9 471.0 430.9 472.2 C 437.9 471.2 445.0 471.6 451.7 469.2 L 451.3 468.0 C 451.7 468.1 452.5 468.4 452.8 468.5 C 453.8 467.1 454.9 465.8 456.5 465.1 L 456.6 463.6 C 451.8 462.4 446.9 462.6 442.0 461.8 C 438.1 461.9 433.9 460.7 430.3 462.5 M 151.2 468.0 C 156.0 472.8 161.7 476.6 166.9 480.9 C 169.3 483.3 172.7 482.4 175.7 482.5 L 175.5 480.9 C 170.9 477.8 166.1 475.3 161.6 472.2 C 158.0 471.1 154.8 469.2 151.2 468.0 M 128.6 479.2 C 129.4 480.5 130.2 481.7 131.3 482.8 C 136.7 488.5 143.6 492.4 148.7 498.3 C 153.2 503.4 159.1 507.0 165.1 510.1 C 165.3 510.5 165.7 511.4 165.9 511.9 C 173.4 519.4 183.5 523.5 192.8 528.3 C 198.1 531.1 203.8 532.9 209.4 534.7 C 216.3 537.8 223.7 539.4 231.1 540.4 C 237.7 541.2 244.3 542.6 251.1 542.4 C 253.3 542.9 255.5 543.7 257.8 543.6 L 257.5 544.2 C 264.3 544.6 271.1 546.1 278.0 546.4 C 282.9 546.1 287.8 546.7 292.7 546.7 C 283.6 546.2 274.7 544.1 265.6 543.4 C 262.5 542.4 259.3 541.9 256.1 541.4 C 241.1 539.1 227.1 533.2 212.9 528.0 C 210.5 527.5 208.0 527.0 205.6 526.5 C 203.3 525.6 200.9 525.1 198.6 524.3 C 191.7 519.8 183.5 518.0 176.5 513.7 C 171.8 511.1 166.7 508.9 162.6 505.3 C 159.5 503.2 157.1 500.2 154.0 497.9 C 149.9 494.0 146.9 489.0 142.7 485.2 C 138.3 482.6 133.3 481.2 128.6 479.2 M 183.5 480.3 C 187.6 484.0 192.8 486.5 197.9 488.4 C 200.7 487.5 203.6 487.4 206.5 487.3 C 202.7 484.2 197.7 484.3 193.2 482.9 C 190.0 482.0 186.9 480.6 183.5 480.3 M 179.0 484.6 C 180.5 488.9 186.4 489.0 190.0 490.6 C 186.8 488.0 183.2 485.5 179.0 484.6 M 148.5 485.5 C 152.7 490.8 157.6 495.7 162.7 500.3 C 170.6 507.2 180.5 511.2 189.8 515.7 C 189.5 513.7 189.1 511.8 188.5 509.9 C 189.3 508.5 189.5 506.8 189.6 505.2 C 190.6 504.4 191.6 503.7 192.7 503.0 C 192.6 502.3 192.3 500.9 192.2 500.2 C 185.5 496.6 178.4 493.7 171.6 490.3 C 170.0 489.5 168.6 488.4 166.9 488.0 C 160.7 487.3 154.6 486.4 148.5 485.5 M 447.2 486.9 C 446.2 488.1 444.8 488.7 443.3 488.8 L 443.6 490.0 C 443.1 489.8 442.0 489.4 441.5 489.2 L 441.8 490.3 C 439.2 490.8 437.0 492.3 434.4 492.9 L 434.6 494.0 C 434.1 493.8 433.1 493.5 432.5 493.3 L 432.8 494.5 C 432.1 494.6 430.8 494.7 430.2 494.7 C 429.3 496.1 428.0 496.8 426.4 496.9 L 426.7 497.9 C 426.1 497.8 425.1 497.5 424.5 497.4 L 424.6 498.9 C 424.1 498.7 423.0 498.4 422.5 498.3 L 422.8 499.5 C 421.4 500.0 419.9 500.5 418.5 500.9 L 418.7 502.0 C 418.1 501.8 417.1 501.5 416.5 501.4 L 416.6 502.9 C 416.1 502.7 415.0 502.4 414.5 502.3 L 414.6 503.9 C 414.1 503.7 413.0 503.5 412.5 503.4 L 412.8 504.4 C 411.7 504.9 410.6 505.3 409.5 505.8 C 409.5 506.5 409.5 507.8 409.5 508.5 C 412.3 508.4 415.0 508.3 417.8 508.3 L 417.1 507.5 C 421.4 507.4 425.8 507.9 429.9 506.2 C 430.8 504.7 432.4 504.4 433.9 504.2 C 434.7 502.8 436.2 502.3 437.7 502.2 L 437.3 501.0 C 437.6 501.1 438.4 501.3 438.7 501.4 C 439.8 500.2 440.9 499.1 442.0 498.0 C 442.8 497.1 443.9 496.4 445.2 496.1 C 446.0 494.6 446.8 493.1 447.9 491.8 C 448.6 490.7 448.9 489.2 450.6 489.3 L 450.5 487.2 L 449.0 487.9 L 449.7 486.3 C 449.1 486.4 447.8 486.8 447.2 486.9 M 214.8 489.4 C 212.6 489.9 210.5 490.6 208.3 490.8 L 209.0 491.6 C 207.9 491.7 205.9 491.8 204.9 491.9 C 207.2 494.2 211.4 496.9 214.4 494.4 C 215.0 494.7 215.6 495.1 216.2 495.6 C 217.1 491.8 221.8 494.2 224.5 493.3 C 221.8 490.4 218.2 488.4 214.2 488.5 L 214.8 489.4 M 411.4 491.7 L 411.9 492.6 C 410.4 492.6 408.9 492.5 407.4 492.5 L 407.8 493.6 C 406.9 493.6 405.2 493.5 404.3 493.5 L 404.9 494.6 C 404.0 494.6 402.2 494.5 401.3 494.5 L 401.8 495.6 C 400.9 495.6 399.1 495.5 398.2 495.5 L 398.9 496.6 C 397.9 496.6 396.0 496.5 395.1 496.5 L 395.9 497.7 C 395.0 497.6 393.2 497.6 392.2 497.6 L 392.9 498.6 C 392.0 498.6 390.2 498.6 389.3 498.6 L 389.8 499.7 C 388.3 499.6 386.8 499.6 385.3 499.6 L 385.9 500.7 C 385.0 500.7 383.2 500.6 382.3 500.5 L 382.9 501.4 C 380.0 501.9 377.2 502.8 374.2 502.8 L 374.9 503.6 C 373.4 503.6 371.8 503.6 370.3 503.5 L 370.9 504.7 C 370.0 504.6 368.2 504.6 367.3 504.6 L 367.9 505.5 C 364.9 505.3 362.1 506.0 359.2 506.8 L 359.7 507.9 C 359.2 507.7 358.0 507.5 357.4 507.3 L 357.5 509.3 C 361.4 509.6 365.1 508.3 369.0 508.5 L 368.1 507.0 C 369.4 507.3 370.7 507.8 372.0 508.2 C 375.2 507.0 378.8 507.7 382.2 507.0 C 385.0 506.3 387.9 505.5 390.8 505.2 L 390.1 504.4 C 391.0 504.4 392.7 504.4 393.6 504.4 L 393.4 502.9 C 393.9 503.2 395.0 503.7 395.6 503.9 L 395.1 502.5 C 396.5 502.5 398.0 502.4 399.5 502.4 L 399.2 501.6 C 402.1 501.0 404.8 499.9 407.7 499.2 L 407.4 498.0 C 407.9 498.2 409.0 498.6 409.6 498.8 L 409.1 497.2 L 410.7 497.7 L 410.4 495.9 C 410.8 496.1 411.6 496.4 411.9 496.6 C 413.0 494.9 414.2 492.9 416.6 493.4 L 416.7 491.4 C 415.0 491.5 413.2 491.6 411.4 491.7 M 459.0 492.7 C 458.4 493.8 457.4 494.5 456.3 494.8 L 455.4 495.6 C 455.5 496.0 455.8 496.8 455.9 497.2 C 457.0 497.3 459.4 497.5 460.6 497.7 C 460.1 497.1 459.3 496.0 458.8 495.5 C 459.8 495.5 461.6 495.6 462.5 495.7 C 462.5 494.8 462.6 493.1 462.6 492.2 C 461.7 492.3 459.9 492.6 459.0 492.7 M 236.7 493.5 C 239.4 498.6 246.3 497.5 250.4 500.8 C 253.8 502.0 256.9 504.1 260.5 504.7 C 265.7 505.9 271.1 505.1 276.4 505.8 C 280.2 506.6 284.1 506.2 288.0 506.5 C 281.8 503.4 275.0 501.6 268.6 499.1 C 262.3 497.7 255.9 496.5 249.6 495.2 C 246.9 494.8 244.2 493.2 241.5 494.2 C 239.9 493.9 238.3 493.7 236.7 493.5 M 265.0 492.4 C 274.7 494.5 284.5 495.8 294.1 497.9 C 296.7 498.5 299.3 498.4 301.9 498.5 L 301.2 499.4 C 302.0 499.4 303.5 499.5 304.3 499.5 C 313.9 503.1 324.3 504.0 334.0 507.2 C 338.2 506.7 342.5 506.1 346.7 506.3 L 346.1 505.4 C 347.7 505.4 349.2 505.5 350.8 505.5 L 350.1 504.5 C 352.0 504.5 353.9 504.4 355.8 504.4 L 355.0 503.4 C 356.9 503.4 358.8 503.3 360.8 503.3 L 360.1 502.3 C 361.6 502.3 363.2 502.4 364.7 502.4 L 364.2 501.4 C 365.7 501.4 367.1 501.4 368.6 501.4 C 368.6 500.6 368.5 499.1 368.4 498.4 C 369.1 498.4 370.4 498.4 371.0 498.5 L 370.0 499.5 C 372.2 499.4 374.4 499.4 376.6 499.4 L 376.2 498.4 C 377.7 498.4 379.2 498.4 380.7 498.5 L 380.1 497.6 C 382.3 497.5 384.5 497.1 386.7 496.5 L 386.6 494.0 L 385.1 495.1 L 385.8 493.6 C 383.6 493.7 381.5 493.7 379.4 493.7 C 379.5 494.1 379.7 494.8 379.8 495.2 C 379.3 494.6 378.2 493.5 377.7 493.0 L 377.8 494.5 C 373.9 494.4 370.1 494.6 366.2 494.6 L 367.0 495.8 C 361.9 494.3 356.5 494.7 351.2 494.7 L 351.8 495.8 C 350.2 495.5 348.6 495.3 347.0 494.9 C 344.2 495.8 341.0 496.0 338.4 494.3 L 338.8 495.5 C 336.3 495.4 333.6 495.9 331.2 494.8 C 320.8 494.5 310.4 494.6 299.9 494.5 C 294.4 493.3 288.7 493.7 283.0 493.6 C 276.9 494.1 271.2 490.3 265.0 492.4 M 225.4 494.3 L 225.9 495.5 C 223.4 495.5 220.8 495.7 218.3 495.6 L 218.8 496.6 C 217.9 496.6 216.2 496.6 215.3 496.6 C 219.5 499.5 224.9 499.4 229.6 501.2 C 233.5 503.1 238.1 501.6 242.0 503.7 C 237.4 499.2 231.2 496.8 225.4 494.3 M 455.9 497.2 C 455.4 497.6 455.4 497.6 455.9 497.2 M 198.5 503.5 C 198.6 504.1 198.7 505.2 198.8 505.8 L 197.5 505.2 C 197.5 507.1 197.5 509.1 197.5 511.0 L 196.6 510.3 C 196.6 511.8 196.6 513.3 196.6 514.8 C 199.8 516.8 203.2 518.4 206.6 519.8 C 206.6 519.3 206.5 518.2 206.5 517.7 C 209.1 520.2 212.4 522.3 216.1 522.3 C 220.8 522.1 225.4 522.3 230.0 521.5 C 237.7 521.4 245.4 521.5 253.1 521.3 L 253.3 519.6 C 253.4 520.0 253.6 520.9 253.7 521.3 C 256.5 521.2 259.5 521.5 262.2 520.4 C 262.8 520.8 263.9 521.5 264.4 521.9 L 264.1 520.4 C 266.4 520.5 268.6 520.5 270.8 520.6 L 270.5 518.8 C 253.7 517.0 237.0 514.0 220.6 510.4 C 216.2 509.1 211.7 508.5 207.5 506.6 C 204.6 505.3 201.6 504.3 198.5 503.5 M 303.6 504.6 C 306.6 508.6 312.3 507.3 316.6 508.6 C 313.4 505.1 307.9 505.8 303.6 504.6 M 403.5 513.5 C 403.6 514.4 403.6 516.2 403.7 517.1 L 402.6 516.1 C 402.5 517.3 402.4 519.5 402.4 520.7 C 403.3 520.6 405.0 520.5 405.9 520.4 L 405.0 519.4 C 405.9 519.4 407.8 519.5 408.7 519.5 L 408.3 518.0 C 408.9 518.2 410.0 518.7 410.6 518.9 L 410.1 517.4 C 410.9 517.4 412.6 517.4 413.4 517.4 C 412.7 516.8 411.5 515.5 410.8 514.9 C 411.5 515.2 412.8 515.7 413.5 516.0 L 413.6 513.6 C 410.2 513.6 406.9 513.6 403.5 513.5 M 392.3 516.0 C 392.9 516.0 394.1 516.0 394.7 516.0 C 395.3 514.5 391.7 514.5 392.3 516.0 M 384.3 517.6 L 384.9 518.5 C 380.1 518.0 375.3 519.0 370.5 520.0 C 368.9 520.4 367.1 520.7 365.5 521.2 C 364.1 521.6 362.7 521.9 361.4 522.4 C 357.8 523.9 353.9 523.1 350.4 524.3 C 347.2 524.8 344.0 524.5 340.8 524.8 C 338.4 525.9 335.6 525.4 333.0 525.6 C 327.7 525.4 322.3 525.8 317.0 524.7 C 307.3 524.6 297.5 524.6 287.8 524.8 C 287.3 525.0 286.3 525.3 285.8 525.5 C 276.9 526.0 268.0 525.0 259.2 526.5 C 249.3 526.4 239.4 526.9 229.5 526.6 C 229.5 527.0 229.4 527.8 229.4 528.2 C 235.1 530.3 240.7 532.8 246.8 533.6 C 250.1 534.6 253.4 535.3 256.8 535.6 C 265.0 537.3 273.3 538.9 281.8 538.6 C 291.3 541.7 301.3 539.8 311.0 540.8 C 315.7 540.5 320.4 540.2 325.1 540.3 C 328.6 538.7 332.5 540.0 336.2 539.1 C 339.3 538.2 342.5 538.4 345.7 538.3 L 345.1 537.5 C 347.6 537.5 350.2 537.7 352.6 536.7 C 356.0 536.5 359.3 535.3 362.7 535.2 L 362.0 534.7 C 365.0 534.2 367.8 533.3 370.8 533.3 L 370.0 532.4 C 372.0 532.4 373.9 532.4 375.8 532.4 L 375.1 531.4 C 376.0 531.4 377.9 531.4 378.8 531.4 L 378.1 530.4 C 379.4 530.4 380.7 530.5 382.1 530.5 C 382.5 529.2 383.7 528.4 384.9 528.0 C 385.9 526.8 387.3 526.3 388.8 526.2 L 388.1 525.4 C 389.0 525.4 390.8 525.5 391.7 525.5 L 391.2 524.0 L 392.8 524.6 C 392.6 524.0 392.2 522.8 392.0 522.3 L 393.6 522.9 C 393.6 521.7 393.6 519.3 393.6 518.1 L 392.0 519.0 L 393.0 517.4 C 390.1 517.5 387.2 517.6 384.3 517.6 M 413.2 521.6 L 413.8 522.3 C 412.0 522.7 410.2 523.4 408.4 523.8 L 408.8 525.0 C 408.2 524.8 407.0 524.4 406.4 524.2 L 406.6 525.9 C 406.1 525.8 404.9 525.5 404.4 525.3 L 404.8 526.5 C 404.2 526.6 402.9 526.7 402.3 526.8 C 401.3 528.1 399.9 528.8 398.2 528.7 L 398.9 529.6 C 398.0 529.6 396.2 529.6 395.4 529.6 L 395.7 531.0 C 395.4 530.9 394.6 530.7 394.3 530.6 C 393.5 531.8 392.3 532.5 391.1 533.1 C 389.9 534.2 388.6 535.3 387.1 536.1 C 385.6 537.3 384.3 539.0 382.2 538.7 L 382.8 540.0 C 382.2 539.8 381.2 539.5 380.7 539.3 C 380.6 540.1 380.4 541.8 380.2 542.6 C 382.5 542.5 384.7 542.5 387.0 542.5 L 386.0 541.4 C 387.7 541.5 389.4 541.5 391.1 541.5 C 391.6 538.9 394.1 539.5 396.1 539.4 C 396.6 537.6 398.2 537.2 399.9 537.4 L 399.2 536.7 C 400.8 536.4 402.3 535.8 403.8 535.3 C 403.6 534.8 403.3 533.8 403.2 533.2 C 403.8 533.4 405.1 533.7 405.8 533.8 L 405.3 532.2 C 405.9 532.3 407.0 532.6 407.6 532.7 C 407.5 532.1 407.4 530.8 407.4 530.1 C 408.0 530.3 409.1 530.7 409.7 530.9 L 409.2 529.2 L 410.9 529.7 L 410.3 527.9 C 410.7 528.1 411.6 528.5 412.1 528.7 C 412.4 527.3 413.4 526.4 414.8 526.2 L 414.2 525.0 C 414.8 525.2 416.0 525.6 416.6 525.8 L 416.0 524.1 L 417.4 524.8 C 417.5 524.0 417.7 522.2 417.8 521.3 C 416.6 521.4 414.3 521.5 413.2 521.6 M 358.2 541.6 C 359.5 543.1 363.7 542.0 365.1 541.0 C 362.9 540.3 360.3 540.9 358.2 541.6 M 354.3 542.1 C 354.4 545.6 357.3 540.5 354.3 542.1 M 350.4 543.0 C 350.4 544.3 351.2 544.6 352.6 544.0 C 352.5 542.6 351.8 542.3 350.4 543.0 Z" />
<path fill="#fefefe" stroke="#fefefe" stroke-width="0.09375" opacity="1.00" d=" M 390.3 105.1 C 393.1 103.4 390.6 108.4 390.3 105.1 Z" />
<path fill="#fefefe" stroke="#fefefe" stroke-width="0.09375" opacity="1.00" d=" M 393.3 106.2 C 394.7 105.6 395.5 105.9 395.9 107.2 C 394.6 107.7 393.7 107.4 393.3 106.2 Z" />
<path fill="#fefefe" stroke="#fefefe" stroke-width="0.09375" opacity="1.00" d=" M 277.7 128.3 C 279.0 128.2 280.3 128.2 281.7 128.2 C 281.7 129.4 281.6 130.5 281.6 131.7 C 279.8 131.6 278.1 131.6 276.3 131.3 C 276.8 130.3 277.2 129.3 277.7 128.3 Z" />
<path fill="#fefefe" stroke="#fefefe" stroke-width="0.09375" opacity="1.00" d=" M 505.8 366.7 C 510.5 368.0 512.6 372.4 515.7 375.6 C 515.5 376.6 515.4 377.5 515.3 378.5 C 515.1 377.6 514.5 375.9 514.3 375.0 L 513.9 375.9 C 512.0 372.1 508.2 370.0 505.8 366.7 Z" />
</svg>
