<?xml version="1.0" encoding="UTF-8" ?>
<!DOCTYPE svg PUBLIC "-//W3C//DTD SVG 1.1//EN" "http://www.w3.org/Graphics/SVG/1.1/DTD/svg11.dtd">
<svg width="559pt" height="1143pt" viewBox="0 0 559 1143" version="1.1" xmlns="http://www.w3.org/2000/svg">
<path fill="#ffffff" stroke="#ffffff" stroke-width="0.09375" opacity="1.00" d=" M 331.6 23.2 C 333.5 22.6 335.5 22.1 337.5 21.5 C 340.9 26.6 340.9 32.6 342.2 38.3 C 347.8 46.9 352.4 57.0 361.3 62.8 C 369.2 73.1 375.3 84.7 382.1 95.8 C 384.3 95.6 386.5 95.4 388.7 95.3 C 389.1 96.1 389.5 97.0 389.9 97.8 C 388.1 99.9 386.3 101.9 384.7 104.1 C 391.5 105.4 398.3 106.6 405.0 108.0 C 408.1 104.2 411.4 100.4 416.3 99.1 C 416.5 102.9 416.3 106.6 415.6 110.3 C 418.5 112.3 421.3 114.3 423.9 116.6 C 424.9 114.5 426.0 112.3 427.2 110.3 C 428.9 115.7 426.9 121.5 429.7 126.7 C 433.1 124.6 436.5 122.3 440.0 120.2 C 439.6 124.2 439.0 128.2 438.2 132.1 C 443.2 137.3 447.3 143.6 453.7 147.4 C 458.2 149.9 460.9 154.2 462.5 158.9 C 460.4 159.8 458.4 160.6 456.3 161.4 C 457.8 168.5 458.7 175.8 458.5 183.1 C 460.1 182.1 461.7 181.1 463.4 180.0 C 465.0 182.4 466.6 184.8 468.6 186.9 C 466.1 192.7 467.7 198.7 469.4 204.4 C 469.6 209.0 466.6 213.0 465.0 217.2 C 451.6 215.8 442.9 230.8 429.5 229.7 C 428.0 236.7 426.3 243.7 425.8 250.9 C 427.8 272.2 426.7 294.3 420.0 314.7 C 417.8 326.7 414.8 338.6 409.9 349.8 L 415.5 350.4 C 414.7 352.1 413.8 353.7 413.0 355.3 C 412.5 353.8 412.1 352.3 411.6 350.7 C 407.8 354.1 404.1 357.6 400.5 361.3 C 402.9 360.9 405.2 360.5 407.6 360.1 C 403.4 364.2 398.8 367.7 394.3 371.3 C 387.3 378.2 381.7 386.8 372.8 391.5 C 367.2 394.4 362.1 398.2 356.6 401.2 C 346.4 403.6 336.3 406.7 325.9 408.4 C 326.5 416.7 325.6 425.3 327.7 433.4 C 331.6 439.5 338.3 443.4 342.6 449.3 C 337.0 447.6 329.4 449.4 327.6 455.6 C 326.8 465.0 329.0 474.4 332.3 483.2 C 332.6 482.4 333.1 480.8 333.3 480.0 C 333.8 480.1 334.8 480.4 335.3 480.5 C 335.6 497.5 342.5 513.2 347.1 529.4 C 348.1 525.6 348.2 521.7 347.5 517.9 C 353.7 513.8 353.1 505.2 358.1 500.1 C 365.5 492.1 371.6 483.1 378.5 474.6 C 379.3 476.5 380.0 478.4 380.8 480.4 C 385.2 477.6 387.4 472.9 389.6 468.4 C 390.3 468.3 391.7 468.2 392.4 468.1 C 390.1 473.2 387.5 478.3 386.1 483.8 C 387.7 483.1 389.2 482.5 390.7 481.9 C 391.8 479.1 392.9 476.2 394.1 473.5 C 394.6 475.0 395.0 476.6 395.5 478.2 C 401.3 474.0 410.0 471.5 410.9 463.1 C 411.5 464.4 412.0 465.8 412.6 467.2 C 420.6 462.3 428.8 457.8 437.6 454.5 C 441.4 453.2 443.9 449.9 446.5 447.0 C 456.2 449.6 467.0 444.9 476.0 450.4 C 479.0 448.6 482.5 447.1 485.5 449.8 C 487.0 448.7 488.4 447.7 489.8 446.6 C 492.6 448.6 496.0 449.6 499.5 449.9 C 498.7 456.6 496.7 463.1 491.9 468.1 C 491.0 467.5 490.0 467.0 489.1 466.5 C 486.6 470.5 483.3 474.1 480.6 478.0 C 481.4 478.8 482.2 479.7 483.0 480.6 C 486.4 479.5 489.8 478.5 493.3 477.9 C 485.2 483.1 474.2 485.2 468.9 493.9 C 459.8 506.9 448.7 518.3 438.5 530.4 C 445.2 529.5 452.6 527.9 458.7 531.8 C 448.6 538.1 438.3 544.0 428.1 550.2 C 418.4 556.0 408.5 562.3 397.0 564.1 C 391.8 565.3 386.5 562.7 381.4 564.4 C 373.7 566.8 365.3 568.6 359.2 574.2 C 355.4 579.4 355.9 586.4 354.3 592.4 C 352.9 589.5 351.7 586.5 350.4 583.6 C 339.6 593.9 334.7 608.2 328.7 621.5 C 328.6 618.9 328.6 616.3 328.6 613.8 C 319.7 635.7 306.4 656.4 304.0 680.4 C 307.9 680.4 311.9 680.3 315.8 680.4 C 308.2 687.1 297.7 692.1 294.8 702.7 C 289.3 725.6 284.1 748.8 282.2 772.4 C 286.7 768.1 290.4 763.1 292.4 757.3 C 293.4 757.6 294.3 757.9 295.3 758.3 C 293.4 765.0 290.9 771.4 289.2 778.2 C 287.1 786.7 282.8 794.5 279.9 802.7 C 277.6 823.9 279.1 845.6 283.4 866.5 C 286.0 863.9 288.6 861.2 291.1 858.5 C 292.4 860.8 293.5 863.1 294.2 865.6 C 296.3 865.2 298.4 864.7 300.5 864.8 C 300.4 866.1 300.2 867.4 300.0 868.7 C 301.4 869.3 302.9 869.9 304.3 870.5 C 298.3 873.6 292.6 877.3 286.8 880.6 C 289.3 902.8 297.2 923.8 303.0 945.3 C 293.5 925.4 289.5 903.6 284.3 882.4 C 278.1 891.3 281.0 903.0 281.1 913.0 C 284.1 940.5 285.5 968.2 285.0 995.9 C 286.2 994.8 287.5 993.7 288.7 992.6 C 285.8 998.1 283.2 1004.0 283.8 1010.3 C 285.1 1022.3 288.9 1033.9 291.1 1045.7 C 291.9 1045.1 292.8 1044.5 293.6 1044.0 C 296.5 1056.8 300.4 1069.3 304.5 1081.7 C 300.9 1077.5 299.4 1072.1 297.9 1067.0 C 296.1 1060.7 290.1 1056.6 288.8 1050.2 C 286.2 1039.0 284.1 1027.7 281.2 1016.7 C 280.6 1027.8 283.8 1039.0 281.0 1050.0 C 281.7 1050.0 283.1 1049.9 283.8 1049.9 C 284.0 1048.5 284.3 1047.1 284.5 1045.7 C 285.9 1048.5 287.2 1051.4 288.4 1054.3 C 285.4 1054.7 282.2 1054.3 279.4 1055.5 C 276.5 1057.3 274.0 1059.5 271.2 1061.3 C 268.7 1082.3 275.1 1103.7 269.5 1124.4 C 267.2 1113.5 266.1 1102.3 267.1 1091.3 C 267.9 1080.1 265.7 1069.1 264.8 1058.0 C 265.6 1058.6 266.3 1059.3 267.1 1060.0 C 260.6 1045.9 258.5 1030.4 258.8 1015.0 C 259.7 1015.6 260.6 1016.3 261.4 1016.9 C 259.6 1005.9 255.6 995.3 254.3 984.2 C 253.2 974.1 245.1 966.4 244.7 956.2 C 242.8 933.6 247.4 910.9 244.7 888.3 C 243.5 878.2 243.0 868.1 241.9 858.0 C 239.6 857.6 237.3 857.2 235.0 856.9 C 233.6 858.5 232.2 860.2 230.8 861.9 C 230.3 861.6 229.2 861.0 228.6 860.7 C 230.1 856.6 231.8 852.6 233.0 848.3 C 235.5 846.6 240.8 846.4 239.8 841.5 C 241.7 829.6 241.1 817.3 241.4 805.3 C 242.0 800.0 239.7 795.4 237.6 790.9 C 235.6 781.3 236.4 771.3 233.0 762.0 C 227.6 745.0 221.8 728.0 214.3 711.8 C 208.0 697.9 196.7 687.5 186.3 676.7 C 181.5 672.1 178.6 666.0 176.8 659.7 C 172.9 650.7 160.9 650.5 152.8 649.8 C 158.5 653.8 164.8 657.6 168.5 663.8 C 161.9 659.0 155.8 652.8 147.8 650.5 C 137.2 649.3 126.6 649.7 116.0 649.0 C 117.1 648.2 118.2 647.5 119.3 646.7 C 110.8 644.8 102.8 641.6 94.9 637.9 C 88.2 634.5 80.2 635.3 73.5 631.6 C 77.8 632.0 82.0 632.5 86.3 632.9 C 76.5 629.0 65.2 621.9 55.0 628.1 C 56.0 626.8 57.0 625.5 57.9 624.2 C 54.1 622.3 50.1 620.7 46.6 618.3 C 42.7 615.1 39.9 610.5 35.7 607.5 C 31.5 605.8 27.1 604.8 22.8 603.1 C 24.2 601.3 25.5 599.5 26.9 597.8 C 25.3 598.4 23.8 599.1 22.3 599.8 C 20.9 599.0 19.6 598.2 18.2 597.5 C 22.6 589.9 26.6 581.7 33.1 575.7 C 35.9 577.7 37.6 580.9 39.7 583.7 C 47.5 582.9 55.2 580.7 63.1 581.5 C 70.9 583.4 76.1 576.6 82.4 573.4 C 80.3 572.5 78.3 571.4 76.3 570.3 C 82.3 569.5 88.4 569.2 94.3 570.6 C 104.7 572.5 115.9 570.8 125.8 575.2 C 138.9 580.7 149.7 590.3 163.1 595.3 C 165.7 594.7 167.9 593.3 170.2 592.2 C 169.7 593.7 169.2 595.2 168.6 596.6 C 174.8 603.6 179.4 611.7 184.4 619.5 C 183.5 616.8 182.5 614.2 181.5 611.5 C 187.9 624.2 201.8 631.3 206.9 644.7 C 205.2 643.7 203.5 642.7 201.9 641.8 C 204.3 654.8 219.4 659.8 222.5 672.6 C 223.7 675.5 221.3 677.9 219.7 680.0 C 227.7 693.2 231.9 708.1 237.6 722.4 C 239.0 726.0 241.6 728.9 244.3 731.7 C 243.1 731.6 241.9 731.5 240.6 731.4 C 242.5 738.9 244.7 746.3 247.7 753.4 C 249.2 749.1 250.2 744.7 251.3 740.4 C 249.6 740.9 247.9 741.4 246.2 741.9 C 246.2 737.4 246.6 733.0 247.3 728.6 C 246.3 728.3 245.3 728.0 244.2 727.7 C 247.0 724.0 251.5 720.3 249.9 715.0 C 248.6 706.9 242.8 700.6 239.5 693.3 C 241.6 692.6 243.7 691.8 245.8 691.2 C 246.1 693.6 245.4 696.0 246.0 698.3 C 248.5 702.0 252.2 704.7 255.6 707.6 C 257.1 705.4 258.7 703.2 260.2 700.9 C 257.4 702.0 254.7 703.2 252.0 704.3 C 252.1 703.0 252.2 701.8 252.4 700.6 C 256.7 697.8 261.6 694.9 263.7 689.9 C 266.4 683.6 269.7 677.6 272.3 671.2 C 273.4 668.9 272.7 666.4 272.0 664.0 C 277.4 658.6 282.2 652.3 285.3 645.3 C 285.9 642.4 284.2 639.7 283.4 637.0 C 278.3 637.8 273.2 638.5 268.0 639.1 C 268.1 638.6 268.1 637.5 268.1 637.0 C 270.7 636.5 273.4 636.1 275.6 634.6 C 277.6 632.9 278.1 630.3 278.9 628.0 C 285.5 626.8 291.4 623.4 297.2 620.2 C 304.6 608.5 304.7 594.2 307.0 581.0 C 308.8 562.9 311.0 544.6 308.5 526.6 C 306.7 538.1 307.4 549.8 306.5 561.4 C 305.1 552.2 304.4 543.0 303.3 533.8 C 304.2 534.5 305.2 535.2 306.1 535.9 C 305.8 527.8 305.2 519.7 304.5 511.7 C 303.8 514.5 303.0 517.3 302.3 520.2 C 301.7 517.4 301.2 514.6 300.6 511.9 C 297.5 513.8 294.5 516.1 290.9 517.3 C 288.7 512.6 294.4 508.9 296.0 505.0 C 300.0 500.1 301.0 493.9 301.6 487.8 C 302.2 490.1 302.8 492.4 303.4 494.7 C 302.8 485.6 300.6 476.6 299.6 467.5 C 298.1 453.2 296.0 438.8 291.8 425.0 C 290.7 425.6 289.5 426.1 288.4 426.6 C 289.1 424.3 290.2 422.3 291.3 420.3 C 294.2 425.7 296.1 431.5 298.0 437.3 C 297.5 428.4 296.5 419.2 293.0 410.9 C 286.5 404.8 277.0 403.6 269.1 399.9 C 264.6 398.4 260.0 394.5 255.2 397.1 C 253.8 391.6 248.5 388.9 244.3 385.7 C 238.8 381.8 234.3 376.9 229.8 372.0 C 231.5 380.6 233.6 389.2 236.1 397.7 C 231.5 389.8 230.5 380.5 228.1 371.8 C 227.3 368.1 223.2 366.8 220.6 364.5 C 222.0 365.0 223.4 365.5 224.8 366.1 C 213.3 347.9 210.0 326.3 204.0 306.0 C 197.0 284.6 192.5 262.5 186.0 241.0 C 183.7 232.8 180.7 224.7 178.8 216.3 C 181.8 217.6 184.7 219.1 187.4 220.7 C 184.8 213.4 180.4 206.6 173.7 202.4 C 168.0 198.5 161.2 197.2 155.3 193.7 C 158.0 194.0 160.6 194.4 163.3 194.7 C 156.0 189.5 149.2 183.7 142.8 177.5 C 139.4 182.4 136.9 188.1 132.1 191.8 C 134.2 185.2 137.3 178.9 141.2 173.1 C 142.8 169.7 146.5 168.9 149.6 167.5 C 149.0 166.4 148.4 165.3 147.9 164.3 C 152.9 165.0 157.9 165.5 163.0 165.4 C 162.4 164.3 161.7 163.3 161.1 162.2 C 164.0 162.8 166.9 163.7 169.9 163.6 C 173.2 163.2 176.0 161.2 178.8 159.6 C 181.3 165.9 190.0 166.6 193.4 161.0 C 194.4 153.6 190.9 146.7 190.3 139.4 C 193.9 144.8 194.6 151.5 196.7 157.5 C 197.6 155.4 199.4 153.2 198.7 150.7 C 197.8 143.9 191.4 139.8 187.0 135.2 C 185.8 137.5 184.6 139.8 183.1 141.8 C 182.7 135.9 183.0 128.5 188.0 124.4 C 193.8 122.4 200.1 122.8 206.1 122.5 C 204.9 116.9 203.6 111.2 202.5 105.6 C 205.5 104.9 208.6 103.8 211.7 104.5 C 213.9 105.4 215.7 106.9 217.6 108.2 C 217.5 107.1 217.3 106.0 217.1 104.9 C 218.9 105.5 220.6 106.2 222.3 106.8 C 224.2 104.5 225.9 102.1 228.5 100.6 C 231.8 98.5 235.8 98.2 238.8 95.7 C 244.9 90.8 250.2 85.2 255.8 79.8 C 254.8 76.0 253.7 72.2 252.9 68.4 C 254.3 66.6 255.6 64.8 257.0 63.0 C 256.1 63.3 255.3 63.5 254.4 63.8 C 254.8 60.6 255.0 57.4 255.2 54.3 C 256.9 55.6 258.6 56.9 260.4 58.0 C 260.2 59.4 259.9 60.8 259.7 62.2 C 262.3 60.3 264.8 58.3 266.9 55.8 C 265.3 55.4 263.7 55.1 262.1 54.7 C 266.0 48.2 268.6 40.8 273.8 35.1 C 274.3 39.3 274.1 43.9 271.5 47.5 C 269.2 50.7 269.8 54.8 269.7 58.5 C 275.6 54.1 279.5 45.8 288.2 46.7 C 297.1 47.7 306.2 50.0 315.2 48.4 C 320.6 47.8 318.3 41.0 319.0 37.4 C 325.2 36.0 331.4 38.1 337.4 39.7 C 334.9 34.4 332.3 29.1 331.6 23.2 M 334.1 23.2 C 335.4 27.9 336.8 32.5 338.7 37.0 C 338.9 33.8 340.8 30.1 338.6 27.4 C 337.3 25.8 335.7 24.6 334.1 23.2 M 319.3 44.1 C 323.1 44.6 326.9 44.6 330.7 43.9 C 328.5 42.0 326.2 40.4 323.9 38.6 C 322.2 40.4 320.7 42.2 319.3 44.1 M 284.5 58.2 C 285.4 60.0 286.4 61.8 287.4 63.5 C 288.5 61.0 289.4 58.4 290.3 55.8 C 288.3 56.5 286.4 57.4 284.5 58.2 M 271.6 65.6 C 269.8 70.8 274.9 74.0 277.3 77.8 C 279.8 74.6 282.4 71.5 284.5 68.0 C 284.2 64.7 283.4 61.5 282.9 58.3 C 278.8 60.2 273.8 61.4 271.6 65.6 M 257.0 77.4 C 257.5 72.8 257.9 68.1 258.4 63.5 C 254.8 67.4 255.5 72.8 257.0 77.4 M 260.1 70.5 C 257.8 74.0 264.1 71.3 260.1 70.5 M 267.7 69.7 C 268.8 72.2 270.3 74.4 272.1 76.4 C 270.9 74.0 269.4 71.8 267.7 69.7 M 295.3 72.2 C 297.4 73.7 300.0 74.6 302.5 75.0 C 300.2 73.8 297.8 72.9 295.3 72.2 M 317.1 74.1 C 315.8 74.8 315.8 75.5 317.1 76.1 C 318.4 75.5 318.4 74.8 317.1 74.1 M 266.4 74.5 C 267.0 78.5 267.8 82.6 268.3 86.6 C 267.2 86.5 266.0 86.3 264.9 86.2 C 265.9 87.7 267.0 89.3 268.0 90.8 C 269.3 90.5 270.6 90.1 271.9 89.8 C 271.7 84.1 272.2 77.9 266.4 74.5 M 291.4 74.5 C 290.7 76.2 289.9 77.9 289.2 79.6 C 292.3 79.4 295.4 79.0 298.5 78.6 C 296.2 77.2 293.8 75.8 291.4 74.5 M 261.5 77.0 C 262.3 79.8 263.3 82.7 264.5 85.5 C 264.6 82.8 264.6 80.2 264.7 77.5 C 263.9 77.4 262.3 77.1 261.5 77.0 M 350.4 77.2 C 350.0 78.5 350.4 79.0 351.8 78.6 C 352.3 77.2 351.8 76.7 350.4 77.2 M 272.8 80.7 C 273.5 83.0 274.0 85.5 275.3 87.7 C 277.6 88.8 280.1 89.2 282.5 90.0 C 279.6 86.6 276.3 83.5 272.8 80.7 M 348.6 82.2 C 349.3 83.9 350.0 85.6 350.7 87.3 C 350.8 85.5 350.9 83.8 351.1 82.0 C 350.5 82.0 349.2 82.1 348.6 82.2 M 258.9 82.1 C 259.3 84.9 260.3 87.5 262.1 89.7 C 261.7 86.9 260.8 84.3 258.9 82.1 M 282.1 83.5 C 280.8 84.5 282.4 86.7 283.7 85.7 C 285.0 84.7 283.4 82.5 282.1 83.5 M 287.1 83.5 C 287.9 85.1 288.7 86.7 289.5 88.3 C 290.1 86.9 290.6 85.4 291.1 84.0 C 289.8 83.8 288.4 83.7 287.1 83.5 M 344.2 83.7 C 342.9 84.6 344.2 87.3 345.8 86.3 C 347.1 85.4 345.8 82.7 344.2 83.7 M 364.2 83.4 C 365.1 87.9 366.3 92.4 368.9 96.4 C 367.6 91.9 367.1 87.1 364.2 83.4 M 354.6 86.3 C 354.4 89.1 354.4 91.9 354.6 94.7 C 355.6 92.0 355.6 89.0 354.6 86.3 M 256.4 88.4 C 255.0 89.7 257.3 92.0 258.6 90.6 C 260.0 89.3 257.7 87.0 256.4 88.4 M 341.4 88.8 C 341.7 91.8 342.2 94.7 343.1 97.6 C 343.9 95.5 344.6 93.3 345.3 91.2 C 344.0 90.4 342.7 89.6 341.4 88.8 M 298.1 92.0 C 302.6 93.7 307.3 94.9 312.1 94.5 C 312.0 93.6 311.6 91.9 311.5 91.1 C 307.0 91.4 302.5 91.7 298.1 92.0 M 315.4 92.2 C 315.0 93.5 315.4 94.0 316.8 93.6 C 317.3 92.2 316.8 91.7 315.4 92.2 M 253.3 94.7 C 252.4 95.9 251.8 97.4 251.1 98.8 C 253.3 99.6 255.5 100.5 257.7 101.3 C 258.2 99.4 258.7 97.5 259.2 95.6 C 257.2 95.2 255.3 94.7 253.3 94.7 M 263.3 93.6 C 265.0 96.0 267.0 98.0 269.4 99.7 C 268.8 96.4 266.6 94.2 263.3 93.6 M 272.5 94.2 C 271.5 95.9 274.3 96.9 275.1 95.4 C 276.2 93.8 273.3 92.8 272.5 94.2 M 284.2 95.4 C 283.2 98.0 282.5 100.7 281.8 103.4 C 283.4 103.7 284.9 103.9 286.5 104.1 C 285.8 101.2 285.3 98.2 284.2 95.4 M 338.3 96.8 C 337.0 98.1 339.1 100.5 340.6 99.4 C 341.7 98.1 339.7 95.7 338.3 96.8 M 288.7 98.4 C 292.4 103.4 297.9 106.9 304.4 105.9 C 301.6 104.9 298.5 104.5 295.9 103.0 C 293.9 101.6 292.9 99.2 291.6 97.3 C 290.6 97.6 289.7 98.0 288.7 98.4 M 261.5 98.5 C 260.9 100.0 260.4 101.4 259.9 102.9 C 263.7 105.0 267.5 107.2 271.4 109.2 C 268.9 104.9 265.2 101.6 261.5 98.5 M 298.5 99.1 C 298.7 99.4 299.0 100.1 299.1 100.4 C 301.7 101.0 299.9 96.9 298.5 99.1 M 225.2 111.5 C 228.9 110.2 232.4 108.6 236.0 106.9 C 236.5 107.2 237.5 107.8 238.0 108.1 C 236.6 110.6 234.6 113.0 234.1 116.0 C 236.9 118.6 240.3 120.3 243.4 122.5 C 242.2 114.6 239.6 107.1 234.9 100.6 C 230.0 102.3 223.9 105.3 225.2 111.5 M 238.9 104.9 C 240.2 105.7 241.5 106.5 242.8 107.4 C 242.0 105.7 240.3 102.3 239.5 100.6 C 239.3 102.0 239.1 103.5 238.9 104.9 M 242.9 100.9 C 243.9 102.7 244.8 104.4 245.8 106.2 C 246.2 104.7 246.5 103.1 246.8 101.5 C 245.5 101.3 244.2 101.1 242.9 100.9 M 278.2 101.2 C 277.6 102.8 278.2 103.3 279.8 102.8 C 280.3 101.2 279.8 100.6 278.2 101.2 M 249.7 101.8 C 252.9 105.8 255.2 111.8 261.7 110.4 C 259.4 105.5 254.5 103.4 249.7 101.8 M 333.4 105.5 C 333.2 107.0 333.1 108.6 332.9 110.1 C 333.6 110.0 334.9 109.6 335.6 109.5 C 335.8 108.0 335.9 106.4 336.1 104.9 C 335.4 105.0 334.1 105.4 333.4 105.5 M 249.5 107.3 C 248.6 108.4 250.6 109.9 251.5 108.7 C 252.4 107.6 250.4 106.1 249.5 107.3 M 263.3 107.7 C 262.3 108.8 264.2 110.7 265.3 109.7 C 266.4 108.5 264.5 106.6 263.3 107.7 M 308.3 113.4 C 313.8 113.7 319.7 112.3 323.7 108.2 C 318.4 109.4 313.3 111.5 308.3 113.4 M 290.4 108.8 C 293.1 110.9 296.2 112.4 299.5 113.2 C 297.0 110.9 293.8 109.3 290.4 108.8 M 208.2 111.2 C 207.1 114.3 208.5 117.5 209.0 120.6 C 212.4 118.3 215.6 115.6 218.9 113.1 C 215.6 111.5 211.7 108.7 208.2 111.2 M 276.9 111.8 C 278.0 112.9 279.1 114.0 280.2 115.1 C 280.4 113.8 280.6 112.5 280.8 111.2 C 279.5 111.4 278.2 111.6 276.9 111.8 M 266.5 112.1 C 268.4 113.5 270.5 114.7 272.6 115.8 C 270.7 114.3 268.6 113.1 266.5 112.1 M 283.1 114.7 C 283.1 116.1 283.1 117.5 283.0 118.9 C 284.9 119.1 286.7 119.3 288.5 119.5 C 286.8 117.9 284.9 116.3 283.1 114.7 M 318.5 117.6 C 320.0 117.8 321.5 118.0 323.1 118.2 C 323.0 117.2 322.8 115.4 322.7 114.5 C 321.3 115.5 319.9 116.5 318.5 117.6 M 250.2 116.9 C 254.5 120.0 259.5 122.2 262.7 126.5 C 258.4 124.5 254.1 122.1 249.4 120.8 C 252.6 128.8 260.6 133.0 267.0 138.0 C 272.2 141.8 276.7 146.5 282.3 149.7 C 287.2 152.2 292.8 153.4 298.3 154.0 C 293.1 151.4 287.1 150.2 283.0 146.0 C 275.1 136.3 266.6 127.0 257.6 118.4 C 255.7 116.0 252.7 116.8 250.2 116.9 M 289.8 116.3 C 288.8 117.8 291.4 119.5 292.6 118.3 C 293.6 116.8 291.0 115.0 289.8 116.3 M 260.7 116.8 C 265.2 123.8 271.5 129.7 278.5 134.3 C 278.2 123.9 267.6 121.8 260.7 116.8 M 354.2 120.2 C 353.6 121.8 354.2 122.3 355.8 121.8 C 356.3 120.2 355.8 119.6 354.2 120.2 M 226.9 124.3 C 228.6 131.5 230.0 138.7 232.5 145.6 C 234.1 147.4 236.4 148.4 238.5 149.6 C 247.0 153.9 254.8 159.3 263.0 164.1 C 273.7 170.3 285.5 174.5 297.5 177.8 C 286.6 170.6 273.3 168.5 262.1 161.9 C 250.2 155.8 243.1 144.1 236.8 132.9 C 246.6 142.7 254.4 155.0 267.4 161.0 C 261.3 153.8 253.5 148.2 246.7 141.6 C 249.6 141.7 252.4 142.0 255.2 142.5 C 252.5 140.3 249.8 138.1 247.2 136.0 C 246.8 137.4 246.5 138.8 246.2 140.2 C 244.8 131.0 236.7 122.4 226.9 124.3 M 243.7 126.3 C 242.6 127.5 244.5 129.4 245.7 128.3 C 246.7 127.2 244.8 125.3 243.7 126.3 M 218.4 127.7 C 217.4 128.9 219.2 131.2 220.6 130.3 C 221.6 129.1 219.8 126.8 218.4 127.7 M 336.4 126.4 C 335.8 127.6 335.3 128.8 334.7 130.1 C 337.0 129.9 339.2 129.8 341.5 129.7 C 339.8 128.6 338.1 127.5 336.4 126.4 M 205.1 128.2 C 203.5 127.7 202.2 130.4 204.1 130.9 C 205.7 131.5 206.9 128.7 205.1 128.2 M 207.5 127.9 C 207.5 132.5 210.4 136.1 214.4 138.2 C 212.3 134.6 209.9 131.2 207.5 127.9 M 212.8 127.8 C 214.9 133.6 218.7 138.6 223.3 142.6 C 222.3 136.2 217.4 131.8 212.8 127.8 M 283.3 128.7 C 284.8 131.8 286.1 135.1 288.2 137.8 C 294.8 138.5 301.4 137.2 307.9 136.3 C 300.7 131.3 292.1 128.3 283.3 128.7 M 192.2 129.4 C 191.3 133.4 196.1 128.6 192.2 129.4 M 226.2 138.5 C 225.6 136.3 224.5 131.9 223.9 129.8 C 224.5 132.7 225.3 135.7 226.2 138.5 M 248.7 129.7 C 249.8 132.2 251.3 134.4 253.1 136.4 C 251.9 134.0 250.4 131.8 248.7 129.7 M 189.3 131.5 C 188.1 132.4 189.6 134.4 190.7 133.5 C 191.9 132.6 190.4 130.6 189.3 131.5 M 279.7 130.5 C 280.4 133.3 281.8 135.9 284.2 137.7 C 283.1 135.0 281.6 132.6 279.7 130.5 M 196.9 131.9 C 197.7 133.4 198.6 134.9 199.5 136.4 C 200.0 135.1 200.5 133.9 201.0 132.6 C 199.6 132.3 198.3 132.1 196.9 131.9 M 332.2 139.3 C 332.1 140.6 332.0 141.9 331.9 143.1 C 338.3 142.0 344.0 138.5 346.7 132.5 C 341.5 133.9 337.1 137.2 332.2 139.3 M 191.5 134.4 C 193.2 136.1 194.9 137.8 196.8 139.4 C 195.1 137.7 193.3 136.0 191.5 134.4 M 255.9 133.7 C 258.9 138.2 263.2 141.6 267.4 144.8 C 264.1 140.7 260.2 137.0 255.9 133.7 M 201.3 140.0 C 207.4 146.2 214.5 151.2 221.2 156.8 C 226.5 161.0 229.9 167.2 235.5 171.0 C 239.2 172.4 243.2 172.4 247.0 173.3 C 262.7 175.8 276.3 184.6 291.4 189.0 C 286.4 184.3 281.3 178.9 274.2 177.5 C 258.0 173.7 243.3 165.1 231.0 154.0 C 231.6 155.8 232.3 157.5 232.9 159.3 C 225.0 149.8 215.1 142.3 204.8 135.6 C 203.6 137.0 202.4 138.5 201.3 140.0 M 439.9 138.7 C 441.3 140.8 443.0 142.8 444.9 144.5 C 443.4 142.4 441.7 140.5 439.9 138.7 M 257.4 140.3 C 260.4 143.3 263.5 146.2 267.2 148.3 C 264.4 145.2 260.9 142.8 257.4 140.3 M 281.3 139.8 C 283.1 144.5 287.8 146.5 292.2 148.3 C 289.5 144.4 286.0 141.0 281.3 139.8 M 290.4 142.3 C 292.4 144.0 294.3 146.0 297.0 146.6 C 300.3 147.2 303.5 145.8 306.5 144.7 C 301.2 143.7 295.8 142.9 290.4 142.3 M 201.2 143.4 C 200.3 147.4 205.1 142.6 201.2 143.4 M 311.1 151.1 C 316.1 151.4 320.9 149.4 325.3 147.3 C 320.3 146.3 314.7 146.9 311.1 151.1 M 450.1 148.6 C 451.7 152.2 453.5 155.8 455.2 159.4 C 456.3 157.6 457.5 155.9 458.6 154.2 C 455.8 152.3 452.9 150.4 450.1 148.6 M 234.4 150.9 C 236.8 156.1 241.5 159.8 246.2 162.8 C 254.8 167.8 264.0 171.7 273.4 174.8 C 265.1 166.8 253.8 164.3 243.7 159.4 C 246.3 159.7 248.9 160.1 251.6 160.4 C 246.3 156.4 240.6 153.1 234.4 150.9 M 414.1 151.5 C 411.8 155.0 418.1 152.3 414.1 151.5 M 282.2 153.4 C 286.8 157.6 293.3 159.6 299.4 157.8 C 293.8 156.0 288.1 154.3 282.2 153.4 M 203.3 155.5 C 203.4 157.6 203.6 159.7 203.8 161.8 C 209.1 163.2 215.9 162.4 219.1 167.8 C 224.4 175.1 231.1 181.4 239.2 185.3 C 228.9 173.8 217.9 161.7 203.3 155.5 M 216.6 155.9 C 219.8 160.8 224.4 164.7 229.0 168.3 C 225.4 163.7 221.7 159.0 216.6 155.9 M 267.6 157.3 C 271.6 164.2 279.0 167.4 286.4 168.9 C 280.5 164.4 273.8 161.1 267.6 157.3 M 373.1 158.3 C 371.7 158.2 371.4 160.7 372.9 160.7 C 374.3 160.8 374.6 158.3 373.1 158.3 M 197.8 160.5 C 197.7 164.3 199.6 167.2 202.7 169.0 C 202.4 166.1 202.0 163.2 201.6 160.3 C 200.3 160.4 199.1 160.4 197.8 160.5 M 407.2 160.7 C 405.6 161.6 407.0 164.6 408.7 163.5 C 410.2 162.5 408.8 159.6 407.2 160.7 M 428.5 163.6 C 427.2 164.7 428.8 167.5 430.4 166.6 C 431.6 165.4 430.1 162.6 428.5 163.6 M 194.2 164.4 C 193.3 168.4 198.1 163.6 194.2 164.4 M 210.8 163.6 C 213.0 166.2 215.5 168.4 218.3 170.2 C 216.2 167.6 213.7 165.3 210.8 163.6 M 367.2 164.2 C 366.6 165.8 367.2 166.3 368.8 165.8 C 369.3 164.2 368.8 163.6 367.2 164.2 M 396.2 164.7 C 394.9 165.5 395.9 168.1 397.3 167.1 C 398.6 166.3 397.6 163.8 396.2 164.7 M 203.6 164.9 C 205.9 167.8 208.9 170.0 212.3 171.3 C 209.8 168.7 206.8 166.6 203.6 164.9 M 297.7 165.2 C 296.6 166.8 299.5 168.2 300.5 166.7 C 301.6 165.0 298.6 163.6 297.7 165.2 M 351.7 164.6 C 352.3 167.1 352.9 169.4 353.6 171.8 C 356.2 170.8 358.8 169.8 361.4 168.7 C 358.2 167.3 355.0 166.0 351.7 164.6 M 401.2 169.5 C 402.3 168.0 403.2 166.3 404.1 164.6 C 403.1 166.2 402.1 167.9 401.2 169.5 M 388.4 181.1 C 389.8 180.0 392.7 177.9 394.2 176.8 C 393.6 173.6 393.0 170.5 392.4 167.3 C 389.4 171.3 389.3 176.4 388.4 181.1 M 455.1 170.5 C 452.8 174.0 459.1 171.3 455.1 170.5 M 180.8 170.9 C 182.9 172.1 185.0 173.2 187.2 174.1 C 185.1 172.9 183.0 171.8 180.8 170.9 M 321.2 171.4 C 320.3 175.4 325.1 170.6 321.2 171.4 M 421.0 172.0 C 421.0 173.3 421.0 174.7 421.0 176.0 C 421.5 176.0 422.5 176.0 423.0 176.0 C 423.0 174.7 423.0 173.3 423.0 172.0 C 422.5 172.0 421.5 172.0 421.0 172.0 M 425.2 172.4 C 424.3 176.4 429.1 171.6 425.2 172.4 M 159.6 172.8 C 169.3 178.0 176.4 187.7 187.5 190.2 C 182.8 184.9 176.5 181.4 171.0 177.0 C 167.9 174.0 163.7 172.9 159.6 172.8 M 302.6 173.1 C 307.2 176.7 312.2 181.3 318.6 180.1 C 313.6 177.0 308.2 174.7 302.6 173.1 M 326.4 173.2 C 326.0 174.5 326.4 175.0 327.8 174.6 C 328.3 173.2 327.8 172.7 326.4 173.2 M 209.2 174.4 C 212.0 177.1 215.7 178.3 219.4 179.0 C 216.2 177.1 212.8 175.6 209.2 174.4 M 237.2 174.5 C 242.8 179.4 249.8 182.4 256.6 185.2 C 256.5 184.7 256.4 183.7 256.3 183.1 C 265.2 189.9 276.7 192.0 287.7 191.8 C 282.2 188.1 275.9 185.8 269.8 183.2 C 259.4 178.8 248.6 175.0 237.2 174.5 M 277.5 174.3 C 280.7 175.8 284.2 176.6 287.6 177.5 C 284.4 176.0 281.0 174.9 277.5 174.3 M 359.2 197.7 C 369.9 197.0 378.6 190.7 387.0 184.8 C 386.8 181.2 386.5 177.6 386.3 174.0 C 376.3 180.7 367.0 188.6 359.2 197.7 M 155.3 178.2 C 160.8 185.3 168.5 190.2 176.8 193.4 C 176.3 192.1 175.8 190.8 175.3 189.5 C 180.6 192.2 185.7 195.6 191.1 198.2 C 183.7 191.5 174.3 187.7 167.2 180.8 C 164.1 177.9 159.2 178.8 155.3 178.2 M 175.9 177.8 C 177.5 179.4 179.3 180.9 181.1 182.2 C 179.5 180.6 177.7 179.1 175.9 177.8 M 194.6 179.1 C 199.8 183.4 205.4 188.0 212.5 188.0 C 207.2 183.9 201.3 180.4 194.6 179.1 M 352.5 179.1 C 351.5 180.4 353.7 182.0 354.7 180.7 C 355.7 179.4 353.5 177.8 352.5 179.1 M 286.4 181.2 C 288.8 183.2 291.0 185.6 294.0 186.6 C 297.1 186.3 299.9 184.6 302.7 183.3 C 297.3 182.0 291.9 181.6 286.4 181.2 M 345.8 183.1 C 345.0 184.7 347.6 185.9 348.5 184.5 C 349.4 182.9 346.7 181.7 345.8 183.1 M 422.5 187.9 C 423.7 187.6 425.0 187.3 426.2 187.0 C 426.2 185.6 426.2 184.2 426.2 182.8 C 424.8 184.4 423.6 186.1 422.5 187.9 M 223.6 184.1 C 230.4 188.5 237.0 193.3 244.4 196.8 C 239.7 189.8 232.2 184.7 223.6 184.1 M 325.5 184.4 C 331.6 186.5 338.2 188.3 344.7 186.7 C 339.0 183.0 331.9 184.1 325.5 184.4 M 212.7 184.7 C 214.7 186.8 217.0 188.6 219.6 190.0 C 217.6 187.9 215.3 186.1 212.7 184.7 M 303.3 185.3 C 311.9 192.1 323.2 193.3 333.7 190.7 C 323.9 187.3 313.7 185.0 303.3 185.3 M 397.1 184.9 C 396.9 185.2 396.5 185.8 396.3 186.1 C 397.2 189.2 400.5 184.4 397.1 184.9 M 188.4 188.4 C 196.7 198.5 209.6 202.7 220.6 209.2 C 217.9 203.1 211.7 199.7 206.0 196.9 C 200.2 194.1 194.3 191.2 188.4 188.4 M 251.3 188.7 C 250.3 189.8 252.2 191.7 253.3 190.7 C 254.4 189.5 252.5 187.6 251.3 188.7 M 297.3 190.4 C 302.1 193.8 308.1 193.8 313.7 192.5 C 308.7 189.7 302.8 188.6 297.3 190.4 M 167.5 194.0 C 171.1 197.0 175.4 199.0 179.7 200.8 C 176.3 197.4 172.0 195.4 167.5 194.0 M 424.9 199.1 C 427.1 198.5 428.5 197.1 429.1 194.9 C 427.6 196.2 426.2 197.6 424.9 199.1 M 277.4 198.4 C 280.2 199.2 283.0 199.9 285.8 200.5 C 283.1 199.5 280.2 198.8 277.4 198.4 M 234.7 200.0 C 236.9 202.4 239.3 204.5 242.0 206.3 C 239.6 204.1 237.2 202.0 234.7 200.0 M 183.2 201.4 C 182.3 205.4 187.1 200.6 183.2 201.4 M 270.3 201.8 C 274.7 204.5 279.7 206.1 284.4 208.0 C 281.0 203.6 275.6 202.0 270.3 201.8 M 246.9 201.7 C 251.3 206.6 255.8 211.3 261.0 215.3 C 257.5 209.6 253.6 203.8 246.9 201.7 M 340.3 215.0 C 350.8 214.8 360.5 210.0 367.3 202.1 C 358.3 206.4 348.5 209.2 340.3 215.0 M 283.8 202.5 C 285.0 206.0 287.1 209.2 289.8 211.7 C 288.3 208.3 286.5 205.1 283.8 202.5 M 338.4 203.5 C 338.3 204.7 338.2 206.0 338.2 207.3 C 339.3 205.9 340.3 204.6 341.4 203.2 C 340.7 203.2 339.2 203.4 338.4 203.5 M 425.0 203.0 C 425.0 204.3 425.0 205.7 425.0 207.0 C 425.9 206.6 426.9 206.2 427.8 205.8 C 427.9 205.1 428.0 203.7 428.1 203.0 C 427.3 203.0 425.8 203.0 425.0 203.0 M 201.7 204.2 C 204.0 206.1 206.4 207.7 208.9 209.2 C 206.6 207.5 204.2 205.9 201.7 204.2 M 184.7 205.8 C 186.1 207.3 187.7 208.8 189.4 210.1 C 188.0 208.5 186.4 207.1 184.7 205.8 M 228.8 207.0 C 230.9 210.5 233.0 214.0 235.1 217.6 C 239.6 217.7 244.1 218.3 248.6 218.8 C 245.7 214.5 242.0 210.8 237.9 207.6 C 239.8 210.9 242.0 214.0 244.0 217.2 C 238.9 213.9 233.9 210.4 228.8 207.0 M 259.9 207.2 C 270.4 223.2 280.3 239.8 293.3 253.8 C 293.9 248.9 290.1 245.3 287.3 241.7 C 280.8 234.0 275.7 225.3 270.2 216.9 C 267.5 212.9 264.8 208.4 259.9 207.2 M 275.5 208.3 C 274.6 209.4 276.6 210.9 277.5 209.7 C 278.4 208.6 276.4 207.1 275.5 208.3 M 212.8 208.9 C 214.6 210.3 216.4 211.7 218.4 212.9 C 216.6 211.4 214.8 210.1 212.8 208.9 M 245.5 208.9 C 248.9 213.5 253.1 217.4 257.4 221.0 C 254.1 216.4 250.4 211.9 245.5 208.9 M 227.2 210.4 C 226.3 214.4 231.1 209.6 227.2 210.4 M 195.6 210.6 C 198.0 212.9 200.7 214.8 203.6 216.2 C 201.6 213.5 198.8 211.6 195.6 210.6 M 268.9 210.8 C 271.5 216.9 275.2 222.5 279.8 227.5 C 276.5 221.7 273.0 216.0 268.9 210.8 M 187.1 212.5 C 187.9 216.5 189.3 220.4 192.0 223.6 C 191.0 219.6 189.6 215.8 187.1 212.5 M 275.8 213.4 C 283.7 221.2 290.4 230.2 297.2 239.1 C 288.9 232.1 282.0 223.8 274.8 215.9 C 280.1 224.9 287.5 232.5 293.0 241.4 C 289.0 238.6 285.6 235.0 281.9 231.8 C 284.7 236.4 288.0 240.6 291.2 245.0 C 293.1 244.2 295.0 243.5 296.8 242.7 C 300.5 241.8 299.7 236.8 300.9 234.1 C 297.6 228.0 292.8 222.6 286.5 219.4 C 288.3 219.7 290.1 220.0 291.8 220.3 C 288.3 215.0 281.6 214.1 275.8 213.4 M 213.2 215.4 C 212.3 219.4 217.1 214.6 213.2 215.4 M 328.1 216.5 C 326.8 216.4 325.5 218.2 326.4 219.3 C 328.0 220.4 330.0 217.1 328.1 216.5 M 208.5 217.3 C 207.6 218.4 209.6 219.9 210.5 218.7 C 211.4 217.6 209.4 216.1 208.5 217.3 M 294.4 218.8 C 293.3 219.9 294.9 222.3 296.3 221.5 C 297.4 220.4 295.9 218.0 294.4 218.8 M 415.1 217.9 C 414.9 218.2 414.5 218.8 414.3 219.1 C 415.2 222.2 418.5 217.4 415.1 217.9 M 181.1 218.5 C 189.2 243.8 195.2 269.8 202.8 295.3 C 199.9 276.5 196.3 257.9 191.4 239.7 C 189.0 232.2 187.5 223.7 181.1 218.5 M 297.7 219.0 C 300.2 224.0 303.4 228.6 306.5 233.3 C 307.5 232.1 308.4 231.0 309.4 229.9 C 305.8 225.9 301.8 222.3 297.7 219.0 M 408.2 219.0 C 407.1 218.7 405.0 220.2 406.4 221.1 C 408.0 222.4 410.9 219.3 408.2 219.0 M 318.2 220.3 C 316.8 221.2 318.2 223.6 319.6 222.5 C 321.0 221.6 319.5 219.2 318.2 220.3 M 192.6 222.2 C 194.8 224.5 197.1 226.7 199.4 228.8 C 197.3 226.5 194.9 224.3 192.6 222.2 M 296.6 222.8 C 297.7 228.4 302.0 232.5 306.2 236.1 C 303.3 231.5 300.0 227.0 296.6 222.8 M 306.5 223.2 C 308.0 225.1 309.7 226.9 311.5 228.6 C 312.0 227.5 312.6 226.4 313.1 225.3 C 310.9 224.6 308.7 223.8 306.5 223.2 M 200.4 224.2 C 200.0 225.5 200.4 226.0 201.8 225.6 C 202.3 224.2 201.8 223.7 200.4 224.2 M 249.8 226.3 C 248.8 227.8 251.4 229.5 252.6 228.3 C 253.6 226.8 251.0 225.0 249.8 226.3 M 266.1 226.7 C 270.7 234.9 275.0 243.3 280.2 251.2 C 277.0 242.3 272.1 234.0 266.1 226.7 M 350.8 233.5 C 355.7 233.6 360.1 231.1 362.6 226.9 C 358.3 228.4 354.3 230.7 350.8 233.5 M 203.9 227.7 C 205.3 229.8 207.0 231.8 208.9 233.5 C 207.4 231.4 205.7 229.5 203.9 227.7 M 219.6 227.7 C 221.9 231.6 225.2 234.7 228.3 238.0 C 226.0 234.1 223.7 229.9 219.6 227.7 M 425.7 229.6 C 425.5 232.2 425.5 234.8 425.5 237.4 C 425.8 234.8 425.9 232.2 425.7 229.6 M 227.0 230.8 C 228.4 239.4 234.4 246.1 241.6 250.7 C 240.6 241.8 233.8 235.7 227.0 230.8 M 321.8 236.1 C 323.4 234.5 324.9 232.7 326.2 230.9 C 324.6 232.5 323.1 234.3 321.8 236.1 M 360.4 235.7 C 364.6 235.9 368.5 234.5 371.5 231.6 C 367.6 232.3 363.8 233.8 360.4 235.7 M 422.6 246.9 C 422.7 241.4 422.3 235.9 421.7 230.4 C 419.9 235.7 419.3 242.1 422.6 246.9 M 192.9 231.9 C 195.1 237.2 198.0 242.1 202.0 246.2 C 199.6 241.1 196.3 236.4 192.9 231.9 M 203.8 232.9 C 205.1 234.7 206.6 236.5 208.2 238.1 C 206.9 236.3 205.4 234.5 203.8 232.9 M 255.8 233.1 C 257.6 235.1 259.4 237.0 261.2 238.9 C 259.4 236.9 257.6 235.0 255.8 233.1 M 217.6 234.0 C 220.8 238.7 224.7 242.8 229.0 246.4 C 226.0 241.7 221.9 237.6 217.6 234.0 M 302.4 236.4 C 302.4 237.4 302.3 238.4 302.3 239.4 C 303.0 239.6 304.4 239.9 305.1 240.1 C 304.9 238.9 304.7 237.6 304.5 236.4 C 304.0 236.4 302.9 236.4 302.4 236.4 M 390.4 237.2 C 390.0 238.5 390.4 239.0 391.8 238.6 C 392.3 237.2 391.8 236.7 390.4 237.2 M 278.1 238.8 C 281.5 246.2 284.8 253.8 286.7 261.8 C 288.1 259.4 291.1 256.7 289.2 253.8 C 286.2 248.3 282.1 243.5 278.1 238.8 M 200.4 240.2 C 200.0 241.5 200.4 242.0 201.8 241.6 C 202.3 240.2 201.8 239.7 200.4 240.2 M 333.2 243.0 C 328.7 243.1 325.3 246.4 321.7 248.5 C 322.8 249.6 323.9 250.7 325.0 251.8 C 329.9 248.7 335.5 246.7 340.4 243.6 C 338.0 243.4 335.6 243.0 333.2 243.0 M 246.4 243.8 C 245.3 244.9 246.9 247.3 248.3 246.5 C 249.4 245.4 247.9 243.0 246.4 243.8 M 270.2 242.4 C 272.6 248.0 275.7 253.1 279.0 258.2 C 276.7 252.6 274.2 247.0 270.2 242.4 M 360.1 244.1 C 358.4 243.9 358.2 246.6 360.0 246.4 C 361.8 246.7 361.9 243.9 360.1 244.1 M 216.3 245.7 C 215.3 246.8 217.2 248.7 218.3 247.7 C 219.4 246.5 217.5 244.6 216.3 245.7 M 204.8 245.8 C 206.8 249.5 209.4 253.0 212.2 256.2 C 210.2 252.5 207.6 249.0 204.8 245.8 M 337.4 249.9 C 341.3 251.0 343.4 248.9 344.3 245.9 C 341.8 247.0 339.5 248.3 337.4 249.9 M 197.9 246.4 C 199.3 249.0 201.2 251.3 203.3 253.3 C 202.1 250.6 200.3 248.2 197.9 246.4 M 229.7 247.3 C 228.6 248.5 230.5 250.4 231.7 249.3 C 232.7 248.2 230.8 246.3 229.7 247.3 M 381.1 247.9 C 380.9 248.2 380.5 248.8 380.3 249.1 C 381.2 252.2 384.5 247.4 381.1 247.9 M 225.3 249.7 C 224.3 250.8 226.2 252.7 227.3 251.7 C 228.4 250.5 226.5 248.6 225.3 249.7 M 233.5 249.1 C 236.6 253.3 240.2 257.2 244.1 260.6 C 242.5 255.3 237.8 252.2 233.5 249.1 M 407.3 249.3 C 406.0 250.3 407.6 252.5 408.9 251.5 C 410.2 250.5 408.6 248.3 407.3 249.3 M 262.2 250.4 C 261.3 254.4 266.1 249.6 262.2 250.4 M 218.2 250.8 C 220.0 253.6 221.9 256.4 223.8 259.2 C 222.0 256.4 220.1 253.6 218.2 250.8 M 244.9 250.8 C 245.7 253.0 246.7 255.2 247.9 257.3 C 247.0 255.1 246.0 252.9 244.9 250.8 M 232.8 251.8 C 235.9 257.7 240.3 262.6 244.9 267.4 C 241.8 261.5 237.6 256.4 232.8 251.8 M 320.5 251.5 C 320.0 252.2 319.1 253.6 318.6 254.3 C 321.7 256.5 325.0 258.6 328.7 259.4 C 326.4 256.3 323.4 253.9 320.5 251.5 M 349.3 252.5 C 348.1 253.4 349.6 255.4 350.7 254.5 C 351.9 253.6 350.4 251.6 349.3 252.5 M 357.0 252.6 C 359.4 254.7 362.3 254.0 364.7 252.5 C 362.2 252.4 359.6 252.5 357.0 252.6 M 200.1 252.5 C 200.7 257.7 202.1 262.6 203.8 267.5 C 203.8 262.3 203.6 256.7 200.1 252.5 M 249.0 252.8 C 250.6 256.9 252.9 260.9 253.2 265.4 C 252.5 270.8 256.7 274.1 260.1 277.4 C 258.1 268.6 255.1 259.7 249.0 252.8 M 327.6 253.4 C 329.3 254.5 331.0 255.5 332.7 256.6 C 332.5 255.4 332.2 254.2 331.9 253.0 C 330.4 253.1 329.0 253.2 327.6 253.4 M 355.0 252.7 C 356.0 254.6 357.0 256.4 358.1 258.2 C 357.2 256.3 356.2 254.5 355.0 252.7 M 225.5 253.4 C 227.3 255.7 229.0 258.0 230.9 260.2 C 229.2 257.9 227.4 255.6 225.5 253.4 M 206.4 255.2 C 208.0 258.1 209.6 260.9 211.6 263.5 C 211.7 262.0 211.9 260.5 212.1 259.0 C 210.7 258.1 207.8 256.1 206.4 255.2 M 404.2 255.2 C 403.6 256.8 404.2 257.3 405.8 256.8 C 406.3 255.2 405.8 254.6 404.2 255.2 M 274.3 255.3 C 272.0 260.7 275.1 265.5 278.8 269.5 C 277.6 264.7 276.6 259.7 274.3 255.3 M 341.4 256.3 C 337.4 257.5 342.0 261.5 344.3 259.4 C 346.9 257.9 343.3 255.1 341.4 256.3 M 267.6 257.4 C 268.8 259.7 269.9 261.9 271.1 264.1 C 270.1 261.8 268.9 259.6 267.6 257.4 M 317.9 257.9 C 318.7 259.4 319.5 260.8 320.3 262.3 C 321.0 261.3 321.6 260.3 322.3 259.3 C 320.8 258.8 319.4 258.3 317.9 257.9 M 257.0 258.5 C 259.4 263.2 263.2 266.9 267.1 270.4 C 264.6 265.8 261.0 261.9 257.0 258.5 M 221.3 260.5 C 220.1 261.4 221.6 263.4 222.7 262.5 C 223.9 261.6 222.4 259.6 221.3 260.5 M 279.6 259.3 C 280.3 261.6 281.7 266.3 282.3 268.6 C 282.8 265.2 281.5 262.0 279.6 259.3 M 423.9 274.6 C 424.9 269.7 424.4 264.6 424.5 259.5 C 423.9 264.5 423.5 269.6 423.9 274.6 M 226.7 260.9 C 230.4 268.2 236.8 273.7 241.5 280.5 C 240.3 280.4 239.0 280.3 237.8 280.3 C 241.6 283.6 245.5 286.8 249.6 289.9 C 244.1 278.7 235.2 269.7 226.7 260.9 M 246.9 260.2 C 247.5 263.4 248.9 266.2 251.1 268.6 C 250.2 265.5 249.0 262.6 246.9 260.2 M 315.5 260.7 C 313.5 263.0 311.4 265.3 309.4 267.8 C 312.1 266.3 314.7 264.7 317.3 263.2 C 316.8 262.6 316.0 261.3 315.5 260.7 M 395.2 268.5 C 396.0 265.9 396.5 263.2 396.8 260.5 C 396.0 263.1 395.5 265.8 395.2 268.5 M 208.7 263.4 C 209.3 267.1 210.0 270.8 210.9 274.4 C 211.3 270.5 210.8 266.7 208.7 263.4 M 215.2 263.6 C 215.8 266.6 216.5 269.6 217.6 272.5 C 217.0 269.5 216.2 266.5 215.2 263.6 M 257.5 264.1 C 259.6 267.8 262.8 270.7 266.0 273.4 C 263.4 270.0 260.4 267.1 257.5 264.1 M 273.4 265.8 C 272.3 266.9 273.9 269.3 275.3 268.5 C 276.4 267.4 274.9 265.0 273.4 265.8 M 206.3 265.7 C 207.4 277.4 207.2 289.9 212.7 300.6 C 211.6 288.8 209.5 277.1 206.3 265.7 M 225.7 266.5 C 224.6 267.6 226.1 270.0 227.6 269.2 C 228.7 268.1 227.1 265.6 225.7 266.5 M 343.3 266.2 C 342.1 267.6 344.7 269.3 345.7 267.8 C 346.8 266.4 344.3 264.7 343.3 266.2 M 234.9 266.8 C 238.9 272.4 243.5 277.5 248.5 282.2 C 246.4 275.3 240.6 270.7 234.9 266.8 M 244.2 268.4 C 243.3 272.4 248.1 267.6 244.2 268.4 M 201.2 268.8 C 202.4 275.7 204.0 282.5 205.9 289.3 C 204.9 282.3 203.2 275.5 201.2 268.8 M 339.2 269.4 C 337.5 269.9 338.2 272.8 340.0 272.1 C 341.7 271.7 340.9 268.7 339.2 269.4 M 219.9 269.4 C 220.5 274.3 223.2 278.4 225.9 282.3 C 224.7 277.7 223.1 273.1 219.9 269.4 M 229.3 270.3 C 231.2 272.7 233.5 274.7 236.1 276.4 C 233.9 274.2 231.6 272.2 229.3 270.3 M 249.5 269.4 C 250.3 272.9 251.1 276.4 252.8 279.6 C 252.3 276.0 251.1 272.6 249.5 269.4 M 274.4 269.5 C 275.2 274.8 275.7 280.2 276.5 285.5 C 279.8 280.4 279.1 273.6 274.4 269.5 M 283.1 270.5 C 280.8 274.0 287.1 271.3 283.1 270.5 M 317.1 270.1 C 315.8 270.8 315.8 271.5 317.1 272.1 C 318.4 271.5 318.4 270.8 317.1 270.1 M 268.3 270.4 C 269.8 272.8 271.4 275.1 273.1 277.3 C 271.7 274.9 270.1 272.6 268.3 270.4 M 213.7 271.7 C 215.4 275.1 217.5 278.4 219.7 281.5 C 218.3 277.9 216.4 274.5 213.7 271.7 M 261.0 271.6 C 263.1 279.6 265.4 287.5 267.2 295.6 C 268.4 292.9 269.5 290.2 270.5 287.5 C 271.4 288.3 272.3 289.1 273.3 289.9 C 273.4 289.3 273.7 288.2 273.8 287.6 C 268.0 283.6 265.8 276.5 261.0 271.6 M 308.6 277.3 C 310.8 276.9 313.0 276.4 315.2 276.0 C 314.7 274.8 314.1 273.6 313.6 272.4 C 311.9 274.0 310.2 275.6 308.6 277.3 M 410.1 273.8 C 408.7 274.7 409.9 277.4 411.5 276.5 C 412.9 275.6 411.7 273.0 410.1 273.8 M 226.9 273.9 C 227.9 276.2 229.1 278.4 230.4 280.6 C 229.2 278.3 228.1 276.1 226.9 273.9 M 255.1 276.4 C 256.7 280.9 260.3 285.4 257.9 290.3 C 258.9 293.6 262.6 296.0 265.0 298.6 C 264.3 293.6 263.5 288.7 262.1 283.8 C 261.2 280.3 257.8 278.4 255.1 276.4 M 268.8 276.8 C 270.2 279.2 272.0 281.4 274.1 283.4 C 272.6 281.0 270.8 278.7 268.8 276.8 M 337.2 277.2 C 336.6 278.8 337.2 279.3 338.8 278.8 C 339.3 277.2 338.8 276.6 337.2 277.2 M 312.0 284.4 C 315.5 284.4 318.7 283.4 321.7 281.7 C 320.6 280.3 319.4 278.8 318.3 277.3 C 315.9 279.3 313.8 281.7 312.0 284.4 M 214.0 278.5 C 214.3 282.8 214.6 287.2 215.7 291.4 C 217.6 295.1 221.2 297.4 224.0 300.3 C 221.8 292.5 220.6 283.9 214.0 278.5 M 380.2 279.3 C 378.8 280.2 380.2 282.6 381.6 281.5 C 383.0 280.6 381.5 278.2 380.2 279.3 M 226.9 279.7 C 227.8 284.2 230.0 288.4 233.4 291.5 C 232.6 286.9 229.6 283.3 226.9 279.7 M 249.4 281.7 C 248.2 282.5 249.4 284.9 250.8 284.2 C 252.0 283.3 250.8 280.9 249.4 281.7 M 232.7 282.0 C 237.3 290.5 241.6 301.0 251.5 304.4 C 247.1 295.6 239.1 289.3 232.7 282.0 M 252.1 281.4 C 252.6 284.3 253.6 287.0 255.0 289.6 C 254.6 286.7 253.6 283.9 252.1 281.4 M 377.2 282.4 C 376.3 286.4 381.1 281.6 377.2 282.4 M 222.8 282.5 C 223.6 286.0 225.4 289.2 227.9 291.7 C 226.8 288.3 225.1 285.2 222.8 282.5 M 237.0 282.7 C 240.9 288.0 245.4 292.9 250.5 297.1 C 247.9 290.9 242.1 286.8 237.0 282.7 M 301.8 285.9 C 303.6 289.1 305.3 292.2 307.1 295.4 C 307.5 291.8 307.2 288.2 306.5 284.6 C 305.0 285.0 303.4 285.5 301.8 285.9 M 313.0 286.6 C 315.3 290.1 317.8 293.7 320.9 296.6 C 318.7 292.9 315.9 289.7 313.0 286.6 M 249.9 287.7 C 250.8 289.6 251.9 291.5 253.1 293.3 C 252.2 291.4 251.1 289.5 249.9 287.7 M 318.9 289.0 C 319.7 290.4 320.5 291.8 321.3 293.2 C 322.3 291.5 323.3 289.7 324.3 288.0 C 322.5 288.3 320.7 288.7 318.9 289.0 M 298.3 289.3 C 297.0 290.3 298.6 292.5 299.9 291.5 C 301.2 290.5 299.6 288.3 298.3 289.3 M 228.7 289.6 C 229.6 294.9 233.0 299.2 236.0 303.5 C 235.4 298.1 232.3 293.6 228.7 289.6 M 309.1 289.5 C 309.2 293.5 309.4 297.6 310.9 301.4 C 311.7 300.4 312.6 299.4 313.5 298.3 C 314.7 299.6 316.0 300.8 317.3 302.0 C 314.8 297.7 312.0 293.5 309.1 289.5 M 234.7 290.9 C 236.8 295.7 240.1 299.8 243.5 303.7 C 240.9 299.2 237.9 294.9 234.7 290.9 M 293.5 291.5 C 292.1 292.3 293.3 295.0 294.9 294.2 C 296.3 293.3 295.0 290.6 293.5 291.5 M 225.1 291.6 C 226.1 295.6 227.6 299.4 228.9 303.3 C 228.3 299.2 227.0 295.3 225.1 291.6 M 254.4 292.7 C 253.2 293.5 254.4 295.9 255.8 295.2 C 257.0 294.3 255.8 291.9 254.4 292.7 M 296.8 291.7 C 297.9 297.3 301.4 301.8 305.1 305.9 C 307.0 299.5 300.4 295.8 296.8 291.7 M 302.4 293.7 C 301.4 294.9 303.2 297.2 304.6 296.3 C 305.6 295.1 303.8 292.8 302.4 293.7 M 290.8 293.5 C 292.3 296.4 294.2 299.0 296.4 301.3 C 295.2 298.3 293.3 295.6 290.8 293.5 M 215.8 294.7 C 216.6 303.8 220.8 311.7 226.8 318.4 C 225.8 313.6 224.3 308.8 223.4 303.9 C 222.7 299.7 218.5 297.5 215.8 294.7 M 258.3 294.6 C 258.4 296.1 258.5 299.2 258.5 300.7 C 259.7 300.4 261.0 300.1 262.2 299.8 C 260.9 298.1 259.6 296.3 258.3 294.6 M 251.9 295.4 C 252.2 298.9 253.6 302.1 256.0 304.6 C 255.2 301.3 253.9 298.2 251.9 295.4 M 286.2 297.2 C 285.6 298.8 286.2 299.3 287.8 298.8 C 288.3 297.2 287.8 296.6 286.2 297.2 M 328.3 303.2 C 331.2 301.7 333.8 299.6 335.6 296.8 C 332.6 298.2 329.9 300.3 328.3 303.2 M 236.6 298.9 C 237.8 304.8 241.0 309.9 244.1 314.9 C 246.0 314.8 249.6 314.7 251.5 314.7 C 246.7 309.2 241.7 304.0 236.6 298.9 M 231.1 299.5 C 231.7 303.5 231.8 307.7 233.5 311.5 C 235.0 312.8 236.8 313.6 238.6 314.5 C 237.5 308.9 234.2 304.1 231.1 299.5 M 289.6 299.6 C 289.5 301.0 289.4 302.4 289.3 303.8 C 290.3 304.1 291.3 304.5 292.3 304.9 C 291.4 303.1 290.5 301.3 289.6 299.6 M 293.2 301.4 C 292.3 305.4 297.1 300.6 293.2 301.4 M 313.5 302.3 C 312.4 303.1 313.6 305.1 314.9 304.3 C 316.0 303.5 314.8 301.4 313.5 302.3 M 212.6 302.4 C 213.2 305.1 214.1 307.7 215.1 310.3 C 214.5 307.6 213.7 304.9 212.6 302.4 M 299.6 302.7 C 300.5 306.4 302.6 309.8 306.0 311.8 C 304.2 308.5 302.0 305.5 299.6 302.7 M 258.8 304.0 C 259.1 305.2 259.3 306.4 259.5 307.6 C 260.0 307.6 261.0 307.6 261.5 307.6 C 261.6 307.0 261.9 305.8 262.0 305.3 C 260.9 304.9 259.9 304.4 258.8 304.0 M 274.3 304.5 C 273.1 305.4 274.6 307.4 275.7 306.5 C 276.9 305.6 275.4 303.6 274.3 304.5 M 310.6 304.4 C 309.5 305.4 311.1 307.6 312.4 306.6 C 313.5 305.6 311.8 303.4 310.6 304.4 M 248.1 304.6 C 249.3 306.6 250.7 308.4 252.1 310.2 C 250.9 308.2 249.6 306.4 248.1 304.6 M 253.3 305.7 C 252.3 306.8 254.2 308.7 255.3 307.7 C 256.4 306.5 254.5 304.6 253.3 305.7 M 286.5 305.2 C 288.2 307.8 290.1 310.2 292.2 312.5 C 293.0 307.7 290.5 305.3 286.5 305.2 M 294.3 304.3 C 294.6 306.8 295.1 309.2 295.7 311.6 C 296.2 309.0 295.6 306.5 294.3 304.3 M 271.1 306.5 C 269.9 307.3 271.3 309.4 272.5 308.5 C 273.7 307.6 272.3 305.6 271.1 306.5 M 316.9 309.1 C 317.8 309.4 318.8 309.8 319.8 310.2 C 320.6 308.9 321.5 307.5 322.3 306.2 C 320.5 307.2 318.7 308.2 316.9 309.1 M 405.1 306.5 C 402.8 310.0 409.1 307.3 405.1 306.5 M 216.3 307.6 C 218.1 315.7 219.1 324.8 226.1 330.4 C 224.0 322.4 220.4 314.8 216.3 307.6 M 310.3 307.4 C 310.6 309.8 311.0 312.3 311.7 314.6 C 311.4 312.2 311.0 309.7 310.3 307.4 M 282.1 309.5 C 279.8 313.0 286.1 310.3 282.1 309.5 M 361.2 310.8 C 359.9 311.6 360.9 314.2 362.3 313.3 C 363.6 312.6 362.6 310.1 361.2 310.8 M 286.9 310.8 C 287.4 313.3 287.9 315.8 288.4 318.2 C 289.0 316.2 289.7 314.2 290.3 312.1 C 289.1 311.7 288.0 311.3 286.9 310.8 M 239.4 312.2 C 239.0 313.5 239.4 314.0 240.8 313.6 C 241.3 312.2 240.8 311.7 239.4 312.2 M 293.8 311.4 C 294.6 314.0 295.7 316.3 297.2 318.5 C 296.6 315.9 295.5 313.5 293.8 311.4 M 306.3 312.5 C 305.1 313.4 306.6 315.4 307.7 314.5 C 308.9 313.6 307.4 311.6 306.3 312.5 M 400.1 318.3 C 400.8 316.1 401.4 313.9 401.9 311.7 C 401.2 313.8 400.6 316.1 400.1 318.3 M 280.5 313.3 C 279.4 314.1 280.6 316.1 281.9 315.3 C 283.0 314.5 281.8 312.4 280.5 313.3 M 304.4 314.7 C 303.4 315.9 305.2 318.2 306.6 317.3 C 307.6 316.1 305.8 313.8 304.4 314.7 M 211.2 314.6 C 212.4 331.0 217.3 347.4 225.6 361.5 C 223.6 351.1 222.8 339.9 217.6 330.5 C 217.9 335.1 218.3 339.7 218.6 344.3 C 216.2 334.4 214.5 324.3 211.2 314.6 M 222.0 314.7 C 224.1 319.9 226.6 325.0 230.2 329.5 C 228.7 324.0 225.8 318.9 222.0 314.7 M 228.9 314.7 C 229.5 317.7 230.4 320.7 231.7 323.5 C 231.0 320.4 230.1 317.5 228.9 314.7 M 260.7 318.1 C 263.1 317.5 265.4 316.6 267.7 315.5 C 265.3 316.2 262.9 317.1 260.7 318.1 M 237.3 316.5 C 236.1 317.4 237.6 319.4 238.7 318.5 C 239.9 317.6 238.4 315.6 237.3 316.5 M 279.1 316.5 C 277.8 317.5 279.4 319.7 280.7 318.7 C 282.0 317.7 280.4 315.5 279.1 316.5 M 291.7 315.6 C 291.4 319.5 292.6 323.2 294.5 326.6 C 295.8 325.5 297.1 324.5 298.5 323.5 C 296.4 320.7 294.1 318.1 291.7 315.6 M 302.3 315.6 C 302.3 317.2 302.3 318.9 302.3 320.6 C 303.1 320.6 304.7 320.7 305.6 320.8 C 304.5 319.0 303.4 317.3 302.3 315.6 M 234.2 316.7 C 234.2 318.6 234.2 320.6 234.3 322.5 C 235.0 322.6 236.6 322.9 237.3 323.0 C 236.3 320.9 235.2 318.8 234.2 316.7 M 240.5 316.5 C 241.7 320.3 243.2 324.8 248.8 322.9 C 246.3 320.5 243.5 318.4 240.5 316.5 M 247.9 317.8 C 248.4 319.0 249.0 320.2 249.5 321.4 C 250.8 320.4 252.2 319.4 253.5 318.4 C 251.7 318.2 249.8 318.0 247.9 317.8 M 299.4 319.7 C 298.2 320.5 299.4 322.9 300.8 322.2 C 302.0 321.3 300.8 318.9 299.4 319.7 M 352.1 319.4 C 350.9 320.2 352.3 322.3 353.5 321.2 C 354.7 320.4 353.3 318.3 352.1 319.4 M 331.2 321.2 C 330.2 325.2 335.2 320.2 331.2 321.2 M 254.5 323.1 C 255.2 324.9 255.9 326.7 256.6 328.5 C 257.5 326.5 258.4 324.5 259.2 322.5 C 257.6 322.7 256.1 322.9 254.5 323.1 M 280.2 322.3 C 278.7 322.3 278.7 324.7 280.2 324.7 C 281.7 324.7 281.7 322.2 280.2 322.3 M 321.1 322.3 C 319.5 322.2 318.8 325.2 320.8 325.0 C 322.6 325.1 323.2 322.1 321.1 322.3 M 290.4 323.7 C 289.4 324.9 291.2 327.2 292.6 326.3 C 293.6 325.1 291.8 322.8 290.4 323.7 M 327.5 323.3 C 326.4 324.1 327.6 326.1 328.9 325.3 C 330.0 324.5 328.8 322.4 327.5 323.3 M 315.0 323.6 C 316.2 325.3 317.6 326.9 319.0 328.4 C 317.7 326.7 316.4 325.1 315.0 323.6 M 215.8 324.5 C 216.7 326.7 217.7 328.8 219.1 330.6 C 218.2 328.5 217.2 326.4 215.8 324.5 M 244.9 326.3 C 245.9 328.0 248.0 331.4 249.0 333.1 C 250.5 332.1 252.0 331.0 253.5 329.9 C 252.7 328.2 251.9 326.6 251.1 325.0 C 249.0 325.4 247.0 325.9 244.9 326.3 M 274.4 325.8 C 273.3 326.9 274.9 329.3 276.3 328.5 C 277.4 327.4 275.9 325.0 274.4 325.8 M 287.6 324.5 C 288.3 327.9 290.4 330.8 293.4 332.4 C 292.1 329.4 290.1 326.7 287.6 324.5 M 363.1 325.5 C 360.8 329.0 367.1 326.3 363.1 325.5 M 304.4 326.2 C 304.0 327.5 304.4 328.0 305.8 327.6 C 306.3 326.2 305.8 325.7 304.4 326.2 M 312.7 325.4 C 313.8 328.4 315.6 331.1 317.9 333.2 C 317.3 330.0 315.2 327.4 312.7 325.4 M 322.6 328.3 C 323.0 329.9 325.0 330.8 326.1 332.0 C 326.2 329.7 326.2 327.3 326.1 325.0 C 324.9 326.1 323.6 327.1 322.6 328.3 M 264.9 326.1 C 267.0 330.0 269.1 333.9 271.8 337.4 C 271.1 334.4 271.0 331.2 269.6 328.5 C 268.2 327.4 266.5 326.8 264.9 326.1 M 237.4 328.1 C 238.3 331.9 239.9 335.6 242.2 338.8 C 241.9 336.4 241.3 331.6 241.0 329.2 C 239.8 328.8 238.6 328.5 237.4 328.1 M 242.6 327.8 C 244.1 331.9 246.9 335.3 249.8 338.5 C 247.6 334.8 245.2 331.2 242.6 327.8 M 272.6 327.2 C 273.1 330.5 273.6 333.6 274.2 336.9 C 276.3 333.4 275.7 329.7 272.6 327.2 M 309.8 327.9 C 311.5 330.7 313.4 333.2 315.5 335.6 C 313.6 333.0 311.8 330.4 309.8 327.9 M 284.7 328.6 C 284.1 330.0 283.4 331.4 282.8 332.8 C 284.0 333.6 285.2 334.3 286.4 335.1 C 285.9 332.9 285.3 330.8 284.7 328.6 M 360.2 329.1 C 358.4 329.3 358.8 332.4 360.6 331.7 C 362.4 331.5 362.1 328.5 360.2 329.1 M 232.3 329.5 C 233.1 333.2 233.9 337.1 235.7 340.5 C 234.9 336.8 234.1 332.9 232.3 329.5 M 375.2 330.2 C 374.6 331.8 375.2 332.3 376.8 331.8 C 377.3 330.2 376.8 329.6 375.2 330.2 M 262.8 330.3 C 263.6 333.1 265.1 335.5 266.8 337.7 C 265.7 337.7 264.6 337.8 263.4 337.8 C 265.9 339.1 268.5 340.1 271.3 340.5 C 268.6 336.9 266.3 333.2 262.8 330.3 M 403.9 353.5 C 409.5 347.1 412.4 339.0 414.0 330.8 C 410.3 338.1 405.8 345.3 403.9 353.5 M 221.2 331.6 C 222.5 337.4 224.1 343.4 228.9 347.3 C 226.7 341.9 224.3 336.6 221.2 331.6 M 224.0 331.4 C 226.5 339.4 230.0 347.4 235.7 353.6 C 234.5 345.0 230.7 337.2 224.0 331.4 M 228.3 332.5 C 227.1 333.4 228.6 335.4 229.7 334.5 C 230.9 333.6 229.4 331.6 228.3 332.5 M 251.9 336.6 C 252.5 334.8 253.1 333.0 253.5 331.1 C 252.4 332.7 251.8 334.6 251.9 336.6 M 294.2 332.5 C 292.3 332.9 293.2 335.9 294.9 335.7 C 296.8 335.3 295.9 332.2 294.2 332.5 M 310.2 332.6 C 310.2 334.3 310.2 336.0 310.3 337.6 C 311.7 337.7 313.1 337.7 314.5 337.8 C 313.1 336.1 311.6 334.3 310.2 332.6 M 331.1 333.7 C 329.9 334.5 331.2 336.6 332.5 335.7 C 333.6 334.9 332.3 332.8 331.1 333.7 M 281.1 333.4 C 281.0 335.7 280.9 337.9 280.8 340.1 C 282.0 339.3 283.2 338.4 284.5 337.5 C 283.4 336.1 282.2 334.8 281.1 333.4 M 258.2 334.3 C 257.7 338.6 258.3 343.0 260.5 346.7 C 261.5 342.4 260.7 337.9 258.2 334.3 M 236.8 335.7 C 238.6 343.3 241.7 350.5 246.9 356.4 C 245.7 348.6 241.4 341.9 236.8 335.7 M 289.6 336.0 C 290.1 338.1 290.7 340.3 291.4 342.4 C 291.9 340.5 292.4 338.6 292.9 336.6 C 292.1 336.5 290.4 336.1 289.6 336.0 M 321.2 336.4 C 319.4 336.7 320.1 339.8 321.9 339.5 C 323.7 339.1 323.1 336.0 321.2 336.4 M 305.6 337.2 C 305.3 339.4 305.3 341.6 305.3 343.8 C 307.2 342.2 309.2 340.7 311.2 339.3 C 309.4 338.5 307.5 337.7 305.6 337.2 M 367.2 338.5 C 365.5 338.2 364.4 341.1 366.3 341.6 C 368.0 342.1 369.0 338.9 367.2 338.5 M 314.8 344.1 C 317.4 343.4 319.3 341.5 320.1 338.9 C 318.1 340.3 316.3 342.1 314.8 344.1 M 263.3 340.7 C 262.3 341.8 264.2 343.7 265.3 342.7 C 266.4 341.5 264.5 339.6 263.3 340.7 M 251.4 340.3 C 252.1 342.6 252.7 345.0 254.1 347.0 C 255.5 348.3 257.7 348.3 259.5 348.9 C 257.0 345.9 254.4 342.9 251.4 340.3 M 281.0 342.2 C 281.1 343.6 281.2 344.9 281.3 346.3 C 282.4 344.6 283.4 342.9 284.4 341.2 C 283.3 341.5 282.1 341.8 281.0 342.2 M 247.1 342.2 C 245.2 342.6 246.0 345.8 247.9 345.1 C 249.8 344.7 249.0 341.6 247.1 342.2 M 301.2 341.7 C 301.2 343.0 301.3 344.2 301.4 345.5 C 302.2 345.6 303.7 345.8 304.4 345.8 C 303.3 344.4 302.3 343.1 301.2 341.7 M 324.3 342.4 C 324.4 343.6 324.4 344.7 324.5 345.8 C 326.0 345.2 327.6 344.6 329.1 344.0 C 328.8 343.5 328.2 342.5 327.8 341.9 C 326.7 342.1 325.5 342.3 324.3 342.4 M 280.5 352.8 C 284.2 350.8 286.9 347.7 289.0 344.2 C 284.7 345.5 280.5 347.7 280.5 352.8 M 312.2 344.3 C 310.7 345.3 312.4 347.8 313.8 346.7 C 315.3 345.7 313.6 343.1 312.2 344.3 M 344.1 344.5 C 342.8 345.5 344.4 347.7 345.7 346.7 C 347.0 345.7 345.4 343.5 344.1 344.5 M 297.1 345.3 C 295.5 345.2 295.4 347.9 297.1 347.9 C 298.7 348.0 298.8 345.2 297.1 345.3 M 247.9 345.7 C 249.5 349.3 252.0 352.2 255.2 354.4 C 253.5 350.9 252.2 346.6 247.9 345.7 M 267.0 346.0 C 267.0 346.8 267.0 348.4 267.1 349.2 C 267.7 349.0 268.8 348.6 269.4 348.4 C 269.6 347.8 270.0 346.7 270.2 346.1 C 269.4 346.0 267.8 346.0 267.0 346.0 M 365.2 346.5 C 363.7 347.3 364.8 350.4 366.6 349.3 C 368.2 348.5 367.0 345.4 365.2 346.5 M 274.5 347.3 C 273.4 348.1 274.6 350.1 275.9 349.3 C 277.0 348.5 275.8 346.4 274.5 347.3 M 341.4 346.7 C 340.5 348.5 339.7 350.4 338.9 352.2 C 340.4 351.4 341.9 350.7 343.3 349.9 C 342.7 348.8 342.0 347.8 341.4 346.7 M 358.1 347.5 C 355.8 351.0 362.1 348.3 358.1 347.5 M 225.3 347.6 C 225.7 350.3 226.0 352.9 226.4 355.6 C 227.7 355.7 229.0 355.8 230.3 355.9 C 228.7 353.1 227.0 350.4 225.3 347.6 M 265.3 349.7 C 264.3 350.8 266.2 352.7 267.3 351.7 C 268.4 350.5 266.5 348.6 265.3 349.7 M 271.5 348.9 C 272.4 351.4 273.5 353.8 274.7 356.1 C 275.7 355.7 276.7 355.2 277.7 354.8 C 275.6 352.9 273.6 350.9 271.5 348.9 M 302.1 348.4 C 301.5 350.2 300.9 352.0 300.5 353.9 C 301.6 352.3 302.2 350.4 302.1 348.4 M 311.1 352.8 C 312.6 351.6 314.1 350.3 315.4 348.9 C 313.9 350.1 312.4 351.4 311.1 352.8 M 229.7 350.5 C 228.8 351.9 230.7 354.4 232.2 353.6 C 233.0 352.2 231.2 349.8 229.7 350.5 M 247.9 350.7 C 248.6 353.1 249.6 355.4 250.8 357.6 C 250.0 355.2 249.0 352.9 247.9 350.7 M 261.3 351.5 C 260.1 352.4 261.6 354.4 262.7 353.5 C 263.9 352.6 262.4 350.6 261.3 351.5 M 360.1 351.5 C 358.8 352.5 360.4 354.7 361.7 353.7 C 363.0 352.7 361.4 350.5 360.1 351.5 M 291.7 356.8 C 292.2 358.2 292.7 359.6 293.2 361.1 C 295.7 358.5 299.0 356.1 299.0 352.1 C 296.4 353.4 294.1 355.2 291.7 356.8 M 353.0 352.5 C 351.5 352.5 351.2 355.3 352.8 355.3 C 354.2 355.2 354.7 352.6 353.0 352.5 M 357.2 354.4 C 356.3 358.4 361.1 353.6 357.2 354.4 M 260.7 357.3 C 262.2 359.1 263.7 360.9 265.2 362.6 C 265.9 360.0 266.4 357.4 266.7 354.7 C 264.7 355.5 262.7 356.4 260.7 357.3 M 306.3 355.5 C 305.1 356.4 306.6 358.4 307.7 357.5 C 308.9 356.6 307.4 354.6 306.3 355.5 M 320.2 355.4 C 319.3 359.4 324.1 354.6 320.2 355.4 M 270.6 356.0 C 272.6 358.6 275.2 360.9 278.2 362.4 C 275.8 360.1 273.2 358.0 270.6 356.0 M 231.6 357.0 C 230.1 358.1 228.6 359.3 227.0 360.5 C 228.4 362.3 229.6 364.2 231.4 365.5 C 233.7 365.8 236.1 365.4 238.5 365.1 C 236.3 362.3 234.0 359.6 231.6 357.0 M 277.3 357.5 C 276.1 358.4 277.6 360.4 278.7 359.5 C 279.9 358.6 278.4 356.6 277.3 357.5 M 289.2 357.4 C 287.5 357.7 288.3 360.3 289.8 360.0 C 291.5 359.7 290.7 357.0 289.2 357.4 M 301.1 357.0 C 300.8 358.2 300.5 359.3 300.2 360.4 C 301.7 359.5 303.1 358.5 304.5 357.4 C 303.7 357.3 302.0 357.1 301.1 357.0 M 242.1 358.8 C 240.7 359.7 241.9 362.4 243.5 361.5 C 244.9 360.6 243.7 358.0 242.1 358.8 M 257.9 357.8 C 259.1 359.8 260.4 361.6 261.9 363.4 C 260.7 361.4 259.3 359.6 257.9 357.8 M 251.1 362.4 C 254.1 364.3 257.1 366.2 260.3 367.8 C 259.5 365.7 258.7 363.6 257.9 361.6 C 257.4 362.5 256.6 364.4 256.1 365.3 C 255.4 363.2 254.8 361.1 254.2 359.0 C 253.2 360.1 252.1 361.2 251.1 362.4 M 320.2 359.8 C 318.6 360.1 318.4 363.1 320.2 363.4 C 321.9 363.2 322.0 359.9 320.2 359.8 M 287.2 360.4 C 286.3 364.4 291.1 359.6 287.2 360.4 M 330.2 360.3 C 328.7 360.3 328.7 362.7 330.2 362.7 C 331.7 362.7 331.7 360.2 330.2 360.3 M 269.2 360.4 C 268.9 362.8 268.6 365.2 268.5 367.6 C 270.3 366.6 272.3 365.6 274.2 364.8 C 272.6 363.3 270.9 361.9 269.2 360.4 M 297.1 361.5 C 294.8 365.0 301.1 362.3 297.1 361.5 M 282.5 366.1 C 283.6 366.4 285.7 366.8 286.7 367.1 C 286.4 365.3 286.0 363.5 285.5 361.7 C 284.4 363.1 283.4 364.6 282.5 366.1 M 302.2 362.7 C 301.1 363.2 300.4 365.0 301.3 366.1 C 303.2 366.9 304.8 362.2 302.2 362.7 M 244.4 363.2 C 244.0 364.5 244.4 365.0 245.8 364.6 C 246.3 363.2 245.8 362.7 244.4 363.2 M 314.8 362.4 C 316.1 365.1 317.9 367.5 320.1 369.6 C 319.0 366.7 317.4 364.1 314.8 362.4 M 242.6 365.1 C 246.9 372.3 252.7 378.6 259.1 384.1 C 259.3 383.4 259.7 382.0 259.9 381.3 C 253.8 376.3 248.4 370.4 242.6 365.1 M 248.4 365.7 C 247.4 366.9 249.2 369.2 250.6 368.3 C 251.6 367.1 249.8 364.8 248.4 365.7 M 304.9 373.6 C 308.0 375.1 310.7 377.2 313.5 379.2 C 314.9 376.5 316.9 374.0 317.7 371.0 C 316.9 368.6 315.3 366.6 314.0 364.5 C 310.4 366.9 307.3 370.0 304.9 373.6 M 234.6 366.7 C 239.5 371.6 245.2 375.6 251.1 379.2 C 246.3 374.3 242.4 366.6 234.6 366.7 M 261.1 366.4 C 261.6 369.8 262.8 373.1 264.9 375.8 C 264.5 372.3 263.3 369.1 261.1 366.4 M 294.2 368.4 C 293.3 372.4 298.1 367.6 294.2 368.4 M 230.5 369.2 C 238.0 378.2 246.7 386.6 257.0 392.3 C 248.8 383.9 240.1 375.9 230.5 369.2 M 288.8 371.9 C 289.2 372.5 289.9 373.7 290.3 374.3 C 291.5 373.5 292.7 372.8 293.9 372.0 C 293.6 371.0 293.2 370.0 292.8 369.0 C 291.5 370.0 290.1 370.9 288.8 371.9 M 256.7 370.0 C 259.7 374.5 263.2 378.6 267.4 382.1 C 264.8 377.3 260.8 373.5 256.7 370.0 M 272.1 370.1 C 270.8 370.8 270.8 371.5 272.1 372.1 C 273.4 371.5 273.4 370.8 272.1 370.1 M 366.1 370.2 C 364.3 370.6 365.0 373.6 366.8 372.9 C 368.5 372.5 367.8 369.7 366.1 370.2 M 279.1 371.4 C 277.7 371.0 276.5 373.5 278.2 373.9 C 279.7 374.3 280.8 371.8 279.1 371.4 M 297.1 371.1 C 295.8 371.8 295.8 372.5 297.1 373.1 C 298.4 372.5 298.4 371.8 297.1 371.1 M 322.2 371.4 C 321.3 375.4 326.1 370.6 322.2 371.4 M 252.3 372.3 C 254.4 374.6 256.7 376.5 259.3 378.0 C 257.1 376.1 254.7 374.2 252.3 372.3 M 239.7 374.0 C 245.4 380.1 252.0 385.6 259.4 389.5 C 254.7 382.4 246.7 378.4 239.7 374.0 M 268.2 375.2 C 266.4 375.6 267.3 378.5 269.0 378.0 C 270.8 377.6 269.9 374.7 268.2 375.2 M 278.5 378.3 C 277.4 379.1 278.6 381.1 279.9 380.3 C 281.0 379.5 279.8 377.4 278.5 378.3 M 300.9 377.5 C 301.4 380.0 302.1 382.8 302.8 385.3 C 304.3 383.5 305.8 381.7 307.3 379.8 C 305.2 379.0 303.0 378.2 300.9 377.5 M 365.1 378.0 C 363.9 378.0 362.4 379.9 363.9 380.6 C 365.7 381.4 367.7 378.0 365.1 378.0 M 273.4 381.5 C 272.1 382.7 274.1 384.9 275.4 383.7 C 276.6 382.5 274.7 380.3 273.4 381.5 M 293.9 382.0 C 292.5 384.2 291.1 386.5 289.8 388.8 C 293.0 388.5 296.2 387.9 299.3 387.1 C 297.5 385.4 295.7 383.7 293.9 382.0 M 271.6 384.4 C 270.5 385.4 272.1 387.6 273.4 386.6 C 274.5 385.6 272.8 383.4 271.6 384.4 M 264.3 386.3 C 263.3 387.6 265.5 389.2 266.5 387.9 C 267.5 386.6 265.3 385.0 264.3 386.3 M 276.7 393.1 C 278.6 392.4 280.4 391.7 282.2 391.1 C 281.9 390.3 281.3 388.7 281.1 388.0 C 279.6 389.6 278.1 391.3 276.7 393.1 M 259.7 389.9 C 264.6 394.5 270.4 397.9 276.3 401.2 C 271.7 396.2 266.1 392.0 259.7 389.9 M 268.3 389.9 C 273.1 395.6 278.6 401.9 286.4 403.0 C 280.6 398.4 274.6 393.9 268.3 389.9 M 349.2 393.9 C 352.6 393.2 355.8 391.9 358.6 390.0 C 355.2 390.5 351.9 391.7 349.2 393.9 M 288.7 394.3 C 290.7 396.3 292.7 398.3 294.7 400.2 C 295.1 397.7 295.5 395.3 296.0 392.8 C 293.5 393.3 291.1 393.8 288.7 394.3 M 298.2 394.2 C 297.6 395.8 298.2 396.3 299.8 395.8 C 300.3 394.2 299.8 393.6 298.2 394.2 M 283.6 396.4 C 282.5 397.4 284.1 399.6 285.4 398.6 C 286.5 397.6 284.8 395.4 283.6 396.4 M 303.3 395.8 C 302.5 396.9 301.7 398.1 300.9 399.2 C 303.7 398.7 306.6 398.1 309.4 397.5 C 307.4 396.9 305.3 396.4 303.3 395.8 M 304.7 401.7 C 306.5 401.8 308.2 401.9 310.0 402.1 C 310.0 401.5 309.9 400.2 309.8 399.6 C 308.1 400.3 306.4 401.0 304.7 401.7 M 322.7 408.6 C 323.0 412.2 323.4 415.7 323.8 419.3 C 323.4 415.7 323.1 412.2 322.7 408.6 M 300.3 410.5 C 307.3 434.2 308.7 459.0 311.7 483.5 C 313.7 459.9 307.2 436.9 303.2 413.8 C 306.7 417.4 310.3 420.9 313.1 425.0 C 312.1 419.9 311.3 414.9 310.2 409.8 C 306.9 410.1 303.6 410.2 300.3 410.5 M 313.3 409.0 C 313.4 413.6 314.4 418.1 315.7 422.5 C 315.1 418.0 316.3 412.8 313.3 409.0 M 297.5 410.4 C 298.0 425.7 301.8 440.6 305.9 455.3 C 304.5 440.2 303.6 424.5 297.5 410.4 M 307.2 423.0 C 306.1 423.6 306.1 425.4 307.2 426.0 C 309.0 426.3 309.0 422.6 307.2 423.0 M 309.2 422.5 C 310.8 433.2 312.5 443.8 314.7 454.4 C 314.5 443.7 315.4 431.9 309.2 422.5 M 315.3 425.7 C 315.7 428.6 316.3 431.4 316.9 434.2 C 316.3 431.3 315.9 428.5 315.3 425.7 M 308.1 427.8 C 308.6 430.6 309.1 433.5 309.7 436.3 C 309.3 433.4 308.7 430.6 308.1 427.8 M 299.2 439.7 C 301.3 453.8 304.8 467.7 306.1 481.9 C 306.8 481.9 308.1 482.1 308.7 482.1 C 306.6 467.8 303.7 453.5 299.2 439.7 M 328.2 439.8 C 327.9 442.3 327.7 444.9 327.4 447.4 C 328.7 446.0 330.0 444.5 331.3 443.0 C 330.3 441.9 329.3 440.9 328.2 439.8 M 332.1 444.5 C 329.8 448.0 336.1 445.3 332.1 444.5 M 447.1 461.6 C 448.2 459.4 449.3 457.2 450.3 455.0 C 452.3 455.8 454.7 457.1 456.9 456.0 C 459.7 454.7 461.4 452.0 463.4 449.8 C 456.8 451.4 444.2 450.9 447.1 461.6 M 470.3 451.3 C 468.7 452.5 470.9 454.9 472.3 453.4 C 474.0 452.1 471.7 449.8 470.3 451.3 M 476.8 460.4 C 482.0 458.8 487.0 456.0 490.8 452.0 C 485.1 452.6 480.6 456.4 476.8 460.4 M 464.1 453.3 C 462.7 453.2 462.4 455.7 463.9 455.7 C 465.3 455.8 465.6 453.3 464.1 453.3 M 490.6 461.6 C 494.1 459.6 496.4 456.3 497.4 452.3 C 493.2 453.7 490.8 457.3 490.6 461.6 M 464.7 459.7 C 467.0 459.1 469.3 458.4 471.5 457.5 C 469.2 458.1 466.9 458.9 464.7 459.7 M 427.0 470.3 C 432.0 467.5 434.8 462.4 437.4 457.6 C 432.0 459.7 428.1 464.6 427.0 470.3 M 486.1 460.1 C 484.5 460.4 484.8 463.2 486.6 462.5 C 488.1 462.2 487.8 459.5 486.1 460.1 M 474.1 461.1 C 472.8 461.8 472.8 462.5 474.1 463.1 C 475.4 462.5 475.4 461.8 474.1 461.1 M 314.3 462.6 C 313.7 476.4 313.8 490.3 314.6 504.1 C 315.2 509.6 314.6 515.6 317.6 520.7 C 318.2 506.8 316.2 492.9 315.5 479.1 C 315.5 473.6 315.6 468.0 314.3 462.6 M 438.1 463.3 C 436.7 463.2 436.4 465.7 437.9 465.7 C 439.3 465.8 439.6 463.3 438.1 463.3 M 459.1 466.9 C 458.9 467.2 458.5 467.8 458.3 468.1 C 459.2 471.2 462.5 466.4 459.1 466.9 M 463.1 479.1 C 456.8 482.4 449.1 484.0 444.7 490.1 C 447.8 488.9 450.9 487.6 454.0 486.3 C 453.8 486.7 453.3 487.4 453.1 487.8 C 460.0 484.5 467.6 482.7 474.6 479.5 C 478.6 476.6 480.8 471.9 483.4 467.9 C 476.4 471.1 470.1 475.7 463.1 479.1 M 405.0 499.3 C 409.7 489.4 414.9 479.4 417.3 468.6 C 407.2 475.2 406.5 488.5 405.0 499.3 M 441.7 476.6 C 444.2 474.5 445.9 471.5 446.2 468.2 C 443.7 470.4 442.2 473.4 441.7 476.6 M 424.2 471.2 C 423.4 472.8 422.6 474.5 421.9 476.1 C 423.5 475.4 425.2 474.6 426.8 473.8 C 426.9 473.1 427.0 471.7 427.0 471.0 C 426.3 471.0 424.9 471.1 424.2 471.2 M 449.6 481.0 C 456.2 479.3 462.5 476.4 468.4 472.9 C 461.3 473.6 454.7 475.9 449.6 481.0 M 435.9 482.6 C 438.2 480.1 439.9 477.0 439.9 473.4 C 438.2 476.3 436.8 479.4 435.9 482.6 M 425.7 486.2 C 427.6 483.3 429.4 480.5 431.0 477.5 C 428.6 480.0 426.9 483.0 425.7 486.2 M 393.6 485.2 C 395.7 483.3 397.6 481.1 399.3 478.7 C 396.8 480.3 394.9 482.6 393.6 485.2 M 397.4 490.3 C 394.3 500.3 390.6 510.2 387.9 520.3 C 393.4 516.4 400.1 512.9 401.6 505.8 C 399.1 505.5 396.6 505.2 394.1 504.7 C 396.3 503.1 398.7 501.7 401.1 500.4 C 401.1 492.9 404.3 485.8 404.9 478.5 C 401.9 482.0 398.8 485.8 397.4 490.3 M 420.1 479.0 C 419.5 481.9 418.8 484.7 418.3 487.6 C 420.6 485.0 422.7 482.2 424.6 479.3 C 423.1 479.2 421.6 479.1 420.1 479.0 M 373.9 483.9 C 370.4 488.4 364.6 493.5 367.1 499.9 C 373.4 494.8 380.5 490.0 384.4 482.6 C 381.0 482.8 376.4 480.4 373.9 483.9 M 389.1 491.4 C 389.8 489.2 390.3 486.8 390.7 484.5 C 390.0 486.8 389.5 489.1 389.1 491.4 M 416.6 496.5 C 420.6 494.4 423.3 490.8 423.9 486.3 C 421.1 489.5 418.6 492.8 416.6 496.5 M 394.0 489.5 C 392.5 489.5 392.2 492.3 393.8 492.3 C 395.2 492.2 395.7 489.6 394.0 489.5 M 309.7 507.5 C 309.6 501.8 309.4 496.1 308.7 490.5 C 306.5 496.1 307.9 502.0 309.7 507.5 M 467.6 491.2 C 463.0 494.0 458.6 497.4 456.7 502.6 C 461.1 499.7 464.5 495.4 467.6 491.2 M 379.3 492.5 C 379.3 494.1 379.3 495.7 379.2 497.4 C 380.3 495.6 381.4 493.9 382.4 492.1 C 381.6 492.2 380.1 492.4 379.3 492.5 M 387.2 507.5 C 388.4 502.4 389.3 497.3 389.6 492.1 C 386.4 496.6 387.5 502.3 387.2 507.5 M 413.6 510.8 C 418.2 511.5 422.8 511.7 427.4 512.2 C 421.6 512.6 415.9 511.6 410.2 512.0 C 405.4 513.2 401.8 517.0 399.2 521.0 C 412.3 521.3 425.3 516.6 435.4 508.3 C 436.9 509.0 438.3 509.9 439.8 510.4 C 447.6 506.6 454.0 500.7 459.5 494.2 C 445.9 503.9 429.7 507.9 413.6 510.8 M 383.1 494.7 C 380.2 500.7 376.4 506.5 375.2 513.1 C 375.5 517.6 378.1 521.7 380.2 525.7 C 382.9 515.6 384.1 505.1 383.1 494.7 M 370.1 500.8 C 371.0 503.9 371.7 507.0 372.4 510.0 C 374.1 505.2 375.9 500.5 377.2 495.6 C 374.8 497.3 372.5 499.1 370.1 500.8 M 408.1 496.5 C 405.8 500.0 412.1 497.3 408.1 496.5 M 424.8 505.2 C 433.7 504.1 442.5 501.8 450.3 497.1 C 441.1 497.2 433.0 501.8 424.8 505.2 M 361.2 503.5 C 362.2 504.2 363.3 504.9 364.4 505.6 C 364.4 503.5 364.3 499.3 364.2 497.2 C 363.1 499.2 361.9 501.2 361.2 503.5 M 336.3 500.9 C 337.9 524.7 336.4 548.6 334.0 572.4 C 338.7 569.7 343.4 566.9 348.0 564.0 C 345.9 556.8 344.9 549.4 345.1 542.0 C 345.8 527.8 341.0 514.1 336.3 500.9 M 300.1 503.3 C 298.7 503.2 298.4 505.7 299.9 505.7 C 301.3 505.8 301.6 503.3 300.1 503.3 M 332.7 539.4 C 333.4 527.8 333.8 516.2 332.4 504.6 C 331.3 516.2 331.0 527.8 332.7 539.4 M 353.8 520.3 C 356.9 515.6 360.2 510.9 361.1 505.3 C 356.7 509.1 354.6 514.7 353.8 520.3 M 368.8 509.5 C 368.7 511.7 368.7 514.0 368.7 516.2 C 367.8 514.8 367.0 513.4 366.1 512.0 C 365.1 517.7 364.0 523.5 364.1 529.4 C 365.3 525.2 367.6 521.5 369.8 517.8 C 371.6 515.1 369.8 512.1 368.8 509.5 M 400.4 525.2 C 398.2 525.3 396.3 523.9 394.3 523.4 C 393.6 525.0 393.2 526.6 392.7 528.2 C 403.3 529.2 413.3 525.1 423.6 523.5 C 433.4 521.4 444.4 519.0 450.6 510.2 C 434.0 515.5 417.6 522.2 400.4 525.2 M 355.2 532.4 C 356.5 527.1 357.8 521.8 358.7 516.4 C 354.4 520.7 355.1 526.9 355.2 532.4 M 357.1 557.7 C 363.7 550.3 369.7 542.3 373.6 533.1 C 370.8 533.1 368.1 533.1 365.3 533.1 C 363.6 535.5 361.9 537.9 360.2 540.3 C 360.8 532.7 361.9 525.2 361.7 517.6 C 358.4 530.6 352.9 544.3 357.1 557.7 M 312.6 518.5 C 312.4 524.5 312.5 530.5 313.4 536.5 C 313.6 530.5 313.5 524.5 312.6 518.5 M 374.3 518.7 C 374.2 520.5 374.0 522.2 373.9 524.0 C 374.5 524.0 375.8 523.9 376.4 523.8 C 375.7 522.1 375.0 520.4 374.3 518.7 M 315.8 524.4 C 319.8 534.4 319.9 545.3 320.3 556.0 C 320.7 556.0 321.7 556.0 322.1 556.0 C 321.6 545.5 320.2 535.0 319.7 524.5 C 318.4 524.4 317.1 524.4 315.8 524.4 M 369.2 524.2 C 367.4 524.6 368.3 527.5 370.0 527.0 C 371.8 526.6 370.9 523.7 369.2 524.2 M 422.5 528.0 C 426.7 527.5 430.7 526.4 434.6 525.1 C 430.3 524.4 426.2 525.9 422.5 528.0 M 373.3 525.3 C 373.2 526.3 373.1 528.2 373.0 529.2 C 375.1 529.1 377.2 529.1 379.2 529.1 C 377.3 527.7 375.3 526.4 373.3 525.3 M 351.6 537.4 C 352.0 534.2 352.2 530.8 352.2 527.5 C 351.8 530.8 351.6 534.1 351.6 537.4 M 364.4 531.8 C 366.2 531.7 368.1 531.7 369.9 531.6 C 369.5 530.2 369.1 528.8 368.7 527.3 C 367.2 528.8 365.8 530.2 364.4 531.8 M 424.1 531.7 C 427.2 533.2 429.9 531.5 431.8 529.1 C 429.2 529.8 426.6 530.7 424.1 531.7 M 326.7 557.4 C 326.5 548.8 325.9 540.2 325.2 531.6 C 325.1 540.2 325.2 548.9 326.7 557.4 M 399.0 534.1 C 394.0 535.5 388.7 536.2 383.5 536.6 C 383.1 537.5 382.6 538.4 382.2 539.4 C 395.4 538.1 409.7 539.9 421.5 532.3 C 414.0 532.4 406.3 531.9 399.0 534.1 M 430.7 536.7 C 423.0 542.5 415.0 547.9 406.5 552.5 C 407.1 553.7 407.6 554.9 408.1 556.1 C 401.4 558.0 393.8 558.3 388.1 562.8 C 395.3 563.0 402.6 561.5 409.1 558.2 C 424.8 550.6 439.2 540.7 454.3 532.0 C 446.5 532.8 437.2 531.1 430.7 536.7 M 419.7 536.3 C 421.1 537.4 422.5 538.4 423.9 539.4 C 423.8 538.0 423.7 536.6 423.6 535.2 C 422.3 535.6 421.0 535.9 419.7 536.3 M 314.5 541.2 C 314.2 540.0 313.8 538.9 313.4 537.7 C 314.3 559.9 314.1 582.7 307.0 604.0 C 301.5 620.9 296.8 638.0 292.9 655.3 C 302.5 637.6 309.4 618.3 312.6 598.5 C 319.6 578.4 320.4 556.7 317.0 535.8 C 316.2 537.6 315.4 539.4 314.5 541.2 M 405.4 541.5 C 408.9 542.1 412.6 543.3 416.2 542.4 C 418.2 541.5 419.4 539.5 420.9 538.0 C 415.6 538.5 410.3 539.5 405.4 541.5 M 389.4 543.7 C 394.9 543.8 400.4 543.4 405.5 541.2 C 400.0 541.3 394.6 542.0 389.4 543.7 M 384.8 543.2 C 384.3 544.6 386.7 545.1 387.2 543.8 C 387.6 542.4 385.3 541.9 384.8 543.2 M 391.3 547.3 C 386.0 547.4 382.4 551.9 378.5 554.9 C 385.1 554.5 392.0 555.5 398.4 553.4 C 403.5 551.4 408.5 549.0 412.8 545.4 C 405.6 545.9 398.4 546.9 391.3 547.3 M 378.7 550.1 C 380.5 549.4 382.4 548.7 384.3 548.0 C 383.5 547.1 382.6 546.3 381.8 545.5 C 380.7 547.0 379.7 548.5 378.7 550.1 M 350.3 547.7 C 350.5 550.6 351.0 553.4 351.6 556.3 C 351.2 553.4 350.9 550.5 350.3 547.7 M 348.2 550.0 C 347.1 550.6 347.1 552.4 348.2 553.0 C 350.0 553.3 350.0 549.6 348.2 550.0 M 349.2 555.9 C 348.1 556.8 348.6 559.1 350.1 559.4 C 352.2 559.1 351.1 555.1 349.2 555.9 M 344.0 577.0 C 338.2 580.9 337.6 588.2 335.9 594.3 C 339.7 589.6 341.7 583.4 346.5 579.4 C 353.2 572.6 361.4 566.1 364.4 556.6 C 357.5 563.3 351.1 570.5 344.0 577.0 M 367.5 566.6 C 372.6 565.1 377.8 563.6 382.9 561.9 C 382.0 560.0 381.2 558.1 380.3 556.2 C 374.7 557.7 371.1 562.3 367.5 566.6 M 383.1 556.7 C 383.1 557.6 383.1 559.4 383.1 560.3 C 385.1 559.8 387.2 559.3 389.3 558.7 C 387.2 558.0 385.2 557.3 383.1 556.7 M 328.7 571.4 C 328.6 567.1 328.5 562.8 328.3 558.6 C 328.4 562.9 328.5 567.1 328.7 571.4 M 322.4 588.7 C 327.2 581.7 325.9 572.5 325.6 564.6 C 324.0 572.5 322.7 580.6 322.4 588.7 M 318.4 592.4 C 320.5 585.0 321.9 577.3 321.8 569.6 C 319.8 577.1 318.9 584.7 318.4 592.4 M 334.1 574.1 C 334.1 575.5 334.1 576.8 334.1 578.2 C 336.8 575.9 339.5 573.5 342.2 571.1 C 339.5 572.1 336.8 573.1 334.1 574.1 M 82.4 577.4 C 87.1 577.2 91.8 577.0 96.5 576.4 C 91.8 575.1 86.9 575.1 82.4 577.4 M 110.7 575.1 C 115.7 576.8 120.9 578.4 126.0 580.1 C 126.0 579.3 126.0 577.6 126.0 576.8 C 120.9 576.1 115.8 575.4 110.7 575.1 M 33.3 579.4 C 31.2 581.6 29.9 584.4 28.5 587.0 C 31.6 585.9 34.6 584.7 37.6 583.4 C 36.2 582.1 35.4 579.5 33.3 579.4 M 127.3 578.8 C 129.7 582.0 133.6 583.2 137.4 584.0 C 134.1 582.0 130.9 580.0 127.3 578.8 M 333.0 584.0 C 333.1 586.8 333.2 589.5 333.3 592.3 C 334.6 588.8 335.8 585.3 337.1 581.8 C 335.7 582.5 334.3 583.2 333.0 584.0 M 110.5 583.0 C 113.6 585.1 116.7 587.0 119.9 589.0 C 120.3 587.5 120.8 586.0 121.2 584.5 C 117.7 583.8 114.1 583.3 110.5 583.0 M 83.5 585.6 C 85.2 586.5 87.0 587.5 88.7 588.3 C 89.2 586.8 89.6 585.3 90.1 583.8 C 87.9 584.3 85.7 585.0 83.5 585.6 M 93.1 586.1 C 93.1 586.8 93.0 588.4 93.0 589.1 C 94.2 588.9 95.4 588.7 96.6 588.5 C 96.8 587.0 96.9 585.4 97.1 583.9 C 95.8 584.6 94.4 585.4 93.1 586.1 M 39.2 585.8 C 39.6 587.1 40.5 589.9 41.0 591.3 C 47.9 592.5 54.9 589.4 61.5 587.4 C 54.2 585.5 46.7 585.0 39.2 585.8 M 99.4 584.1 C 99.4 585.5 99.4 586.8 99.5 588.2 C 102.3 589.0 105.2 587.7 108.0 588.5 C 105.4 586.7 102.4 585.3 99.4 584.1 M 125.2 586.1 C 124.9 587.8 124.6 589.4 124.2 591.0 C 125.4 591.8 126.6 592.6 127.9 593.3 C 127.9 591.5 128.0 587.8 128.0 585.9 C 127.3 586.0 125.9 586.1 125.2 586.1 M 24.2 594.9 C 28.8 593.9 33.3 592.1 37.9 590.7 C 37.9 589.3 37.9 587.9 38.0 586.6 C 32.5 587.6 26.4 589.2 24.2 594.9 M 328.0 596.5 C 329.7 593.4 330.6 589.9 330.5 586.3 C 329.5 589.7 328.5 593.0 328.0 596.5 M 109.3 588.3 C 112.4 590.2 115.9 591.2 119.5 591.8 C 116.3 590.2 112.9 589.0 109.3 588.3 M 133.6 588.0 C 133.3 591.0 133.0 594.0 132.8 597.1 C 134.7 597.8 136.6 598.5 138.5 599.2 C 137.2 595.3 136.3 591.2 133.6 588.0 M 145.6 590.1 C 147.4 591.6 149.2 592.9 151.2 594.1 C 149.4 592.7 147.6 591.3 145.6 590.1 M 318.8 602.5 C 319.5 602.5 321.0 602.6 321.7 602.6 C 322.3 598.6 322.8 594.7 323.2 590.7 C 320.7 594.2 319.5 598.3 318.8 602.5 M 63.5 592.9 C 66.6 593.6 69.8 594.0 72.9 594.5 C 73.0 593.8 73.0 592.5 73.0 591.8 C 69.8 592.2 66.6 592.4 63.5 592.9 M 108.4 592.4 C 111.8 594.6 115.6 596.1 119.6 596.9 C 116.5 594.1 112.4 593.1 108.4 592.4 M 77.1 593.2 C 76.7 594.9 80.4 595.6 80.5 593.8 C 80.1 592.4 77.9 592.2 77.1 593.2 M 84.4 593.7 C 83.7 595.1 86.3 596.1 87.1 594.8 C 87.7 593.4 85.2 592.4 84.4 593.7 M 140.5 592.1 C 140.6 594.9 140.8 597.7 141.5 600.6 C 143.2 603.4 146.5 604.7 149.3 606.3 C 147.3 601.0 146.3 594.6 140.5 592.1 M 28.5 596.1 C 28.7 596.4 29.0 597.1 29.1 597.4 C 31.7 598.0 29.9 593.9 28.5 596.1 M 317.1 595.7 C 316.5 598.5 316.0 601.5 315.5 604.4 C 316.2 601.5 316.7 598.6 317.1 595.7 M 327.1 597.5 C 324.8 601.0 331.1 598.3 327.1 597.5 M 39.2 598.2 C 38.6 599.8 39.2 600.3 40.8 599.8 C 41.4 598.2 40.8 597.6 39.2 598.2 M 42.8 598.1 C 43.2 599.8 43.7 601.4 44.1 603.1 C 45.8 601.4 47.5 599.8 49.2 598.1 C 47.6 598.1 44.4 598.1 42.8 598.1 M 48.6 603.4 C 52.2 603.0 55.0 600.9 56.5 597.6 C 53.8 599.3 51.1 601.3 48.6 603.4 M 123.8 597.9 C 125.6 599.3 127.4 600.7 129.4 601.9 C 127.6 600.4 125.8 599.1 123.8 597.9 M 150.1 597.7 C 150.6 601.2 151.2 604.8 152.0 608.3 C 152.7 607.2 153.4 606.1 154.1 605.0 C 152.8 602.6 151.4 600.1 150.1 597.7 M 32.1 598.4 C 33.1 599.9 35.0 602.7 36.0 604.1 C 37.6 603.9 39.2 603.6 40.9 603.4 C 38.5 600.9 35.4 599.3 32.1 598.4 M 58.5 599.3 C 57.3 603.0 55.4 606.5 53.6 609.9 C 56.3 611.5 59.1 612.9 61.9 614.3 C 61.5 609.2 61.1 604.0 60.8 598.9 C 60.2 599.0 59.1 599.2 58.5 599.3 M 63.8 598.6 C 62.7 604.8 63.9 611.1 65.0 617.3 C 66.3 613.6 68.3 610.0 68.9 606.0 C 68.0 603.1 65.6 600.9 63.8 598.6 M 68.7 599.2 C 67.5 600.4 69.6 602.5 70.8 601.3 C 72.1 600.1 69.9 597.9 68.7 599.2 M 73.6 599.8 C 73.2 601.4 72.9 602.9 72.5 604.5 C 75.6 606.1 78.9 607.5 82.2 608.5 C 81.2 606.8 80.2 605.1 79.1 603.4 C 79.9 603.0 81.5 602.3 82.3 601.9 C 79.5 600.9 76.6 600.3 73.6 599.8 M 109.7 600.0 C 112.2 601.1 114.8 602.1 117.4 602.8 C 114.9 601.6 112.3 600.7 109.7 600.0 M 167.9 599.6 C 168.5 604.1 171.3 607.7 174.8 610.6 C 172.8 606.7 170.7 602.9 167.9 599.6 M 29.2 601.5 C 27.0 602.9 31.6 605.5 32.2 603.3 C 31.9 602.0 30.4 601.1 29.2 601.5 M 83.3 601.6 C 82.1 602.9 84.3 604.9 85.5 603.6 C 86.7 602.3 84.5 600.3 83.3 601.6 M 99.9 601.2 C 99.1 603.1 103.1 604.2 103.4 602.1 C 103.1 600.6 100.8 600.1 99.9 601.2 M 154.6 601.3 C 153.3 602.5 155.3 604.7 156.6 603.5 C 157.9 602.3 155.9 600.1 154.6 601.3 M 106.3 603.0 C 109.0 605.0 112.1 606.4 115.4 607.2 C 112.6 605.3 109.6 603.8 106.3 603.0 M 333.0 604.7 C 331.7 605.0 331.2 607.1 332.2 608.0 C 333.9 608.5 334.9 604.8 333.0 604.7 M 46.8 605.2 C 48.4 606.2 50.0 607.2 51.6 608.2 C 52.1 607.1 52.6 606.0 53.0 604.9 C 50.9 605.0 48.8 605.1 46.8 605.2 M 99.2 605.1 C 99.2 608.7 99.2 612.4 99.1 616.0 C 99.8 616.0 101.1 615.9 101.8 615.9 C 102.5 612.9 103.2 609.9 103.9 607.0 C 102.3 606.3 100.7 605.7 99.2 605.1 M 37.9 605.3 C 41.6 610.4 46.0 615.1 51.2 618.8 C 55.2 621.5 60.2 620.7 64.7 620.0 C 61.8 617.2 58.7 614.5 55.0 613.0 C 52.6 611.7 50.3 613.6 48.1 614.5 C 45.4 610.8 42.7 606.6 37.9 605.3 M 72.1 606.0 C 70.9 609.3 69.7 612.7 68.7 616.0 C 72.0 613.8 75.3 611.7 78.6 609.5 C 76.9 608.7 73.7 606.9 72.1 606.0 M 88.8 605.9 C 88.6 608.6 88.5 611.4 88.5 614.2 C 89.2 614.0 90.8 613.6 91.6 613.5 C 92.0 611.1 92.3 608.8 92.7 606.5 C 91.4 606.3 90.1 606.1 88.8 605.9 M 158.1 606.5 C 155.8 610.0 162.1 607.3 158.1 606.5 M 161.1 605.7 C 161.9 610.8 161.8 617.0 167.1 619.8 C 165.9 614.7 163.5 610.2 161.1 605.7 M 314.1 606.5 C 311.8 610.0 318.1 607.3 314.1 606.5 M 45.7 607.0 C 46.4 608.8 47.2 610.5 48.0 612.3 C 48.8 611.5 49.6 610.7 50.4 610.0 C 48.8 609.0 47.3 608.0 45.7 607.0 M 95.7 606.6 C 94.8 609.9 94.0 613.2 93.2 616.5 C 94.6 616.7 95.9 616.9 97.3 617.1 C 96.8 613.6 96.3 610.1 95.7 606.6 M 107.2 607.5 C 107.2 609.3 107.4 612.9 107.5 614.7 C 110.4 614.3 113.1 613.1 116.1 613.1 C 113.4 610.7 110.3 609.1 107.2 607.5 M 155.2 609.4 C 154.3 613.4 159.1 608.6 155.2 609.4 M 68.7 618.8 C 73.1 621.6 77.5 624.5 81.9 627.3 C 81.9 623.4 81.9 615.5 81.9 611.6 C 77.5 614.0 73.1 616.4 68.7 618.8 M 132.6 612.1 C 135.0 613.4 137.7 614.3 140.4 615.0 C 137.9 613.8 135.3 612.8 132.6 612.1 M 117.4 613.2 C 117.0 614.5 117.5 615.0 118.8 614.6 C 119.3 613.2 118.8 612.7 117.4 613.2 M 312.3 638.6 C 316.8 630.6 320.2 622.0 323.8 613.7 C 318.6 621.2 314.2 629.5 312.3 638.6 M 175.5 615.7 C 174.8 617.2 177.2 619.0 178.6 618.2 C 179.4 616.7 176.9 614.8 175.5 615.7 M 87.5 616.1 C 88.1 618.3 88.7 620.4 89.5 622.4 C 89.7 620.3 90.0 618.1 90.2 616.0 C 89.5 616.0 88.2 616.1 87.5 616.1 M 107.3 617.3 C 108.1 620.3 109.6 623.1 112.1 625.0 C 112.7 622.1 113.3 619.3 113.8 616.4 C 111.6 616.7 109.5 617.0 107.3 617.3 M 121.6 616.0 C 122.1 621.0 122.6 626.4 126.4 629.9 C 127.2 626.1 127.9 622.2 128.3 618.3 C 126.1 617.5 123.8 616.8 121.6 616.0 M 116.0 617.0 C 115.8 619.6 115.5 622.2 115.4 624.9 C 117.6 622.6 119.5 620.1 120.9 617.3 C 119.3 617.2 117.6 617.1 116.0 617.0 M 172.6 617.0 C 175.3 620.8 178.4 624.3 181.7 627.6 C 178.9 623.8 176.0 620.2 172.6 617.0 M 89.1 631.8 C 95.3 632.8 101.4 631.6 107.5 630.5 C 104.7 629.5 101.8 628.6 98.8 628.0 C 97.1 624.5 95.4 621.1 93.8 617.5 C 91.9 622.2 90.4 627.0 89.1 631.8 M 104.3 618.5 C 102.8 619.4 104.2 622.3 105.8 621.3 C 107.4 620.4 106.0 617.4 104.3 618.5 M 133.7 618.1 C 135.7 619.9 137.7 621.7 139.8 623.4 C 139.9 622.5 139.9 620.9 139.9 620.1 C 137.8 619.4 135.8 618.7 133.7 618.1 M 84.1 629.3 C 84.8 629.5 86.3 629.9 87.0 630.1 C 86.7 626.7 86.5 623.2 86.3 619.7 C 85.5 622.9 84.8 626.1 84.1 629.3 M 130.5 619.3 C 130.1 622.7 129.7 626.1 129.3 629.5 C 130.9 629.6 134.1 629.7 135.7 629.8 C 134.6 626.0 133.0 622.4 130.5 619.3 M 172.2 620.4 C 171.3 624.4 176.1 619.6 172.2 620.4 M 64.5 621.0 C 66.8 622.1 69.3 622.9 71.7 623.5 C 69.5 622.3 67.0 621.5 64.5 621.0 M 141.3 621.8 C 143.0 623.8 145.3 625.2 147.7 626.2 C 146.0 624.2 143.7 622.8 141.3 621.8 M 101.7 624.9 C 103.6 626.0 105.5 627.0 107.5 628.0 C 106.5 626.1 105.5 624.2 104.4 622.4 C 103.5 623.2 102.6 624.1 101.7 624.9 M 185.3 623.5 C 184.1 624.4 185.6 626.4 186.7 625.5 C 187.9 624.6 186.4 622.6 185.3 623.5 M 136.4 623.2 C 136.8 625.8 137.3 628.3 137.9 630.9 C 138.8 630.9 140.6 630.9 141.5 630.9 C 140.0 628.2 138.4 625.5 136.4 623.2 M 109.3 625.5 C 108.1 626.4 109.6 628.4 110.7 627.5 C 111.9 626.6 110.4 624.6 109.3 625.5 M 148.9 624.7 C 150.8 626.8 152.6 628.9 154.6 631.0 C 153.2 628.4 151.2 626.4 148.9 624.7 M 159.4 625.7 C 158.4 626.9 160.2 629.2 161.6 628.3 C 162.6 627.1 160.8 624.8 159.4 625.7 M 174.7 626.4 C 173.8 627.8 176.1 629.6 177.3 628.6 C 178.2 627.2 175.9 625.4 174.7 626.4 M 141.7 626.9 C 142.7 630.3 144.3 633.9 149.3 632.2 C 146.8 630.4 144.3 628.6 141.7 626.9 M 112.2 628.6 C 115.4 629.4 118.6 630.1 121.8 630.5 C 118.9 628.9 115.6 627.9 112.2 628.6 M 164.4 627.4 C 164.3 628.3 164.0 630.3 163.9 631.2 C 166.7 632.2 169.5 633.1 172.3 634.0 C 169.8 631.7 167.1 629.5 164.4 627.4 M 288.7 646.7 C 287.6 649.7 289.3 652.7 290.1 655.5 C 292.8 647.3 295.2 639.1 297.0 630.7 C 293.9 635.9 291.0 641.2 288.7 646.7 M 194.3 633.5 C 193.1 634.4 194.6 636.4 195.7 635.5 C 196.9 634.6 195.4 632.6 194.3 633.5 M 112.6 634.1 C 116.3 635.3 120.1 636.5 123.9 637.6 C 121.2 634.1 116.8 633.4 112.6 634.1 M 124.4 635.2 C 124.0 636.5 124.5 637.0 125.8 636.6 C 126.3 635.2 125.8 634.7 124.4 635.2 M 126.9 635.3 C 128.3 640.5 133.7 641.3 138.4 641.1 C 138.6 640.3 139.0 638.6 139.2 637.7 C 135.1 636.9 131.0 636.1 126.9 635.3 M 143.4 635.1 C 142.3 636.3 144.4 637.6 145.2 636.5 C 146.3 635.3 144.2 633.9 143.4 635.1 M 152.6 635.0 C 153.6 637.2 154.6 639.3 155.7 641.4 C 155.7 639.4 155.8 637.5 155.8 635.5 C 155.0 635.4 153.4 635.1 152.6 635.0 M 100.4 637.0 C 109.9 643.1 121.7 646.4 132.9 644.6 C 123.0 639.5 111.6 637.0 100.4 637.0 M 158.3 635.4 C 158.3 637.1 158.3 638.9 158.3 640.7 C 160.1 640.7 161.8 640.7 163.6 640.7 C 161.9 638.8 160.2 637.1 158.3 635.4 M 166.8 636.4 C 166.0 637.9 168.4 639.4 169.5 638.3 C 170.3 636.8 167.9 635.3 166.8 636.4 M 285.4 636.2 C 285.0 637.5 285.4 638.0 286.8 637.6 C 287.3 636.2 286.8 635.7 285.4 636.2 M 145.6 638.6 C 148.0 639.6 150.5 640.6 153.0 641.5 C 152.3 639.8 151.5 638.2 150.8 636.5 C 149.0 637.2 147.3 637.8 145.6 638.6 M 174.2 637.4 C 173.3 641.4 178.1 636.6 174.2 637.4 M 196.3 637.2 C 197.6 640.8 199.2 644.1 201.2 647.3 C 200.5 643.6 199.1 640.0 196.3 637.2 M 139.7 642.8 C 141.4 642.8 143.0 642.7 144.7 642.7 C 144.6 642.0 144.4 640.6 144.2 639.9 C 142.7 640.9 141.2 641.8 139.7 642.8 M 181.4 641.2 C 184.0 644.2 187.0 646.8 190.1 649.3 C 187.6 646.2 184.5 643.7 181.4 641.2 M 167.8 643.0 C 168.0 643.6 168.4 644.9 168.6 645.6 C 170.1 645.6 173.1 645.6 174.6 645.6 C 174.6 645.0 174.6 643.9 174.6 643.4 C 172.9 643.3 169.5 643.1 167.8 643.0 M 148.3 644.9 C 147.9 645.4 147.2 646.5 146.8 647.0 C 149.7 646.8 152.5 646.6 155.4 646.4 C 153.1 645.9 150.6 645.2 148.3 644.9 M 158.6 645.4 C 161.1 646.5 163.5 647.4 166.0 648.4 C 165.8 647.6 165.6 646.1 165.5 645.3 C 163.8 645.3 160.4 645.4 158.6 645.4 M 179.5 647.0 C 176.7 647.8 174.0 648.8 171.3 649.6 C 175.9 653.4 182.0 653.9 187.5 655.6 C 185.0 652.6 182.2 649.8 179.5 647.0 M 302.2 665.4 C 305.6 659.6 307.1 653.0 308.7 646.5 C 305.4 652.3 303.6 658.9 302.2 665.4 M 187.7 650.0 C 189.5 652.8 191.4 655.5 193.2 658.3 C 193.9 657.2 194.5 656.0 195.2 654.9 C 192.7 653.2 190.3 651.5 187.7 650.0 M 177.5 656.0 C 182.2 660.7 188.2 664.0 194.5 666.2 C 190.8 660.2 184.7 656.5 177.5 656.0 M 204.6 655.3 C 205.6 658.3 206.9 661.1 208.8 663.7 C 209.8 660.0 208.1 656.8 204.6 655.3 M 270.1 683.1 C 268.0 688.5 265.6 693.9 264.6 699.7 C 263.4 706.4 260.2 712.5 258.2 719.0 C 259.6 718.2 260.9 717.2 262.2 716.3 C 262.1 718.0 261.9 721.4 261.8 723.1 C 260.5 722.3 259.2 721.5 257.9 720.8 C 255.9 729.2 254.3 737.7 253.1 746.3 C 257.9 739.6 260.6 731.8 260.7 723.6 C 261.4 725.0 262.0 726.5 262.6 728.0 C 266.5 720.5 269.7 712.6 271.4 704.4 C 275.1 688.1 281.7 672.7 285.1 656.5 C 278.1 664.0 274.2 673.8 270.1 683.1 M 286.3 660.0 C 285.1 660.6 284.7 662.6 285.7 663.5 C 287.6 664.0 288.2 660.1 286.3 660.0 M 209.9 660.3 C 211.0 667.0 214.7 672.8 219.2 677.8 C 220.8 670.5 215.7 664.1 209.9 660.3 M 178.6 661.6 C 182.3 670.4 189.3 677.3 196.5 683.3 C 196.2 672.8 187.6 665.5 178.6 661.6 M 290.3 677.3 C 287.5 687.7 287.2 698.6 287.2 709.4 C 291.5 693.6 295.6 677.7 299.0 661.7 C 295.8 666.7 292.3 671.6 290.3 677.3 M 192.7 668.3 C 191.6 669.5 193.5 671.4 194.7 670.3 C 195.7 669.2 193.8 667.3 192.7 668.3 M 281.2 679.5 C 283.6 675.8 285.1 671.7 285.7 667.4 C 283.6 671.2 282.2 675.3 281.2 679.5 M 206.6 668.8 C 208.3 673.2 211.2 676.9 214.2 680.3 C 212.6 676.0 209.5 672.4 206.6 668.8 M 198.9 669.8 C 199.8 672.0 200.9 674.1 202.1 676.2 C 201.2 674.0 200.1 671.9 198.9 669.8 M 198.3 674.6 C 198.8 678.1 200.9 681.1 204.1 682.8 C 202.6 679.8 200.6 677.0 198.3 674.6 M 208.1 678.7 C 206.9 679.5 208.2 681.6 209.5 680.7 C 210.6 679.9 209.3 677.8 208.1 678.7 M 197.9 680.6 C 197.4 686.3 201.4 689.9 205.2 693.3 C 203.5 688.6 200.7 684.5 197.9 680.6 M 214.5 684.8 C 213.5 686.0 214.9 688.8 216.5 688.2 C 217.5 687.0 216.1 684.2 214.5 684.8 M 204.1 685.2 C 207.4 693.4 211.2 701.5 216.6 708.6 C 215.0 702.2 212.7 696.0 209.8 690.1 C 208.6 687.8 206.2 686.5 204.1 685.2 M 274.9 708.0 C 266.9 723.8 265.3 741.9 262.2 759.1 C 260.6 772.5 259.0 786.0 259.4 799.5 C 265.1 780.1 267.4 759.9 272.4 740.4 C 274.6 741.5 276.9 742.9 279.0 744.4 C 281.9 731.2 283.5 717.7 283.1 704.3 C 279.5 714.6 280.1 725.9 277.4 736.5 C 276.1 721.3 280.9 706.6 281.7 691.6 C 279.3 697.0 277.5 702.6 274.9 708.0 M 212.7 692.8 C 215.1 697.8 218.5 702.1 222.1 706.3 C 220.1 701.1 217.1 696.3 212.7 692.8 M 251.5 708.1 C 252.8 710.3 254.2 712.3 255.6 714.4 C 256.1 712.6 256.7 710.9 257.2 709.2 C 255.3 708.8 253.4 708.5 251.5 708.1 M 220.1 709.6 C 222.9 717.9 226.7 725.7 230.7 733.4 C 229.6 724.6 225.4 716.6 220.1 709.6 M 230.9 715.6 C 231.7 719.4 233.0 723.1 235.0 726.4 C 234.2 722.6 232.8 719.0 230.9 715.6 M 219.1 717.8 C 223.0 727.9 227.0 738.0 231.0 748.2 C 228.9 737.4 226.1 726.5 219.1 717.8 M 249.4 737.4 C 250.7 733.3 251.3 728.9 251.5 724.6 C 250.6 728.8 249.9 733.1 249.4 737.4 M 260.4 753.4 C 262.9 746.4 264.0 738.9 263.7 731.5 C 260.7 738.4 260.7 746.0 260.4 753.4 M 235.5 736.3 C 236.2 742.0 238.5 747.2 240.8 752.4 C 239.9 746.8 238.4 741.2 235.5 736.3 M 251.7 753.4 C 251.0 757.8 252.2 762.3 251.5 766.7 C 249.7 775.9 253.4 784.9 256.7 793.3 C 256.4 776.1 257.6 758.9 258.9 741.7 C 256.4 745.5 253.2 749.0 251.7 753.4 M 260.7 812.2 C 259.0 818.2 259.4 824.4 259.6 830.5 C 260.2 845.3 260.2 860.2 259.6 875.0 C 258.1 909.8 263.5 944.4 267.0 979.0 C 267.9 989.8 269.0 1000.6 270.7 1011.3 C 271.5 1017.0 272.8 1022.7 272.1 1028.4 C 270.6 1025.5 269.2 1022.6 267.7 1019.7 C 268.0 1025.5 271.0 1030.5 274.2 1035.2 C 272.0 992.9 269.6 950.7 264.5 908.7 C 264.1 912.6 263.3 920.6 262.9 924.5 C 261.4 911.4 263.3 898.1 262.3 884.9 C 260.8 865.6 260.5 846.3 262.1 827.0 C 261.6 818.3 269.1 812.1 269.4 803.6 C 271.5 784.7 274.7 765.7 273.7 746.6 C 269.0 768.4 264.5 790.3 260.7 812.2 M 235.1 752.5 C 232.8 756.0 239.1 753.3 235.1 752.5 M 243.3 757.9 C 242.3 758.8 242.9 760.8 244.2 761.2 C 246.1 761.0 245.0 757.3 243.3 757.9 M 236.2 759.0 C 235.1 759.6 235.1 761.4 236.2 762.0 C 238.0 762.3 238.0 758.6 236.2 759.0 M 237.2 766.0 C 236.1 766.6 236.1 768.4 237.2 769.0 C 239.0 769.3 239.0 765.6 237.2 766.0 M 243.2 764.6 C 244.0 768.5 244.9 772.4 245.8 776.4 C 246.7 772.2 245.3 768.2 243.2 764.6 M 238.1 771.5 C 235.8 775.0 242.1 772.3 238.1 771.5 M 243.5 790.4 C 245.1 784.8 244.1 779.0 242.2 773.5 C 242.3 779.2 242.6 784.9 243.5 790.4 M 248.2 778.6 C 247.8 791.7 251.4 804.4 253.6 817.3 C 254.2 811.9 255.8 806.5 255.6 801.1 C 253.7 793.4 251.1 785.9 248.2 778.6 M 250.7 817.4 C 249.7 809.0 248.1 800.7 246.0 792.5 C 244.2 801.1 245.2 810.2 250.7 817.4 M 273.2 801.3 C 273.7 798.4 274.2 795.6 274.6 792.7 C 274.0 795.6 273.5 798.3 273.2 801.3 M 270.2 820.3 C 268.9 832.6 267.0 845.0 267.3 857.4 C 269.4 839.7 274.8 822.1 273.2 804.1 C 270.8 809.2 270.9 814.9 270.2 820.3 M 244.1 809.8 C 244.0 818.2 243.9 826.7 243.9 835.1 C 245.1 832.7 246.4 830.4 247.9 828.1 C 249.4 834.4 248.3 840.8 247.5 847.1 C 247.1 851.7 245.8 857.0 249.2 860.9 C 251.1 849.0 254.3 836.8 252.0 824.8 C 249.5 819.7 246.6 814.9 244.1 809.8 M 264.3 847.4 C 265.5 837.1 267.2 826.8 267.6 816.5 C 262.7 826.0 264.1 837.1 264.3 847.4 M 273.1 835.5 C 270.8 839.0 277.1 836.3 273.1 835.5 M 272.9 839.6 C 269.8 855.0 267.8 870.7 266.4 886.3 C 266.3 896.4 268.3 906.4 269.6 916.3 C 273.4 941.7 276.5 967.2 281.0 992.4 C 283.0 974.3 281.8 956.0 280.7 937.9 C 280.2 931.3 279.6 924.7 277.5 918.4 C 268.2 893.2 273.3 865.8 272.9 839.6 M 249.3 895.5 C 248.3 913.6 250.8 931.5 252.6 949.4 C 257.3 918.8 256.2 887.9 252.9 857.3 C 251.1 870.0 250.2 882.8 249.3 895.5 M 256.2 858.8 C 254.9 859.2 255.4 861.6 256.8 861.2 C 258.1 860.7 257.6 858.3 256.2 858.8 M 245.6 860.4 C 245.3 869.1 245.9 877.8 247.5 886.4 C 248.2 877.7 250.3 868.4 245.6 860.4 M 275.3 868.1 C 274.2 869.2 274.3 872.5 276.2 872.4 C 277.1 871.3 276.9 868.3 275.3 868.1 M 279.2 869.2 C 278.6 870.8 279.2 871.3 280.8 870.8 C 281.3 869.2 280.8 868.6 279.2 869.2 M 275.0 897.9 C 276.1 903.4 277.1 908.9 278.4 914.3 C 278.1 909.1 277.8 903.8 277.6 898.6 C 276.9 898.4 275.7 898.0 275.0 897.9 M 260.7 969.5 C 261.4 953.8 259.1 938.3 258.4 922.6 C 257.0 938.1 254.4 954.7 260.7 969.5 M 247.2 929.7 C 247.5 943.2 245.0 958.1 251.5 970.7 C 251.2 956.9 249.1 943.3 247.2 929.7 M 253.2 954.0 C 252.1 954.6 252.1 956.4 253.2 957.0 C 255.0 957.3 255.0 953.6 253.2 954.0 M 254.2 958.7 C 255.9 973.0 256.7 987.5 260.7 1001.4 C 262.9 986.8 258.1 972.5 254.2 958.7 M 275.3 991.0 C 276.7 1006.7 276.3 1022.6 278.7 1038.3 C 278.3 1029.2 278.6 1020.0 279.4 1010.9 C 278.9 995.4 275.0 980.1 273.1 964.7 C 273.5 973.4 274.6 982.2 275.3 991.0 M 264.0 1005.0 C 264.0 1007.5 264.0 1012.5 264.0 1015.0 C 264.3 1012.5 264.7 1007.5 265.0 1005.0 L 264.0 1005.0 M 264.6 1020.6 C 264.7 1030.1 262.8 1040.3 266.6 1049.5 C 266.8 1039.8 266.1 1030.1 264.6 1020.6 M 260.3 1026.1 C 259.3 1027.3 259.3 1029.6 260.3 1030.9 C 261.9 1030.5 261.9 1026.5 260.3 1026.1 M 269.1 1032.8 C 269.2 1040.8 269.7 1048.7 270.2 1056.6 C 271.1 1056.6 272.0 1056.7 272.9 1056.7 C 273.0 1054.0 273.1 1051.4 273.3 1048.7 C 273.8 1050.2 274.3 1051.7 274.8 1053.2 C 274.8 1051.9 274.8 1050.7 274.9 1049.4 C 276.8 1050.6 278.5 1051.3 280.5 1052.6 C 276.9 1045.9 273.3 1039.2 269.1 1032.8 M 291.9 1046.7 C 292.2 1050.3 293.2 1053.9 295.4 1056.8 C 294.3 1053.4 293.1 1050.0 291.9 1046.7 M 266.4 1056.6 C 266.4 1054.1 266.4 1051.8 266.2 1049.4 C 265.9 1051.8 265.9 1054.2 266.4 1056.6 M 294.2 1057.4 C 293.3 1061.4 298.1 1056.6 294.2 1057.4 Z" />
<path fill="#ffffff" stroke="#ffffff" stroke-width="0.09375" opacity="1.00" d=" M 272.4 123.8 C 273.4 125.1 274.4 126.5 275.3 127.9 C 273.9 127.6 272.5 127.3 271.0 127.0 C 271.5 125.9 272.0 124.9 272.4 123.8 Z" />
<path fill="#ffffff" stroke="#ffffff" stroke-width="0.09375" opacity="1.00" d=" M 180.8 158.2 C 181.7 156.2 182.7 154.3 183.8 152.5 C 182.9 154.4 181.9 156.3 180.8 158.2 Z" />
<path fill="#ffffff" stroke="#ffffff" stroke-width="0.09375" opacity="1.00" d=" M 239.5 385.6 C 240.2 387.3 240.8 389.1 241.5 390.8 C 240.8 390.9 239.5 391.0 238.8 391.0 C 239.0 389.2 239.2 387.4 239.5 385.6 Z" />
<path fill="#ffffff" stroke="#ffffff" stroke-width="0.09375" opacity="1.00" d=" M 285.0 428.0 C 286.3 428.0 287.7 428.0 289.0 428.0 C 289.0 428.5 289.0 429.5 289.0 430.0 C 287.7 430.0 286.3 430.0 285.0 430.0 C 285.0 429.5 285.0 428.5 285.0 428.0 Z" />
<path fill="#ffffff" stroke="#ffffff" stroke-width="0.09375" opacity="1.00" d=" M 26.2 461.4 C 30.1 460.6 25.3 465.4 26.2 461.4 Z" />
<path fill="#ffffff" stroke="#ffffff" stroke-width="0.09375" opacity="1.00" d=" M 339.2 536.8 C 341.1 537.0 340.0 540.7 338.3 540.1 C 337.3 539.2 337.9 537.1 339.2 536.8 Z" />
<path fill="#ffffff" stroke="#ffffff" stroke-width="0.09375" opacity="1.00" d=" M 305.1 562.5 C 309.1 563.3 302.8 566.0 305.1 562.5 Z" />
<path fill="#ffffff" stroke="#ffffff" stroke-width="0.09375" opacity="1.00" d=" M 264.1 805.3 C 265.8 805.2 265.7 808.0 264.1 807.9 C 262.4 807.9 262.5 805.2 264.1 805.3 Z" />
<path fill="#ffffff" stroke="#ffffff" stroke-width="0.09375" opacity="1.00" d=" M 257.3 947.1 C 258.9 947.5 258.9 951.5 257.3 951.9 C 256.3 950.6 256.3 948.3 257.3 947.1 Z" />
<path fill="#ffffff" stroke="#ffffff" stroke-width="0.09375" opacity="1.00" d=" M 303.5 947.5 C 305.0 946.6 306.2 949.3 304.9 950.2 C 303.3 951.0 302.1 948.3 303.5 947.5 Z" />
<path fill="#ffffff" stroke="#ffffff" stroke-width="0.09375" opacity="1.00" d=" M 251.1 975.1 C 252.4 975.8 252.4 976.4 251.1 977.1 C 249.8 976.5 249.8 975.8 251.1 975.1 Z" />
<path fill="#ffffff" stroke="#ffffff" stroke-width="0.09375" opacity="1.00" d=" M 251.7 987.4 C 253.4 985.9 255.1 989.3 253.5 990.3 C 252.0 990.8 250.8 988.5 251.7 987.4 Z" />
<path fill="#ffffff" stroke="#ffffff" stroke-width="0.09375" opacity="1.00" d=" M 290.8 1032.4 C 289.4 1027.5 287.6 1022.7 287.7 1017.6 C 289.0 1022.5 290.1 1027.4 290.8 1032.4 Z" />
<path fill="#ffffff" stroke="#ffffff" stroke-width="0.09375" opacity="1.00" d=" M 290.3 1035.5 C 291.3 1037.7 292.1 1040.0 292.8 1042.4 C 291.8 1040.1 290.9 1037.8 290.3 1035.5 Z" />
<path fill="#ffffff" stroke="#ffffff" stroke-width="0.09375" opacity="1.00" d=" M 284.4 1042.2 C 285.8 1041.7 286.3 1042.2 285.8 1043.6 C 284.4 1044.0 284.0 1043.5 284.4 1042.2 Z" />
<path fill="#ffffff" stroke="#ffffff" stroke-width="0.09375" opacity="1.00" d=" M 300.9 1080.8 C 302.2 1082.5 303.4 1084.3 304.6 1086.1 C 304.7 1084.5 304.9 1082.9 305.0 1081.3 C 306.6 1084.6 306.8 1088.3 305.8 1091.8 C 304.0 1088.1 302.3 1084.6 300.9 1080.8 Z" />
</svg>
