<?xml version="1.0" encoding="UTF-8" ?>
<!DOCTYPE svg PUBLIC "-//W3C//DTD SVG 1.1//EN" "http://www.w3.org/Graphics/SVG/1.1/DTD/svg11.dtd">
<svg width="650pt" height="482pt" viewBox="0 0 650 482" version="1.1" xmlns="http://www.w3.org/2000/svg">
<path fill="#ffffff" stroke="#ffffff" stroke-width="0.09375" opacity="1.00" d=" M 241.8 57.8 C 243.0 55.5 246.2 55.4 248.0 57.1 C 248.0 58.4 248.0 59.7 248.0 61.0 C 251.3 64.9 257.2 64.5 260.6 68.2 C 258.9 69.0 257.2 69.8 255.4 70.2 C 253.9 71.9 251.3 72.3 250.4 74.5 C 251.2 74.0 252.6 73.0 253.4 72.5 C 253.1 73.7 252.5 74.9 251.9 76.1 C 251.2 76.0 249.6 75.9 248.9 75.9 C 249.0 74.6 249.2 73.3 249.3 72.0 C 245.7 74.1 243.8 69.9 242.2 67.5 C 242.1 66.5 242.0 65.5 241.9 64.5 C 241.1 62.4 240.3 59.8 241.8 57.8 M 244.1 58.4 L 243.7 59.2 C 244.0 61.9 246.5 57.9 244.1 58.4 M 245.9 61.5 C 245.4 62.9 244.6 64.2 244.1 65.6 C 244.9 67.2 245.9 68.7 247.0 70.1 C 248.3 70.1 249.6 70.0 250.8 70.0 C 251.3 68.9 251.8 67.8 252.2 66.6 C 249.9 65.2 247.8 63.4 245.9 61.5 M 254.2 67.0 C 254.2 67.4 254.2 68.4 254.2 68.9 C 255.4 69.0 256.0 68.5 256.1 67.3 C 255.6 67.2 254.7 67.0 254.2 67.0 Z" />
<path fill="#ffffff" stroke="#ffffff" stroke-width="0.09375" opacity="1.00" d=" M 293.8 57.3 C 296.3 56.6 296.8 59.6 298.2 60.9 C 300.7 63.8 304.3 65.5 307.2 68.0 C 311.3 68.0 315.4 68.0 319.5 68.0 C 321.9 65.0 325.9 64.2 329.6 63.7 C 333.5 62.2 337.6 64.1 341.6 63.0 C 341.9 62.4 342.5 61.2 342.8 60.6 C 343.6 61.5 344.3 62.3 345.1 63.1 C 348.8 63.0 352.3 61.8 356.1 61.9 C 358.2 61.8 361.5 59.4 362.6 62.6 C 365.2 62.0 367.6 60.2 370.4 60.9 C 370.9 63.1 373.0 63.8 374.7 64.8 C 375.0 64.5 375.5 64.0 375.7 63.7 C 374.8 62.3 373.8 61.0 373.0 59.5 C 374.2 60.2 375.4 61.0 376.5 61.8 C 379.3 63.2 382.3 63.3 385.3 62.9 C 392.4 59.8 398.9 65.1 404.4 68.9 C 406.1 69.1 407.8 69.3 409.5 69.6 C 413.2 70.1 417.2 70.4 420.5 72.4 C 422.6 73.8 424.5 75.7 427.0 76.1 C 429.1 75.3 431.1 74.3 433.3 73.7 C 436.1 77.8 438.8 82.3 443.1 85.0 C 446.1 87.3 449.7 89.3 451.4 92.9 C 449.0 94.3 447.2 92.0 445.4 90.7 C 441.9 88.1 437.8 86.7 434.1 84.6 C 434.0 85.9 434.0 87.3 434.0 88.7 C 437.1 93.5 442.3 96.4 446.9 99.4 C 447.5 101.2 445.6 101.2 444.4 100.8 C 441.8 99.8 438.9 99.0 436.6 97.3 C 434.4 95.8 432.1 94.3 429.7 93.2 C 426.0 92.5 422.4 91.5 418.7 91.1 C 416.2 93.4 412.7 92.7 409.6 93.1 C 406.8 94.5 403.5 94.7 400.7 96.1 C 407.3 96.1 413.8 94.3 420.4 95.1 C 420.2 95.6 419.6 96.7 419.4 97.2 C 415.0 98.7 410.3 97.3 405.9 98.6 C 402.5 99.5 398.9 98.6 395.4 99.2 C 392.9 99.7 390.4 99.7 387.9 100.0 C 388.9 103.3 390.2 106.6 392.0 109.6 C 391.6 110.0 390.6 110.8 390.1 111.3 C 388.1 108.7 386.7 105.6 385.7 102.5 C 385.4 101.8 384.9 100.6 384.7 100.0 C 384.1 100.0 383.0 100.0 382.5 100.0 C 382.8 98.7 383.5 97.3 382.0 96.3 C 382.0 94.4 382.0 92.6 382.0 90.7 C 379.8 88.4 380.0 85.1 378.8 82.4 C 377.8 79.9 376.6 77.5 375.1 75.4 C 375.0 74.9 375.0 74.0 374.9 73.5 C 373.4 70.0 371.0 67.1 368.3 64.4 C 367.5 64.6 366.1 65.0 365.4 65.2 C 363.8 66.0 362.2 66.8 360.6 67.7 C 358.9 68.4 357.8 69.7 356.6 71.0 C 355.4 70.5 354.2 70.1 352.9 69.9 C 350.3 71.3 347.2 71.5 344.4 72.2 C 341.6 74.0 337.7 73.9 335.6 76.7 C 335.0 77.2 334.3 77.8 333.7 78.4 C 338.1 80.3 341.1 84.3 345.5 86.4 C 347.5 87.2 349.4 87.9 351.4 88.8 C 354.6 89.7 357.5 91.1 360.3 92.9 C 364.0 93.9 367.9 93.8 371.6 94.4 C 373.2 96.6 369.7 97.5 368.2 98.3 C 366.6 99.7 365.2 101.4 363.6 102.8 C 360.2 102.2 356.8 103.3 353.5 102.2 C 351.1 101.5 348.7 102.3 346.4 103.2 C 345.6 103.8 344.7 104.5 343.9 105.1 C 344.2 109.4 345.5 113.7 345.0 118.1 C 344.3 118.0 342.8 117.9 342.0 117.8 C 341.8 113.9 342.9 109.5 340.2 106.1 C 337.2 108.3 339.6 111.8 338.8 114.8 C 337.5 115.0 335.8 115.5 335.1 114.0 C 335.0 112.5 335.0 111.0 335.1 109.4 C 333.5 110.7 332.0 112.1 330.4 113.3 C 329.3 114.0 328.2 114.6 327.1 115.1 C 326.5 112.2 324.0 108.8 326.3 106.0 C 326.2 103.0 329.5 102.0 330.5 99.6 C 331.5 98.1 331.1 96.2 331.0 94.6 C 329.4 92.1 328.3 89.3 327.3 86.5 C 325.6 85.6 321.2 86.4 322.1 83.2 C 325.7 81.8 329.5 84.5 333.3 84.1 C 333.2 82.7 333.1 81.3 333.0 79.8 C 330.8 79.5 328.7 80.0 326.6 80.1 C 327.4 78.2 328.4 76.3 329.3 74.4 C 329.7 74.5 330.6 74.9 331.1 75.0 C 334.5 72.8 338.6 71.3 340.3 67.2 C 333.9 69.5 327.0 72.7 320.1 71.0 C 317.7 70.9 315.4 71.0 313.0 71.0 C 313.0 71.7 313.0 73.1 313.0 73.8 C 311.2 75.1 309.3 76.1 307.7 77.7 C 305.7 79.6 304.9 82.3 303.1 84.3 C 302.6 83.9 301.7 83.1 301.2 82.8 C 301.6 82.0 302.0 81.2 302.3 80.4 C 302.6 79.8 303.1 78.5 303.4 77.9 C 296.1 75.6 288.5 76.4 281.0 75.5 C 281.0 74.9 281.0 73.7 281.0 73.1 C 282.8 72.3 284.9 72.0 286.2 70.3 C 287.2 68.8 288.9 69.0 290.4 68.8 C 292.6 68.1 295.0 67.9 297.2 67.5 L 296.5 68.6 C 298.4 68.4 300.3 68.3 302.2 68.1 C 300.2 66.3 298.0 64.7 296.3 62.6 C 295.6 60.8 294.7 59.0 293.8 57.3 M 356.6 64.0 C 353.6 65.8 349.0 63.5 347.3 67.1 C 350.5 67.9 353.5 66.1 356.7 65.8 C 357.9 65.2 359.0 64.6 360.2 64.0 C 359.3 64.0 357.5 64.0 356.6 64.0 M 378.3 65.2 C 378.4 68.5 381.5 63.8 378.3 65.2 M 383.6 65.1 C 383.6 65.5 383.6 66.4 383.5 66.8 C 389.6 66.7 394.8 71.0 400.9 70.1 C 399.3 68.6 397.7 67.1 395.8 66.2 C 392.1 64.0 387.6 65.0 383.6 65.1 M 322.3 69.5 C 326.9 69.5 331.4 68.4 335.3 66.0 C 330.9 66.0 325.3 65.8 322.3 69.5 M 342.3 69.9 C 343.7 70.5 345.6 68.7 344.9 67.3 C 343.6 66.7 342.1 68.8 342.3 69.9 M 379.0 73.5 C 379.3 74.0 379.9 75.2 380.2 75.8 C 381.4 76.1 382.5 76.4 383.6 76.9 C 385.8 77.1 388.1 77.5 390.4 77.3 C 388.8 75.4 386.2 74.1 385.8 71.5 C 385.6 70.9 385.3 69.6 385.1 69.0 C 383.5 69.0 381.8 68.9 380.2 69.1 C 378.1 69.7 379.1 71.9 379.0 73.5 M 387.3 71.8 C 387.9 71.8 389.1 71.8 389.7 71.8 C 390.2 70.3 386.8 70.2 387.3 71.8 M 292.1 73.4 C 292.7 74.8 295.4 73.8 296.1 72.7 C 295.5 71.2 293.0 72.7 292.1 73.4 M 393.2 73.1 C 395.0 73.8 396.8 74.4 398.6 75.0 C 402.0 75.0 404.7 77.8 408.2 77.3 C 405.9 75.6 403.2 74.4 400.6 73.1 C 398.2 72.8 395.7 73.1 393.2 73.1 M 404.6 73.5 C 407.8 75.0 411.2 76.6 413.1 79.8 C 415.3 80.6 417.6 81.3 420.0 81.6 C 418.3 76.3 412.1 76.4 408.5 73.1 C 407.5 73.2 403.5 71.1 404.6 73.5 M 301.1 74.0 C 302.5 74.8 304.0 75.6 305.5 76.3 C 305.8 75.7 306.5 74.6 306.9 74.0 C 305.0 74.0 303.0 73.9 301.1 74.0 M 390.5 74.0 C 390.2 74.4 389.5 75.1 389.2 75.4 C 390.2 76.3 391.3 77.2 392.3 78.0 C 395.2 78.0 398.1 78.1 401.0 77.8 C 398.1 75.2 394.3 74.1 390.5 74.0 M 380.6 77.8 C 380.9 79.3 381.7 80.5 382.8 81.6 C 383.2 83.6 383.8 85.6 384.2 87.7 C 385.6 89.5 387.8 90.5 389.5 92.0 C 390.0 92.0 390.8 92.1 391.2 92.2 C 394.2 93.9 398.0 93.1 400.8 91.4 C 399.2 89.1 396.3 89.3 393.9 88.7 C 390.5 88.1 386.8 86.4 385.6 83.0 C 388.9 83.4 392.0 85.0 395.3 85.4 C 394.8 84.3 394.4 83.3 393.9 82.3 C 390.8 81.4 387.7 80.3 384.6 79.3 C 383.3 78.8 381.9 78.3 380.6 77.8 M 393.5 79.6 C 399.9 81.8 406.8 81.6 413.4 83.1 L 413.9 81.9 C 407.7 79.1 400.3 77.8 393.5 79.6 M 423.7 79.7 C 423.8 80.5 424.0 82.0 424.0 82.8 C 425.2 83.6 426.5 84.4 427.7 85.2 C 428.7 86.4 430.0 87.5 431.2 88.6 C 431.1 86.8 431.1 84.9 431.0 83.1 C 428.5 82.1 426.1 81.0 423.7 79.7 M 399.4 82.5 C 401.0 83.7 402.8 84.7 404.4 85.9 C 409.5 87.5 414.8 87.0 420.0 87.0 C 420.6 86.7 421.8 86.2 422.3 86.0 C 414.8 84.3 407.1 83.5 399.4 82.5 M 398.0 85.1 C 397.6 86.5 398.1 87.0 399.5 86.4 C 399.9 85.0 399.4 84.6 398.0 85.1 M 330.9 87.0 C 331.8 89.5 332.8 92.0 333.5 94.6 C 335.1 92.3 335.2 89.6 334.3 87.0 C 333.5 87.0 331.8 87.0 330.9 87.0 M 340.3 89.2 C 340.7 90.5 341.5 90.8 342.8 89.9 C 342.5 88.7 341.6 88.5 340.3 89.2 M 403.5 90.8 C 404.5 91.5 405.5 91.5 406.6 90.8 C 407.0 89.3 403.3 89.3 403.5 90.8 M 338.1 91.7 C 337.6 95.6 337.8 99.5 337.7 103.4 C 339.2 103.2 340.3 102.2 341.3 101.1 C 341.0 100.4 340.2 99.0 339.8 98.3 C 340.6 98.2 342.0 98.0 342.8 97.9 C 343.7 96.8 344.7 95.8 345.5 94.6 C 343.6 92.6 340.7 92.2 338.1 91.7 M 351.2 92.6 C 353.1 94.3 354.7 96.2 356.3 98.1 C 356.7 96.2 356.1 94.5 354.9 93.1 C 354.0 92.9 352.1 92.7 351.2 92.6 M 361.9 95.9 C 360.2 97.5 361.6 98.5 363.0 99.4 C 364.6 98.2 366.3 97.1 367.8 95.7 C 365.8 95.9 363.7 97.7 361.9 95.9 M 349.3 97.9 C 348.9 98.0 348.0 98.0 347.5 98.0 C 346.0 99.3 343.7 100.0 343.6 102.3 C 345.9 101.1 348.3 100.0 350.8 99.5 C 352.6 99.9 354.4 100.0 356.3 100.1 L 356.2 99.2 C 353.8 98.8 351.5 95.6 349.3 97.9 M 329.0 105.5 C 329.0 107.2 329.0 108.9 329.1 110.6 C 330.6 109.7 332.1 108.7 333.6 107.8 C 333.2 106.5 332.7 105.3 332.3 104.1 C 332.6 103.0 333.0 101.9 333.3 100.7 C 331.9 102.3 330.5 104.0 329.0 105.5 Z" />
<path fill="#ffffff" stroke="#ffffff" stroke-width="0.09375" opacity="1.00" d=" M 544.8 82.0 C 547.1 82.0 549.5 82.0 551.5 83.4 C 554.3 85.5 558.2 85.7 561.4 84.3 C 562.5 84.9 563.7 85.6 564.9 86.2 C 564.0 87.6 563.0 88.9 562.0 90.2 C 562.0 91.4 562.0 92.7 562.0 93.9 C 559.6 94.5 556.4 97.0 554.5 94.7 C 556.4 93.7 559.5 93.6 559.3 90.7 C 556.2 92.2 552.9 93.8 549.4 94.2 C 544.8 95.6 539.7 95.3 535.3 93.5 C 534.2 89.9 538.0 87.1 539.5 84.2 C 541.5 84.1 543.2 83.1 544.8 82.0 M 545.7 84.4 L 545.7 85.2 C 547.8 86.7 547.5 82.5 545.7 84.4 M 549.4 85.8 C 547.9 87.3 546.3 88.7 544.8 90.2 C 546.7 90.1 548.7 90.2 550.4 91.3 C 551.4 91.2 552.4 91.0 553.5 90.9 C 554.3 90.5 555.8 89.6 556.6 89.2 C 555.2 87.8 553.3 87.0 551.6 86.1 C 551.1 86.0 549.9 85.9 549.4 85.8 M 538.4 91.8 C 540.5 92.1 542.7 92.3 544.8 92.6 C 544.6 92.1 544.3 91.0 544.1 90.5 C 544.5 89.9 545.4 88.8 545.9 88.2 C 544.3 87.9 542.7 87.7 541.1 87.6 C 539.3 88.1 539.0 90.3 538.4 91.8 Z" />
<path fill="#ffffff" stroke="#ffffff" stroke-width="0.09375" opacity="1.00" d=" M 286.0 89.0 C 289.9 89.4 294.1 86.9 297.6 89.5 C 296.6 90.2 295.5 90.8 294.4 91.4 C 289.9 93.0 285.3 94.4 280.6 95.4 C 283.9 99.8 285.4 105.1 288.2 109.8 C 291.3 112.0 295.4 114.9 299.1 112.0 C 301.6 112.8 304.1 113.6 306.5 114.8 C 308.9 115.4 312.1 115.6 313.4 118.2 C 311.5 119.5 309.1 118.9 307.0 119.0 C 304.5 118.9 301.9 119.4 299.5 118.3 C 297.4 117.9 295.4 117.2 293.5 116.2 C 291.1 115.7 288.7 114.9 286.6 113.5 C 282.7 111.0 277.8 111.5 273.5 110.3 C 271.0 109.6 268.6 108.6 266.1 108.1 C 262.3 107.9 258.5 108.0 254.6 108.0 C 253.7 107.0 252.7 106.0 251.8 105.0 C 252.2 104.5 253.0 103.7 253.5 103.2 C 254.8 103.1 256.2 103.0 257.6 103.0 C 259.2 101.5 260.5 99.6 262.6 98.8 C 266.3 97.2 269.0 94.2 272.7 92.7 C 276.0 88.9 281.4 88.8 286.0 89.0 M 279.0 92.1 L 279.1 93.2 C 281.5 92.8 283.8 92.0 286.3 91.8 L 286.3 90.7 C 285.0 90.9 283.6 91.2 282.2 91.6 C 281.2 91.8 280.1 91.9 279.0 92.1 M 270.6 104.2 C 272.4 104.8 274.2 105.2 276.1 105.6 C 277.2 104.6 278.4 104.0 279.9 103.7 C 280.1 103.2 280.6 102.3 280.9 101.8 C 279.5 101.7 278.2 101.7 276.9 101.8 C 277.1 100.2 277.4 98.7 277.6 97.2 C 273.9 97.9 272.7 101.7 270.6 104.2 M 277.0 105.3 C 278.4 106.4 279.9 107.1 281.4 107.9 C 282.4 108.0 283.3 108.1 284.3 108.3 C 283.8 107.1 283.3 106.0 282.8 104.8 C 280.8 104.9 278.9 105.1 277.0 105.3 Z" />
<path fill="#ffffff" stroke="#ffffff" stroke-width="0.09375" opacity="1.00" d=" M 239.3 95.1 C 242.1 93.5 239.5 98.4 239.3 95.1 Z" />
<path fill="#ffffff" stroke="#ffffff" stroke-width="0.09375" opacity="1.00" d=" M 53.9 103.0 C 57.5 102.2 59.3 97.6 63.5 99.0 C 63.9 101.3 60.9 102.0 59.9 103.6 C 63.0 104.0 66.3 104.2 68.9 106.2 C 72.2 108.9 76.6 109.2 80.4 110.8 C 82.9 111.5 85.4 111.9 88.0 112.4 C 90.5 113.8 93.0 115.6 95.9 116.4 C 102.4 118.4 108.4 121.6 115.0 123.2 C 117.5 123.2 119.9 123.0 122.3 122.9 C 130.0 119.7 138.4 118.9 146.5 117.6 C 149.2 117.3 151.1 115.4 153.6 114.7 C 154.8 113.8 156.1 113.0 157.5 112.5 C 157.3 113.5 157.0 115.4 156.8 116.3 C 158.3 116.2 159.9 116.0 161.4 115.9 C 164.4 114.5 168.1 114.6 171.0 116.2 C 173.2 118.6 175.4 120.9 178.4 122.2 C 180.7 122.3 183.0 122.7 185.3 123.3 C 185.6 123.8 186.2 124.9 186.4 125.5 C 201.0 130.6 216.1 133.9 230.4 139.8 C 234.2 140.7 237.8 142.4 241.4 143.7 C 244.1 144.6 246.8 145.6 249.4 146.8 C 256.8 149.0 263.7 152.7 270.9 155.3 C 273.5 156.3 275.9 157.6 278.3 158.8 C 281.2 159.6 283.9 161.0 286.4 162.7 C 288.7 163.6 291.0 164.9 292.5 167.0 C 295.6 167.1 297.8 169.5 300.7 170.3 C 301.1 170.7 301.9 171.5 302.3 171.9 C 301.2 172.3 300.1 172.7 299.0 173.0 C 296.9 171.9 294.6 171.2 292.5 170.2 C 291.4 169.9 289.2 169.4 288.0 169.2 C 293.9 175.2 302.3 177.4 309.4 181.5 C 310.2 182.5 310.9 183.5 311.7 184.5 C 311.3 185.1 310.6 186.2 310.2 186.8 C 312.1 188.9 314.7 190.6 315.4 193.5 C 315.7 194.5 316.0 195.4 316.3 196.4 C 315.6 196.5 314.2 196.8 313.6 196.9 C 312.9 197.4 311.7 198.3 311.1 198.8 C 307.7 197.1 304.4 194.9 301.0 193.2 C 300.5 193.4 299.7 193.9 299.2 194.1 C 298.9 195.5 298.4 196.7 298.1 198.0 C 299.4 201.7 300.3 205.4 300.1 209.3 C 302.2 212.1 299.0 215.3 300.6 218.1 C 301.3 221.1 303.6 223.1 305.7 225.2 C 307.9 229.5 310.9 233.4 314.1 237.1 C 315.5 238.7 317.2 241.2 314.8 242.9 C 315.2 244.6 315.6 246.2 316.0 247.9 C 314.1 248.7 312.1 249.4 310.0 249.9 C 307.7 249.7 305.5 248.8 303.1 248.9 C 308.5 254.2 313.9 259.6 319.1 265.1 C 318.7 265.7 317.7 267.0 317.2 267.6 C 318.4 269.4 319.6 271.2 320.9 272.8 C 320.6 274.9 321.4 277.5 324.0 277.0 C 326.5 276.3 327.5 279.9 324.8 280.4 C 320.6 280.1 317.0 277.9 314.0 275.1 C 310.5 274.4 306.7 274.4 303.5 272.6 C 300.6 271.1 297.5 270.7 294.4 270.0 C 292.6 271.3 290.8 273.1 290.7 275.6 C 292.6 275.4 294.6 275.1 296.5 274.9 C 297.6 276.7 298.8 278.4 300.3 279.9 C 300.8 278.4 301.5 277.0 302.4 275.7 C 303.8 277.1 304.2 278.9 304.1 280.8 C 304.9 281.8 305.6 282.8 306.3 283.8 C 309.4 285.4 312.4 287.1 315.3 289.0 C 316.0 289.0 317.3 289.1 317.9 289.2 C 317.9 290.0 318.0 291.6 318.0 292.5 C 318.5 291.9 319.5 290.7 320.0 290.1 C 323.5 294.2 328.8 295.9 332.4 299.8 C 333.9 300.7 335.4 301.8 337.1 302.4 C 332.6 297.6 328.3 292.3 322.6 288.9 C 321.8 289.3 321.0 289.7 320.3 290.1 C 320.2 289.6 320.2 288.7 320.1 288.3 C 322.6 288.4 325.4 287.9 327.5 289.6 C 331.9 293.1 335.4 297.6 340.0 301.0 C 346.6 307.5 353.6 314.2 362.5 317.6 C 365.6 319.2 369.2 317.6 372.5 318.6 C 376.0 319.8 379.8 320.1 382.9 322.1 C 389.1 325.7 395.3 329.0 401.2 333.0 C 400.6 333.7 400.1 334.4 399.5 335.0 C 397.7 334.1 395.8 333.4 393.7 333.0 C 396.5 335.7 399.9 337.4 403.5 338.7 C 407.0 340.0 410.2 342.2 414.0 342.7 C 414.2 341.0 414.3 339.2 414.5 337.5 C 415.9 339.3 415.9 341.6 415.9 343.8 C 420.6 345.8 425.9 345.1 430.9 346.5 C 434.9 347.9 439.3 347.8 443.4 348.8 C 450.4 349.0 456.9 345.7 463.8 345.2 C 464.4 345.0 465.6 344.6 466.2 344.4 C 464.9 342.7 462.3 342.6 461.3 340.6 C 462.1 338.1 465.2 338.7 467.1 339.2 C 467.6 337.3 469.0 336.7 470.9 336.9 C 473.6 339.4 477.2 340.4 480.6 341.6 C 480.9 341.9 481.5 342.4 481.9 342.7 C 485.5 343.8 489.0 345.4 492.5 346.9 C 493.3 346.7 494.2 346.4 495.0 346.2 C 495.7 348.0 497.4 348.1 499.0 348.2 C 501.3 349.5 503.9 350.4 506.0 352.0 C 511.9 357.5 519.7 360.7 524.5 367.4 C 524.5 368.7 524.7 370.1 524.5 371.4 C 522.8 374.2 519.6 375.8 518.3 378.9 C 516.7 379.3 515.0 379.7 513.4 380.1 C 515.1 381.3 519.4 380.9 518.7 383.8 C 514.3 383.6 510.4 381.4 506.2 380.5 C 504.2 381.9 501.8 381.9 499.6 382.0 C 506.4 386.7 514.4 389.1 522.0 392.1 C 521.6 392.6 520.8 393.5 520.4 394.0 C 517.2 393.4 514.2 391.9 511.0 391.1 C 514.9 394.9 518.9 398.8 523.5 401.7 C 526.0 403.9 528.4 406.2 531.5 407.6 C 534.3 412.4 537.3 417.1 539.8 422.1 C 540.9 424.6 543.8 424.6 546.1 425.1 C 551.5 425.9 555.6 429.9 560.0 432.9 C 562.6 435.1 566.1 436.7 567.5 440.0 C 568.5 442.8 570.2 445.2 571.7 447.6 C 571.8 448.1 571.8 449.2 571.8 449.7 C 570.0 450.2 568.3 450.8 566.4 451.1 C 565.3 452.1 564.1 453.0 562.7 453.5 C 554.7 453.5 546.9 456.3 538.9 455.6 C 532.6 455.7 528.8 450.0 523.7 447.2 C 520.7 446.1 518.3 443.9 515.7 442.1 C 509.1 442.6 503.9 438.0 497.5 437.2 C 493.7 437.7 489.8 437.7 485.9 437.6 C 481.4 437.0 477.6 434.0 473.0 433.7 C 463.2 432.4 454.4 427.9 445.1 424.9 C 443.0 424.0 440.7 424.7 438.5 425.1 C 436.2 426.2 433.5 426.6 431.0 427.1 C 429.2 429.3 427.8 431.8 425.4 433.3 C 424.1 435.1 422.3 436.3 420.5 437.4 C 418.6 438.3 416.4 439.8 414.3 438.5 C 409.7 435.7 407.9 430.2 407.1 425.1 C 404.9 424.9 404.3 423.0 403.8 421.2 C 405.2 422.2 406.7 422.7 408.4 422.4 C 406.5 418.5 406.4 412.1 401.1 411.3 C 399.4 409.4 398.3 407.1 397.0 404.9 C 396.3 404.9 394.7 405.0 394.0 405.0 C 393.0 400.9 393.4 396.7 392.9 392.6 C 390.9 388.3 389.6 383.7 387.7 379.4 C 386.2 375.8 384.7 372.2 383.8 368.4 C 382.3 365.5 380.8 362.6 380.9 359.3 C 377.3 353.9 373.6 348.5 369.3 343.6 C 367.3 342.3 365.3 340.8 363.5 339.0 C 362.5 338.3 361.6 337.4 361.0 336.3 C 359.2 334.3 356.9 332.9 354.6 331.5 C 349.9 326.4 343.3 323.9 337.5 320.2 C 335.1 319.2 333.0 317.6 330.9 316.1 C 327.9 313.4 324.2 311.6 321.4 308.6 C 318.9 305.9 315.7 303.9 313.2 301.2 C 310.8 300.6 308.4 299.8 306.0 299.8 C 301.6 295.6 295.3 294.3 290.7 290.5 C 288.0 288.1 284.5 286.7 281.6 284.5 C 280.9 284.6 279.5 284.8 278.8 284.8 C 276.5 283.1 274.3 281.2 271.6 280.2 C 267.8 279.0 264.4 276.7 260.6 275.2 C 255.7 274.7 251.0 273.1 246.5 271.0 C 245.3 270.6 244.1 271.2 243.0 271.8 C 244.5 272.5 245.9 273.3 247.4 274.0 C 246.7 274.6 245.9 275.2 245.2 275.8 C 243.9 275.1 242.6 274.4 241.3 273.8 C 240.0 273.0 238.9 272.0 237.7 271.1 C 235.1 270.3 232.3 269.2 231.0 266.6 C 230.3 266.6 228.9 266.6 228.2 266.6 L 228.7 264.9 C 228.1 265.2 226.9 265.7 226.3 266.0 L 226.7 264.2 C 226.1 264.4 224.8 264.9 224.2 265.1 L 224.9 263.8 C 223.7 263.5 222.7 262.9 222.0 261.8 C 219.9 261.8 219.1 260.2 219.4 258.2 C 217.5 257.0 215.6 255.9 213.5 255.2 C 215.6 257.8 218.2 260.6 216.6 264.2 C 213.9 261.4 211.4 258.5 208.9 255.6 C 208.2 255.6 206.8 255.5 206.1 255.5 C 206.3 254.9 206.7 253.9 206.9 253.3 L 205.3 253.8 L 205.1 252.1 C 204.4 252.5 203.0 253.3 202.3 253.7 C 202.1 253.4 201.7 252.8 201.5 252.5 C 200.1 252.4 198.8 252.2 197.5 251.7 C 198.2 251.7 199.6 251.5 200.3 251.5 L 201.8 252.2 C 202.1 252.1 202.6 252.0 202.9 251.9 C 202.9 251.6 202.9 251.1 203.0 250.9 C 198.4 246.3 192.3 244.0 186.5 241.3 C 184.1 239.5 181.2 238.5 178.4 237.5 C 177.9 237.2 177.0 236.7 176.5 236.4 C 170.6 233.8 165.1 230.0 158.9 228.1 C 155.8 226.9 152.7 225.7 149.7 224.1 C 150.3 223.0 151.1 222.0 152.2 221.4 C 149.7 219.9 147.2 218.4 144.5 217.2 C 144.2 217.9 143.5 219.4 143.1 220.1 C 139.5 217.1 137.9 212.5 134.9 209.0 C 130.1 203.5 123.7 199.7 118.0 195.2 C 115.1 192.5 112.5 189.6 109.8 186.7 C 110.3 186.5 111.3 186.1 111.8 185.9 L 111.4 187.7 C 111.8 187.6 112.7 187.3 113.1 187.2 C 114.3 189.3 116.0 191.1 118.4 191.8 C 117.4 189.4 116.1 187.1 115.0 184.8 C 115.7 183.9 116.6 183.1 117.1 182.1 C 115.8 178.6 114.2 174.5 110.1 173.6 C 106.9 172.8 104.3 169.7 100.9 170.3 C 99.6 169.9 98.3 169.5 96.9 169.3 L 97.9 168.8 C 95.6 168.9 94.1 167.4 92.7 165.9 C 89.3 164.6 86.8 162.0 83.7 160.2 C 80.2 159.1 77.0 157.3 73.4 156.3 C 65.2 151.9 56.3 148.6 48.1 144.0 C 46.4 144.5 44.6 145.0 42.8 145.2 C 41.9 143.1 41.2 140.8 40.6 138.6 C 41.4 135.5 43.0 132.0 40.3 129.3 C 39.7 125.6 41.1 122.3 42.3 119.0 C 41.9 115.7 41.2 111.6 44.2 109.2 C 47.4 107.1 50.0 103.8 53.9 103.0 M 59.3 106.9 C 58.1 108.1 57.0 109.4 55.9 110.6 C 58.0 109.9 59.9 110.5 61.6 111.8 C 62.7 111.3 63.8 110.8 64.9 110.3 L 65.5 111.7 C 66.0 111.3 67.0 110.5 67.5 110.2 C 65.8 109.6 64.1 109.1 62.4 108.8 C 61.4 108.1 60.3 107.5 59.3 106.9 M 52.2 110.4 C 50.5 111.7 49.1 113.5 48.0 115.4 C 48.0 116.2 48.0 117.9 48.0 118.8 C 48.4 118.4 49.3 117.6 49.7 117.2 C 50.0 114.7 51.5 112.7 52.2 110.4 M 56.2 113.1 C 53.8 114.7 54.0 117.9 53.2 120.4 C 53.4 121.8 53.4 123.2 53.2 124.6 C 53.5 126.3 53.7 127.9 54.0 129.5 C 56.3 130.8 57.7 133.0 59.2 135.1 C 59.4 130.2 58.5 125.3 59.7 120.5 C 59.2 117.8 59.9 115.2 60.6 112.6 C 59.1 112.5 57.6 112.7 56.2 113.1 M 63.5 116.1 C 63.1 116.0 62.4 115.8 62.1 115.8 C 61.9 117.8 61.8 119.7 61.7 121.7 C 62.8 119.9 63.9 118.1 64.8 116.1 C 67.1 115.1 69.7 114.8 72.2 114.2 C 69.5 113.3 66.7 112.8 63.9 112.3 C 63.8 113.6 63.6 114.8 63.5 116.1 M 73.6 114.5 C 72.9 115.5 73.5 117.8 74.7 118.1 C 74.8 117.5 75.0 116.4 75.1 115.8 C 74.7 115.5 74.0 114.9 73.6 114.5 M 70.7 115.9 C 69.6 117.0 66.0 117.3 66.6 119.2 C 67.6 120.4 69.2 121.1 70.3 122.1 C 71.0 126.0 70.5 130.0 70.9 133.9 C 73.0 131.0 73.8 127.4 74.8 124.0 L 76.1 124.1 C 75.4 120.8 73.8 117.4 70.7 115.9 M 63.1 124.5 C 62.9 126.5 62.7 128.5 62.2 130.4 C 61.8 133.7 62.5 136.9 63.0 140.1 C 62.9 141.6 64.5 141.9 65.5 142.4 C 66.2 139.8 67.2 137.4 68.0 134.9 C 68.8 131.3 68.2 127.7 68.3 124.1 L 67.2 124.9 C 67.3 124.0 67.5 122.0 67.6 121.0 L 66.5 121.5 C 66.3 121.2 66.0 120.5 65.8 120.2 C 64.0 120.1 64.3 123.4 63.1 124.5 M 80.7 121.7 C 79.7 122.5 78.8 123.4 78.7 124.7 C 79.3 124.8 80.5 125.1 81.2 125.2 C 81.2 124.7 81.3 123.6 81.4 123.1 C 82.1 126.1 84.7 126.8 87.4 127.2 C 86.9 126.3 85.8 124.4 85.3 123.4 C 84.7 122.1 83.7 120.8 82.8 119.6 C 82.1 120.3 81.4 121.0 80.7 121.7 M 93.3 120.1 C 93.2 123.4 96.6 119.0 93.3 120.1 M 151.1 122.0 C 150.5 123.1 149.9 124.2 149.4 125.4 C 151.3 124.5 153.3 123.6 154.7 121.9 C 153.5 121.9 152.3 122.0 151.1 122.0 M 155.6 123.4 C 156.5 123.9 158.7 123.1 158.0 121.8 C 157.1 120.9 155.1 122.2 155.6 123.4 M 143.7 123.2 C 144.6 126.2 146.5 121.1 143.7 123.2 M 89.1 124.3 C 88.4 126.0 88.9 126.5 90.5 126.0 C 91.1 124.3 90.7 123.7 89.1 124.3 M 170.4 124.0 C 170.3 124.5 170.0 125.3 169.8 125.7 C 170.9 126.4 172.0 126.4 173.1 125.7 C 174.2 124.1 171.5 123.4 170.4 124.0 M 93.3 126.0 C 92.1 126.8 91.0 127.6 89.9 128.5 C 91.0 128.7 93.0 129.3 94.1 129.5 C 95.0 129.3 96.7 128.8 97.6 128.6 C 97.0 127.7 96.5 126.9 95.9 126.0 C 95.3 126.0 93.9 126.0 93.3 126.0 M 75.9 143.3 C 76.5 143.3 77.5 143.3 78.0 143.3 C 78.3 138.7 77.5 134.1 76.7 129.5 C 76.8 128.8 76.9 127.3 76.9 126.6 C 73.0 131.3 73.2 138.1 75.9 143.3 M 160.3 127.2 C 158.9 128.9 162.1 129.7 163.0 128.5 C 164.3 126.9 161.2 125.9 160.3 127.2 M 175.5 127.7 C 178.0 129.0 180.8 129.6 183.4 130.7 C 185.1 131.3 186.8 131.9 188.6 132.3 C 188.0 130.5 186.2 129.9 184.7 129.2 C 182.8 128.7 180.9 127.9 179.2 126.9 C 177.9 127.1 176.7 127.4 175.5 127.7 M 81.3 136.4 C 82.4 134.9 83.5 133.3 82.6 131.5 C 84.4 131.4 85.6 130.1 86.5 128.7 C 83.9 129.5 81.4 130.1 80.0 127.0 C 79.5 130.2 81.8 133.1 81.3 136.4 M 166.2 130.2 C 169.2 131.6 172.4 132.4 175.4 133.8 C 178.7 134.1 181.9 137.5 184.9 134.8 C 181.5 131.3 175.6 133.5 172.4 130.0 C 170.3 129.8 168.3 129.8 166.2 130.2 M 104.0 136.8 C 105.3 137.2 106.6 137.5 107.9 138.0 C 108.3 136.8 108.8 135.6 109.2 134.4 C 109.6 133.8 110.3 132.5 110.7 131.9 C 108.4 131.4 106.2 130.7 104.0 130.1 C 101.1 131.6 103.7 134.5 104.0 136.8 M 116.2 131.6 C 116.7 132.9 120.4 132.7 119.7 130.9 C 118.6 130.4 116.6 130.2 116.2 131.6 M 84.4 135.6 C 85.3 139.2 85.0 142.7 83.5 146.1 C 84.7 147.6 85.8 149.4 87.8 150.0 C 88.3 143.8 87.0 137.6 87.1 131.4 C 85.8 132.5 84.9 134.0 84.4 135.6 M 90.6 133.1 C 92.0 134.7 93.2 136.4 93.1 138.5 L 94.3 138.5 C 94.9 136.3 95.2 134.1 95.5 131.8 C 93.9 132.2 92.3 132.7 90.6 133.1 M 97.0 135.9 C 97.0 139.7 96.6 143.5 96.7 147.4 C 99.5 142.7 99.1 136.9 99.4 131.7 C 98.6 133.0 97.0 134.2 97.0 135.9 M 129.0 134.9 C 130.4 135.0 131.0 134.4 130.8 133.0 C 129.4 132.9 128.8 133.5 129.0 134.9 M 112.4 134.0 C 110.2 135.9 109.6 138.9 109.6 141.6 C 112.2 139.5 114.3 136.9 116.8 134.7 C 115.3 134.5 113.9 134.1 112.4 134.0 M 52.8 134.5 C 51.8 138.4 57.1 139.4 59.8 138.2 C 57.5 136.8 55.1 135.7 52.8 134.5 M 120.1 138.6 C 120.0 141.6 119.4 144.6 118.8 147.5 C 119.4 146.7 120.1 145.8 120.8 145.0 C 122.9 143.1 124.0 140.5 125.5 138.1 C 121.9 138.6 123.3 143.1 120.7 144.8 C 121.3 141.3 122.2 137.9 122.8 134.3 C 121.8 135.7 121.0 137.2 120.1 138.6 M 197.2 135.0 L 197.2 135.8 C 197.6 135.8 198.4 135.8 198.8 135.8 L 198.7 135.0 C 198.3 135.0 197.5 135.0 197.2 135.0 M 110.2 144.2 C 110.4 146.0 110.2 147.7 109.5 149.4 C 111.4 147.8 112.9 145.9 113.7 143.6 C 115.0 140.9 116.7 138.5 119.0 136.5 L 119.0 135.6 C 115.4 137.6 112.4 140.7 110.2 144.2 M 186.2 137.9 C 187.3 138.7 190.0 137.9 189.5 136.2 C 188.4 135.2 185.8 136.4 186.2 137.9 M 134.5 138.6 C 134.0 138.6 133.1 138.7 132.6 138.7 C 133.0 139.4 133.8 140.8 134.1 141.5 C 134.7 141.3 135.9 140.9 136.6 140.7 C 136.2 139.6 135.5 137.3 135.1 136.1 C 135.0 136.7 134.7 138.0 134.5 138.6 M 146.9 141.0 C 148.7 140.8 149.7 138.1 149.3 136.5 C 147.8 137.1 146.6 139.5 146.9 141.0 M 165.5 137.0 C 169.4 139.0 173.9 139.7 177.9 141.5 L 178.5 140.3 C 174.2 139.1 170.1 136.1 165.5 137.0 M 203.0 137.2 L 203.0 137.8 L 203.7 137.8 L 203.7 137.2 L 203.0 137.2 M 71.1 136.6 C 71.5 139.2 70.4 141.4 68.6 143.3 C 69.9 144.1 71.2 144.9 72.4 145.8 C 76.8 148.4 81.7 149.9 86.3 152.1 C 83.1 151.5 83.1 145.1 79.4 147.5 C 78.1 146.7 76.8 146.1 75.5 145.4 C 73.3 142.9 72.0 139.8 71.1 136.6 M 102.2 136.5 C 101.3 138.9 100.5 141.4 99.7 143.8 C 100.3 143.6 101.4 143.1 102.0 142.8 C 103.0 140.9 103.5 138.5 102.2 136.5 M 126.3 141.2 C 125.4 143.1 124.4 144.9 123.2 146.5 C 122.2 149.3 120.8 151.9 119.4 154.5 C 120.8 152.9 122.2 151.3 123.7 149.7 C 124.8 147.5 126.2 145.5 127.3 143.2 C 127.7 142.9 128.4 142.1 128.7 141.7 C 129.2 139.8 130.8 138.5 131.7 136.8 C 129.6 137.9 128.0 139.7 126.3 141.2 M 140.8 138.1 C 141.0 138.7 141.5 139.9 141.8 140.5 C 141.0 140.7 139.6 140.9 138.8 141.0 C 139.0 141.8 139.5 143.3 139.7 144.1 C 138.9 144.0 137.2 143.9 136.3 143.8 C 136.5 144.4 136.9 145.7 137.0 146.4 C 136.7 145.8 136.0 144.8 135.6 144.3 C 134.6 145.7 133.4 147.1 132.2 148.4 C 131.5 149.9 130.8 151.5 130.4 153.1 C 129.3 153.6 128.3 154.3 127.3 155.0 C 126.8 155.3 125.6 156.0 125.1 156.3 C 124.1 155.7 123.2 155.0 122.3 154.2 C 122.0 154.9 121.5 155.5 121.0 156.0 C 122.6 157.6 120.9 159.5 120.8 161.2 C 121.7 161.3 123.4 161.4 124.2 161.5 C 124.1 160.7 123.9 159.3 123.8 158.6 C 125.1 157.4 126.4 156.2 127.6 155.0 C 127.6 156.1 127.5 158.3 127.5 159.3 C 126.9 160.7 124.7 162.0 126.5 163.5 C 123.5 164.3 124.9 168.1 123.9 170.2 C 126.7 167.6 127.4 163.8 128.4 160.4 C 129.5 158.6 130.8 156.9 131.0 154.7 C 131.8 154.7 132.6 154.6 133.4 154.6 C 132.8 155.9 131.5 158.4 130.8 159.7 C 132.5 158.3 133.5 156.3 134.6 154.5 C 135.7 151.4 138.2 149.2 139.9 146.5 C 140.1 144.8 140.3 143.1 141.7 141.9 C 141.9 140.5 142.2 139.1 142.5 137.7 L 140.8 138.1 M 153.9 137.7 C 153.1 139.3 152.3 141.0 151.7 142.7 C 154.5 143.6 157.3 144.4 160.1 145.3 C 160.5 143.2 160.9 141.2 161.5 139.2 C 160.9 139.4 159.8 140.0 159.3 140.2 L 159.6 138.7 C 157.7 138.6 155.6 138.8 153.9 137.7 M 194.4 138.1 C 193.2 138.5 192.5 140.5 194.1 140.9 C 196.0 141.3 196.9 137.2 194.4 138.1 M 90.4 138.3 C 89.8 140.5 90.2 142.5 91.3 144.4 C 90.9 146.1 90.9 147.9 91.4 149.6 C 91.2 150.5 90.8 152.3 90.6 153.2 C 91.2 152.8 92.4 152.0 92.9 151.6 C 93.8 147.8 93.1 143.9 93.4 140.1 L 92.1 140.9 C 92.3 140.3 92.7 139.1 92.8 138.5 L 90.4 138.3 M 215.5 137.4 C 224.5 141.8 234.3 144.5 243.4 148.8 C 246.7 150.0 250.0 152.3 253.8 151.1 C 246.6 147.6 239.0 145.1 231.6 142.3 C 229.8 141.9 228.1 141.2 226.6 140.2 C 222.8 139.6 219.4 137.5 215.5 137.4 M 161.1 143.2 C 161.5 143.4 162.2 143.9 162.6 144.2 C 159.7 147.1 164.6 147.7 166.6 148.1 C 167.3 147.2 167.9 146.3 168.3 145.4 C 168.8 144.7 169.6 143.5 170.1 142.8 C 168.2 142.6 166.9 141.4 166.4 139.4 C 166.2 140.1 165.7 141.6 165.5 142.4 C 165.5 141.6 165.4 140.0 165.3 139.2 C 163.9 140.5 162.5 141.8 161.1 143.2 M 199.1 140.0 C 198.6 140.9 198.1 141.8 197.6 142.8 C 200.1 142.8 203.5 144.7 204.8 141.5 C 202.9 141.1 201.0 140.6 199.1 140.0 M 130.2 142.4 C 129.4 143.8 128.5 145.1 127.7 146.6 C 126.2 149.1 124.9 151.7 124.3 154.5 C 127.9 151.6 130.5 147.7 133.9 144.6 C 134.0 144.1 134.2 143.1 134.3 142.6 C 133.9 142.0 133.0 140.9 132.5 140.4 C 131.8 141.1 131.0 141.7 130.2 142.4 M 180.9 142.3 C 180.7 144.5 184.2 144.4 184.1 142.3 C 183.5 141.2 181.5 141.2 180.9 142.3 M 144.3 145.8 C 143.4 146.7 142.6 147.6 141.7 148.5 C 142.2 148.4 143.2 148.1 143.7 147.9 C 144.5 145.5 147.1 143.9 146.7 141.1 C 145.0 142.3 143.3 143.5 144.3 145.8 M 170.0 143.7 C 169.6 145.4 169.1 147.1 168.8 148.9 C 171.2 147.2 173.5 145.3 175.2 142.8 C 173.5 143.2 171.7 143.5 170.0 143.7 M 205.3 145.0 C 206.8 147.1 210.4 146.1 211.8 144.1 C 209.7 143.6 205.8 141.3 205.3 145.0 M 151.1 143.7 C 150.6 144.7 150.1 145.7 149.7 146.8 C 151.6 147.5 153.4 148.3 155.4 148.7 C 157.1 149.1 158.8 149.4 160.5 149.7 C 160.3 148.9 160.0 147.3 159.8 146.5 C 159.4 146.6 158.6 146.8 158.2 146.9 L 157.9 145.9 C 155.5 145.6 153.3 144.7 151.1 143.7 M 100.1 148.3 C 99.4 151.7 99.4 155.1 100.0 158.4 C 100.4 158.0 101.3 157.2 101.7 156.8 C 102.3 155.4 103.1 154.1 103.9 152.8 C 103.2 150.0 104.8 147.3 104.4 144.4 C 102.9 145.6 101.5 147.0 100.1 148.3 M 63.8 146.8 C 63.6 148.1 64.3 148.6 65.8 148.2 C 66.0 146.9 65.3 146.5 63.8 146.8 M 113.4 153.1 L 114.6 153.3 C 115.4 150.7 117.2 148.5 117.5 145.7 C 115.4 147.7 113.1 149.9 113.4 153.1 M 174.2 148.9 C 175.8 149.2 178.6 147.8 178.3 145.9 C 176.6 145.5 174.6 147.4 174.2 148.9 M 191.9 145.9 C 193.3 147.7 195.6 148.3 197.7 148.9 C 197.9 148.5 198.5 147.8 198.8 147.4 C 196.5 146.8 194.2 146.3 191.9 145.9 M 211.7 146.3 C 210.3 147.5 212.7 148.4 213.6 147.4 C 215.1 146.2 212.5 145.1 211.7 146.3 M 215.9 148.9 C 217.3 149.1 217.9 148.5 217.8 147.1 C 216.4 147.0 215.7 147.6 215.9 148.9 M 218.5 150.5 C 220.5 151.1 222.5 151.8 224.5 152.2 C 225.1 151.6 226.1 150.4 226.7 149.8 C 224.5 149.2 222.3 148.4 220.2 147.6 C 219.6 148.6 219.0 149.5 218.5 150.5 M 149.8 149.9 C 149.8 152.6 148.7 155.3 149.5 158.1 C 148.4 160.3 148.8 162.8 148.8 165.1 C 148.5 166.0 147.9 167.8 147.7 168.7 C 149.9 168.5 150.4 166.8 150.4 164.9 C 152.1 163.6 153.1 161.5 153.4 159.4 C 152.8 159.2 151.4 158.8 150.7 158.6 C 152.4 158.5 154.0 158.2 155.3 157.1 C 155.1 157.7 154.6 158.9 154.3 159.5 C 156.6 160.3 158.8 160.1 159.6 157.5 C 158.3 156.3 156.7 155.8 155.1 155.3 C 155.6 154.0 156.3 152.7 156.8 151.3 C 154.8 150.9 152.9 150.2 151.3 148.9 C 151.0 149.1 150.2 149.6 149.8 149.9 M 164.5 150.6 C 165.5 152.1 167.4 149.9 166.3 148.8 C 165.1 147.4 163.5 149.4 164.5 150.6 M 178.9 149.5 C 177.7 150.9 180.2 152.2 181.1 151.0 C 182.2 149.6 179.8 148.1 178.9 149.5 M 183.4 153.0 C 185.7 153.0 188.0 153.0 190.3 153.0 C 191.6 151.7 193.2 151.0 195.0 150.7 L 195.0 150.0 C 194.1 150.0 193.3 149.9 192.4 149.9 C 191.6 150.4 190.7 150.9 189.9 151.4 C 190.4 150.7 191.4 149.4 191.9 148.7 C 188.6 148.7 185.7 150.8 183.4 153.0 M 140.0 156.5 C 140.2 157.1 140.7 158.5 141.0 159.2 C 141.8 157.9 142.7 156.7 143.4 155.4 C 144.3 153.0 145.1 150.6 145.8 148.1 C 143.1 150.3 142.7 154.3 140.0 156.5 M 146.6 152.6 C 145.1 156.4 143.8 160.2 142.9 164.2 C 143.1 164.8 143.5 165.9 143.8 166.5 C 144.6 166.4 146.3 166.3 147.1 166.2 C 147.0 165.3 146.8 163.4 146.7 162.4 C 147.3 161.1 147.7 159.7 148.3 158.3 C 148.0 158.0 147.4 157.4 147.2 157.1 C 148.6 154.4 149.3 151.4 149.5 148.4 C 148.3 149.6 147.3 151.0 146.6 152.6 M 202.7 150.7 C 204.7 151.4 206.8 153.5 208.7 151.6 C 206.8 151.1 204.8 149.6 202.7 150.7 M 136.1 155.4 C 135.9 156.1 135.7 156.8 135.5 157.4 C 133.7 158.4 133.0 160.4 132.2 162.2 C 135.8 158.8 138.7 154.5 140.3 149.8 C 138.3 151.2 137.5 153.6 136.1 155.4 M 105.1 153.2 C 105.5 155.8 104.0 157.7 102.4 159.4 C 103.1 159.3 104.4 159.1 105.0 159.0 C 105.6 157.7 106.2 156.6 107.0 155.5 C 107.0 154.2 107.0 152.9 107.0 151.6 C 106.5 152.0 105.6 152.8 105.1 153.2 M 252.9 151.3 C 255.7 152.9 258.6 154.2 261.3 155.9 C 263.2 155.8 264.9 156.4 266.1 157.8 C 271.9 158.9 276.4 163.3 282.5 163.9 L 277.7 160.8 C 269.6 157.4 261.6 152.9 252.9 151.3 M 93.6 153.2 C 93.2 153.5 92.5 154.2 92.2 154.5 C 92.8 157.9 97.3 152.2 93.6 153.2 M 195.7 153.0 C 195.1 153.4 193.7 154.1 193.0 154.4 C 193.0 154.8 193.0 155.6 193.0 156.0 C 196.8 157.0 200.7 156.0 204.0 154.2 C 203.2 151.9 200.8 153.5 199.2 153.7 L 199.6 151.8 C 199.0 152.3 197.7 153.3 197.0 153.9 C 196.7 153.6 196.1 153.2 195.7 153.0 M 110.1 157.7 C 111.7 157.8 111.4 155.2 110.8 154.3 C 109.5 154.3 109.4 156.8 110.1 157.7 M 214.2 154.2 C 214.1 154.5 214.0 155.3 213.9 155.7 C 214.9 156.3 215.9 156.3 216.9 155.8 C 217.2 154.5 215.2 154.0 214.2 154.2 M 235.4 154.1 C 234.2 154.3 232.8 156.6 234.7 157.0 C 236.8 157.3 238.5 153.0 235.4 154.1 M 162.2 155.1 C 162.6 158.6 165.2 153.5 162.2 155.1 M 163.8 155.4 C 164.7 156.6 165.6 157.7 166.6 158.8 C 166.0 158.8 164.8 158.9 164.2 158.9 L 164.7 157.8 C 163.1 157.7 161.6 157.4 160.1 157.1 C 159.2 159.5 158.9 162.5 162.3 162.8 C 161.4 162.8 159.7 162.7 158.9 162.7 C 158.6 164.6 158.5 166.5 158.3 168.3 C 158.7 168.6 159.5 169.1 159.9 169.4 C 159.0 170.3 158.2 171.1 157.3 172.0 C 161.6 174.7 166.2 176.8 170.5 179.4 C 172.1 180.3 173.8 181.1 175.4 181.9 C 176.8 182.6 178.1 183.3 179.4 184.0 C 182.2 185.3 185.0 186.7 187.6 188.3 C 189.0 188.8 190.4 189.3 191.8 189.7 L 191.6 190.1 C 193.0 190.5 194.3 191.1 195.5 192.0 C 196.8 192.7 198.2 193.4 199.4 194.1 C 201.2 195.0 203.0 195.9 204.8 196.7 C 205.2 197.1 205.9 197.8 206.3 198.2 C 207.9 198.8 209.6 199.4 211.3 200.0 C 213.1 201.0 214.8 202.0 216.5 203.2 C 211.8 201.6 207.5 199.1 202.9 197.3 C 201.5 195.7 199.3 195.2 197.4 194.5 C 195.7 193.5 193.8 192.8 192.2 191.7 C 191.7 191.6 190.8 191.5 190.3 191.4 C 189.9 191.1 189.1 190.3 188.7 189.9 C 187.3 189.4 185.9 188.7 184.4 188.1 C 179.4 185.6 174.5 183.0 169.5 180.6 C 165.8 179.1 162.2 177.3 158.7 175.6 C 158.6 176.2 158.4 177.5 158.3 178.1 L 160.7 178.9 C 159.4 179.3 158.0 179.6 156.6 180.0 C 156.1 178.8 155.6 177.6 155.1 176.5 C 154.4 176.6 152.9 176.8 152.2 176.9 L 152.9 175.9 C 150.7 176.1 149.3 174.5 147.8 173.4 C 146.9 174.9 146.1 176.5 145.6 178.1 C 147.9 178.7 150.2 179.5 152.1 180.9 C 151.9 181.1 151.4 181.6 151.2 181.9 C 149.5 180.6 148.0 178.6 145.5 179.5 C 148.0 182.5 151.8 183.6 155.2 185.2 C 155.3 184.6 155.5 183.2 155.6 182.5 C 154.5 182.6 152.4 182.7 151.3 182.8 C 153.1 182.1 154.9 181.6 156.8 181.2 C 156.7 181.7 156.5 182.7 156.4 183.2 C 157.5 183.6 158.5 184.1 159.5 184.6 C 158.6 184.6 156.8 184.7 155.8 184.7 C 157.1 186.8 159.5 187.2 161.5 188.3 C 164.5 189.7 167.3 191.7 170.5 192.6 C 173.6 194.8 177.3 195.8 180.6 197.6 C 181.9 198.3 183.3 199.1 184.7 199.8 L 184.8 199.9 C 187.9 200.7 190.2 203.8 193.6 203.6 C 195.0 205.1 196.7 206.2 198.5 207.2 C 200.0 207.2 201.3 207.9 202.2 209.1 C 204.3 209.7 207.1 210.0 208.0 212.4 C 209.9 212.5 212.7 211.9 212.8 214.7 C 213.6 214.6 215.1 214.5 215.9 214.4 C 215.7 214.9 215.2 216.1 215.0 216.6 C 217.0 216.5 218.9 216.5 220.8 216.4 L 220.2 217.9 C 220.9 217.7 222.2 217.2 222.9 216.9 L 222.1 218.2 C 225.1 218.5 227.8 220.1 230.6 221.1 C 228.3 221.1 226.4 220.0 224.4 219.1 L 224.4 221.1 C 226.1 221.9 227.7 222.8 229.2 223.8 C 230.7 224.3 232.2 225.0 233.5 225.9 C 234.5 226.2 235.6 226.4 236.7 226.6 C 237.1 227.0 237.8 227.7 238.2 228.0 C 242.2 228.8 245.7 230.7 249.3 232.4 C 250.3 231.5 251.4 230.6 252.5 229.7 L 252.4 231.2 C 254.8 231.3 256.8 232.8 258.7 234.2 C 259.2 233.1 259.7 232.0 260.2 230.9 C 261.3 231.1 262.4 231.3 263.5 231.4 C 265.7 228.6 267.4 225.5 268.9 222.4 C 269.0 221.8 269.0 220.6 269.0 220.0 C 269.4 219.6 270.0 218.8 270.3 218.4 C 267.9 216.3 265.7 213.9 263.1 212.0 C 259.5 207.7 256.5 203.1 253.3 198.6 C 248.8 193.9 246.4 187.2 247.2 180.8 C 244.6 180.2 242.0 179.5 239.6 178.2 C 237.7 177.8 235.9 177.1 234.1 176.4 C 232.3 176.8 230.6 177.2 228.8 177.6 C 225.0 178.1 221.7 175.6 218.1 175.2 C 214.9 174.9 212.5 172.5 209.5 171.6 C 207.2 167.8 202.6 167.7 199.5 165.0 C 197.2 164.8 195.0 165.1 192.8 165.6 C 195.4 167.0 198.1 168.1 200.4 169.9 C 201.4 170.2 202.4 170.4 203.4 170.7 C 205.6 172.2 208.1 173.3 210.5 174.5 C 214.6 176.0 218.4 178.1 222.4 179.8 C 225.3 180.7 228.1 182.0 231.0 183.1 C 233.8 183.3 236.6 183.3 239.3 183.6 C 239.1 184.2 238.7 185.3 238.5 185.9 C 231.2 185.1 224.1 182.9 217.5 179.8 C 210.5 176.4 203.2 173.7 196.4 169.7 C 185.6 164.9 174.9 159.6 163.8 155.4 M 206.8 159.0 C 208.6 159.4 211.4 158.6 212.3 157.1 C 210.6 156.2 207.6 157.6 206.8 159.0 M 239.5 158.5 C 241.1 159.0 242.7 159.6 244.2 160.3 C 245.6 159.6 247.2 158.9 248.6 158.3 C 245.8 156.5 242.1 155.9 239.5 158.5 M 109.6 159.3 C 107.9 160.6 109.5 163.3 111.1 161.1 C 113.2 160.0 111.0 157.0 109.6 159.3 M 133.9 163.6 C 134.7 163.6 136.3 163.5 137.1 163.4 C 137.8 161.8 138.3 160.1 138.2 158.3 C 136.5 159.9 135.2 161.7 133.9 163.6 M 104.0 161.3 C 104.1 162.9 107.1 163.1 107.1 161.3 C 107.2 159.3 104.2 159.7 104.0 161.3 M 153.9 160.6 C 153.1 162.6 152.5 164.5 151.7 166.5 C 150.8 168.9 149.9 171.3 148.5 173.4 L 150.5 173.7 C 150.5 172.5 149.5 169.2 152.0 170.1 C 153.8 170.4 155.4 171.4 157.2 171.8 C 157.3 170.9 157.6 169.1 157.7 168.2 L 156.7 168.6 C 155.3 167.8 153.8 167.1 152.4 166.2 C 154.1 166.8 155.7 167.3 157.4 167.8 C 158.0 165.4 158.3 163.0 158.4 160.5 C 156.9 160.5 155.4 160.6 153.9 160.6 M 112.5 162.2 C 111.0 163.2 109.5 164.0 108.0 164.9 C 110.3 165.1 112.7 166.6 114.9 165.4 C 115.1 164.4 115.4 162.5 115.6 161.6 C 114.8 161.7 113.3 162.0 112.5 162.2 M 218.3 162.1 L 218.3 162.8 L 219.0 162.8 L 219.0 162.1 L 218.3 162.1 M 233.2 162.1 L 233.1 162.9 C 233.4 162.9 234.2 163.1 234.5 163.2 L 234.6 162.4 C 234.3 162.3 233.5 162.2 233.2 162.1 M 253.1 163.1 C 259.5 165.2 265.1 169.1 271.3 171.8 C 270.6 172.5 270.0 173.3 269.3 174.1 C 268.1 173.5 266.9 172.8 265.7 172.2 C 262.2 171.2 259.2 169.2 255.8 168.0 C 257.5 171.0 261.0 171.6 263.8 173.1 C 259.7 175.4 255.2 172.9 251.8 170.5 C 251.4 170.9 250.5 171.6 250.1 172.0 C 254.5 173.6 259.0 175.7 263.8 176.1 C 268.3 175.5 272.4 178.1 276.4 179.9 C 278.9 179.2 281.3 178.5 283.7 178.0 C 286.0 180.9 290.0 181.2 293.2 182.3 C 291.7 180.9 290.1 179.7 288.6 178.3 C 284.0 176.2 280.9 171.8 276.2 169.8 C 269.4 167.1 262.9 163.7 256.0 161.4 C 255.3 161.8 253.8 162.7 253.1 163.1 M 115.4 165.6 C 116.6 166.9 118.0 167.9 119.3 169.0 C 120.0 169.0 121.4 169.0 122.2 169.0 C 123.1 166.8 122.9 164.4 122.8 162.1 C 120.3 163.2 118.1 164.8 115.4 165.6 M 281.3 162.8 C 281.5 163.2 281.8 163.9 281.9 164.2 L 282.7 163.9 L 282.8 163.1 C 282.4 163.0 281.7 162.9 281.3 162.8 M 133.9 164.4 L 133.9 165.2 C 134.3 165.2 135.0 165.2 135.4 165.3 L 135.4 164.4 C 135.0 164.4 134.3 164.4 133.9 164.4 M 230.2 164.2 L 230.2 164.8 L 230.9 164.8 L 230.9 164.2 L 230.2 164.2 M 92.1 164.5 C 94.9 166.3 97.8 167.9 100.6 169.6 C 101.1 169.0 102.1 167.7 102.6 167.1 C 99.2 165.8 95.9 164.0 92.1 164.5 M 132.0 167.0 C 131.4 168.6 131.0 170.3 130.8 172.0 C 132.4 172.5 133.8 173.5 135.1 174.6 C 135.6 174.1 136.6 173.2 137.1 172.7 C 137.3 170.9 137.5 168.7 135.3 168.1 L 135.7 167.7 C 134.5 167.5 133.3 167.3 132.0 167.0 M 230.0 169.3 C 232.0 169.9 233.9 170.9 235.9 171.1 C 236.9 170.1 237.7 169.0 238.6 167.9 C 235.7 168.3 232.1 166.9 230.0 169.3 M 128.1 169.3 C 128.0 169.7 128.0 170.5 128.0 170.8 L 128.8 170.8 C 128.8 170.4 128.8 169.6 128.9 169.3 L 128.1 169.3 M 109.0 170.3 C 109.2 173.6 112.1 168.8 109.0 170.3 M 241.2 169.9 C 240.6 170.8 240.0 171.7 239.5 172.6 C 241.5 173.0 243.4 173.4 245.3 173.9 C 246.7 171.8 242.4 171.3 241.2 169.9 M 141.0 173.4 C 141.0 174.2 141.0 175.9 141.0 176.8 C 142.5 176.5 144.1 176.2 145.0 174.7 C 145.4 173.0 143.9 172.0 143.0 170.9 C 142.5 171.5 141.5 172.8 141.0 173.4 M 151.4 173.0 L 151.3 173.7 L 152.0 173.7 L 152.0 173.0 L 151.4 173.0 M 236.1 174.4 C 236.6 174.6 237.6 175.0 238.1 175.2 C 239.4 173.9 236.3 172.8 236.1 174.4 M 122.4 173.6 C 121.7 174.5 121.0 175.5 120.4 176.5 C 122.0 177.6 123.6 178.7 125.3 179.7 C 125.2 178.1 125.1 176.5 125.0 174.9 C 124.1 174.4 123.2 174.0 122.4 173.6 M 153.3 173.9 C 152.5 175.4 154.9 176.5 156.0 175.6 C 156.8 174.3 154.3 173.1 153.3 173.9 M 246.8 173.3 C 246.4 174.3 245.9 175.2 245.4 176.1 C 244.0 175.9 241.3 175.6 239.9 175.5 C 242.2 177.3 244.9 178.2 247.8 178.3 C 248.0 176.7 248.3 175.1 248.7 173.6 L 246.8 173.3 M 126.6 175.4 C 126.7 177.2 126.8 179.0 126.9 180.8 C 129.5 180.4 129.0 178.1 129.1 176.2 C 128.5 176.0 127.3 175.6 126.6 175.4 M 131.3 177.0 C 131.6 179.3 132.5 181.5 133.5 183.6 C 134.0 182.0 134.6 180.4 135.0 178.9 C 133.8 178.2 132.6 177.6 131.3 177.0 M 265.9 179.1 C 266.1 182.4 268.9 177.6 265.9 179.1 M 136.0 184.1 C 137.8 184.4 138.7 181.4 137.8 180.1 C 136.0 179.8 135.3 182.8 136.0 184.1 M 251.1 180.4 L 250.8 181.2 C 251.5 183.8 253.4 179.6 251.1 180.4 M 120.7 180.6 C 120.2 182.1 121.9 184.1 123.4 184.3 C 123.9 182.8 122.3 180.5 120.7 180.6 M 124.4 185.5 C 124.7 185.5 125.4 185.4 125.7 185.3 C 125.7 185.7 125.7 186.6 125.8 187.0 L 127.1 187.0 C 127.3 184.7 126.8 182.6 126.0 180.5 C 124.5 181.8 124.4 183.7 124.4 185.5 M 129.0 185.5 C 129.4 186.2 130.3 187.7 130.7 188.5 C 133.9 187.4 131.5 184.9 130.8 182.9 C 130.2 183.8 129.6 184.6 129.0 185.5 M 139.9 193.1 L 140.9 192.9 C 141.7 189.4 142.6 185.9 142.1 182.3 C 138.2 184.4 140.2 189.5 139.9 193.1 M 144.9 183.7 C 143.6 186.4 146.8 187.9 147.9 190.0 C 149.4 191.4 150.9 192.7 152.4 194.0 C 153.2 192.0 155.1 189.7 154.0 187.4 C 150.9 186.3 148.1 184.4 144.9 183.7 M 136.2 187.3 C 135.3 188.5 135.6 189.2 136.9 189.6 C 137.8 188.5 137.5 187.7 136.2 187.3 M 255.7 187.4 C 257.6 190.4 260.3 192.9 262.7 195.5 C 262.4 193.1 262.2 190.7 261.7 188.4 C 259.7 187.9 257.7 187.7 255.7 187.4 M 142.7 193.8 C 145.0 194.8 147.1 195.9 149.4 196.9 C 150.7 197.6 151.6 196.4 152.4 195.6 C 151.2 194.7 150.0 193.9 149.0 192.9 C 146.4 191.9 144.6 190.1 144.9 187.1 C 144.4 189.4 143.5 191.5 142.7 193.8 M 268.2 188.7 C 267.8 190.7 267.5 192.6 267.1 194.6 C 267.6 195.8 268.2 197.1 268.7 198.4 C 269.3 194.7 269.8 190.9 271.2 187.3 C 270.2 187.8 269.2 188.3 268.2 188.7 M 156.0 188.8 C 155.2 190.9 152.3 193.3 154.9 195.2 C 154.5 195.6 153.9 196.3 153.5 196.7 C 161.1 203.9 171.5 206.8 180.4 211.8 C 189.1 214.9 197.1 219.3 205.8 222.2 C 213.5 225.7 221.5 228.3 229.1 232.0 C 233.9 233.4 238.4 235.6 243.1 237.2 C 242.3 237.6 241.5 238.1 240.8 238.5 C 239.6 238.2 238.5 237.9 237.4 237.6 C 237.5 238.3 238.3 239.7 237.0 239.9 C 236.5 239.9 235.5 239.7 235.0 239.7 C 234.4 240.6 233.9 241.5 233.3 242.4 L 233.5 240.1 C 233.0 240.3 231.9 240.7 231.3 240.9 L 231.7 239.1 C 231.1 239.4 229.8 239.9 229.1 240.1 L 229.9 238.3 C 228.9 238.4 227.0 238.5 226.1 238.6 L 226.8 237.1 C 226.2 237.3 225.0 237.8 224.4 238.0 L 224.6 236.2 C 224.0 236.4 222.7 236.9 222.1 237.1 L 222.8 235.8 C 221.2 235.8 219.8 235.2 219.0 233.8 C 218.5 233.8 217.3 233.7 216.8 233.7 C 215.0 232.6 213.1 231.9 211.1 231.4 L 211.3 231.0 C 208.3 229.9 205.4 228.5 202.4 227.5 C 201.9 227.2 200.9 226.7 200.5 226.4 C 198.3 225.1 195.9 224.3 193.5 223.6 C 192.5 223.2 191.5 222.7 190.4 222.3 C 189.3 221.5 188.1 220.7 186.6 220.4 C 185.0 220.0 183.1 219.8 182.5 217.8 C 182.3 218.0 181.8 218.4 181.6 218.6 C 180.2 217.9 178.9 217.2 177.5 216.5 C 173.0 214.1 168.2 212.2 163.4 210.3 C 161.0 209.4 158.7 207.7 156.0 207.8 C 156.3 208.3 156.9 209.2 157.2 209.7 C 165.4 213.1 173.6 216.7 181.4 220.8 C 184.2 221.8 186.9 223.0 189.4 224.8 C 191.1 225.2 192.7 225.9 194.4 226.7 C 194.9 227.0 195.9 227.5 196.4 227.8 C 211.5 233.8 225.6 241.9 240.3 248.8 C 244.2 250.6 248.1 252.6 252.3 253.6 C 254.0 255.1 256.1 255.7 258.4 255.3 C 260.4 256.1 262.1 257.2 263.5 258.9 C 263.4 257.4 263.2 256.0 263.0 254.5 C 261.2 252.4 260.2 249.8 259.4 247.2 C 258.9 247.2 257.8 247.2 257.3 247.2 C 251.3 245.3 245.0 244.2 239.4 241.3 C 239.3 240.7 239.3 240.1 239.4 239.5 C 243.5 240.5 247.3 243.4 251.7 242.3 C 248.9 240.3 245.3 240.1 242.1 239.0 C 242.7 238.4 243.3 237.7 243.9 237.1 C 245.2 237.4 247.8 237.9 249.2 238.2 C 247.6 236.3 245.3 235.4 243.5 233.9 C 245.6 234.6 247.6 235.7 249.6 236.5 C 250.9 237.1 252.1 237.7 253.3 238.4 C 252.3 239.1 251.3 239.9 250.3 240.6 C 250.8 241.0 251.6 241.7 252.0 242.1 C 254.2 242.9 256.4 243.7 258.6 244.6 C 257.9 241.9 257.3 239.2 256.5 236.5 C 243.8 233.0 232.2 226.6 220.2 221.3 L 220.5 220.9 C 218.2 220.1 215.5 219.9 213.9 217.8 C 212.4 217.6 210.9 217.3 209.9 216.1 C 209.1 215.7 208.3 215.2 207.4 214.8 C 205.8 213.7 204.2 212.5 202.2 212.3 L 202.2 212.0 C 199.6 211.0 197.2 209.5 194.7 208.2 C 188.4 205.7 182.9 201.6 176.4 199.4 C 169.9 195.4 162.8 192.3 156.0 188.8 M 252.1 189.4 L 251.8 190.2 C 252.3 193.0 254.5 188.7 252.1 189.4 M 296.1 194.6 C 297.3 194.3 297.6 193.5 296.9 192.0 C 295.7 192.3 295.5 193.2 296.1 194.6 M 134.9 198.0 C 135.3 201.4 137.6 204.3 139.3 207.2 C 139.1 204.2 138.3 201.2 137.5 198.4 C 137.2 198.2 136.7 197.8 136.4 197.6 L 134.9 198.0 M 142.0 198.2 C 142.2 201.5 145.0 196.7 142.0 198.2 M 142.1 201.3 C 141.2 202.7 143.5 204.1 144.6 203.1 C 145.3 201.8 143.1 200.3 142.1 201.3 M 273.3 208.1 C 273.6 207.8 274.0 207.5 274.3 207.2 C 274.3 206.2 274.2 204.1 274.1 203.1 C 272.2 203.1 270.3 202.9 269.0 201.3 C 268.0 204.6 271.7 205.9 273.3 208.1 M 148.7 206.4 C 150.6 207.0 152.7 207.9 154.6 206.7 C 153.3 205.9 152.0 205.2 150.6 204.5 C 149.9 205.1 149.3 205.7 148.7 206.4 M 275.4 209.8 C 276.9 210.7 277.8 208.4 276.9 207.4 C 275.4 206.0 274.5 208.8 275.4 209.8 M 145.0 211.0 C 146.3 211.5 147.6 211.6 148.8 211.1 C 149.6 209.3 143.8 209.5 145.0 211.0 M 279.9 210.7 C 279.5 210.5 278.8 210.1 278.4 209.9 C 275.6 211.6 281.5 214.3 279.9 210.7 M 150.5 212.0 C 149.6 214.2 152.0 214.3 153.4 214.9 C 154.0 215.0 155.1 215.2 155.7 215.2 C 164.8 219.5 174.3 222.9 183.7 226.7 C 182.9 225.9 182.1 225.3 181.1 224.8 C 172.0 220.0 162.8 215.5 153.1 212.0 C 152.5 212.0 151.1 212.0 150.5 212.0 M 147.6 214.9 C 147.8 218.1 150.7 213.3 147.6 214.9 M 219.2 218.1 L 219.2 218.8 L 219.8 218.8 L 219.9 218.2 L 219.2 218.1 M 282.2 223.4 C 281.5 227.7 281.3 232.1 279.9 236.1 C 280.4 236.1 281.3 236.0 281.8 236.0 C 283.9 232.2 282.7 227.7 283.0 223.6 L 282.2 223.4 M 251.1 232.1 L 251.2 232.8 C 251.6 232.8 252.3 232.8 252.7 232.9 L 252.5 231.9 L 251.6 231.5 L 251.1 232.1 M 299.3 234.1 C 298.9 235.7 298.7 237.6 299.1 239.2 C 300.6 238.7 300.6 234.5 299.3 234.1 M 276.1 236.2 C 274.6 239.4 279.3 236.5 276.1 236.2 M 279.7 249.5 C 281.9 246.0 282.3 241.7 282.0 237.7 C 279.3 241.1 280.1 245.5 279.7 249.5 M 275.2 242.8 C 276.4 242.4 276.6 241.5 275.8 240.2 C 274.6 240.6 274.4 241.4 275.2 242.8 M 294.1 242.8 C 295.4 242.9 296.1 242.2 296.1 240.8 C 294.7 240.7 294.1 241.4 294.1 242.8 M 297.9 244.3 C 300.1 245.1 302.5 245.9 304.9 246.2 C 304.7 245.7 304.2 244.7 304.0 244.1 C 302.1 243.8 298.9 241.6 297.9 244.3 M 305.0 245.4 C 307.3 245.4 309.6 245.5 311.9 245.2 C 310.5 242.4 305.7 241.7 305.0 245.4 M 264.6 246.3 C 265.6 248.9 266.8 251.5 267.7 254.2 C 267.9 251.0 268.0 247.8 268.0 244.7 C 266.7 244.9 265.6 245.5 264.6 246.3 M 278.8 255.1 C 280.1 254.9 280.5 254.2 279.8 252.8 C 278.5 253.0 278.1 253.8 278.8 255.1 M 239.7 252.1 L 239.7 253.5 C 244.4 255.9 248.7 259.1 253.1 262.0 C 253.2 260.9 253.3 258.7 253.4 257.7 C 250.3 256.7 247.3 255.5 244.5 254.0 C 243.9 254.0 242.6 254.0 242.0 254.0 C 241.4 253.5 240.2 252.6 239.7 252.1 M 230.9 260.8 C 227.1 257.8 222.9 255.1 218.2 254.0 C 221.7 257.3 226.7 258.6 230.9 260.8 M 275.0 263.3 C 275.9 266.2 277.7 268.7 279.6 270.9 C 280.1 269.5 280.5 268.0 280.9 266.5 C 281.0 263.9 281.2 261.2 281.4 258.6 C 279.3 260.3 280.9 266.7 277.2 265.9 C 276.7 262.1 277.2 258.3 276.9 254.5 C 275.8 257.3 275.2 260.3 275.0 263.3 M 253.6 258.5 C 257.5 261.9 263.2 262.0 266.8 265.9 C 266.6 265.0 266.3 263.3 266.1 262.4 C 261.8 261.3 258.1 258.6 253.6 258.5 M 221.1 260.0 L 221.1 260.7 L 221.7 260.7 L 221.8 260.0 L 221.1 260.0 M 290.4 259.8 C 290.0 261.4 290.6 262.0 292.2 261.7 C 292.6 260.0 292.0 259.4 290.4 259.8 M 226.0 261.8 C 224.3 264.8 229.4 262.1 226.0 261.8 M 233.4 261.6 C 233.3 263.0 233.9 263.5 235.3 263.2 C 235.5 261.8 234.8 261.3 233.4 261.6 M 285.9 268.7 C 287.4 267.9 289.9 267.2 288.5 265.1 C 289.3 263.4 288.5 261.5 286.9 260.6 C 286.2 263.2 286.0 266.0 285.9 268.7 M 228.7 263.4 C 229.7 266.2 234.6 264.7 233.7 268.3 C 235.4 268.2 237.1 268.6 238.6 269.4 C 238.6 269.9 238.6 271.0 238.6 271.5 C 239.2 271.4 240.3 271.2 240.9 271.1 L 240.4 272.9 C 242.5 273.1 243.0 271.3 243.9 270.0 C 241.3 269.1 238.8 268.1 236.3 267.3 L 236.4 266.6 C 235.9 266.6 234.9 266.6 234.4 266.6 C 233.1 265.8 231.8 265.0 230.5 264.3 C 230.1 264.0 229.2 263.6 228.7 263.4 M 295.2 264.2 C 295.5 267.4 298.3 262.5 295.2 264.2 M 258.8 265.2 L 258.7 266.0 C 259.1 266.0 259.9 266.2 260.3 266.2 L 260.3 265.4 C 259.9 265.4 259.2 265.3 258.8 265.2 M 267.1 266.5 C 269.9 270.1 273.8 272.7 276.7 276.3 C 276.5 271.4 272.1 266.4 267.1 266.5 M 304.2 267.1 C 305.4 270.1 308.3 270.4 311.2 270.7 C 309.2 268.8 307.5 265.3 304.2 267.1 M 283.4 272.1 C 283.0 273.5 283.5 274.0 285.0 273.6 C 285.4 272.3 284.9 271.8 283.4 272.1 M 292.9 280.0 C 292.6 281.7 293.2 282.2 294.8 281.7 C 295.2 280.1 294.6 279.5 292.9 280.0 M 341.7 310.7 C 341.0 312.1 343.2 313.5 344.5 313.5 C 345.2 312.1 342.9 310.7 341.7 310.7 M 369.3 320.6 C 370.9 321.7 372.7 322.7 374.4 323.8 C 379.4 325.7 384.1 328.7 389.6 328.7 C 383.5 324.7 376.8 320.5 369.3 320.6 M 361.4 328.2 C 364.4 331.2 367.4 334.9 371.8 336.0 C 370.9 334.0 369.5 332.4 367.7 331.2 C 365.6 330.1 363.6 328.9 361.4 328.2 M 378.0 329.3 C 382.1 332.6 386.8 334.8 391.1 337.9 C 392.6 339.1 394.4 340.1 396.4 340.5 C 396.3 340.0 396.1 338.9 396.0 338.4 C 391.7 336.3 387.4 334.3 383.6 331.2 C 382.2 330.7 379.4 329.8 378.0 329.3 M 378.7 340.9 C 378.9 344.3 381.7 339.5 378.7 340.9 M 468.6 345.2 C 468.9 346.9 472.0 347.4 473.5 347.2 C 473.4 345.4 470.1 344.7 468.6 345.2 M 413.4 347.3 C 413.1 347.6 412.5 348.3 412.1 348.6 C 414.6 349.8 417.2 350.8 419.5 352.3 C 422.7 354.1 426.3 355.8 430.1 355.0 C 427.2 352.8 423.4 352.4 420.6 350.2 C 418.5 349.5 416.4 348.7 414.2 348.3 C 414.0 348.0 413.6 347.5 413.4 347.3 M 396.6 347.5 C 396.3 348.9 398.3 350.0 399.6 349.7 C 399.5 348.5 397.8 347.3 396.6 347.5 M 484.6 348.0 C 487.8 349.6 491.1 351.2 494.3 352.8 C 499.2 353.9 503.4 356.7 507.9 358.6 C 507.7 358.1 507.1 356.9 506.9 356.3 C 499.9 352.5 492.3 349.5 484.6 348.0 M 457.3 349.3 C 457.7 352.7 460.3 347.6 457.3 349.3 M 475.6 349.5 C 477.5 351.2 480.2 351.6 482.4 352.7 C 486.4 351.9 488.8 356.8 493.1 355.6 C 489.0 352.7 484.1 351.5 479.7 349.2 C 478.3 348.3 476.7 348.2 475.6 349.5 M 435.2 350.8 C 438.2 352.1 441.4 353.2 444.4 354.7 C 446.1 355.3 447.7 356.0 449.4 356.8 C 450.8 357.3 452.2 358.0 453.5 358.8 C 455.1 359.4 456.7 360.1 458.3 360.7 C 461.4 361.7 464.6 362.4 467.8 363.4 C 463.2 360.8 458.4 358.5 453.6 356.2 C 452.0 355.9 450.6 355.1 449.4 354.0 C 449.7 353.2 450.5 351.7 450.8 350.9 C 445.7 352.5 440.4 351.3 435.2 350.8 M 387.0 351.1 C 388.3 355.5 392.4 358.5 393.3 363.0 C 393.7 363.2 394.4 363.7 394.8 363.9 C 395.2 363.0 395.6 362.2 396.0 361.3 C 394.6 358.9 392.8 356.8 391.7 354.2 C 390.2 353.1 388.6 352.0 387.0 351.1 M 387.7 363.1 C 385.7 358.8 383.3 354.5 380.0 350.9 C 381.3 355.6 384.4 359.6 387.7 363.1 M 431.0 355.9 C 429.7 357.4 432.5 358.2 433.4 357.3 C 434.6 355.9 431.9 354.9 431.0 355.9 M 480.1 357.6 C 484.1 360.2 488.6 362.1 493.1 363.3 L 493.3 362.8 C 489.6 359.8 484.6 358.9 480.1 357.6 M 440.7 360.7 L 440.7 362.5 C 446.5 365.8 452.7 368.2 458.9 370.7 C 452.9 367.2 447.1 363.4 440.7 360.7 M 419.1 362.1 C 422.6 366.1 428.1 367.2 432.8 369.3 C 431.5 368.3 428.8 366.5 427.5 365.6 C 424.8 364.3 422.2 362.6 419.1 362.1 M 494.2 363.3 C 494.3 363.4 494.4 363.7 494.5 363.9 C 500.9 367.0 508.1 368.3 514.9 370.6 C 513.6 368.9 511.5 368.8 509.7 368.2 C 504.5 366.8 499.6 364.0 494.2 363.3 M 509.5 363.5 C 512.7 365.1 516.3 365.8 519.7 366.8 C 519.3 366.1 518.4 364.7 518.0 364.0 C 515.1 364.0 512.3 363.8 509.5 363.5 M 400.3 367.2 C 400.8 370.5 402.2 373.6 403.2 376.7 C 403.9 377.6 405.4 379.3 406.1 380.2 C 404.6 375.7 403.4 370.9 400.3 367.2 M 504.2 371.6 C 504.1 371.1 503.7 370.1 503.6 369.7 C 501.4 369.4 503.0 372.8 504.2 371.6 M 475.3 371.1 C 475.2 374.3 478.6 370.0 475.3 371.1 M 506.1 371.2 C 506.1 371.5 506.1 372.0 506.1 372.3 C 508.9 373.8 512.1 374.7 515.0 376.0 C 516.4 375.9 517.4 374.8 518.6 374.2 C 514.9 372.9 510.9 372.7 507.3 371.1 C 507.0 371.1 506.4 371.2 506.1 371.2 M 406.4 373.9 C 406.6 375.9 407.5 377.8 409.0 379.3 C 409.0 380.8 409.0 382.4 409.0 383.9 C 410.3 385.2 413.0 388.9 414.5 386.0 C 414.2 385.6 413.6 385.0 413.3 384.6 C 413.2 382.3 411.9 380.3 410.8 378.2 C 409.5 376.7 408.0 375.2 406.4 373.9 M 417.2 375.0 C 417.1 376.7 419.8 377.5 421.1 376.9 C 421.0 375.5 418.5 374.2 417.2 375.0 M 396.3 382.8 C 395.6 384.1 396.0 386.8 397.6 387.0 C 397.8 385.7 397.7 383.1 396.3 382.8 M 425.1 385.5 C 426.5 386.6 428.2 388.4 430.2 387.9 C 430.0 386.4 426.2 384.2 425.1 385.5 M 433.5 385.8 C 442.6 392.3 452.9 396.6 463.0 401.1 C 459.6 396.8 454.8 394.0 449.7 392.1 C 444.6 389.5 439.1 387.4 433.5 385.8 M 400.1 395.4 L 400.1 396.0 L 400.8 396.1 L 400.8 395.4 L 400.1 395.4 M 411.1 396.8 C 409.6 400.0 414.3 397.1 411.1 396.8 M 419.3 399.2 C 419.8 399.8 419.8 399.8 419.3 399.2 M 440.3 398.4 C 442.8 401.4 446.7 402.2 449.8 404.4 C 450.5 404.0 451.1 403.6 451.7 403.2 C 449.6 402.3 447.6 401.2 445.6 400.2 C 444.0 399.1 442.1 398.7 440.3 398.4 M 468.4 401.4 C 468.7 401.7 468.7 401.7 468.4 401.4 M 489.6 399.8 C 495.4 402.8 501.0 406.2 507.3 407.8 C 512.7 408.7 518.0 411.5 523.7 410.1 C 520.8 408.6 518.1 406.6 514.8 406.3 L 514.5 407.9 C 510.9 407.0 507.0 406.3 503.8 404.3 C 499.1 402.8 494.5 400.7 489.6 399.8 M 470.1 403.7 C 474.1 405.4 477.6 408.2 482.0 408.8 C 478.8 405.4 474.5 403.7 470.5 401.3 C 470.3 402.1 470.2 402.9 470.1 403.7 M 451.2 404.9 C 455.6 406.9 460.1 409.0 464.6 410.9 C 461.3 407.9 456.8 406.4 453.1 403.7 C 452.5 404.1 451.8 404.5 451.2 404.9 M 402.8 405.0 C 404.1 407.4 405.8 409.7 407.4 412.1 C 407.8 412.3 408.6 412.7 409.0 412.8 C 407.7 409.8 406.3 406.0 402.8 405.0 M 422.1 410.0 C 421.3 411.2 423.1 414.1 424.5 412.5 C 426.2 411.2 423.4 409.3 422.1 410.0 M 526.9 409.2 C 526.7 409.8 526.2 411.1 525.9 411.8 C 522.0 413.4 518.0 411.8 514.0 411.5 C 518.1 415.2 523.4 416.9 528.4 418.8 C 530.4 419.0 532.6 420.7 534.2 419.1 C 531.8 415.8 530.5 411.6 526.9 409.2 M 433.8 410.1 C 438.0 413.2 442.9 415.3 448.1 415.6 C 443.4 413.7 439.0 410.4 433.8 410.1 M 409.0 414.7 C 407.8 417.9 412.2 414.6 409.0 414.7 M 413.0 415.2 C 412.9 416.7 412.8 418.2 412.7 419.7 C 414.9 418.5 415.3 416.4 415.1 414.1 C 414.6 414.4 413.5 414.9 413.0 415.2 M 418.2 414.3 C 417.0 415.1 417.9 418.0 419.3 416.4 C 420.8 415.6 419.7 412.8 418.2 414.3 M 429.0 414.3 C 427.5 415.8 430.8 415.6 431.5 414.9 C 433.0 413.3 429.7 413.5 429.0 414.3 M 434.1 417.2 C 436.0 419.1 438.7 419.4 441.2 420.4 C 442.5 420.1 443.8 419.8 445.1 419.5 C 441.6 417.9 438.0 416.1 434.1 417.2 M 428.5 421.2 C 429.1 422.1 429.7 422.9 430.2 423.8 C 431.0 423.2 431.8 422.7 432.5 422.2 C 433.5 422.1 435.4 421.9 436.3 421.8 C 434.3 420.8 432.3 419.8 430.3 418.8 C 429.8 419.4 428.9 420.6 428.5 421.2 M 419.0 424.8 C 420.9 424.9 423.0 425.5 424.9 425.0 C 426.0 424.2 426.0 422.7 426.3 421.5 C 423.8 422.4 421.1 423.1 419.0 424.8 M 410.0 425.0 C 410.5 426.9 410.8 428.7 411.1 430.6 C 412.7 432.8 413.9 435.6 416.9 436.1 C 419.7 435.5 421.7 433.3 423.0 430.9 L 421.0 430.9 C 421.0 430.2 421.0 428.9 421.0 428.2 C 418.4 427.2 415.8 425.9 412.9 425.8 C 412.2 424.2 411.3 423.5 410.0 425.0 M 523.7 424.0 C 526.4 425.6 529.1 427.4 532.2 428.3 C 532.6 428.1 533.5 427.7 533.9 427.6 C 530.6 426.0 527.3 424.5 523.7 424.0 M 468.1 425.9 C 475.7 429.9 484.0 432.2 492.2 434.2 C 484.9 429.8 476.4 427.7 468.1 425.9 M 544.4 427.7 C 544.7 429.3 546.4 430.1 546.8 431.7 C 546.1 431.3 545.3 430.9 544.6 430.6 C 543.4 433.3 545.2 434.2 547.4 434.8 C 551.2 435.6 554.7 437.2 558.6 437.7 C 557.9 436.8 556.5 435.1 555.8 434.3 C 555.3 434.8 554.5 435.8 554.1 436.3 L 554.7 434.7 C 552.3 434.5 550.3 433.1 548.1 432.2 C 548.4 432.0 549.0 431.6 549.3 431.5 C 551.0 433.7 553.7 433.8 556.3 433.6 C 552.4 431.6 548.9 428.4 544.4 427.7 M 534.7 429.0 C 536.2 430.2 537.8 431.1 539.4 432.0 C 540.2 432.1 541.7 432.3 542.5 432.4 C 542.1 428.8 537.6 427.9 534.7 429.0 M 558.8 441.2 C 560.2 442.4 563.6 442.8 565.4 441.8 C 564.0 440.4 560.7 440.7 558.8 441.2 M 522.9 443.3 C 526.1 445.8 529.6 447.7 532.7 450.3 C 534.8 452.2 537.7 452.8 540.4 453.2 C 541.3 451.3 542.8 449.9 544.1 448.4 C 540.9 447.8 537.7 447.9 534.6 447.2 C 532.8 447.1 530.9 447.0 530.8 444.7 C 528.2 444.2 525.6 443.5 522.9 443.3 M 553.5 445.1 C 555.1 445.7 556.8 446.2 558.5 446.8 C 561.3 447.4 564.5 446.3 567.1 448.1 C 567.5 447.4 567.9 446.8 568.3 446.2 C 567.7 445.9 566.5 445.3 565.9 445.0 C 561.8 445.0 557.6 444.6 553.5 445.1 Z" />
<path fill="#ffffff" stroke="#ffffff" stroke-width="0.09375" opacity="1.00" d=" M 551.7 127.9 C 552.4 126.6 553.1 125.5 554.0 124.3 C 557.9 126.8 562.6 126.8 566.9 128.2 C 567.6 130.7 568.4 133.3 571.4 133.8 C 574.1 134.9 576.8 136.1 579.6 137.2 C 581.4 140.4 584.5 142.5 586.3 145.7 C 591.8 152.5 597.9 159.7 599.1 168.7 C 601.9 168.9 601.1 171.4 599.6 172.7 C 597.8 176.9 596.3 181.6 592.8 184.7 C 591.1 186.2 590.2 188.2 589.1 190.1 C 586.6 193.6 582.9 196.0 579.7 198.7 C 579.1 199.0 578.0 199.5 577.5 199.8 C 569.7 202.6 561.0 203.3 552.9 201.1 C 549.7 200.3 546.7 202.1 543.5 202.2 C 539.6 203.2 535.5 203.6 531.5 204.2 C 522.9 205.7 514.2 206.6 505.6 208.2 C 504.3 208.9 502.9 209.0 501.5 209.2 C 500.2 209.7 498.8 210.0 497.5 210.2 C 493.4 212.5 488.6 212.6 484.5 214.8 C 481.3 216.2 477.8 216.1 474.5 217.2 C 466.6 221.3 456.2 223.0 448.6 217.3 C 441.8 213.7 438.1 206.7 435.3 199.9 C 431.7 189.6 429.6 178.3 431.7 167.5 C 432.0 166.6 432.3 165.6 432.6 164.7 C 434.5 160.0 438.6 156.6 442.7 153.7 C 446.4 151.0 450.4 148.6 454.4 146.3 C 460.1 143.0 466.5 141.3 472.9 140.0 C 477.4 139.1 481.6 142.1 486.0 141.0 C 494.5 139.3 502.8 136.4 511.4 135.9 C 513.2 135.1 515.1 134.6 517.0 134.2 C 522.7 133.9 528.2 132.1 533.9 131.3 C 540.0 130.9 545.7 128.6 551.7 127.9 M 535.6 137.7 C 532.8 138.8 530.3 140.4 527.5 141.3 C 524.9 142.9 522.0 143.8 519.4 145.3 C 518.1 146.0 516.8 146.6 515.4 147.3 C 513.9 148.4 512.1 149.3 510.4 150.2 C 508.1 152.1 505.2 153.1 502.6 154.5 C 502.3 155.2 501.6 156.6 501.2 157.3 C 503.0 157.0 504.8 156.4 506.6 155.9 C 512.8 151.3 519.8 148.1 526.4 144.3 C 530.3 142.8 533.6 140.1 537.4 138.4 C 540.2 137.0 543.2 135.9 545.7 133.9 C 541.9 133.4 538.9 136.2 535.6 137.7 M 527.5 136.2 C 525.5 137.1 523.5 137.8 521.5 138.7 C 520.2 139.2 518.8 139.8 517.4 140.2 C 516.5 140.7 515.5 141.2 514.6 141.7 C 510.9 143.3 507.2 145.0 503.7 147.0 C 505.7 147.0 507.5 146.1 509.4 145.3 C 512.1 144.0 514.8 142.8 517.6 141.7 C 519.6 141.0 521.7 140.3 523.5 139.2 C 527.3 137.9 531.3 137.0 534.7 134.8 C 532.9 135.1 529.3 135.8 527.5 136.2 M 544.4 140.3 C 541.9 142.0 539.0 143.0 536.6 144.8 C 532.6 147.3 528.3 149.5 524.3 152.2 C 522.5 153.5 520.7 154.7 519.1 156.1 C 521.1 156.0 523.3 156.1 525.3 156.1 C 530.2 152.8 534.3 148.3 539.7 145.7 C 540.1 145.4 540.9 144.7 541.3 144.4 C 544.2 142.6 546.7 140.2 549.9 138.7 C 550.1 138.2 550.5 137.3 550.6 136.8 C 548.5 137.9 546.5 139.1 544.4 140.3 M 570.5 136.7 C 571.4 138.8 573.1 140.4 575.1 141.5 C 576.4 138.2 573.1 136.9 570.5 136.7 M 554.4 137.9 C 554.0 138.6 553.4 139.8 553.1 140.5 C 553.0 141.2 553.0 142.7 553.0 143.4 C 554.6 142.8 556.2 142.2 557.9 141.8 C 559.0 140.2 559.1 138.5 557.4 137.3 C 556.6 137.4 555.1 137.8 554.4 137.9 M 490.1 144.5 C 490.8 145.4 491.5 146.2 492.2 147.0 C 492.8 147.0 493.9 147.0 494.5 147.0 C 495.5 146.4 496.5 145.8 497.5 145.3 C 501.4 143.4 505.7 142.2 509.4 139.9 C 502.9 140.9 496.4 142.7 490.1 144.5 M 544.6 144.7 C 543.1 145.5 541.8 146.5 540.3 147.3 C 539.9 147.6 539.1 148.3 538.7 148.6 C 535.4 150.6 532.1 153.0 529.6 156.0 C 531.6 155.2 533.5 154.3 535.4 153.3 C 537.7 151.9 540.0 150.5 542.4 149.3 C 546.0 147.0 551.2 145.6 551.3 140.5 C 548.8 141.4 546.7 143.0 544.6 144.7 M 463.3 144.7 C 462.8 144.8 461.9 145.0 461.4 145.1 C 460.5 145.7 459.5 146.2 458.5 146.7 C 455.6 147.9 452.9 149.5 450.4 151.2 C 449.4 151.9 448.4 152.6 447.4 153.3 C 444.2 155.4 440.8 157.2 438.3 160.2 C 442.4 158.4 446.3 156.2 450.6 154.7 C 452.4 153.8 454.4 153.0 456.5 152.8 C 459.8 152.4 462.0 150.3 463.9 147.8 C 467.6 147.1 471.1 146.0 474.4 144.3 C 475.7 143.8 476.9 143.0 478.1 142.2 C 472.9 141.0 468.1 143.3 463.3 144.7 M 528.6 147.1 C 530.2 147.1 531.8 145.5 533.1 144.5 C 532.2 142.9 528.6 145.7 528.6 147.1 M 565.9 144.8 C 565.9 146.4 565.9 148.0 566.0 149.6 C 567.4 149.7 567.9 150.3 567.6 151.3 C 566.9 152.4 566.2 153.4 565.6 154.4 C 566.5 154.3 568.3 154.1 569.2 153.9 C 568.8 150.9 568.3 148.0 567.9 145.0 C 567.4 145.0 566.4 144.9 565.9 144.8 M 583.2 150.0 C 584.1 150.1 585.9 150.3 586.7 150.5 C 584.8 148.2 583.1 145.9 581.3 143.6 C 580.9 146.0 582.4 147.9 583.2 150.0 M 478.4 147.4 C 481.3 148.7 484.0 150.6 487.2 151.2 C 488.4 150.1 489.7 149.2 491.2 148.5 C 490.3 147.7 489.5 146.9 488.6 146.1 C 488.0 146.0 486.7 145.7 486.1 145.5 C 483.5 145.9 480.9 146.5 478.4 147.4 M 554.4 149.3 C 552.6 151.0 550.4 152.2 548.2 153.3 C 547.9 153.7 547.4 154.5 547.1 154.9 C 549.7 154.9 552.3 155.0 554.7 156.2 C 556.7 152.8 559.3 149.5 560.4 145.6 C 558.5 147.0 556.6 148.4 554.4 149.3 M 499.3 152.2 C 499.1 152.8 498.7 153.8 498.5 154.3 C 503.5 153.3 507.1 149.2 511.5 146.8 C 507.2 148.2 503.2 150.2 499.3 152.2 M 472.1 150.6 C 474.1 151.0 476.3 150.9 478.2 151.8 C 480.2 152.5 482.1 155.5 483.9 152.8 C 481.8 151.5 479.9 150.1 477.7 149.1 C 475.7 149.0 473.0 148.2 472.1 150.6 M 463.8 153.4 C 464.3 154.4 468.0 153.2 468.3 152.1 C 466.8 151.5 464.9 152.2 463.8 153.4 M 489.4 154.2 C 490.6 157.1 493.5 158.5 496.5 158.2 C 497.1 157.6 498.1 156.4 498.7 155.8 C 498.0 155.1 497.3 154.3 496.6 153.5 C 494.2 153.9 491.8 154.0 489.4 154.2 M 464.0 155.1 C 462.4 156.9 462.6 159.2 462.6 161.3 C 465.4 160.0 468.3 158.8 470.8 157.0 C 471.5 157.0 472.9 157.2 473.6 157.2 C 472.5 158.7 470.9 159.5 469.4 160.3 C 468.9 160.6 467.9 161.1 467.4 161.3 C 466.9 161.5 465.8 162.0 465.3 162.2 C 464.4 163.0 463.6 163.7 462.7 164.5 C 458.5 165.4 455.3 168.7 451.6 170.8 C 448.2 172.6 445.9 175.7 443.7 178.7 C 445.7 178.1 447.6 177.4 449.6 176.8 C 453.1 175.3 456.3 173.4 459.7 171.8 C 463.3 170.0 466.9 168.2 470.5 166.4 C 474.9 164.5 479.4 162.6 483.1 159.6 C 480.1 159.8 475.8 162.9 473.5 159.7 C 475.4 158.0 477.6 156.7 479.6 155.2 C 474.5 153.9 469.1 155.7 464.0 155.1 M 509.7 157.1 C 511.1 157.2 513.4 156.0 513.4 154.5 C 511.9 154.3 510.0 155.6 509.7 157.1 M 583.0 155.5 C 582.7 157.2 584.6 159.7 586.4 159.6 C 586.4 158.0 584.6 155.7 583.0 155.5 M 486.3 156.2 L 486.3 157.0 C 486.7 157.0 487.5 157.0 487.9 157.0 L 487.8 156.2 C 487.4 156.2 486.7 156.2 486.3 156.2 M 545.0 156.2 C 544.9 156.9 544.7 158.2 544.6 158.9 C 543.1 160.3 541.5 161.7 539.9 163.1 C 543.9 161.2 547.8 159.3 551.6 157.2 C 550.8 154.9 546.9 156.3 545.0 156.2 M 452.6 157.1 C 450.2 158.1 447.5 158.6 445.5 160.3 C 442.8 161.9 441.9 165.1 440.1 167.5 C 440.0 168.3 439.7 169.9 439.6 170.7 C 441.9 170.0 444.2 169.2 446.6 168.8 C 448.2 168.0 449.9 167.3 451.7 166.8 C 454.0 165.7 456.2 164.4 458.7 163.7 C 459.5 163.1 460.2 162.5 461.0 161.8 C 461.0 160.1 461.0 158.4 461.0 156.7 C 458.1 156.5 455.4 156.9 452.6 157.1 M 481.2 157.2 C 480.7 157.5 479.7 158.2 479.1 158.5 C 479.7 159.8 481.9 158.9 483.0 159.1 C 485.1 158.7 482.3 156.4 481.2 157.2 M 503.1 167.0 C 503.6 167.5 504.7 168.6 505.2 169.2 C 503.6 171.2 503.0 173.5 503.5 176.1 C 509.8 169.0 517.7 163.6 524.2 156.7 C 515.5 155.4 510.0 163.4 503.1 167.0 M 538.6 158.7 C 533.6 162.0 528.5 165.2 523.4 168.3 C 516.9 173.5 509.6 177.6 504.1 183.9 C 511.9 179.3 519.2 173.9 526.7 168.8 C 528.9 167.2 531.0 165.5 533.4 164.3 C 535.3 163.4 536.8 161.7 538.6 160.6 C 539.8 159.3 542.6 159.1 542.9 157.2 C 541.2 156.6 540.0 158.2 538.6 158.7 M 502.8 160.3 C 502.9 161.6 503.1 162.8 503.2 164.1 C 505.7 162.0 507.9 159.7 510.0 157.3 C 507.5 158.1 505.1 159.3 502.8 160.3 M 490.6 160.4 C 490.8 161.9 491.9 164.8 493.8 164.0 C 494.2 162.6 491.9 159.9 490.6 160.4 M 480.4 164.3 C 471.7 169.6 462.7 174.5 454.3 180.3 C 451.2 182.5 448.2 184.8 445.8 187.9 C 450.0 186.5 452.9 183.1 456.4 180.6 C 460.9 178.0 464.9 174.8 469.6 172.7 C 471.6 171.7 473.6 170.7 475.6 169.7 C 476.1 169.5 477.1 169.0 477.6 168.7 C 478.5 168.2 479.5 167.8 480.4 167.3 C 483.2 166.2 485.7 164.7 488.4 163.3 C 487.6 162.2 486.8 161.1 486.1 160.0 C 484.5 161.9 482.6 163.3 480.4 164.3 M 567.2 162.2 C 567.0 163.5 567.5 164.1 568.8 164.0 C 571.9 162.6 568.6 159.0 567.2 162.2 M 497.8 164.1 C 498.6 166.0 499.9 167.6 501.1 169.2 C 501.2 166.8 501.1 164.4 500.7 162.0 C 499.7 162.6 498.8 163.3 497.8 164.1 M 553.4 163.0 C 551.8 164.7 550.2 166.3 548.7 168.0 C 550.3 167.3 552.0 166.5 553.7 165.8 C 555.2 164.9 556.6 164.0 558.0 162.9 C 556.5 163.0 554.9 163.0 553.4 163.0 M 560.3 167.6 C 561.4 167.3 562.6 166.8 563.7 166.3 C 563.3 165.0 563.0 163.8 562.6 162.5 C 561.3 163.9 560.7 165.8 560.3 167.6 M 584.4 163.1 C 584.6 166.7 586.0 170.1 587.3 173.5 C 588.8 172.9 590.9 173.0 591.6 171.3 C 590.4 167.7 587.2 165.4 584.4 163.1 M 484.5 167.6 C 477.3 171.1 470.4 175.4 463.6 179.7 C 461.4 180.6 459.5 182.2 457.4 183.3 C 455.1 184.7 452.7 185.8 450.6 187.6 C 447.7 189.1 445.7 191.9 443.2 193.9 C 443.5 193.9 444.2 194.0 444.5 194.0 C 447.2 192.6 450.0 191.2 452.7 189.7 C 457.4 184.7 464.4 183.1 469.6 178.8 C 473.3 176.0 477.4 174.0 481.0 171.1 C 484.0 168.6 488.3 168.0 490.7 164.7 C 488.3 164.9 486.6 166.6 484.5 167.6 M 493.9 168.5 C 494.3 169.0 495.0 170.1 495.3 170.6 C 498.2 171.3 495.2 174.8 497.8 176.0 L 496.2 176.1 L 497.4 177.3 C 498.0 176.6 498.6 176.0 499.2 175.3 C 498.6 175.0 497.4 174.5 496.9 174.2 L 499.0 172.8 C 498.3 171.4 497.9 169.9 497.9 168.3 C 497.0 167.3 496.1 166.3 495.2 165.3 C 494.9 166.4 493.5 167.2 493.9 168.5 M 522.0 166.2 L 522.0 166.8 L 522.7 166.8 L 522.7 166.2 L 522.0 166.2 M 541.4 169.3 C 540.2 170.2 538.9 171.0 537.6 171.7 C 535.3 172.2 534.5 174.2 534.8 176.4 C 539.4 174.0 544.6 171.5 546.7 166.4 C 545.0 167.5 543.3 168.7 541.4 169.3 M 545.9 173.0 C 546.4 173.3 547.5 173.8 548.0 174.1 C 551.8 172.6 555.5 170.2 557.0 166.1 C 553.2 168.2 549.3 170.3 545.9 173.0 M 439.0 173.1 C 438.9 178.3 438.8 183.5 440.2 188.5 C 440.7 189.8 441.1 191.1 441.5 192.5 C 443.6 192.1 443.0 190.6 442.4 189.1 C 446.0 185.0 450.4 182.0 454.5 178.4 C 457.5 175.8 461.4 174.4 464.2 171.6 C 462.1 172.1 460.3 173.3 458.4 174.3 C 457.9 174.5 456.9 175.0 456.4 175.3 C 454.6 176.6 452.5 177.6 450.4 178.3 C 449.4 178.7 448.4 179.2 447.5 179.7 C 446.4 180.0 445.3 180.3 444.2 180.7 C 443.6 180.6 442.5 180.6 441.9 180.6 C 441.3 176.3 445.8 173.7 448.9 171.5 L 449.1 171.4 C 450.1 170.4 451.1 169.4 452.0 168.4 C 447.8 170.4 443.3 171.4 439.0 173.1 M 488.5 169.0 C 480.6 175.5 469.9 178.5 463.3 186.8 C 465.3 186.8 467.3 186.9 469.3 187.0 C 471.0 185.8 472.8 184.7 474.6 183.7 C 479.5 181.1 484.1 177.4 489.6 176.1 C 490.4 175.3 491.2 174.4 492.0 173.6 C 492.0 173.1 492.0 172.0 492.0 171.5 C 491.7 170.8 491.1 169.6 490.8 169.0 C 490.2 169.0 489.1 169.0 488.5 169.0 M 511.7 172.7 C 509.6 174.8 507.3 176.6 504.8 177.9 C 504.3 177.6 503.4 177.1 502.9 176.8 C 503.0 178.5 503.1 180.2 503.2 181.9 C 509.0 176.7 515.2 172.1 521.3 167.2 C 518.3 169.4 514.3 169.9 511.7 172.7 M 433.0 172.8 C 432.6 177.6 434.1 182.3 434.1 187.0 C 435.2 192.0 436.7 196.8 438.7 201.5 C 439.6 203.2 440.7 204.8 441.3 206.7 C 443.8 209.8 446.3 213.3 450.1 214.9 C 448.6 211.9 445.2 210.4 443.5 207.5 C 440.4 202.3 439.3 196.2 437.7 190.5 C 437.3 189.5 437.0 188.4 436.7 187.4 C 435.8 182.3 434.7 177.3 434.8 172.1 C 434.4 172.3 433.5 172.7 433.0 172.8 M 529.4 175.2 C 528.9 175.5 527.9 176.0 527.4 176.3 C 525.8 177.5 524.1 178.4 522.4 179.3 C 521.5 179.9 520.6 180.5 519.8 181.1 C 520.4 181.1 521.8 181.0 522.4 181.0 C 524.1 180.1 525.8 179.3 527.6 178.7 C 529.1 178.1 530.5 177.5 532.0 177.0 C 532.0 176.3 532.0 175.0 532.0 174.3 C 531.1 174.6 530.3 174.9 529.4 175.2 M 476.3 184.3 C 474.3 185.8 472.2 187.2 469.9 188.4 C 469.9 189.7 469.9 191.0 469.9 192.3 C 476.7 187.0 484.8 183.1 490.4 176.1 C 485.4 178.4 481.1 181.8 476.3 184.3 M 584.3 178.1 L 584.4 178.8 L 585.0 178.8 L 585.0 178.1 L 584.3 178.1 M 589.6 180.6 C 591.1 181.9 591.7 178.9 590.7 178.1 C 589.2 177.0 588.3 179.8 589.6 180.6 M 481.1 187.5 C 482.1 187.1 484.1 186.3 485.1 185.9 L 484.0 185.9 C 486.2 184.3 488.4 182.6 489.9 180.3 C 486.8 182.5 483.4 184.4 481.1 187.5 M 485.7 188.7 L 487.9 190.4 L 487.0 188.1 C 488.2 187.6 489.4 187.3 490.6 186.9 C 491.4 185.7 492.2 184.6 493.0 183.5 C 493.0 182.9 492.9 181.6 492.9 181.0 C 490.4 183.4 487.0 185.5 485.7 188.7 M 497.1 181.7 C 494.9 184.5 500.2 182.5 497.1 181.7 M 525.4 181.3 C 523.4 182.1 521.5 182.8 519.6 183.7 C 515.9 185.1 512.8 187.6 509.3 189.3 C 505.8 192.2 502.6 195.9 498.2 197.3 C 498.1 196.8 498.0 195.7 497.9 195.2 C 497.5 195.4 496.6 195.9 496.2 196.2 C 495.7 197.9 495.1 199.6 494.7 201.4 C 496.6 200.4 498.5 199.3 500.4 198.3 C 505.5 196.0 509.6 192.0 514.6 189.7 C 515.9 189.0 517.2 188.4 518.6 187.8 C 521.2 186.0 524.0 184.5 526.6 182.8 C 527.8 181.9 530.2 180.0 531.4 179.0 C 529.9 179.6 526.9 180.7 525.4 181.3 M 584.3 181.2 C 583.2 182.1 584.2 185.1 585.8 183.9 C 587.0 182.9 586.0 180.0 584.3 181.2 M 532.3 187.2 C 533.6 187.5 535.0 186.3 536.1 185.5 C 535.5 183.8 532.1 185.8 532.3 187.2 M 498.1 188.2 C 499.5 188.0 499.8 187.4 499.1 186.2 C 497.7 186.3 497.3 187.0 498.1 188.2 M 564.0 187.4 C 564.3 189.1 568.1 188.0 567.3 186.3 C 566.0 186.0 564.9 186.3 564.0 187.4 M 498.5 193.9 C 501.9 191.8 505.3 189.7 508.5 187.3 C 504.7 188.4 500.2 190.1 498.5 193.9 M 583.2 187.7 C 582.6 189.4 582.0 191.1 581.5 192.8 C 583.4 191.2 585.1 189.4 586.7 187.6 C 585.8 187.6 584.1 187.6 583.2 187.7 M 466.8 193.6 C 466.8 193.1 466.8 191.9 466.8 191.3 C 464.7 190.0 464.8 194.7 466.8 193.6 M 443.6 196.5 C 445.7 201.1 449.2 205.8 454.4 206.9 C 455.3 205.5 456.2 204.0 457.0 202.6 C 456.1 200.7 455.2 198.7 452.8 198.6 C 453.6 196.3 454.9 193.7 452.8 191.7 C 449.9 193.6 446.7 195.0 443.6 196.5 M 472.0 193.7 C 473.4 193.7 474.1 193.0 474.2 191.6 C 472.8 191.6 472.0 192.3 472.0 193.7 M 477.1 193.9 C 478.5 193.9 479.2 193.2 479.1 191.9 C 477.7 191.8 477.1 192.5 477.1 193.9 M 488.7 194.3 C 490.1 194.5 490.7 193.9 490.7 192.6 C 489.4 192.3 488.7 192.9 488.7 194.3 M 463.3 195.0 C 462.1 195.0 461.2 197.3 462.8 197.4 C 464.1 197.5 464.9 195.1 463.3 195.0 M 479.3 196.2 C 477.6 197.1 476.2 198.2 474.7 199.4 C 475.1 199.8 475.8 200.7 476.2 201.1 C 475.8 200.9 475.1 200.7 474.7 200.5 C 472.0 203.8 467.8 204.8 464.3 207.0 C 463.8 208.1 463.3 209.2 462.8 210.3 C 464.4 210.2 465.9 210.0 467.5 209.9 C 468.9 209.2 470.3 208.5 471.7 207.9 C 472.5 206.7 473.4 205.5 474.3 204.2 C 477.2 207.2 478.7 201.1 480.6 200.2 L 476.6 202.4 C 476.9 199.7 479.7 198.7 481.8 197.7 C 483.0 196.5 484.1 195.3 485.3 194.0 C 483.2 194.7 481.3 195.6 479.3 196.2 M 481.1 201.6 C 483.3 200.7 485.3 199.4 487.4 198.3 C 488.9 197.6 490.0 196.4 490.6 194.7 C 486.6 195.7 483.5 198.4 481.1 201.6 M 509.2 196.2 C 509.8 196.8 509.8 196.8 509.2 196.2 M 484.6 201.6 C 483.6 202.2 482.6 202.9 481.6 203.6 C 480.1 204.5 478.6 205.6 477.2 206.6 C 481.3 206.3 486.5 203.9 487.5 199.5 C 486.5 200.2 485.5 200.9 484.6 201.6 M 493.5 205.2 C 497.0 205.4 500.6 204.4 502.7 201.4 C 499.5 201.9 495.7 202.4 493.5 205.2 M 459.3 206.9 C 458.2 207.4 457.1 207.9 455.9 208.4 C 457.4 209.0 458.9 209.6 460.4 210.2 C 461.8 208.4 464.2 207.1 464.4 204.5 C 462.6 205.2 461.0 206.2 459.3 206.9 M 448.0 208.0 C 449.5 211.1 452.6 212.7 455.6 214.0 C 456.4 213.9 458.2 213.9 459.0 213.9 C 458.7 213.5 458.1 212.8 457.8 212.4 C 454.4 211.3 451.3 209.3 448.0 208.0 M 452.1 216.1 C 452.1 216.3 452.1 216.7 452.1 216.9 C 456.7 218.6 461.6 218.9 466.3 217.6 C 463.1 216.3 459.6 217.6 456.4 216.5 C 455.0 216.2 453.5 215.5 452.1 216.1 Z" />
<path fill="#ffffff" stroke="#ffffff" stroke-width="0.09375" opacity="1.00" d=" M 131.0 153.1 C 132.9 151.1 134.4 148.7 136.0 146.5 C 135.3 148.8 134.6 151.0 133.8 153.2 C 133.1 153.2 131.7 153.1 131.0 153.1 Z" />
<path fill="#ffffff" stroke="#ffffff" stroke-width="0.09375" opacity="1.00" d=" M 171.6 168.6 C 172.4 168.5 173.8 168.4 174.6 168.4 C 174.9 168.8 175.6 169.6 176.0 170.1 C 179.9 172.3 183.8 174.4 187.4 177.1 C 182.8 175.5 178.7 172.8 174.7 169.9 C 173.7 169.5 172.7 169.0 171.6 168.6 Z" />
<path fill="#ffffff" stroke="#ffffff" stroke-width="0.09375" opacity="1.00" d=" M 160.6 169.8 C 161.3 170.1 162.7 170.7 163.4 171.0 C 164.8 171.7 166.1 172.3 167.5 173.0 C 164.9 172.7 162.3 171.8 160.6 169.8 Z" />
<path fill="#ffffff" stroke="#ffffff" stroke-width="0.09375" opacity="1.00" d=" M 159.8 180.0 C 162.3 178.3 164.0 181.1 166.0 181.9 C 165.8 182.1 165.5 182.6 165.3 182.9 C 163.5 181.9 161.7 180.9 159.8 180.0 Z" />
<path fill="#ffffff" stroke="#ffffff" stroke-width="0.09375" opacity="1.00" d=" M 186.2 181.1 C 189.1 179.5 186.4 184.4 186.2 181.1 Z" />
<path fill="#ffffff" stroke="#ffffff" stroke-width="0.09375" opacity="1.00" d=" M 166.5 183.7 C 168.2 182.7 169.3 183.9 170.3 185.2 C 170.9 185.3 171.9 185.4 172.5 185.4 C 177.2 187.7 181.6 190.7 186.5 192.8 C 188.1 193.8 189.8 194.8 191.5 195.6 C 192.7 196.6 194.1 197.4 195.4 198.2 C 197.4 199.1 199.5 200.1 201.4 201.2 C 202.6 201.7 203.9 202.2 205.1 202.6 C 206.6 204.7 209.4 204.8 211.4 206.0 C 212.5 206.6 213.5 207.3 214.5 208.1 C 215.3 208.3 217.1 208.8 217.9 209.0 C 217.1 209.6 216.4 210.3 215.6 210.9 L 215.3 209.8 C 213.7 209.7 212.5 208.9 211.8 207.4 C 211.6 207.5 211.1 207.7 210.9 207.8 C 208.8 204.7 204.5 204.4 201.5 202.3 C 200.1 201.6 198.8 201.0 197.4 200.4 C 195.5 199.2 193.6 198.0 191.6 196.9 C 189.9 195.9 188.3 194.8 186.6 193.9 C 184.0 193.0 182.0 191.0 179.4 190.3 C 178.1 189.6 176.8 188.7 175.6 187.8 C 175.1 187.7 174.2 187.6 173.7 187.5 C 171.3 186.2 168.9 185.0 166.5 183.7 Z" />
<path fill="#ffffff" stroke="#ffffff" stroke-width="0.09375" opacity="1.00" d=" M 161.2 185.2 C 161.9 185.7 161.9 185.7 161.2 185.2 Z" />
<path fill="#ffffff" stroke="#ffffff" stroke-width="0.09375" opacity="1.00" d=" M 241.6 196.7 C 243.1 198.2 245.4 200.2 244.6 202.5 C 242.0 203.6 239.0 203.2 236.3 202.6 C 238.6 202.4 240.9 202.2 243.2 202.0 C 242.9 200.8 242.7 199.6 242.4 198.3 L 241.0 198.9 C 241.1 198.3 241.4 197.3 241.6 196.7 Z" />
<path fill="#ffffff" stroke="#ffffff" stroke-width="0.09375" opacity="1.00" d=" M 162.2 198.2 C 162.8 198.8 162.8 198.8 162.2 198.2 Z" />
<path fill="#ffffff" stroke="#ffffff" stroke-width="0.09375" opacity="1.00" d=" M 178.2 206.3 C 178.9 206.8 178.9 206.8 178.2 206.3 Z" />
<path fill="#ffffff" stroke="#ffffff" stroke-width="0.09375" opacity="1.00" d=" M 218.5 212.0 C 218.6 211.2 218.8 209.8 218.9 209.1 L 219.7 211.0 C 225.7 212.0 230.6 216.0 236.3 217.9 C 240.0 219.7 244.0 220.8 247.5 222.9 C 247.9 223.0 248.9 223.3 249.4 223.4 C 251.9 224.6 254.5 225.2 257.3 225.5 C 257.7 225.1 258.5 224.2 259.0 223.8 C 259.6 224.6 260.3 225.3 261.0 226.1 C 260.7 226.9 259.9 228.3 259.6 229.1 C 257.7 228.8 255.9 228.6 254.0 228.4 L 254.4 227.9 C 251.3 227.1 248.5 225.2 245.2 225.3 C 245.3 224.9 245.6 224.1 245.7 223.7 C 243.6 223.4 241.1 223.9 239.8 221.9 C 238.7 221.4 237.6 220.9 236.5 220.4 C 235.2 219.6 233.8 218.8 232.5 218.0 C 232.1 217.9 231.1 217.6 230.7 217.5 C 226.7 215.4 222.7 213.4 218.5 212.0 Z" />
<path fill="#ffffff" stroke="#ffffff" stroke-width="0.09375" opacity="1.00" d=" M 190.6 248.2 C 191.7 247.3 192.4 247.6 192.7 249.1 C 191.5 249.9 190.8 249.6 190.6 248.2 Z" />
</svg>
